<svg width="244" height="455" viewBox="0 0 244 455" fill="none" xmlns="http://www.w3.org/2000/svg">
<mask id="mask0_521_2167" style="mask-type:alpha" maskUnits="userSpaceOnUse" x="0" y="0" width="244" height="455">
<rect x="0.496094" width="243.386" height="454.3" fill="#F7F7F7"/>
</mask>
<g mask="url(#mask0_521_2167)">
<g filter="url(#filter0_d_521_2167)">
<rect x="24.4414" y="13.6909" width="196.663" height="426.916" rx="14.9293" fill="white"/>
<rect x="22.0421" y="11.2916" width="201.461" height="431.715" rx="17.3286" stroke="url(#paint0_linear_521_2167)" stroke-opacity="0.1" stroke-width="4.7987"/>
<rect x="22.0421" y="11.2916" width="201.461" height="431.715" rx="17.3286" stroke="url(#paint1_linear_521_2167)" stroke-opacity="0.1" stroke-width="4.7987"/>
<rect x="22.0421" y="11.2916" width="201.461" height="431.715" rx="17.3286" stroke="url(#paint2_linear_521_2167)" stroke-opacity="0.1" stroke-width="4.7987"/>
<rect x="22.0421" y="11.2916" width="201.461" height="431.715" rx="17.3286" stroke="white" stroke-opacity="0.2" stroke-width="4.7987"/>
</g>
<rect opacity="0.4" x="21.9336" y="11.2036" width="201.64" height="431.895" rx="17.062" stroke="url(#paint3_linear_521_2167)" stroke-width="0.533188"/>
<rect opacity="0.4" width="201.64" height="431.895" rx="17.062" transform="matrix(-1 0 0 1 223.574 11.2021)" stroke="url(#paint4_linear_521_2167)" stroke-width="0.533188"/>
<rect opacity="0.4" x="223.574" y="443.1" width="201.64" height="431.895" rx="17.062" transform="rotate(180 223.574 443.1)" stroke="url(#paint5_linear_521_2167)" stroke-width="0.533188"/>
<rect opacity="0.4" width="201.64" height="431.895" rx="17.062" transform="matrix(1 0 0 -1 21.9336 443.1)" stroke="url(#paint6_linear_521_2167)" stroke-width="0.533188"/>
<g filter="url(#filter1_i_521_2167)">
<path d="M39.3707 13.9575H206.175C214.273 13.9575 220.837 20.5222 220.837 28.6202V425.678C220.837 433.776 214.273 440.341 206.175 440.341H39.3707C31.2727 440.341 24.708 433.776 24.708 425.678V28.6202C24.708 20.5222 31.2727 13.9575 39.3707 13.9575Z" stroke="white" stroke-opacity="0.1" stroke-width="0.533188"/>
</g>
</g>
<rect x="35.2617" y="254.262" width="174.317" height="29.2277" rx="2.35563" fill="#47FAC6"/>
<rect x="35.2617" y="254.262" width="174.317" height="29.2277" rx="2.35563" stroke="#47FAC6" stroke-width="0.523474"/>
<path d="M87.1642 271.375V265.513H89.5178C90.1264 265.513 90.5898 265.655 90.9081 265.94C91.232 266.219 91.3939 266.579 91.3939 267.02C91.3939 267.389 91.2934 267.685 91.0924 267.908C90.8969 268.126 90.6568 268.274 90.3721 268.352C90.7071 268.419 90.9835 268.586 91.2012 268.854C91.419 269.117 91.5279 269.424 91.5279 269.776C91.5279 270.239 91.3604 270.622 91.0254 270.923C90.6903 271.225 90.2157 271.375 89.6015 271.375H87.1642ZM88.2363 267.975H89.3586C89.6601 267.975 89.8919 267.905 90.0538 267.766C90.2157 267.626 90.2967 267.428 90.2967 267.171C90.2967 266.925 90.2157 266.733 90.0538 266.593C89.8974 266.448 89.6601 266.375 89.3419 266.375H88.2363V267.975ZM88.2363 270.504H89.434C89.7523 270.504 89.998 270.432 90.171 270.287C90.3497 270.136 90.4391 269.927 90.4391 269.658C90.4391 269.385 90.3469 269.17 90.1627 269.014C89.9784 268.857 89.7299 268.779 89.4172 268.779H88.2363V270.504ZM93.9808 271.476C93.4615 271.476 93.0594 271.314 92.7747 270.99C92.4955 270.666 92.3559 270.192 92.3559 269.566V267.221H93.4196V269.466C93.4196 269.823 93.4922 270.097 93.6374 270.287C93.7825 270.477 94.0115 270.571 94.3242 270.571C94.6201 270.571 94.863 270.465 95.0528 270.253C95.2483 270.041 95.346 269.745 95.346 269.365V267.221H96.4181V271.375H95.4716L95.3879 270.672C95.2594 270.918 95.0724 271.113 94.8267 271.258C94.5866 271.403 94.3046 271.476 93.9808 271.476ZM98.0379 273.218L99.0011 271.099H98.7498L97.1333 267.221H98.2975L99.4617 270.144L100.676 267.221H101.815L99.177 273.218H98.0379ZM105.944 271.476C105.587 271.476 105.294 271.42 105.065 271.308C104.836 271.191 104.665 271.038 104.554 270.848C104.442 270.658 104.386 270.449 104.386 270.22C104.386 269.834 104.537 269.522 104.839 269.282C105.14 269.041 105.592 268.921 106.195 268.921H107.251V268.821C107.251 268.536 107.17 268.327 107.008 268.193C106.846 268.059 106.645 267.992 106.405 267.992C106.187 267.992 105.997 268.045 105.835 268.151C105.673 268.251 105.573 268.402 105.534 268.603H104.487C104.515 268.302 104.615 268.039 104.788 267.816C104.967 267.593 105.196 267.422 105.475 267.305C105.754 267.182 106.067 267.121 106.413 267.121C107.005 267.121 107.471 267.269 107.812 267.565C108.152 267.861 108.323 268.279 108.323 268.821V271.375H107.41L107.309 270.705C107.186 270.929 107.013 271.113 106.79 271.258C106.572 271.403 106.29 271.476 105.944 271.476ZM106.187 270.638C106.494 270.638 106.731 270.538 106.899 270.337C107.072 270.136 107.181 269.887 107.226 269.591H106.313C106.028 269.591 105.824 269.645 105.701 269.751C105.578 269.851 105.517 269.977 105.517 270.128C105.517 270.289 105.578 270.415 105.701 270.504C105.824 270.594 105.986 270.638 106.187 270.638ZM111.14 271.375C110.704 271.375 110.355 271.269 110.093 271.057C109.83 270.845 109.699 270.468 109.699 269.927V268.117H108.987V267.221H109.699L109.825 266.107H110.771V267.221H111.893V268.117H110.771V269.935C110.771 270.136 110.813 270.275 110.897 270.354C110.986 270.426 111.137 270.463 111.349 270.463H111.868V271.375H111.14ZM116.351 271.375V269.29L114.382 265.513H115.597L116.895 268.218L118.185 265.513H119.383L117.423 269.29V271.375H116.351ZM121.293 271.476C120.891 271.476 120.528 271.384 120.205 271.2C119.886 271.015 119.632 270.761 119.442 270.437C119.258 270.108 119.166 269.728 119.166 269.298C119.166 268.868 119.261 268.491 119.451 268.168C119.641 267.838 119.895 267.581 120.213 267.397C120.537 267.213 120.9 267.121 121.302 267.121C121.698 267.121 122.056 267.213 122.374 267.397C122.698 267.581 122.952 267.838 123.136 268.168C123.326 268.491 123.421 268.868 123.421 269.298C123.421 269.728 123.326 270.108 123.136 270.437C122.952 270.761 122.698 271.015 122.374 271.2C122.05 271.384 121.69 271.476 121.293 271.476ZM121.293 270.546C121.573 270.546 121.815 270.443 122.022 270.236C122.229 270.024 122.332 269.712 122.332 269.298C122.332 268.885 122.229 268.575 122.022 268.369C121.815 268.156 121.575 268.05 121.302 268.05C121.017 268.05 120.771 268.156 120.565 268.369C120.364 268.575 120.263 268.885 120.263 269.298C120.263 269.712 120.364 270.024 120.565 270.236C120.771 270.443 121.014 270.546 121.293 270.546ZM125.937 271.476C125.418 271.476 125.016 271.314 124.731 270.99C124.452 270.666 124.312 270.192 124.312 269.566V267.221H125.376V269.466C125.376 269.823 125.449 270.097 125.594 270.287C125.739 270.477 125.968 270.571 126.281 270.571C126.577 270.571 126.819 270.465 127.009 270.253C127.205 270.041 127.302 269.745 127.302 269.365V267.221H128.375V271.375H127.428L127.344 270.672C127.216 270.918 127.029 271.113 126.783 271.258C126.543 271.403 126.261 271.476 125.937 271.476ZM129.475 271.375V267.221H130.43L130.53 268C130.681 267.732 130.885 267.52 131.142 267.364C131.404 267.202 131.711 267.121 132.063 267.121V268.251H131.762C131.527 268.251 131.318 268.288 131.133 268.36C130.949 268.433 130.804 268.559 130.698 268.737C130.597 268.916 130.547 269.164 130.547 269.483V271.375H129.475ZM134.817 271.375V265.513H137.17C137.779 265.513 138.242 265.655 138.561 265.94C138.884 266.219 139.046 266.579 139.046 267.02C139.046 267.389 138.946 267.685 138.745 267.908C138.549 268.126 138.309 268.274 138.025 268.352C138.36 268.419 138.636 268.586 138.854 268.854C139.071 269.117 139.18 269.424 139.18 269.776C139.18 270.239 139.013 270.622 138.678 270.923C138.343 271.225 137.868 271.375 137.254 271.375H134.817ZM135.889 267.975H137.011C137.313 267.975 137.544 267.905 137.706 267.766C137.868 267.626 137.949 267.428 137.949 267.171C137.949 266.925 137.868 266.733 137.706 266.593C137.55 266.448 137.313 266.375 136.994 266.375H135.889V267.975ZM135.889 270.504H137.086C137.405 270.504 137.65 270.432 137.824 270.287C138.002 270.136 138.092 269.927 138.092 269.658C138.092 269.385 137.999 269.17 137.815 269.014C137.631 268.857 137.382 268.779 137.07 268.779H135.889V270.504ZM140.075 271.375V267.221H141.03L141.131 268C141.281 267.732 141.485 267.52 141.742 267.364C142.005 267.202 142.312 267.121 142.663 267.121V268.251H142.362C142.127 268.251 141.918 268.288 141.734 268.36C141.549 268.433 141.404 268.559 141.298 268.737C141.198 268.916 141.147 269.164 141.147 269.483V271.375H140.075ZM144.828 271.476C144.471 271.476 144.178 271.42 143.949 271.308C143.72 271.191 143.55 271.038 143.438 270.848C143.326 270.658 143.271 270.449 143.271 270.22C143.271 269.834 143.421 269.522 143.723 269.282C144.024 269.041 144.477 268.921 145.08 268.921H146.135V268.821C146.135 268.536 146.054 268.327 145.892 268.193C145.73 268.059 145.529 267.992 145.289 267.992C145.071 267.992 144.881 268.045 144.72 268.151C144.558 268.251 144.457 268.402 144.418 268.603H143.371C143.399 268.302 143.499 268.039 143.673 267.816C143.851 267.593 144.08 267.422 144.359 267.305C144.639 267.182 144.951 267.121 145.297 267.121C145.889 267.121 146.356 267.269 146.696 267.565C147.037 267.861 147.207 268.279 147.207 268.821V271.375H146.294L146.194 270.705C146.071 270.929 145.898 271.113 145.674 271.258C145.457 271.403 145.175 271.476 144.828 271.476ZM145.071 270.638C145.378 270.638 145.616 270.538 145.783 270.337C145.956 270.136 146.065 269.887 146.11 269.591H145.197C144.912 269.591 144.708 269.645 144.586 269.751C144.463 269.851 144.401 269.977 144.401 270.128C144.401 270.289 144.463 270.415 144.586 270.504C144.708 270.594 144.87 270.638 145.071 270.638ZM148.23 271.375V267.221H149.177L149.26 267.925C149.389 267.679 149.573 267.484 149.813 267.338C150.059 267.193 150.346 267.121 150.676 267.121C151.19 267.121 151.589 267.283 151.874 267.606C152.158 267.93 152.301 268.405 152.301 269.03V271.375H151.229V269.131C151.229 268.773 151.156 268.5 151.011 268.31C150.866 268.12 150.64 268.025 150.332 268.025C150.031 268.025 149.782 268.131 149.587 268.344C149.397 268.556 149.302 268.852 149.302 269.231V271.375H148.23ZM155.235 271.476C154.845 271.476 154.496 271.381 154.189 271.191C153.881 271.001 153.639 270.742 153.46 270.412C153.281 270.083 153.192 269.709 153.192 269.29C153.192 268.871 153.281 268.5 153.46 268.176C153.639 267.847 153.881 267.59 154.189 267.405C154.496 267.216 154.845 267.121 155.235 267.121C155.548 267.121 155.822 267.179 156.056 267.297C156.291 267.414 156.481 267.579 156.626 267.791V265.345H157.698V271.375H156.743L156.626 270.781C156.492 270.965 156.313 271.127 156.09 271.267C155.872 271.406 155.587 271.476 155.235 271.476ZM155.462 270.538C155.808 270.538 156.09 270.423 156.308 270.195C156.531 269.96 156.643 269.661 156.643 269.298C156.643 268.935 156.531 268.639 156.308 268.411C156.09 268.176 155.808 268.059 155.462 268.059C155.121 268.059 154.839 268.173 154.616 268.402C154.392 268.631 154.281 268.927 154.281 269.29C154.281 269.653 154.392 269.952 154.616 270.186C154.839 270.421 155.121 270.538 155.462 270.538Z" fill="#080821"/>
<rect x="38.0703" y="173.378" width="80.5832" height="60.817" fill="#F2F2F2"/>
<rect x="33" y="51.2368" width="14.6976" height="1.63286" fill="#080821"/>
<rect x="33" y="55.1572" width="14.6976" height="1.63286" fill="#080821"/>
<rect x="33" y="59.0757" width="14.6976" height="1.63286" fill="#080821"/>
<rect x="126.787" y="173.378" width="80.5832" height="11.6566" fill="#F2F2F2"/>
<rect x="38.0703" y="145.503" width="169.275" height="11.6566" fill="#F2F2F2"/>
<rect x="38.0703" y="126.751" width="169.275" height="11.6566" fill="#F2F2F2"/>
<rect x="38.0703" y="107.999" width="169.275" height="11.6566" fill="#F2F2F2"/>
<rect x="38.0703" y="89.2471" width="169.275" height="11.6566" fill="#F2F2F2"/>
<rect x="126.787" y="192.13" width="80.5832" height="11.6566" fill="#F2F2F2"/>
<rect x="126.787" y="210.881" width="80.5832" height="11.6566" fill="#F2F2F2"/>
<rect x="173.568" y="48.3696" width="38.8504" height="13.9264" rx="1.56389" fill="#EA0606"/>
<rect x="173.568" y="48.3696" width="38.8504" height="13.9264" rx="1.56389" stroke="#EA0606" stroke-width="0.347531"/>
<path d="M181.09 56.8997C180.805 56.8997 180.553 56.8515 180.334 56.7552C180.116 56.6551 179.943 56.5142 179.817 56.3326C179.691 56.1472 179.626 55.9229 179.623 55.6597H180.373C180.381 55.8414 180.445 55.9952 180.568 56.1213C180.694 56.2436 180.866 56.3048 181.085 56.3048C181.274 56.3048 181.424 56.2603 181.535 56.1713C181.647 56.0786 181.702 55.9563 181.702 55.8043C181.702 55.6449 181.652 55.5207 181.552 55.4318C181.456 55.3428 181.326 55.2705 181.163 55.2149C181 55.1593 180.825 55.1 180.64 55.037C180.34 54.9332 180.11 54.7997 179.951 54.6366C179.795 54.4735 179.717 54.2566 179.717 53.986C179.713 53.7562 179.767 53.5597 179.878 53.3966C179.993 53.2298 180.149 53.1019 180.345 53.0129C180.542 52.9203 180.768 52.8739 181.024 52.8739C181.283 52.8739 181.511 52.9203 181.708 53.0129C181.908 53.1056 182.064 53.2354 182.175 53.4022C182.29 53.569 182.351 53.7673 182.358 53.9972H181.596C181.593 53.86 181.539 53.7395 181.435 53.6357C181.335 53.5282 181.194 53.4745 181.013 53.4745C180.857 53.4708 180.725 53.5097 180.618 53.5912C180.514 53.6691 180.462 53.784 180.462 53.936C180.462 54.0657 180.503 54.1695 180.584 54.2474C180.666 54.3215 180.777 54.3845 180.918 54.4364C181.059 54.4883 181.22 54.5439 181.402 54.6032C181.595 54.67 181.771 54.7478 181.93 54.8368C182.09 54.9258 182.217 55.0444 182.314 55.1927C182.41 55.3372 182.458 55.5244 182.458 55.7543C182.458 55.9582 182.406 56.1472 182.303 56.3214C182.199 56.4957 182.045 56.6365 181.841 56.744C181.637 56.8478 181.387 56.8997 181.09 56.8997ZM184.097 56.8997C183.752 56.8997 183.485 56.7922 183.296 56.5772C183.111 56.3622 183.018 56.0471 183.018 55.6319V54.075H183.724V55.5652C183.724 55.8025 183.773 55.9841 183.869 56.1101C183.965 56.2362 184.117 56.2992 184.325 56.2992C184.521 56.2992 184.683 56.2288 184.809 56.0879C184.938 55.947 185.003 55.7506 185.003 55.4985V54.075H185.715V56.833H185.087L185.031 56.3659C184.946 56.529 184.822 56.6588 184.659 56.7552C184.499 56.8515 184.312 56.8997 184.097 56.8997ZM188.08 56.8997C187.873 56.8997 187.691 56.8608 187.536 56.783C187.38 56.7051 187.254 56.5958 187.157 56.4549L187.08 56.833H186.446V52.8294H187.157V54.4698C187.246 54.3475 187.363 54.24 187.508 54.1473C187.656 54.0546 187.847 54.0083 188.08 54.0083C188.34 54.0083 188.572 54.0713 188.776 54.1973C188.979 54.3234 189.141 54.4957 189.259 54.7145C189.378 54.9332 189.437 55.1815 189.437 55.4596C189.437 55.7376 189.378 55.986 189.259 56.2047C189.141 56.4197 188.979 56.5902 188.776 56.7162C188.572 56.8386 188.34 56.8997 188.08 56.8997ZM187.93 56.277C188.156 56.277 188.344 56.201 188.492 56.049C188.64 55.897 188.714 55.7005 188.714 55.4596C188.714 55.2186 188.64 55.0203 188.492 54.8646C188.344 54.7089 188.156 54.631 187.93 54.631C187.7 54.631 187.511 54.7089 187.363 54.8646C187.219 55.0166 187.146 55.213 187.146 55.454C187.146 55.695 187.219 55.8933 187.363 56.049C187.511 56.201 187.7 56.277 187.93 56.277ZM191.213 56.8997C190.968 56.8997 190.753 56.8608 190.568 56.783C190.383 56.7014 190.234 56.5902 190.123 56.4493C190.012 56.3085 189.945 56.1454 189.923 55.96H190.64C190.662 56.0675 190.722 56.1602 190.818 56.238C190.918 56.3122 191.046 56.3492 191.202 56.3492C191.358 56.3492 191.471 56.3177 191.541 56.2547C191.615 56.1917 191.652 56.1194 191.652 56.0379C191.652 55.9192 191.6 55.8395 191.497 55.7988C191.393 55.7543 191.248 55.7116 191.063 55.6709C190.944 55.6449 190.824 55.6134 190.701 55.5763C190.579 55.5393 190.466 55.4929 190.362 55.4373C190.262 55.378 190.181 55.3039 190.118 55.2149C190.054 55.1222 190.023 55.0092 190.023 54.8757C190.023 54.631 190.119 54.4253 190.312 54.2585C190.509 54.0917 190.783 54.0083 191.135 54.0083C191.461 54.0083 191.721 54.0843 191.914 54.2363C192.11 54.3882 192.227 54.5977 192.264 54.8646H191.591C191.55 54.6607 191.396 54.5588 191.13 54.5588C190.996 54.5588 190.892 54.5847 190.818 54.6366C190.748 54.6885 190.712 54.7534 190.712 54.8312C190.712 54.9128 190.766 54.9777 190.874 55.0258C190.981 55.074 191.124 55.1185 191.302 55.1593C191.495 55.2038 191.671 55.2538 191.83 55.3094C191.993 55.3613 192.123 55.441 192.219 55.5485C192.316 55.6523 192.364 55.8025 192.364 55.9989C192.368 56.1695 192.323 56.3233 192.231 56.4605C192.138 56.5976 192.004 56.7051 191.83 56.783C191.656 56.8608 191.45 56.8997 191.213 56.8997ZM194.346 56.8997C194.064 56.8997 193.816 56.8386 193.601 56.7162C193.386 56.5939 193.215 56.4234 193.089 56.2047C192.967 55.986 192.905 55.7357 192.905 55.454C192.905 55.1723 192.967 54.922 193.089 54.7033C193.215 54.4846 193.386 54.3141 193.601 54.1918C193.816 54.0694 194.064 54.0083 194.346 54.0083C194.698 54.0083 194.994 54.1009 195.235 54.2863C195.476 54.4679 195.63 54.72 195.697 55.0425H194.946C194.909 54.9091 194.835 54.8053 194.724 54.7311C194.616 54.6533 194.488 54.6144 194.34 54.6144C194.144 54.6144 193.977 54.6885 193.84 54.8368C193.703 54.9851 193.634 55.1908 193.634 55.454C193.634 55.7172 193.703 55.9229 193.84 56.0712C193.977 56.2195 194.144 56.2936 194.34 56.2936C194.488 56.2936 194.616 56.2566 194.724 56.1824C194.835 56.1083 194.909 56.0026 194.946 55.8655H195.697C195.63 56.1769 195.476 56.4271 195.235 56.6161C194.994 56.8052 194.698 56.8997 194.346 56.8997ZM196.329 56.833V54.075H196.962L197.029 54.5921C197.129 54.4142 197.265 54.2733 197.435 54.1695C197.609 54.062 197.813 54.0083 198.047 54.0083V54.7589H197.847C197.691 54.7589 197.552 54.783 197.43 54.8312C197.307 54.8794 197.211 54.9628 197.14 55.0814C197.074 55.2001 197.04 55.365 197.04 55.5763V56.833H196.329ZM198.917 53.6468C198.787 53.6468 198.68 53.6079 198.594 53.5301C198.513 53.4522 198.472 53.354 198.472 53.2354C198.472 53.1167 198.513 53.0204 198.594 52.9462C198.68 52.8684 198.787 52.8294 198.917 52.8294C199.047 52.8294 199.152 52.8684 199.234 52.9462C199.319 53.0204 199.362 53.1167 199.362 53.2354C199.362 53.354 199.319 53.4522 199.234 53.5301C199.152 53.6079 199.047 53.6468 198.917 53.6468ZM198.561 56.833V54.075H199.273V56.833H198.561ZM201.65 56.8997C201.443 56.8997 201.261 56.8608 201.106 56.783C200.95 56.7051 200.824 56.5958 200.727 56.4549L200.65 56.833H200.016V52.8294H200.727V54.4698C200.816 54.3475 200.933 54.24 201.078 54.1473C201.226 54.0546 201.417 54.0083 201.65 54.0083C201.91 54.0083 202.142 54.0713 202.346 54.1973C202.549 54.3234 202.711 54.4957 202.829 54.7145C202.948 54.9332 203.007 55.1815 203.007 55.4596C203.007 55.7376 202.948 55.986 202.829 56.2047C202.711 56.4197 202.549 56.5902 202.346 56.7162C202.142 56.8386 201.91 56.8997 201.65 56.8997ZM201.5 56.277C201.726 56.277 201.914 56.201 202.062 56.049C202.21 55.897 202.284 55.7005 202.284 55.4596C202.284 55.2186 202.21 55.0203 202.062 54.8646C201.914 54.7089 201.726 54.631 201.5 54.631C201.271 54.631 201.081 54.7089 200.933 54.8646C200.789 55.0166 200.716 55.213 200.716 55.454C200.716 55.695 200.789 55.8933 200.933 56.049C201.081 56.201 201.271 56.277 201.5 56.277ZM204.983 56.8997C204.705 56.8997 204.459 56.8404 204.244 56.7218C204.029 56.6032 203.86 56.4364 203.738 56.2214C203.615 56.0063 203.554 55.758 203.554 55.4762C203.554 55.1908 203.613 54.9369 203.732 54.7145C203.854 54.492 204.021 54.3197 204.232 54.1973C204.447 54.0713 204.7 54.0083 204.989 54.0083C205.259 54.0083 205.498 54.0676 205.706 54.1862C205.914 54.3048 206.075 54.4679 206.19 54.6755C206.308 54.8794 206.368 55.1074 206.368 55.3595C206.368 55.4003 206.366 55.4429 206.362 55.4874C206.362 55.5319 206.36 55.5782 206.357 55.6264H204.26C204.275 55.8414 204.349 56.0101 204.483 56.1324C204.62 56.2547 204.785 56.3159 204.978 56.3159C205.122 56.3159 205.243 56.2844 205.339 56.2214C205.439 56.1546 205.513 56.0694 205.561 55.9656H206.284C206.232 56.1398 206.145 56.2992 206.023 56.4438C205.904 56.5846 205.756 56.6958 205.578 56.7774C205.404 56.859 205.206 56.8997 204.983 56.8997ZM204.989 54.5866C204.814 54.5866 204.661 54.6366 204.527 54.7367C204.394 54.8331 204.308 54.9814 204.271 55.1815H205.645C205.634 54.9999 205.567 54.8553 205.445 54.7478C205.322 54.6403 205.17 54.5866 204.989 54.5866Z" fill="white"/>
<g filter="url(#filter2_dd_521_2167)">
<path d="M84.2443 62H81.544V49.2649H86.4702C87.0905 49.2649 87.644 49.3622 88.1305 49.5568C88.617 49.7392 89.0245 50.0068 89.3529 50.3596C89.6935 50.7123 89.9489 51.138 90.1192 51.6367C90.2895 52.1354 90.3747 52.695 90.3747 53.3153C90.3747 54.2154 90.18 54.9878 89.7908 55.6324C89.4016 56.2771 88.8481 56.7028 88.1305 56.9096L90.6301 62H87.6379L85.5032 57.2745H84.2443V62ZM85.8134 55.1581C86.458 55.1581 86.902 55.0364 87.1453 54.7932C87.4007 54.5499 87.5284 54.1485 87.5284 53.589V53.0416C87.5284 52.4821 87.4007 52.0807 87.1453 51.8374C86.902 51.5942 86.458 51.4725 85.8134 51.4725H84.2443V55.1581H85.8134ZM92.5569 62V49.2649H100.694V51.509H95.2937V54.4283H100.512V56.6724H95.2937V59.7558H100.694V62H92.5569ZM105.577 62L102.202 49.2649H105.248L106.745 55.7419L107.493 59.4092H107.639L108.405 55.7419L109.919 49.2649H112.82L109.445 62H105.577ZM114.346 62V59.9748H117.082V51.2901H114.346V49.2649H122.556V51.2901H119.819V59.9748H122.556V62H114.346ZM125.377 62V49.2649H133.514V51.509H128.114V54.4283H133.332V56.6724H128.114V59.7558H133.514V62H125.377ZM135.842 62L135.058 49.2649H137.412L137.776 56.8914L137.886 59.2997H138.05L139.145 52.0381H141.608L142.703 59.2997H142.867L142.976 56.9643L143.341 49.2649H145.604L144.819 62H141.353L140.422 54.9756H140.24L139.309 62H135.842ZM151.07 62.2189C150 62.2189 149.069 62.0426 148.279 61.6898C147.488 61.3371 146.849 60.8566 146.363 60.2485L147.95 58.4969C148.412 59.0078 148.917 59.3849 149.464 59.6281C150.024 59.8714 150.59 59.993 151.161 59.993C151.818 59.993 152.317 59.8471 152.657 59.5551C152.998 59.2632 153.168 58.8436 153.168 58.2962C153.168 57.8462 153.034 57.5056 152.767 57.2745C152.511 57.0434 152.074 56.8792 151.453 56.7819L150.121 56.5629C148.978 56.3683 148.151 55.9487 147.64 55.304C147.129 54.6472 146.874 53.8505 146.874 52.9139C146.874 51.6854 147.275 50.7366 148.078 50.0677C148.881 49.3865 150.006 49.0459 151.453 49.0459C152.438 49.0459 153.296 49.198 154.026 49.5021C154.756 49.8061 155.346 50.2197 155.796 50.7427L154.245 52.476C153.904 52.099 153.503 51.807 153.041 51.6003C152.578 51.3813 152.055 51.2718 151.471 51.2718C150.243 51.2718 149.629 51.7766 149.629 52.7862C149.629 53.2241 149.762 53.5525 150.03 53.7714C150.31 53.9904 150.76 54.1546 151.38 54.264L152.712 54.5012C153.746 54.6837 154.543 55.0729 155.102 55.6689C155.662 56.2649 155.942 57.0677 155.942 58.0773C155.942 58.6733 155.838 59.2267 155.631 59.7376C155.425 60.2363 155.114 60.6742 154.701 61.0513C154.287 61.4162 153.776 61.702 153.168 61.9088C152.572 62.1156 151.873 62.2189 151.07 62.2189Z" fill="white"/>
</g>
<defs>
<filter id="filter0_d_521_2167" x="18.043" y="8.6255" width="209.459" height="439.713" filterUnits="userSpaceOnUse" color-interpolation-filters="sRGB">
<feFlood flood-opacity="0" result="BackgroundImageFix"/>
<feColorMatrix in="SourceAlpha" type="matrix" values="0 0 0 0 0 0 0 0 0 0 0 0 0 0 0 0 0 0 127 0" result="hardAlpha"/>
<feMorphology radius="0.533188" operator="erode" in="SourceAlpha" result="effect1_dropShadow_521_2167"/>
<feOffset dy="1.33297"/>
<feGaussianBlur stdDeviation="1.06638"/>
<feComposite in2="hardAlpha" operator="out"/>
<feColorMatrix type="matrix" values="0 0 0 0 0.0313726 0 0 0 0 0.0313726 0 0 0 0 0.129412 0 0 0 0.15 0"/>
<feBlend mode="normal" in2="BackgroundImageFix" result="effect1_dropShadow_521_2167"/>
<feBlend mode="normal" in="SourceGraphic" in2="effect1_dropShadow_521_2167" result="shape"/>
</filter>
<filter id="filter1_i_521_2167" x="24.4414" y="13.6909" width="196.662" height="426.917" filterUnits="userSpaceOnUse" color-interpolation-filters="sRGB">
<feFlood flood-opacity="0" result="BackgroundImageFix"/>
<feBlend mode="normal" in="SourceGraphic" in2="BackgroundImageFix" result="shape"/>
<feColorMatrix in="SourceAlpha" type="matrix" values="0 0 0 0 0 0 0 0 0 0 0 0 0 0 0 0 0 0 127 0" result="hardAlpha"/>
<feOffset/>
<feGaussianBlur stdDeviation="2.13275"/>
<feComposite in2="hardAlpha" operator="arithmetic" k2="-1" k3="1"/>
<feColorMatrix type="matrix" values="0 0 0 0 0.0313726 0 0 0 0 0.0313726 0 0 0 0 0.129412 0 0 0 0.06 0"/>
<feBlend mode="normal" in2="shape" result="effect1_innerShadow_521_2167"/>
</filter>
<filter id="filter2_dd_521_2167" x="79.5177" y="46.005" width="78.451" height="19.2546" filterUnits="userSpaceOnUse" color-interpolation-filters="sRGB">
<feFlood flood-opacity="0" result="BackgroundImageFix"/>
<feColorMatrix in="SourceAlpha" type="matrix" values="0 0 0 0 0 0 0 0 0 0 0 0 0 0 0 0 0 0 127 0" result="hardAlpha"/>
<feOffset dy="1.01362"/>
<feGaussianBlur stdDeviation="1.01362"/>
<feComposite in2="hardAlpha" operator="out"/>
<feColorMatrix type="matrix" values="0 0 0 0 1 0 0 0 0 0 0 0 0 0 0 0 0 0 1 0"/>
<feBlend mode="normal" in2="BackgroundImageFix" result="effect1_dropShadow_521_2167"/>
<feColorMatrix in="SourceAlpha" type="matrix" values="0 0 0 0 0 0 0 0 0 0 0 0 0 0 0 0 0 0 127 0" result="hardAlpha"/>
<feOffset dy="-1.01362"/>
<feGaussianBlur stdDeviation="1.01362"/>
<feComposite in2="hardAlpha" operator="out"/>
<feColorMatrix type="matrix" values="0 0 0 0 1 0 0 0 0 0 0 0 0 0 0 0 0 0 1 0"/>
<feBlend mode="normal" in2="effect1_dropShadow_521_2167" result="effect2_dropShadow_521_2167"/>
<feBlend mode="normal" in="SourceGraphic" in2="effect2_dropShadow_521_2167" result="shape"/>
</filter>
<linearGradient id="paint0_linear_521_2167" x1="104.306" y1="528.471" x2="198.343" y2="301.387" gradientUnits="userSpaceOnUse">
<stop stop-color="#080821" stop-opacity="0.9"/>
<stop offset="1" stop-color="white" stop-opacity="0"/>
</linearGradient>
<linearGradient id="paint1_linear_521_2167" x1="85.5987" y1="-76.7575" x2="215.433" y2="-38.552" gradientUnits="userSpaceOnUse">
<stop stop-color="#080821" stop-opacity="0.9"/>
<stop offset="1" stop-color="white" stop-opacity="0"/>
</linearGradient>
<linearGradient id="paint2_linear_521_2167" x1="173.977" y1="-88.1281" x2="59.3263" y2="-60.0281" gradientUnits="userSpaceOnUse">
<stop stop-color="#080821"/>
<stop offset="1" stop-color="white" stop-opacity="0"/>
</linearGradient>
<linearGradient id="paint3_linear_521_2167" x1="231.143" y1="-8.13496" x2="202" y2="-4.18774" gradientUnits="userSpaceOnUse">
<stop offset="0.581631" stop-color="white"/>
<stop offset="1" stop-color="white" stop-opacity="0"/>
</linearGradient>
<linearGradient id="paint4_linear_521_2167" x1="209.209" y1="-19.3386" x2="180.066" y2="-15.3914" gradientUnits="userSpaceOnUse">
<stop offset="0.581631" stop-color="white"/>
<stop offset="1" stop-color="white" stop-opacity="0"/>
</linearGradient>
<linearGradient id="paint5_linear_521_2167" x1="432.784" y1="423.761" x2="403.64" y2="427.708" gradientUnits="userSpaceOnUse">
<stop offset="0.581631" stop-color="white"/>
<stop offset="1" stop-color="white" stop-opacity="0"/>
</linearGradient>
<linearGradient id="paint6_linear_521_2167" x1="209.209" y1="-19.3386" x2="180.066" y2="-15.3914" gradientUnits="userSpaceOnUse">
<stop offset="0.581631" stop-color="white"/>
<stop offset="1" stop-color="white" stop-opacity="0"/>
</linearGradient>
</defs>
</svg>
