<svg width="329" height="174" viewBox="0 0 329 174" fill="none" xmlns="http://www.w3.org/2000/svg">
<g filter="url(#filter0_dd_9694_46355)">
<rect x="21.3984" y="6" width="286.4" height="130.4" rx="10.158" fill="white"/>
<rect x="18.8589" y="3.46049" width="291.479" height="135.479" rx="12.6975" stroke="url(#paint0_linear_9694_46355)" stroke-opacity="0.1" stroke-width="5.07902"/>
<rect x="18.8589" y="3.46049" width="291.479" height="135.479" rx="12.6975" stroke="url(#paint1_linear_9694_46355)" stroke-opacity="0.1" stroke-width="5.07902"/>
<rect x="18.8589" y="3.46049" width="291.479" height="135.479" rx="12.6975" stroke="url(#paint2_linear_9694_46355)" stroke-opacity="0.1" stroke-width="5.07902"/>
<rect x="18.8589" y="3.46049" width="291.479" height="135.479" rx="12.6975" stroke="white" stroke-opacity="0.5" stroke-width="5.07902"/>
<rect x="21.3984" y="6" width="286.4" height="130.4" rx="10.158" fill="white" fill-opacity="0.5"/>
<g filter="url(#filter1_i_9694_46355)">
<path d="M21.5387 16.158C21.5387 10.6254 26.0238 6.14027 31.5565 6.14027H297.64C303.173 6.14027 307.658 10.6254 307.658 16.158V126.242C307.658 131.775 303.173 136.26 297.64 136.26H31.5565C26.0238 136.26 21.5387 131.775 21.5387 126.242V16.158Z" stroke="white" stroke-opacity="0.1" stroke-width="0.280546"/>
</g>
<rect opacity="0.4" x="19" y="3.59998" width="291.2" height="136" rx="14.2212" stroke="url(#paint3_linear_9694_46355)" stroke-width="1.0158"/>
<rect opacity="0.4" width="292" height="135.2" rx="14.2212" transform="matrix(-1 0 0 1 311 4.40002)" stroke="url(#paint4_linear_9694_46355)" stroke-width="1.0158"/>
<rect opacity="0.4" x="311" y="139.6" width="292" height="135.2" rx="14.2212" transform="rotate(180 311 139.6)" stroke="url(#paint5_linear_9694_46355)" stroke-width="1.0158"/>
<rect opacity="0.4" width="292" height="135.2" rx="14.2212" transform="matrix(1 0 0 -1 19 139.6)" stroke="url(#paint6_linear_9694_46355)" stroke-width="1.0158"/>
</g>
<line x1="39.7969" y1="48" x2="290.997" y2="48" stroke="#AEABBC" stroke-opacity="0.5" stroke-width="0.8"/>
<line x1="83.2969" y1="19.6001" x2="83.2969" y2="35.6001" stroke="black"/>
<path d="M70.8461 23.0376V31.0001H69.7852L65.7766 24.8587V31.0001H64.7211V23.0376H65.7766L69.8016 29.1954V23.0376H70.8461ZM73.6625 25.0829V31.0001H72.6453V25.0829H73.6625ZM72.5687 23.5134C72.5687 23.3493 72.618 23.2108 72.7164 23.0978C72.8185 22.9848 72.968 22.9282 73.1648 22.9282C73.3581 22.9282 73.5057 22.9848 73.6078 23.0978C73.7135 23.2108 73.7664 23.3493 73.7664 23.5134C73.7664 23.6702 73.7135 23.8051 73.6078 23.9181C73.5057 24.0275 73.3581 24.0822 73.1648 24.0822C72.968 24.0822 72.8185 24.0275 72.7164 23.9181C72.618 23.8051 72.5687 23.6702 72.5687 23.5134ZM76.3039 22.6001V31.0001H75.2867V22.6001H76.3039ZM79.9187 25.0829L77.3375 27.8447L75.8937 29.3431L75.8117 28.2657L76.8453 27.0298L78.6828 25.0829H79.9187ZM78.9945 31.0001L76.8836 28.1782L77.4086 27.2759L80.1867 31.0001H78.9945Z" fill="#342D58"/>
<path d="M63.7969 32.0939H80.1922V32.6407H63.7969V32.0939Z" fill="#342D58"/>
<g clip-path="url(#clip0_9694_46355)">
<path d="M51.4276 30.5828C53.2419 28.073 53.02 24.5375 50.7615 22.2787C48.2564 19.7736 44.1807 19.7736 41.6756 22.2787C39.1706 24.7837 39.1706 28.8595 41.6756 31.3645C43.9342 33.623 47.4696 33.845 49.9797 32.0306L54.0495 36.1003C54.4494 36.5003 55.0977 36.5003 55.4973 36.1003C55.8973 35.7004 55.8973 35.0521 55.4973 34.6525L51.4276 30.5828ZM42.6248 30.4153C40.6433 28.4337 40.6433 25.2094 42.6248 23.2279C44.6064 21.2463 47.8307 21.2463 49.8122 23.2279C51.7938 25.2094 51.7938 28.4337 49.8122 30.4153C47.8307 32.3968 44.6064 32.3968 42.6248 30.4153Z" fill="#AEABBC"/>
</g>
<path d="M46.8461 61.2376V69.2001H45.7852L41.7766 63.0587V69.2001H40.7211V61.2376H41.7766L45.8016 67.3954V61.2376H46.8461ZM49.6625 63.2829V69.2001H48.6453V63.2829H49.6625ZM48.5687 61.7134C48.5687 61.5493 48.618 61.4108 48.7164 61.2977C48.8185 61.1847 48.968 61.1282 49.1648 61.1282C49.3581 61.1282 49.5057 61.1847 49.6078 61.2977C49.7135 61.4108 49.7664 61.5493 49.7664 61.7134C49.7664 61.8701 49.7135 62.005 49.6078 62.118C49.5057 62.2274 49.3581 62.2821 49.1648 62.2821C48.968 62.2821 48.8185 62.2274 48.7164 62.118C48.618 62.005 48.5687 61.8701 48.5687 61.7134ZM52.3039 60.8001V69.2001H51.2867V60.8001H52.3039ZM55.9187 63.2829L53.3375 66.0446L51.8937 67.543L51.8117 66.4657L52.8453 65.2298L54.6828 63.2829H55.9187ZM54.9945 69.2001L52.8836 66.3782L53.4086 65.4759L56.1867 69.2001H54.9945ZM59.3094 69.3094C58.8974 69.3094 58.5237 69.2402 58.1883 69.1016C57.8565 68.9594 57.5703 68.7608 57.3297 68.5055C57.0927 68.2503 56.9104 67.9477 56.7828 67.5977C56.6552 67.2477 56.5914 66.8649 56.5914 66.4493V66.2196C56.5914 65.7384 56.6625 65.31 56.8047 64.9344C56.9469 64.5553 57.1401 64.2344 57.3844 63.9719C57.6286 63.7094 57.9057 63.5108 58.2156 63.3759C58.5255 63.241 58.8464 63.1735 59.1781 63.1735C59.601 63.1735 59.9656 63.2464 60.2719 63.3923C60.5818 63.5381 60.8352 63.7423 61.032 64.0048C61.2289 64.2636 61.3747 64.5699 61.4695 64.9235C61.5643 65.2735 61.6117 65.6563 61.6117 66.0719V66.5259H57.193V65.7001H60.6V65.6235C60.5854 65.361 60.5307 65.1058 60.4359 64.8579C60.3448 64.61 60.199 64.4058 59.9984 64.2454C59.7979 64.085 59.5245 64.0048 59.1781 64.0048C58.9484 64.0048 58.737 64.054 58.5437 64.1524C58.3505 64.2472 58.1846 64.3894 58.0461 64.579C57.9076 64.7686 57.8 65.0001 57.7234 65.2735C57.6469 65.5469 57.6086 65.8623 57.6086 66.2196V66.4493C57.6086 66.73 57.6469 66.9943 57.7234 67.2423C57.8036 67.4865 57.9185 67.7016 58.068 67.8876C58.2211 68.0735 58.4052 68.2193 58.6203 68.3251C58.8391 68.4308 59.087 68.4837 59.3641 68.4837C59.7214 68.4837 60.024 68.4108 60.2719 68.2649C60.5198 68.1191 60.7367 67.924 60.9227 67.6798L61.5352 68.1665C61.4076 68.3597 61.2453 68.5438 61.0484 68.7188C60.8516 68.8938 60.6091 69.036 60.3211 69.1454C60.0367 69.2548 59.6995 69.3094 59.3094 69.3094ZM62.8094 68.6641C62.8094 68.4928 62.8622 68.3488 62.968 68.2321C63.0773 68.1118 63.2341 68.0516 63.4383 68.0516C63.6424 68.0516 63.7974 68.1118 63.9031 68.2321C64.0125 68.3488 64.0672 68.4928 64.0672 68.6641C64.0672 68.8318 64.0125 68.974 63.9031 69.0907C63.7974 69.2074 63.6424 69.2657 63.4383 69.2657C63.2341 69.2657 63.0773 69.2074 62.968 69.0907C62.8622 68.974 62.8094 68.8318 62.8094 68.6641ZM68.1141 68.4782C68.3547 68.4782 68.5771 68.429 68.7813 68.3305C68.9854 68.2321 69.1531 68.0972 69.2844 67.9259C69.4156 67.7509 69.4904 67.5522 69.5086 67.3298H70.4711C70.4529 67.6798 70.3344 68.0061 70.1156 68.3087C69.9005 68.6076 69.618 68.8501 69.268 69.036C68.918 69.2183 68.5333 69.3094 68.1141 69.3094C67.6693 69.3094 67.281 69.2311 66.9492 69.0743C66.6211 68.9175 66.3477 68.7024 66.1289 68.429C65.9138 68.1555 65.7516 67.842 65.6422 67.4884C65.5365 67.1311 65.4836 66.7537 65.4836 66.3563V66.1266C65.4836 65.7292 65.5365 65.3537 65.6422 65.0001C65.7516 64.6428 65.9138 64.3274 66.1289 64.054C66.3477 63.7805 66.6211 63.5654 66.9492 63.4087C67.281 63.2519 67.6693 63.1735 68.1141 63.1735C68.5771 63.1735 68.9818 63.2683 69.3281 63.4579C69.6745 63.6438 69.9461 63.899 70.143 64.2235C70.3435 64.5443 70.4529 64.9089 70.4711 65.3173H69.5086C69.4904 65.073 69.4211 64.8524 69.3008 64.6555C69.1841 64.4587 69.0237 64.3019 68.8195 64.1852C68.619 64.0649 68.3839 64.0048 68.1141 64.0048C67.8042 64.0048 67.5435 64.0667 67.332 64.1907C67.1242 64.311 66.9583 64.4751 66.8344 64.6829C66.7141 64.8871 66.6266 65.1149 66.5719 65.3665C66.5208 65.6144 66.4953 65.8678 66.4953 66.1266V66.3563C66.4953 66.6152 66.5208 66.8704 66.5719 67.1219C66.6229 67.3735 66.7086 67.6014 66.8289 67.8055C66.9529 68.0097 67.1188 68.1738 67.3266 68.2977C67.538 68.418 67.8005 68.4782 68.1141 68.4782ZM71.3406 66.3071V66.1813C71.3406 65.7548 71.4026 65.3592 71.5266 64.9946C71.6505 64.6264 71.8292 64.3074 72.0625 64.0376C72.2958 63.7641 72.5784 63.5527 72.9102 63.4032C73.2419 63.2501 73.6138 63.1735 74.0258 63.1735C74.4414 63.1735 74.8151 63.2501 75.1469 63.4032C75.4823 63.5527 75.7667 63.7641 76 64.0376C76.237 64.3074 76.4174 64.6264 76.5414 64.9946C76.6654 65.3592 76.7273 65.7548 76.7273 66.1813V66.3071C76.7273 66.7337 76.6654 67.1292 76.5414 67.4938C76.4174 67.8584 76.237 68.1774 76 68.4509C75.7667 68.7206 75.4841 68.9321 75.1523 69.0852C74.8242 69.2347 74.4523 69.3094 74.0367 69.3094C73.6211 69.3094 73.2474 69.2347 72.9156 69.0852C72.5839 68.9321 72.2995 68.7206 72.0625 68.4509C71.8292 68.1774 71.6505 67.8584 71.5266 67.4938C71.4026 67.1292 71.3406 66.7337 71.3406 66.3071ZM72.3523 66.1813V66.3071C72.3523 66.6024 72.387 66.8813 72.4562 67.1438C72.5255 67.4027 72.6294 67.6324 72.768 67.8329C72.9102 68.0334 73.087 68.192 73.2984 68.3087C73.5099 68.4217 73.756 68.4782 74.0367 68.4782C74.3138 68.4782 74.5562 68.4217 74.7641 68.3087C74.9755 68.192 75.1505 68.0334 75.2891 67.8329C75.4276 67.6324 75.5315 67.4027 75.6008 67.1438C75.6737 66.8813 75.7102 66.6024 75.7102 66.3071V66.1813C75.7102 65.8897 75.6737 65.6144 75.6008 65.3555C75.5315 65.093 75.4258 64.8615 75.2836 64.661C75.1451 64.4568 74.9701 64.2964 74.7586 64.1798C74.5508 64.0631 74.3065 64.0048 74.0258 64.0048C73.7487 64.0048 73.5044 64.0631 73.293 64.1798C73.0852 64.2964 72.9102 64.4568 72.768 64.661C72.6294 64.8615 72.5255 65.093 72.4562 65.3555C72.387 65.6144 72.3523 65.8897 72.3523 66.1813ZM79.0023 64.4587V69.2001H77.9852V63.2829H78.9477L79.0023 64.4587ZM78.7945 66.0173L78.3242 66.0009C78.3279 65.5962 78.3807 65.2225 78.4828 64.8798C78.5849 64.5334 78.7362 64.2326 78.9367 63.9774C79.1372 63.7222 79.387 63.5253 79.6859 63.3868C79.9849 63.2446 80.3312 63.1735 80.725 63.1735C81.0021 63.1735 81.2573 63.2136 81.4906 63.2938C81.724 63.3704 81.9263 63.4925 82.0977 63.6602C82.269 63.8279 82.4021 64.043 82.4969 64.3055C82.5917 64.568 82.6391 64.8852 82.6391 65.2571V69.2001H81.6273V65.3063C81.6273 64.9964 81.5745 64.7485 81.4687 64.5626C81.3667 64.3766 81.2208 64.2417 81.0312 64.1579C80.8417 64.0704 80.6193 64.0266 80.3641 64.0266C80.0651 64.0266 79.8154 64.0795 79.6148 64.1852C79.4143 64.291 79.2539 64.4368 79.1336 64.6227C79.0133 64.8087 78.9258 65.0219 78.8711 65.2626C78.8201 65.4996 78.7945 65.7511 78.7945 66.0173ZM82.6281 65.4594L81.95 65.6673C81.9536 65.3428 82.0065 65.0311 82.1086 64.7321C82.2143 64.4331 82.3656 64.167 82.5625 63.9337C82.763 63.7003 83.0091 63.5162 83.3008 63.3813C83.5924 63.2428 83.926 63.1735 84.3016 63.1735C84.6187 63.1735 84.8995 63.2154 85.1437 63.2993C85.3917 63.3831 85.5995 63.5126 85.7672 63.6876C85.9385 63.8589 86.068 64.0795 86.1555 64.3493C86.243 64.6191 86.2867 64.9399 86.2867 65.3118V69.2001H85.2695V65.3009C85.2695 64.9691 85.2167 64.7121 85.1109 64.5298C85.0089 64.3438 84.863 64.2144 84.6734 64.1415C84.4875 64.0649 84.2651 64.0266 84.0062 64.0266C83.7839 64.0266 83.587 64.0649 83.4156 64.1415C83.2443 64.218 83.1003 64.3238 82.9836 64.4587C82.8669 64.5899 82.7776 64.7412 82.7156 64.9126C82.6573 65.0839 82.6281 65.2662 82.6281 65.4594Z" fill="#342D58"/>
<path d="M41.5797 82.1461V86.8H40.568V80.8829H41.525L41.5797 82.1461ZM41.3391 83.6172L40.918 83.6008C40.9216 83.1961 40.9818 82.8224 41.0984 82.4797C41.2151 82.1334 41.3792 81.8326 41.5906 81.5774C41.8021 81.3222 42.0536 81.1253 42.3453 80.9868C42.6406 80.8446 42.9669 80.7735 43.3242 80.7735C43.6159 80.7735 43.8784 80.8136 44.1117 80.8938C44.3451 80.9704 44.5437 81.0943 44.7078 81.2657C44.8755 81.437 45.0031 81.6594 45.0906 81.9329C45.1781 82.2027 45.2219 82.5326 45.2219 82.9227V86.8H44.2047V82.9118C44.2047 82.6019 44.1591 82.354 44.068 82.168C43.9768 81.9784 43.8437 81.8417 43.6687 81.7579C43.4937 81.6704 43.2786 81.6266 43.0234 81.6266C42.7719 81.6266 42.5422 81.6795 42.3344 81.7852C42.1302 81.8909 41.9534 82.0368 41.8039 82.2227C41.6581 82.4086 41.5432 82.6219 41.4594 82.8625C41.3792 83.0995 41.3391 83.3511 41.3391 83.6172ZM47.8578 80.8829V86.8H46.8406V80.8829H47.8578ZM46.7641 79.3133C46.7641 79.1493 46.8133 79.0107 46.9117 78.8977C47.0138 78.7847 47.1633 78.7282 47.3602 78.7282C47.5534 78.7282 47.701 78.7847 47.8031 78.8977C47.9089 79.0107 47.9617 79.1493 47.9617 79.3133C47.9617 79.4701 47.9089 79.605 47.8031 79.718C47.701 79.8274 47.5534 79.8821 47.3602 79.8821C47.1633 79.8821 47.0138 79.8274 46.9117 79.718C46.8133 79.605 46.7641 79.4701 46.7641 79.3133ZM50.4992 78.4V86.8H49.482V78.4H50.4992ZM54.1141 80.8829L51.5328 83.6446L50.0891 85.143L50.007 84.0657L51.0406 82.8297L52.8781 80.8829H54.1141ZM53.1898 86.8L51.0789 83.9782L51.6039 83.0758L54.382 86.8H53.1898ZM57.5047 86.9094C57.0927 86.9094 56.719 86.8402 56.3836 86.7016C56.0518 86.5594 55.7656 86.3607 55.525 86.1055C55.288 85.8503 55.1057 85.5477 54.9781 85.1977C54.8505 84.8477 54.7867 84.4649 54.7867 84.0493V83.8196C54.7867 83.3383 54.8578 82.9099 55 82.5344C55.1422 82.1553 55.3354 81.8344 55.5797 81.5719C55.824 81.3094 56.101 81.1107 56.4109 80.9758C56.7208 80.8409 57.0417 80.7735 57.3734 80.7735C57.7964 80.7735 58.1609 80.8464 58.4672 80.9922C58.7771 81.1381 59.0305 81.3422 59.2273 81.6047C59.4242 81.8636 59.5701 82.1698 59.6648 82.5235C59.7596 82.8735 59.807 83.2563 59.807 83.6719V84.1258H55.3883V83.3H58.7953V83.2235C58.7807 82.961 58.726 82.7058 58.6312 82.4579C58.5401 82.2099 58.3943 82.0058 58.1937 81.8454C57.9932 81.6849 57.7198 81.6047 57.3734 81.6047C57.1437 81.6047 56.9323 81.654 56.7391 81.7524C56.5458 81.8472 56.3799 81.9894 56.2414 82.179C56.1029 82.3685 55.9953 82.6 55.9187 82.8735C55.8422 83.1469 55.8039 83.4623 55.8039 83.8196V84.0493C55.8039 84.33 55.8422 84.5943 55.9187 84.8422C55.999 85.0865 56.1138 85.3016 56.2633 85.4875C56.4164 85.6735 56.6005 85.8193 56.8156 85.925C57.0344 86.0308 57.2823 86.0836 57.5594 86.0836C57.9167 86.0836 58.2193 86.0107 58.4672 85.8649C58.7151 85.7191 58.932 85.524 59.118 85.2797L59.7305 85.7665C59.6029 85.9597 59.4406 86.1438 59.2437 86.3188C59.0469 86.4938 58.8044 86.636 58.5164 86.7454C58.232 86.8547 57.8948 86.9094 57.5047 86.9094ZM67.2117 85.2305C67.2117 85.0847 67.1789 84.9498 67.1133 84.8258C67.0513 84.6982 66.9219 84.5834 66.725 84.4813C66.5318 84.3756 66.2401 84.2844 65.85 84.2079C65.5219 84.1386 65.2247 84.0566 64.9586 83.9618C64.6961 83.867 64.4719 83.7521 64.2859 83.6172C64.1036 83.4823 63.9633 83.3237 63.8648 83.1415C63.7664 82.9592 63.7172 82.7459 63.7172 82.5016C63.7172 82.2683 63.7682 82.0477 63.8703 81.8399C63.976 81.6321 64.1237 81.448 64.3133 81.2875C64.5065 81.1271 64.738 81.0014 65.0078 80.9102C65.2776 80.8191 65.5784 80.7735 65.9102 80.7735C66.3841 80.7735 66.7888 80.8573 67.1242 81.025C67.4596 81.1928 67.7167 81.417 67.8953 81.6977C68.074 81.9748 68.1633 82.2829 68.1633 82.6219H67.1516C67.1516 82.4579 67.1023 82.2993 67.0039 82.1461C66.9091 81.9894 66.7687 81.8599 66.5828 81.7579C66.4005 81.6558 66.1763 81.6047 65.9102 81.6047C65.6294 81.6047 65.4016 81.6485 65.2266 81.736C65.0552 81.8198 64.9294 81.9274 64.8492 82.0586C64.7727 82.1899 64.7344 82.3284 64.7344 82.4743C64.7344 82.5836 64.7526 82.6821 64.7891 82.7696C64.8292 82.8534 64.8984 82.9318 64.9969 83.0047C65.0953 83.074 65.2339 83.1396 65.4125 83.2016C65.5911 83.2636 65.819 83.3256 66.0961 83.3875C66.581 83.4969 66.9802 83.6282 67.2937 83.7813C67.6073 83.9344 67.8406 84.1222 67.9937 84.3446C68.1469 84.567 68.2234 84.8368 68.2234 85.154C68.2234 85.4128 68.1687 85.6498 68.0594 85.8649C67.9536 86.08 67.7987 86.2659 67.5945 86.4227C67.394 86.5758 67.1534 86.6961 66.8727 86.7836C66.5956 86.8675 66.2839 86.9094 65.9375 86.9094C65.4161 86.9094 64.975 86.8165 64.6141 86.6305C64.2531 86.4446 63.9797 86.204 63.7937 85.9086C63.6078 85.6133 63.5148 85.3016 63.5148 84.9735H64.532C64.5466 85.2506 64.6268 85.4711 64.7727 85.6352C64.9185 85.7956 65.0971 85.9105 65.3086 85.9797C65.5201 86.0454 65.7297 86.0782 65.9375 86.0782C66.2146 86.0782 66.4461 86.0417 66.632 85.9688C66.8216 85.8959 66.9656 85.7956 67.0641 85.668C67.1625 85.5404 67.2117 85.3946 67.2117 85.2305ZM72.0297 80.8829V81.6594H68.8305V80.8829H72.0297ZM69.9133 79.4446H70.925V85.3344C70.925 85.5349 70.956 85.6862 71.018 85.7883C71.0799 85.8904 71.1602 85.9579 71.2586 85.9907C71.357 86.0235 71.4628 86.0399 71.5758 86.0399C71.6596 86.0399 71.7471 86.0326 71.8383 86.018C71.9331 85.9998 72.0042 85.9852 72.0516 85.9743L72.057 86.8C71.9768 86.8256 71.8711 86.8493 71.7398 86.8711C71.6122 86.8967 71.4573 86.9094 71.275 86.9094C71.0271 86.9094 70.7992 86.8602 70.5914 86.7618C70.3836 86.6633 70.2177 86.4993 70.0937 86.2696C69.9734 86.0362 69.9133 85.7227 69.9133 85.329V79.4446ZM72.8391 83.9071V83.7813C72.8391 83.3547 72.901 82.9592 73.025 82.5946C73.149 82.2264 73.3276 81.9073 73.5609 81.6375C73.7943 81.3641 74.0768 81.1527 74.4086 81.0032C74.7404 80.85 75.1122 80.7735 75.5242 80.7735C75.9398 80.7735 76.3135 80.85 76.6453 81.0032C76.9807 81.1527 77.2651 81.3641 77.4984 81.6375C77.7354 81.9073 77.9159 82.2264 78.0398 82.5946C78.1638 82.9592 78.2258 83.3547 78.2258 83.7813V83.9071C78.2258 84.3336 78.1638 84.7292 78.0398 85.0938C77.9159 85.4584 77.7354 85.7774 77.4984 86.0508C77.2651 86.3206 76.9826 86.5321 76.6508 86.6852C76.3227 86.8347 75.9508 86.9094 75.5352 86.9094C75.1195 86.9094 74.7458 86.8347 74.4141 86.6852C74.0823 86.5321 73.7979 86.3206 73.5609 86.0508C73.3276 85.7774 73.149 85.4584 73.025 85.0938C72.901 84.7292 72.8391 84.3336 72.8391 83.9071ZM73.8508 83.7813V83.9071C73.8508 84.2024 73.8854 84.4813 73.9547 84.7438C74.024 85.0027 74.1279 85.2323 74.2664 85.4329C74.4086 85.6334 74.5854 85.792 74.7969 85.9086C75.0083 86.0217 75.2544 86.0782 75.5352 86.0782C75.8122 86.0782 76.0547 86.0217 76.2625 85.9086C76.474 85.792 76.649 85.6334 76.7875 85.4329C76.926 85.2323 77.0299 85.0027 77.0992 84.7438C77.1721 84.4813 77.2086 84.2024 77.2086 83.9071V83.7813C77.2086 83.4896 77.1721 83.2144 77.0992 82.9555C77.0299 82.693 76.9242 82.4615 76.782 82.261C76.6435 82.0568 76.4685 81.8964 76.257 81.7797C76.0492 81.6631 75.8049 81.6047 75.5242 81.6047C75.2471 81.6047 75.0029 81.6631 74.7914 81.7797C74.5836 81.8964 74.4086 82.0568 74.2664 82.261C74.1279 82.4615 74.024 82.693 73.9547 82.9555C73.8854 83.2144 73.8508 83.4896 73.8508 83.7813ZM80.5063 81.8125V86.8H79.4945V80.8829H80.4789L80.5063 81.8125ZM82.3547 80.85L82.3492 81.7907C82.2654 81.7724 82.1852 81.7615 82.1086 81.7579C82.0357 81.7506 81.9518 81.7469 81.857 81.7469C81.6237 81.7469 81.4177 81.7834 81.2391 81.8563C81.0604 81.9292 80.9091 82.0313 80.7852 82.1625C80.6612 82.2938 80.5628 82.4506 80.4898 82.6329C80.4206 82.8115 80.375 83.0084 80.3531 83.2235L80.0688 83.3875C80.0688 83.0303 80.1034 82.6948 80.1727 82.3813C80.2456 82.0678 80.3568 81.7907 80.5063 81.55C80.6557 81.3058 80.8453 81.1162 81.075 80.9813C81.3083 80.8428 81.5854 80.7735 81.9063 80.7735C81.9792 80.7735 82.063 80.7826 82.1578 80.8008C82.2526 80.8154 82.3182 80.8318 82.3547 80.85ZM85.6359 86.9094C85.224 86.9094 84.8503 86.8402 84.5148 86.7016C84.1831 86.5594 83.8969 86.3607 83.6562 86.1055C83.4193 85.8503 83.237 85.5477 83.1094 85.1977C82.9818 84.8477 82.918 84.4649 82.918 84.0493V83.8196C82.918 83.3383 82.9891 82.9099 83.1312 82.5344C83.2734 82.1553 83.4667 81.8344 83.7109 81.5719C83.9552 81.3094 84.2323 81.1107 84.5422 80.9758C84.8521 80.8409 85.1729 80.7735 85.5047 80.7735C85.9276 80.7735 86.2922 80.8464 86.5984 80.9922C86.9083 81.1381 87.1617 81.3422 87.3586 81.6047C87.5555 81.8636 87.7013 82.1698 87.7961 82.5235C87.8909 82.8735 87.9383 83.2563 87.9383 83.6719V84.1258H83.5195V83.3H86.9266V83.2235C86.912 82.961 86.8573 82.7058 86.7625 82.4579C86.6714 82.2099 86.5255 82.0058 86.325 81.8454C86.1245 81.6849 85.851 81.6047 85.5047 81.6047C85.275 81.6047 85.0635 81.654 84.8703 81.7524C84.6771 81.8472 84.5112 81.9894 84.3727 82.179C84.2341 82.3685 84.1266 82.6 84.05 82.8735C83.9734 83.1469 83.9352 83.4623 83.9352 83.8196V84.0493C83.9352 84.33 83.9734 84.5943 84.05 84.8422C84.1302 85.0865 84.2451 85.3016 84.3945 85.4875C84.5477 85.6735 84.7318 85.8193 84.9469 85.925C85.1656 86.0308 85.4135 86.0836 85.6906 86.0836C86.0479 86.0836 86.3505 86.0107 86.5984 85.8649C86.8464 85.7191 87.0633 85.524 87.2492 85.2797L87.8617 85.7665C87.7341 85.9597 87.5719 86.1438 87.375 86.3188C87.1781 86.4938 86.9357 86.636 86.6477 86.7454C86.3633 86.8547 86.026 86.9094 85.6359 86.9094Z" fill="#342D58"/>
<path d="M41.5797 99.7461V104.4H40.568V98.4828H41.525L41.5797 99.7461ZM41.3391 101.217L40.918 101.201C40.9216 100.796 40.9818 100.422 41.0984 100.08C41.2151 99.7334 41.3792 99.4326 41.5906 99.1774C41.8021 98.9222 42.0536 98.7253 42.3453 98.5867C42.6406 98.4446 42.9669 98.3735 43.3242 98.3735C43.6159 98.3735 43.8784 98.4136 44.1117 98.4938C44.3451 98.5703 44.5437 98.6943 44.7078 98.8656C44.8755 99.037 45.0031 99.2594 45.0906 99.5328C45.1781 99.8026 45.2219 100.133 45.2219 100.523V104.4H44.2047V100.512C44.2047 100.202 44.1591 99.9539 44.068 99.768C43.9768 99.5784 43.8437 99.4417 43.6687 99.3578C43.4937 99.2703 43.2786 99.2266 43.0234 99.2266C42.7719 99.2266 42.5422 99.2795 42.3344 99.3852C42.1302 99.4909 41.9534 99.6367 41.8039 99.8227C41.6581 100.009 41.5432 100.222 41.4594 100.463C41.3792 100.7 41.3391 100.951 41.3391 101.217ZM47.8578 98.4828V104.4H46.8406V98.4828H47.8578ZM46.7641 96.9133C46.7641 96.7492 46.8133 96.6107 46.9117 96.4977C47.0138 96.3847 47.1633 96.3281 47.3602 96.3281C47.5534 96.3281 47.701 96.3847 47.8031 96.4977C47.9089 96.6107 47.9617 96.7492 47.9617 96.9133C47.9617 97.0701 47.9089 97.205 47.8031 97.318C47.701 97.4274 47.5534 97.4821 47.3602 97.4821C47.1633 97.4821 47.0138 97.4274 46.9117 97.318C46.8133 97.205 46.7641 97.0701 46.7641 96.9133ZM50.4992 96V104.4H49.482V96H50.4992ZM54.1141 98.4828L51.5328 101.245L50.0891 102.743L50.007 101.666L51.0406 100.43L52.8781 98.4828H54.1141ZM53.1898 104.4L51.0789 101.578L51.6039 100.676L54.382 104.4H53.1898ZM57.5047 104.509C57.0927 104.509 56.719 104.44 56.3836 104.302C56.0518 104.159 55.7656 103.961 55.525 103.705C55.288 103.45 55.1057 103.148 54.9781 102.798C54.8505 102.448 54.7867 102.065 54.7867 101.649V101.42C54.7867 100.938 54.8578 100.51 55 100.134C55.1422 99.7552 55.3354 99.4344 55.5797 99.1719C55.824 98.9094 56.101 98.7107 56.4109 98.5758C56.7208 98.4409 57.0417 98.3735 57.3734 98.3735C57.7964 98.3735 58.1609 98.4464 58.4672 98.5922C58.7771 98.738 59.0305 98.9422 59.2273 99.2047C59.4242 99.4636 59.5701 99.7698 59.6648 100.123C59.7596 100.473 59.807 100.856 59.807 101.272V101.726H55.3883V100.9H58.7953V100.823C58.7807 100.561 58.726 100.306 58.6312 100.058C58.5401 99.8099 58.3943 99.6058 58.1937 99.4453C57.9932 99.2849 57.7198 99.2047 57.3734 99.2047C57.1437 99.2047 56.9323 99.2539 56.7391 99.3524C56.5458 99.4472 56.3799 99.5893 56.2414 99.7789C56.1029 99.9685 55.9953 100.2 55.9187 100.473C55.8422 100.747 55.8039 101.062 55.8039 101.42V101.649C55.8039 101.93 55.8422 102.194 55.9187 102.442C55.999 102.686 56.1138 102.902 56.2633 103.088C56.4164 103.273 56.6005 103.419 56.8156 103.525C57.0344 103.631 57.2823 103.684 57.5594 103.684C57.9167 103.684 58.2193 103.611 58.4672 103.465C58.7151 103.319 58.932 103.124 59.118 102.88L59.7305 103.366C59.6029 103.56 59.4406 103.744 59.2437 103.919C59.0469 104.094 58.8044 104.236 58.5164 104.345C58.232 104.455 57.8948 104.509 57.5047 104.509ZM64.7781 99.6203V106.675H63.7609V98.4828H64.6906L64.7781 99.6203ZM68.7648 101.392V101.507C68.7648 101.937 68.7138 102.336 68.6117 102.705C68.5096 103.069 68.3602 103.386 68.1633 103.656C67.9701 103.926 67.7312 104.136 67.4469 104.285C67.1625 104.435 66.8362 104.509 66.468 104.509C66.0924 104.509 65.7607 104.447 65.4727 104.323C65.1846 104.2 64.9404 104.019 64.7398 103.782C64.5393 103.545 64.3789 103.261 64.2586 102.929C64.1419 102.597 64.0617 102.223 64.018 101.808V101.195C64.0617 100.758 64.1437 100.366 64.2641 100.02C64.3844 99.6732 64.543 99.3779 64.7398 99.1336C64.9404 98.8857 65.1828 98.6979 65.4672 98.5703C65.7516 98.4391 66.0797 98.3735 66.4516 98.3735C66.8234 98.3735 67.1534 98.4464 67.4414 98.5922C67.7294 98.7344 67.9719 98.9386 68.1687 99.2047C68.3656 99.4709 68.5133 99.7899 68.6117 100.162C68.7138 100.53 68.7648 100.94 68.7648 101.392ZM67.7477 101.507V101.392C67.7477 101.097 67.7167 100.82 67.6547 100.561C67.5927 100.298 67.4961 100.069 67.3648 99.8719C67.2372 99.6714 67.0732 99.5146 66.8727 99.4016C66.6721 99.2849 66.4333 99.2266 66.1562 99.2266C65.901 99.2266 65.6786 99.2703 65.4891 99.3578C65.3031 99.4453 65.1445 99.5638 65.0133 99.7133C64.882 99.8591 64.7745 100.027 64.6906 100.216C64.6104 100.402 64.5503 100.596 64.5102 100.796V102.213C64.5831 102.468 64.6852 102.708 64.8164 102.934C64.9477 103.157 65.1227 103.337 65.3414 103.476C65.5602 103.611 65.8354 103.678 66.1672 103.678C66.4406 103.678 66.6758 103.622 66.8727 103.509C67.0732 103.392 67.2372 103.233 67.3648 103.033C67.4961 102.832 67.5927 102.603 67.6547 102.344C67.7167 102.081 67.7477 101.802 67.7477 101.507ZM71.0672 99.4125V104.4H70.0555V98.4828H71.0398L71.0672 99.4125ZM72.9156 98.45L72.9102 99.3906C72.8263 99.3724 72.7461 99.3615 72.6695 99.3578C72.5966 99.3505 72.5128 99.3469 72.418 99.3469C72.1846 99.3469 71.9786 99.3834 71.8 99.4563C71.6214 99.5292 71.4701 99.6313 71.3461 99.7625C71.2221 99.8938 71.1237 100.051 71.0508 100.233C70.9815 100.411 70.9359 100.608 70.9141 100.823L70.6297 100.988C70.6297 100.63 70.6643 100.295 70.7336 99.9813C70.8065 99.6677 70.9177 99.3906 71.0672 99.15C71.2167 98.9058 71.4062 98.7162 71.6359 98.5813C71.8693 98.4427 72.1464 98.3735 72.4672 98.3735C72.5401 98.3735 72.624 98.3826 72.7187 98.4008C72.8135 98.4154 72.8792 98.4318 72.9156 98.45ZM73.4734 101.507V101.381C73.4734 100.955 73.5354 100.559 73.6594 100.195C73.7833 99.8263 73.962 99.5073 74.1953 99.2375C74.4286 98.9641 74.7112 98.7526 75.043 98.6031C75.3747 98.45 75.7466 98.3735 76.1586 98.3735C76.5742 98.3735 76.9479 98.45 77.2797 98.6031C77.6151 98.7526 77.8995 98.9641 78.1328 99.2375C78.3698 99.5073 78.5503 99.8263 78.6742 100.195C78.7982 100.559 78.8602 100.955 78.8602 101.381V101.507C78.8602 101.934 78.7982 102.329 78.6742 102.694C78.5503 103.058 78.3698 103.377 78.1328 103.651C77.8995 103.921 77.6169 104.132 77.2852 104.285C76.957 104.435 76.5852 104.509 76.1695 104.509C75.7539 104.509 75.3802 104.435 75.0484 104.285C74.7167 104.132 74.4323 103.921 74.1953 103.651C73.962 103.377 73.7833 103.058 73.6594 102.694C73.5354 102.329 73.4734 101.934 73.4734 101.507ZM74.4852 101.381V101.507C74.4852 101.802 74.5198 102.081 74.5891 102.344C74.6583 102.603 74.7622 102.832 74.9008 103.033C75.043 103.233 75.2198 103.392 75.4313 103.509C75.6427 103.622 75.8888 103.678 76.1695 103.678C76.4466 103.678 76.6891 103.622 76.8969 103.509C77.1083 103.392 77.2833 103.233 77.4219 103.033C77.5604 102.832 77.6643 102.603 77.7336 102.344C77.8065 102.081 77.843 101.802 77.843 101.507V101.381C77.843 101.09 77.8065 100.814 77.7336 100.555C77.6643 100.293 77.5586 100.061 77.4164 99.861C77.2779 99.6568 77.1029 99.4964 76.8914 99.3797C76.6836 99.263 76.4393 99.2047 76.1586 99.2047C75.8815 99.2047 75.6372 99.263 75.4258 99.3797C75.218 99.4964 75.043 99.6568 74.9008 99.861C74.7622 100.061 74.6583 100.293 74.5891 100.555C74.5198 100.814 74.4852 101.09 74.4852 101.381ZM83.8586 103.252V96H84.8758V104.4H83.9461L83.8586 103.252ZM79.8773 101.507V101.392C79.8773 100.94 79.932 100.53 80.0414 100.162C80.1544 99.7899 80.313 99.4709 80.5172 99.2047C80.725 98.9386 80.9711 98.7344 81.2555 98.5922C81.5435 98.4464 81.8643 98.3735 82.218 98.3735C82.5898 98.3735 82.9143 98.4391 83.1914 98.5703C83.4721 98.6979 83.7091 98.8857 83.9023 99.1336C84.0992 99.3779 84.2542 99.6732 84.3672 100.02C84.4802 100.366 84.5586 100.758 84.6023 101.195V101.698C84.5622 102.132 84.4839 102.522 84.3672 102.869C84.2542 103.215 84.0992 103.51 83.9023 103.755C83.7091 103.999 83.4721 104.187 83.1914 104.318C82.9107 104.446 82.5826 104.509 82.207 104.509C81.8607 104.509 81.5435 104.435 81.2555 104.285C80.9711 104.136 80.725 103.926 80.5172 103.656C80.313 103.386 80.1544 103.069 80.0414 102.705C79.932 102.336 79.8773 101.937 79.8773 101.507ZM80.8945 101.392V101.507C80.8945 101.802 80.9237 102.079 80.982 102.338C81.044 102.597 81.1388 102.825 81.2664 103.022C81.394 103.219 81.5562 103.374 81.7531 103.487C81.95 103.596 82.1852 103.651 82.4586 103.651C82.794 103.651 83.0693 103.58 83.2844 103.438C83.5031 103.295 83.6781 103.108 83.8094 102.874C83.9406 102.641 84.0427 102.388 84.1156 102.114V100.796C84.0719 100.596 84.0081 100.402 83.9242 100.216C83.844 100.027 83.7383 99.8591 83.607 99.7133C83.4794 99.5638 83.3208 99.4453 83.1312 99.3578C82.9453 99.2703 82.7247 99.2266 82.4695 99.2266C82.1924 99.2266 81.9536 99.2849 81.7531 99.4016C81.5562 99.5146 81.394 99.6714 81.2664 99.8719C81.1388 100.069 81.044 100.298 80.982 100.561C80.9237 100.82 80.8945 101.097 80.8945 101.392ZM90.0711 103.033V98.4828H91.0883V104.4H90.1203L90.0711 103.033ZM90.2625 101.786L90.6836 101.775C90.6836 102.169 90.6417 102.533 90.5578 102.869C90.4776 103.201 90.3464 103.489 90.1641 103.733C89.9818 103.977 89.743 104.169 89.4477 104.307C89.1523 104.442 88.7932 104.509 88.3703 104.509C88.0823 104.509 87.818 104.467 87.5773 104.384C87.3404 104.3 87.1362 104.17 86.9648 103.995C86.7935 103.82 86.6604 103.592 86.5656 103.312C86.4745 103.031 86.4289 102.694 86.4289 102.3V98.4828H87.4406V102.311C87.4406 102.577 87.4698 102.798 87.5281 102.973C87.5901 103.144 87.6721 103.281 87.7742 103.383C87.8799 103.481 87.9966 103.551 88.1242 103.591C88.2555 103.631 88.3904 103.651 88.5289 103.651C88.9591 103.651 89.3 103.569 89.5516 103.405C89.8031 103.237 89.9836 103.013 90.093 102.732C90.206 102.448 90.2625 102.132 90.2625 101.786ZM94.9984 103.678C95.2391 103.678 95.4615 103.629 95.6656 103.53C95.8698 103.432 96.0375 103.297 96.1687 103.126C96.3 102.951 96.3747 102.752 96.393 102.53H97.3555C97.3372 102.88 97.2187 103.206 97 103.509C96.7849 103.808 96.5023 104.05 96.1523 104.236C95.8023 104.418 95.4177 104.509 94.9984 104.509C94.5536 104.509 94.1654 104.431 93.8336 104.274C93.5055 104.117 93.232 103.902 93.0133 103.629C92.7982 103.355 92.6359 103.042 92.5266 102.688C92.4208 102.331 92.368 101.954 92.368 101.556V101.327C92.368 100.929 92.4208 100.554 92.5266 100.2C92.6359 99.8427 92.7982 99.5274 93.0133 99.2539C93.232 98.9805 93.5055 98.7654 93.8336 98.6086C94.1654 98.4518 94.5536 98.3735 94.9984 98.3735C95.4615 98.3735 95.8661 98.4683 96.2125 98.6578C96.5589 98.8438 96.8305 99.099 97.0273 99.4235C97.2279 99.7443 97.3372 100.109 97.3555 100.517H96.393C96.3747 100.273 96.3055 100.052 96.1852 99.8555C96.0685 99.6586 95.9081 99.5018 95.7039 99.3852C95.5034 99.2649 95.2682 99.2047 94.9984 99.2047C94.6885 99.2047 94.4279 99.2667 94.2164 99.3906C94.0086 99.511 93.8427 99.675 93.7187 99.8828C93.5984 100.087 93.5109 100.315 93.4562 100.566C93.4052 100.814 93.3797 101.068 93.3797 101.327V101.556C93.3797 101.815 93.4052 102.07 93.4562 102.322C93.5073 102.573 93.593 102.801 93.7133 103.005C93.8372 103.21 94.0031 103.374 94.2109 103.498C94.4224 103.618 94.6849 103.678 94.9984 103.678ZM100.97 98.4828V99.2594H97.7711V98.4828H100.97ZM98.8539 97.0446H99.8656V102.934C99.8656 103.135 99.8966 103.286 99.9586 103.388C100.021 103.49 100.101 103.558 100.199 103.591C100.298 103.623 100.403 103.64 100.516 103.64C100.6 103.64 100.688 103.633 100.779 103.618C100.874 103.6 100.945 103.585 100.992 103.574L100.998 104.4C100.917 104.426 100.812 104.449 100.68 104.471C100.553 104.497 100.398 104.509 100.216 104.509C99.9677 104.509 99.7398 104.46 99.532 104.362C99.3242 104.263 99.1583 104.099 99.0344 103.87C98.9141 103.636 98.8539 103.323 98.8539 102.929V97.0446ZM105.602 102.83C105.602 102.685 105.57 102.55 105.504 102.426C105.442 102.298 105.312 102.183 105.116 102.081C104.922 101.976 104.631 101.884 104.241 101.808C103.912 101.739 103.615 101.657 103.349 101.562C103.087 101.467 102.862 101.352 102.677 101.217C102.494 101.082 102.354 100.924 102.255 100.741C102.157 100.559 102.108 100.346 102.108 100.102C102.108 99.8683 102.159 99.6477 102.261 99.4399C102.367 99.2321 102.514 99.0479 102.704 98.8875C102.897 98.7271 103.129 98.6013 103.398 98.5102C103.668 98.419 103.969 98.3735 104.301 98.3735C104.775 98.3735 105.179 98.4573 105.515 98.625C105.85 98.7927 106.107 99.017 106.286 99.2977C106.465 99.5748 106.554 99.8828 106.554 100.222H105.542C105.542 100.058 105.493 99.8992 105.395 99.7461C105.3 99.5893 105.159 99.4599 104.973 99.3578C104.791 99.2558 104.567 99.2047 104.301 99.2047C104.02 99.2047 103.792 99.2485 103.617 99.336C103.446 99.4198 103.32 99.5274 103.24 99.6586C103.163 99.7899 103.125 99.9284 103.125 100.074C103.125 100.184 103.143 100.282 103.18 100.37C103.22 100.453 103.289 100.532 103.387 100.605C103.486 100.674 103.624 100.74 103.803 100.802C103.982 100.864 104.21 100.926 104.487 100.988C104.972 101.097 105.371 101.228 105.684 101.381C105.998 101.534 106.231 101.722 106.384 101.945C106.537 102.167 106.614 102.437 106.614 102.754C106.614 103.013 106.559 103.25 106.45 103.465C106.344 103.68 106.189 103.866 105.985 104.023C105.785 104.176 105.544 104.296 105.263 104.384C104.986 104.467 104.674 104.509 104.328 104.509C103.807 104.509 103.366 104.416 103.005 104.23C102.644 104.045 102.37 103.804 102.184 103.509C101.998 103.213 101.905 102.902 101.905 102.573H102.923C102.937 102.851 103.017 103.071 103.163 103.235C103.309 103.396 103.488 103.51 103.699 103.58C103.911 103.645 104.12 103.678 104.328 103.678C104.605 103.678 104.837 103.642 105.023 103.569C105.212 103.496 105.356 103.396 105.455 103.268C105.553 103.14 105.602 102.995 105.602 102.83Z" fill="#342D58"/>
<path d="M44.0133 120.431C44.0133 120.285 43.9805 120.15 43.9148 120.026C43.8529 119.898 43.7234 119.783 43.5266 119.681C43.3333 119.576 43.0417 119.484 42.6516 119.408C42.3234 119.339 42.0263 119.257 41.7602 119.162C41.4977 119.067 41.2734 118.952 41.0875 118.817C40.9052 118.682 40.7648 118.524 40.6664 118.342C40.568 118.159 40.5187 117.946 40.5187 117.702C40.5187 117.468 40.5698 117.248 40.6719 117.04C40.7776 116.832 40.9253 116.648 41.1148 116.488C41.3081 116.327 41.5396 116.201 41.8094 116.11C42.0792 116.019 42.3799 115.974 42.7117 115.974C43.1857 115.974 43.5904 116.057 43.9258 116.225C44.2612 116.393 44.5182 116.617 44.6969 116.898C44.8755 117.175 44.9648 117.483 44.9648 117.822H43.9531C43.9531 117.658 43.9039 117.499 43.8055 117.346C43.7107 117.189 43.5703 117.06 43.3844 116.958C43.2021 116.856 42.9779 116.805 42.7117 116.805C42.431 116.805 42.2031 116.849 42.0281 116.936C41.8568 117.02 41.731 117.127 41.6508 117.259C41.5742 117.39 41.5359 117.529 41.5359 117.674C41.5359 117.784 41.5542 117.882 41.5906 117.97C41.6307 118.054 41.7 118.132 41.7984 118.205C41.8969 118.274 42.0354 118.34 42.2141 118.402C42.3927 118.464 42.6206 118.526 42.8977 118.588C43.3826 118.697 43.7818 118.828 44.0953 118.981C44.4089 119.134 44.6422 119.322 44.7953 119.545C44.9484 119.767 45.025 120.037 45.025 120.354C45.025 120.613 44.9703 120.85 44.8609 121.065C44.7552 121.28 44.6003 121.466 44.3961 121.623C44.1956 121.776 43.9549 121.896 43.6742 121.984C43.3971 122.068 43.0854 122.109 42.7391 122.109C42.2177 122.109 41.7766 122.017 41.4156 121.831C41.0547 121.645 40.7812 121.404 40.5953 121.109C40.4094 120.813 40.3164 120.502 40.3164 120.174H41.3336C41.3482 120.451 41.4284 120.671 41.5742 120.835C41.7201 120.996 41.8987 121.111 42.1102 121.18C42.3216 121.245 42.5312 121.278 42.7391 121.278C43.0161 121.278 43.2477 121.242 43.4336 121.169C43.6232 121.096 43.7672 120.996 43.8656 120.868C43.9641 120.74 44.0133 120.595 44.0133 120.431ZM47.3656 117.22V124.275H46.3484V116.083H47.2781L47.3656 117.22ZM51.3523 118.992V119.107C51.3523 119.537 51.3013 119.937 51.1992 120.305C51.0971 120.669 50.9477 120.987 50.7508 121.256C50.5576 121.526 50.3187 121.736 50.0344 121.885C49.75 122.035 49.4237 122.109 49.0555 122.109C48.6799 122.109 48.3482 122.048 48.0602 121.924C47.7721 121.8 47.5279 121.619 47.3273 121.382C47.1268 121.145 46.9664 120.861 46.8461 120.529C46.7294 120.197 46.6492 119.824 46.6055 119.408V118.795C46.6492 118.358 46.7312 117.966 46.8516 117.62C46.9719 117.273 47.1305 116.978 47.3273 116.734C47.5279 116.486 47.7703 116.298 48.0547 116.17C48.3391 116.039 48.6672 115.974 49.0391 115.974C49.4109 115.974 49.7409 116.046 50.0289 116.192C50.3169 116.334 50.5594 116.539 50.7562 116.805C50.9531 117.071 51.1008 117.39 51.1992 117.762C51.3013 118.13 51.3523 118.54 51.3523 118.992ZM50.3352 119.107V118.992C50.3352 118.697 50.3042 118.42 50.2422 118.161C50.1802 117.899 50.0836 117.669 49.9523 117.472C49.8247 117.271 49.6607 117.115 49.4602 117.002C49.2596 116.885 49.0208 116.827 48.7437 116.827C48.4885 116.827 48.2661 116.87 48.0766 116.958C47.8906 117.045 47.732 117.164 47.6008 117.313C47.4695 117.459 47.362 117.627 47.2781 117.817C47.1979 118.002 47.1378 118.196 47.0977 118.396V119.813C47.1706 120.068 47.2727 120.308 47.4039 120.534C47.5352 120.757 47.7102 120.937 47.9289 121.076C48.1477 121.211 48.4229 121.278 48.7547 121.278C49.0281 121.278 49.2633 121.222 49.4602 121.109C49.6607 120.992 49.8247 120.833 49.9523 120.633C50.0836 120.432 50.1802 120.203 50.2422 119.944C50.3042 119.681 50.3352 119.402 50.3352 119.107ZM52.375 119.107V118.981C52.375 118.555 52.437 118.159 52.5609 117.795C52.6849 117.426 52.8635 117.107 53.0969 116.838C53.3302 116.564 53.6128 116.353 53.9445 116.203C54.2763 116.05 54.6482 115.974 55.0602 115.974C55.4758 115.974 55.8495 116.05 56.1812 116.203C56.5167 116.353 56.801 116.564 57.0344 116.838C57.2714 117.107 57.4518 117.426 57.5758 117.795C57.6997 118.159 57.7617 118.555 57.7617 118.981V119.107C57.7617 119.534 57.6997 119.929 57.5758 120.294C57.4518 120.658 57.2714 120.977 57.0344 121.251C56.801 121.521 56.5185 121.732 56.1867 121.885C55.8586 122.035 55.4867 122.109 55.0711 122.109C54.6555 122.109 54.2818 122.035 53.95 121.885C53.6182 121.732 53.3339 121.521 53.0969 121.251C52.8635 120.977 52.6849 120.658 52.5609 120.294C52.437 119.929 52.375 119.534 52.375 119.107ZM53.3867 118.981V119.107C53.3867 119.402 53.4214 119.681 53.4906 119.944C53.5599 120.203 53.6638 120.432 53.8023 120.633C53.9445 120.833 54.1214 120.992 54.3328 121.109C54.5443 121.222 54.7904 121.278 55.0711 121.278C55.3482 121.278 55.5906 121.222 55.7984 121.109C56.0099 120.992 56.1849 120.833 56.3234 120.633C56.462 120.432 56.5659 120.203 56.6352 119.944C56.7081 119.681 56.7445 119.402 56.7445 119.107V118.981C56.7445 118.69 56.7081 118.414 56.6352 118.156C56.5659 117.893 56.4602 117.662 56.318 117.461C56.1794 117.257 56.0044 117.096 55.793 116.98C55.5852 116.863 55.3409 116.805 55.0602 116.805C54.7831 116.805 54.5388 116.863 54.3273 116.98C54.1195 117.096 53.9445 117.257 53.8023 117.461C53.6638 117.662 53.5599 117.893 53.4906 118.156C53.4214 118.414 53.3867 118.69 53.3867 118.981ZM60.0422 117.013V122H59.0305V116.083H60.0148L60.0422 117.013ZM61.8906 116.05L61.8852 116.991C61.8013 116.973 61.7211 116.962 61.6445 116.958C61.5716 116.951 61.4878 116.947 61.393 116.947C61.1596 116.947 60.9536 116.983 60.775 117.056C60.5964 117.129 60.4451 117.231 60.3211 117.363C60.1971 117.494 60.0987 117.651 60.0258 117.833C59.9565 118.012 59.9109 118.208 59.8891 118.424L59.6047 118.588C59.6047 118.23 59.6393 117.895 59.7086 117.581C59.7815 117.268 59.8927 116.991 60.0422 116.75C60.1917 116.506 60.3812 116.316 60.6109 116.181C60.8443 116.043 61.1214 115.974 61.4422 115.974C61.5151 115.974 61.599 115.983 61.6937 116.001C61.7885 116.015 61.8542 116.032 61.8906 116.05ZM65.5766 116.083V116.859H62.3773V116.083H65.5766ZM63.4602 114.645H64.4719V120.534C64.4719 120.735 64.5029 120.886 64.5648 120.988C64.6268 121.09 64.707 121.158 64.8055 121.191C64.9039 121.224 65.0096 121.24 65.1227 121.24C65.2065 121.24 65.294 121.233 65.3852 121.218C65.4799 121.2 65.551 121.185 65.5984 121.174L65.6039 122C65.5237 122.026 65.418 122.049 65.2867 122.071C65.1591 122.097 65.0042 122.109 64.8219 122.109C64.574 122.109 64.3461 122.06 64.1383 121.962C63.9305 121.863 63.7646 121.699 63.6406 121.47C63.5203 121.236 63.4602 120.923 63.4602 120.529V114.645ZM72.9867 120.431C72.9867 120.285 72.9539 120.15 72.8883 120.026C72.8263 119.898 72.6969 119.783 72.5 119.681C72.3068 119.576 72.0151 119.484 71.625 119.408C71.2969 119.339 70.9997 119.257 70.7336 119.162C70.4711 119.067 70.2469 118.952 70.0609 118.817C69.8786 118.682 69.7383 118.524 69.6398 118.342C69.5414 118.159 69.4922 117.946 69.4922 117.702C69.4922 117.468 69.5432 117.248 69.6453 117.04C69.751 116.832 69.8987 116.648 70.0883 116.488C70.2815 116.327 70.513 116.201 70.7828 116.11C71.0526 116.019 71.3534 115.974 71.6852 115.974C72.1591 115.974 72.5638 116.057 72.8992 116.225C73.2346 116.393 73.4917 116.617 73.6703 116.898C73.849 117.175 73.9383 117.483 73.9383 117.822H72.9266C72.9266 117.658 72.8773 117.499 72.7789 117.346C72.6841 117.189 72.5437 117.06 72.3578 116.958C72.1755 116.856 71.9513 116.805 71.6852 116.805C71.4044 116.805 71.1766 116.849 71.0016 116.936C70.8302 117.02 70.7044 117.127 70.6242 117.259C70.5477 117.39 70.5094 117.529 70.5094 117.674C70.5094 117.784 70.5276 117.882 70.5641 117.97C70.6042 118.054 70.6734 118.132 70.7719 118.205C70.8703 118.274 71.0089 118.34 71.1875 118.402C71.3661 118.464 71.594 118.526 71.8711 118.588C72.356 118.697 72.7552 118.828 73.0687 118.981C73.3823 119.134 73.6156 119.322 73.7687 119.545C73.9219 119.767 73.9984 120.037 73.9984 120.354C73.9984 120.613 73.9437 120.85 73.8344 121.065C73.7286 121.28 73.5737 121.466 73.3695 121.623C73.169 121.776 72.9284 121.896 72.6477 121.984C72.3706 122.068 72.0589 122.109 71.7125 122.109C71.1911 122.109 70.75 122.017 70.3891 121.831C70.0281 121.645 69.7547 121.404 69.5687 121.109C69.3828 120.813 69.2898 120.502 69.2898 120.174H70.307C70.3216 120.451 70.4018 120.671 70.5477 120.835C70.6935 120.996 70.8721 121.111 71.0836 121.18C71.2951 121.245 71.5047 121.278 71.7125 121.278C71.9896 121.278 72.2211 121.242 72.407 121.169C72.5966 121.096 72.7406 120.996 72.8391 120.868C72.9375 120.74 72.9867 120.595 72.9867 120.431ZM76.3391 113.6V122H75.3273V113.6H76.3391ZM76.0984 118.817L75.6773 118.801C75.681 118.396 75.7411 118.023 75.8578 117.68C75.9745 117.333 76.1385 117.033 76.35 116.777C76.5615 116.522 76.813 116.325 77.1047 116.187C77.4 116.045 77.7263 115.974 78.0836 115.974C78.3753 115.974 78.6378 116.014 78.8711 116.094C79.1044 116.17 79.3031 116.294 79.4672 116.466C79.6349 116.637 79.7625 116.859 79.85 117.133C79.9375 117.403 79.9812 117.733 79.9812 118.123V122H78.9641V118.112C78.9641 117.802 78.9185 117.554 78.8273 117.368C78.7362 117.179 78.6031 117.042 78.4281 116.958C78.2531 116.87 78.038 116.827 77.7828 116.827C77.5312 116.827 77.3016 116.88 77.0937 116.985C76.8896 117.091 76.7128 117.237 76.5633 117.423C76.4174 117.609 76.3026 117.822 76.2187 118.063C76.1385 118.3 76.0984 118.551 76.0984 118.817ZM81.2281 119.107V118.981C81.2281 118.555 81.2901 118.159 81.4141 117.795C81.538 117.426 81.7167 117.107 81.95 116.838C82.1833 116.564 82.4659 116.353 82.7977 116.203C83.1294 116.05 83.5013 115.974 83.9133 115.974C84.3289 115.974 84.7026 116.05 85.0344 116.203C85.3698 116.353 85.6542 116.564 85.8875 116.838C86.1245 117.107 86.3049 117.426 86.4289 117.795C86.5529 118.159 86.6148 118.555 86.6148 118.981V119.107C86.6148 119.534 86.5529 119.929 86.4289 120.294C86.3049 120.658 86.1245 120.977 85.8875 121.251C85.6542 121.521 85.3716 121.732 85.0398 121.885C84.7117 122.035 84.3398 122.109 83.9242 122.109C83.5086 122.109 83.1349 122.035 82.8031 121.885C82.4714 121.732 82.187 121.521 81.95 121.251C81.7167 120.977 81.538 120.658 81.4141 120.294C81.2901 119.929 81.2281 119.534 81.2281 119.107ZM82.2398 118.981V119.107C82.2398 119.402 82.2745 119.681 82.3437 119.944C82.413 120.203 82.5169 120.432 82.6555 120.633C82.7977 120.833 82.9745 120.992 83.1859 121.109C83.3974 121.222 83.6435 121.278 83.9242 121.278C84.2013 121.278 84.4437 121.222 84.6516 121.109C84.863 120.992 85.038 120.833 85.1766 120.633C85.3151 120.432 85.419 120.203 85.4883 119.944C85.5612 119.681 85.5977 119.402 85.5977 119.107V118.981C85.5977 118.69 85.5612 118.414 85.4883 118.156C85.419 117.893 85.3133 117.662 85.1711 117.461C85.0326 117.257 84.8576 117.096 84.6461 116.98C84.4383 116.863 84.194 116.805 83.9133 116.805C83.6362 116.805 83.3919 116.863 83.1805 116.98C82.9727 117.096 82.7977 117.257 82.6555 117.461C82.5169 117.662 82.413 117.893 82.3437 118.156C82.2745 118.414 82.2398 118.69 82.2398 118.981ZM90.3391 122.109C89.9271 122.109 89.5534 122.04 89.218 121.902C88.8862 121.759 88.6 121.561 88.3594 121.306C88.1224 121.05 87.9401 120.748 87.8125 120.398C87.6849 120.048 87.6211 119.665 87.6211 119.249V119.02C87.6211 118.538 87.6922 118.11 87.8344 117.734C87.9766 117.355 88.1698 117.034 88.4141 116.772C88.6583 116.509 88.9354 116.311 89.2453 116.176C89.5552 116.041 89.876 115.974 90.2078 115.974C90.6307 115.974 90.9953 116.046 91.3016 116.192C91.6115 116.338 91.8648 116.542 92.0617 116.805C92.2586 117.064 92.4044 117.37 92.4992 117.724C92.594 118.074 92.6414 118.456 92.6414 118.872V119.326H88.2227V118.5H91.6297V118.424C91.6151 118.161 91.5604 117.906 91.4656 117.658C91.3745 117.41 91.2286 117.206 91.0281 117.045C90.8276 116.885 90.5542 116.805 90.2078 116.805C89.9781 116.805 89.7667 116.854 89.5734 116.952C89.3802 117.047 89.2143 117.189 89.0758 117.379C88.9372 117.569 88.8297 117.8 88.7531 118.074C88.6766 118.347 88.6383 118.662 88.6383 119.02V119.249C88.6383 119.53 88.6766 119.794 88.7531 120.042C88.8333 120.287 88.9482 120.502 89.0977 120.688C89.2508 120.874 89.4349 121.019 89.65 121.125C89.8687 121.231 90.1167 121.284 90.3937 121.284C90.751 121.284 91.0536 121.211 91.3016 121.065C91.5495 120.919 91.7664 120.724 91.9523 120.48L92.5648 120.967C92.4372 121.16 92.275 121.344 92.0781 121.519C91.8812 121.694 91.6388 121.836 91.3508 121.945C91.0664 122.055 90.7292 122.109 90.3391 122.109ZM97.268 120.431C97.268 120.285 97.2352 120.15 97.1695 120.026C97.1076 119.898 96.9781 119.783 96.7813 119.681C96.588 119.576 96.2964 119.484 95.9063 119.408C95.5781 119.339 95.281 119.257 95.0148 119.162C94.7523 119.067 94.5281 118.952 94.3422 118.817C94.1599 118.682 94.0195 118.524 93.9211 118.342C93.8227 118.159 93.7734 117.946 93.7734 117.702C93.7734 117.468 93.8245 117.248 93.9266 117.04C94.0323 116.832 94.1799 116.648 94.3695 116.488C94.5628 116.327 94.7943 116.201 95.0641 116.11C95.3339 116.019 95.6346 115.974 95.9664 115.974C96.4404 115.974 96.8451 116.057 97.1805 116.225C97.5159 116.393 97.7729 116.617 97.9516 116.898C98.1302 117.175 98.2195 117.483 98.2195 117.822H97.2078C97.2078 117.658 97.1586 117.499 97.0602 117.346C96.9654 117.189 96.825 117.06 96.6391 116.958C96.4568 116.856 96.2326 116.805 95.9664 116.805C95.6857 116.805 95.4578 116.849 95.2828 116.936C95.1115 117.02 94.9857 117.127 94.9055 117.259C94.8289 117.39 94.7906 117.529 94.7906 117.674C94.7906 117.784 94.8089 117.882 94.8453 117.97C94.8854 118.054 94.9547 118.132 95.0531 118.205C95.1516 118.274 95.2901 118.34 95.4688 118.402C95.6474 118.464 95.8753 118.526 96.1523 118.588C96.6372 118.697 97.0365 118.828 97.35 118.981C97.6635 119.134 97.8969 119.322 98.05 119.545C98.2031 119.767 98.2797 120.037 98.2797 120.354C98.2797 120.613 98.225 120.85 98.1156 121.065C98.0099 121.28 97.8549 121.466 97.6508 121.623C97.4503 121.776 97.2096 121.896 96.9289 121.984C96.6518 122.068 96.3401 122.109 95.9938 122.109C95.4724 122.109 95.0313 122.017 94.6703 121.831C94.3094 121.645 94.0359 121.404 93.85 121.109C93.6641 120.813 93.5711 120.502 93.5711 120.174H94.5883C94.6029 120.451 94.6831 120.671 94.8289 120.835C94.9747 120.996 95.1534 121.111 95.3648 121.18C95.5763 121.245 95.7859 121.278 95.9938 121.278C96.2708 121.278 96.5023 121.242 96.6883 121.169C96.8779 121.096 97.0219 120.996 97.1203 120.868C97.2188 120.74 97.268 120.595 97.268 120.431Z" fill="#342D58"/>
<path d="M285.033 65.5282V70.6001H284.161V65.5282H285.033ZM284.095 64.1829C284.095 64.0423 284.137 63.9235 284.222 63.8267C284.309 63.7298 284.437 63.6813 284.606 63.6813C284.772 63.6813 284.898 63.7298 284.986 63.8267C285.077 63.9235 285.122 64.0423 285.122 64.1829C285.122 64.3173 285.077 64.4329 284.986 64.5298C284.898 64.6235 284.772 64.6704 284.606 64.6704C284.437 64.6704 284.309 64.6235 284.222 64.5298C284.137 64.4329 284.095 64.3173 284.095 64.1829Z" fill="#AEABBC"/>
<path d="M259.995 65.1797L257.736 71.4H256.812L259.414 64.575H260.009L259.995 65.1797ZM261.889 71.4L259.625 65.1797L259.611 64.575H260.206L262.817 71.4H261.889ZM261.772 68.8735V69.6141H257.937V68.8735H261.772ZM266.797 70.4156V64.2H267.669V71.4H266.872L266.797 70.4156ZM263.384 68.9203V68.8219C263.384 68.4344 263.431 68.0828 263.525 67.7672C263.622 67.4485 263.758 67.175 263.933 66.9469C264.111 66.7188 264.322 66.5438 264.566 66.4219C264.813 66.2969 265.088 66.2344 265.391 66.2344C265.709 66.2344 265.988 66.2906 266.225 66.4031C266.466 66.5125 266.669 66.6735 266.834 66.886C267.003 67.0953 267.136 67.3485 267.233 67.6453C267.33 67.9422 267.397 68.2781 267.434 68.6531V69.0844C267.4 69.4563 267.333 69.7906 267.233 70.0875C267.136 70.3844 267.003 70.6375 266.834 70.8469C266.669 71.0563 266.466 71.2172 266.225 71.3297C265.984 71.4391 265.703 71.4938 265.381 71.4938C265.084 71.4938 264.813 71.4297 264.566 71.3016C264.322 71.1735 264.111 70.9938 263.933 70.7625C263.758 70.5313 263.622 70.2594 263.525 69.9469C263.431 69.6313 263.384 69.2891 263.384 68.9203ZM264.256 68.8219V68.9203C264.256 69.1735 264.281 69.411 264.331 69.6328C264.384 69.8547 264.466 70.05 264.575 70.2188C264.684 70.3875 264.823 70.5203 264.992 70.6172C265.161 70.711 265.363 70.7578 265.597 70.7578C265.884 70.7578 266.12 70.6969 266.305 70.575C266.492 70.4531 266.642 70.2922 266.755 70.0922C266.867 69.8922 266.955 69.675 267.017 69.4406V68.311C266.98 68.1391 266.925 67.9735 266.853 67.8141C266.784 67.6516 266.694 67.5078 266.581 67.3828C266.472 67.2547 266.336 67.1531 266.173 67.0781C266.014 67.0031 265.825 66.9656 265.606 66.9656C265.369 66.9656 265.164 67.0156 264.992 67.1156C264.823 67.2125 264.684 67.3469 264.575 67.5188C264.466 67.6875 264.384 67.8844 264.331 68.1094C264.281 68.3313 264.256 68.5688 264.256 68.8219ZM271.972 70.0547C271.972 69.9297 271.944 69.8141 271.888 69.7078C271.834 69.5985 271.723 69.5 271.555 69.4125C271.389 69.3219 271.139 69.2438 270.805 69.1781C270.523 69.1188 270.269 69.0485 270.041 68.9672C269.816 68.886 269.623 68.7875 269.464 68.6719C269.308 68.5563 269.188 68.4203 269.103 68.2641C269.019 68.1078 268.977 67.925 268.977 67.7156C268.977 67.5156 269.02 67.3266 269.108 67.1485C269.198 66.9703 269.325 66.8125 269.488 66.675C269.653 66.5375 269.852 66.4297 270.083 66.3516C270.314 66.2735 270.572 66.2344 270.856 66.2344C271.263 66.2344 271.609 66.3063 271.897 66.45C272.184 66.5938 272.405 66.786 272.558 67.0266C272.711 67.2641 272.788 67.5281 272.788 67.8188H271.92C271.92 67.6781 271.878 67.5422 271.794 67.411C271.713 67.2766 271.592 67.1656 271.433 67.0781C271.277 66.9906 271.084 66.9469 270.856 66.9469C270.616 66.9469 270.42 66.9844 270.27 67.0594C270.123 67.1313 270.016 67.2235 269.947 67.336C269.881 67.4485 269.848 67.5672 269.848 67.6922C269.848 67.786 269.864 67.8703 269.895 67.9453C269.93 68.0172 269.989 68.0844 270.073 68.1469C270.158 68.2063 270.277 68.2625 270.43 68.3156C270.583 68.3688 270.778 68.4219 271.016 68.475C271.431 68.5688 271.773 68.6813 272.042 68.8125C272.311 68.9438 272.511 69.1047 272.642 69.2953C272.773 69.486 272.839 69.7172 272.839 69.9891C272.839 70.211 272.792 70.4141 272.698 70.5985C272.608 70.7828 272.475 70.9422 272.3 71.0766C272.128 71.2078 271.922 71.311 271.681 71.386C271.444 71.4578 271.177 71.4938 270.88 71.4938C270.433 71.4938 270.055 71.4141 269.745 71.2547C269.436 71.0953 269.202 70.8891 269.042 70.636C268.883 70.3828 268.803 70.1156 268.803 69.8344H269.675C269.688 70.0719 269.756 70.261 269.881 70.4016C270.006 70.5391 270.159 70.6375 270.341 70.6969C270.522 70.7531 270.702 70.7813 270.88 70.7813C271.117 70.7813 271.316 70.75 271.475 70.6875C271.638 70.625 271.761 70.5391 271.845 70.4297C271.93 70.3203 271.972 70.1953 271.972 70.0547Z" fill="#AEABBC"/>
<circle cx="284.595" cy="67.6001" r="6" stroke="#AEABBC" stroke-width="0.8"/>
<defs>
<filter id="filter0_dd_9694_46355" x="0.320312" y="0.921021" width="328.559" height="172.558" filterUnits="userSpaceOnUse" color-interpolation-filters="sRGB">
<feFlood flood-opacity="0" result="BackgroundImageFix"/>
<feColorMatrix in="SourceAlpha" type="matrix" values="0 0 0 0 0 0 0 0 0 0 0 0 0 0 0 0 0 0 127 0" result="hardAlpha"/>
<feMorphology radius="4" operator="erode" in="SourceAlpha" result="effect1_dropShadow_9694_46355"/>
<feOffset dy="16"/>
<feGaussianBlur stdDeviation="10"/>
<feComposite in2="hardAlpha" operator="out"/>
<feColorMatrix type="matrix" values="0 0 0 0 0.0313726 0 0 0 0 0.0313726 0 0 0 0 0.129412 0 0 0 0.1 0"/>
<feBlend mode="normal" in2="BackgroundImageFix" result="effect1_dropShadow_9694_46355"/>
<feColorMatrix in="SourceAlpha" type="matrix" values="0 0 0 0 0 0 0 0 0 0 0 0 0 0 0 0 0 0 127 0" result="hardAlpha"/>
<feMorphology radius="4" operator="erode" in="SourceAlpha" result="effect2_dropShadow_9694_46355"/>
<feOffset dy="8"/>
<feGaussianBlur stdDeviation="4"/>
<feComposite in2="hardAlpha" operator="out"/>
<feColorMatrix type="matrix" values="0 0 0 0 0.0313726 0 0 0 0 0.0313726 0 0 0 0 0.129412 0 0 0 0.04 0"/>
<feBlend mode="normal" in2="effect1_dropShadow_9694_46355" result="effect2_dropShadow_9694_46355"/>
<feBlend mode="normal" in="SourceGraphic" in2="effect2_dropShadow_9694_46355" result="shape"/>
</filter>
<filter id="filter1_i_9694_46355" x="21.3984" y="6" width="286.398" height="130.4" filterUnits="userSpaceOnUse" color-interpolation-filters="sRGB">
<feFlood flood-opacity="0" result="BackgroundImageFix"/>
<feBlend mode="normal" in="SourceGraphic" in2="BackgroundImageFix" result="shape"/>
<feColorMatrix in="SourceAlpha" type="matrix" values="0 0 0 0 0 0 0 0 0 0 0 0 0 0 0 0 0 0 127 0" result="hardAlpha"/>
<feOffset/>
<feGaussianBlur stdDeviation="1.12218"/>
<feComposite in2="hardAlpha" operator="arithmetic" k2="-1" k3="1"/>
<feColorMatrix type="matrix" values="0 0 0 0 0.0313726 0 0 0 0 0.0313726 0 0 0 0 0.129412 0 0 0 0.06 0"/>
<feBlend mode="normal" in2="shape" result="effect1_innerShadow_9694_46355"/>
</filter>
<linearGradient id="paint0_linear_9694_46355" x1="137.705" y1="163.238" x2="144.709" y2="82.5896" gradientUnits="userSpaceOnUse">
<stop stop-color="#080821" stop-opacity="0.9"/>
<stop offset="1" stop-color="white" stop-opacity="0"/>
</linearGradient>
<linearGradient id="paint1_linear_9694_46355" x1="110.462" y1="-21.6271" x2="179.676" y2="75.4783" gradientUnits="userSpaceOnUse">
<stop stop-color="#080821" stop-opacity="0.9"/>
<stop offset="1" stop-color="white" stop-opacity="0"/>
</linearGradient>
<linearGradient id="paint2_linear_9694_46355" x1="239.167" y1="-25.1002" x2="164.344" y2="62.3347" gradientUnits="userSpaceOnUse">
<stop stop-color="#080821"/>
<stop offset="1" stop-color="white" stop-opacity="0"/>
</linearGradient>
<linearGradient id="paint3_linear_9694_46355" x1="321.131" y1="-2.48957" x2="290.204" y2="16.7209" gradientUnits="userSpaceOnUse">
<stop offset="0.581631" stop-color="white"/>
<stop offset="1" stop-color="white" stop-opacity="0"/>
</linearGradient>
<linearGradient id="paint4_linear_9694_46355" x1="302.961" y1="-6.05373" x2="272.099" y2="13.2829" gradientUnits="userSpaceOnUse">
<stop offset="0.581631" stop-color="white"/>
<stop offset="1" stop-color="white" stop-opacity="0"/>
</linearGradient>
<linearGradient id="paint5_linear_9694_46355" x1="613.961" y1="133.546" x2="583.099" y2="152.883" gradientUnits="userSpaceOnUse">
<stop offset="0.581631" stop-color="white"/>
<stop offset="1" stop-color="white" stop-opacity="0"/>
</linearGradient>
<linearGradient id="paint6_linear_9694_46355" x1="302.961" y1="-6.05373" x2="272.099" y2="13.2829" gradientUnits="userSpaceOnUse">
<stop offset="0.581631" stop-color="white"/>
<stop offset="1" stop-color="white" stop-opacity="0"/>
</linearGradient>
<clipPath id="clip0_9694_46355">
<rect width="16" height="16" fill="white" transform="translate(39.7969 20.4001)"/>
</clipPath>
</defs>
</svg>
