<svg width="244" height="455" viewBox="0 0 244 455" fill="none" xmlns="http://www.w3.org/2000/svg">
<mask id="mask0_521_1333" style="mask-type:alpha" maskUnits="userSpaceOnUse" x="0" y="0" width="244" height="455">
<rect x="0.496094" width="243.386" height="454.3" fill="#F7F7F7"/>
</mask>
<g mask="url(#mask0_521_1333)">
<g filter="url(#filter0_d_521_1333)">
<rect x="24.4414" y="13.6909" width="196.663" height="426.916" rx="14.9293" fill="white"/>
<rect x="22.0421" y="11.2916" width="201.461" height="431.715" rx="17.3286" stroke="url(#paint0_linear_521_1333)" stroke-opacity="0.1" stroke-width="4.7987"/>
<rect x="22.0421" y="11.2916" width="201.461" height="431.715" rx="17.3286" stroke="url(#paint1_linear_521_1333)" stroke-opacity="0.1" stroke-width="4.7987"/>
<rect x="22.0421" y="11.2916" width="201.461" height="431.715" rx="17.3286" stroke="url(#paint2_linear_521_1333)" stroke-opacity="0.1" stroke-width="4.7987"/>
<rect x="22.0421" y="11.2916" width="201.461" height="431.715" rx="17.3286" stroke="white" stroke-opacity="0.2" stroke-width="4.7987"/>
</g>
<mask id="mask1_521_1333" style="mask-type:alpha" maskUnits="userSpaceOnUse" x="19" y="8" width="207" height="438">
<rect x="24.4473" y="13.6909" width="196.663" height="426.916" rx="14.9293" fill="white"/>
<rect x="22.0479" y="11.2916" width="201.461" height="431.715" rx="17.3286" stroke="url(#paint3_linear_521_1333)" stroke-opacity="0.1" stroke-width="4.7987"/>
<rect x="22.0479" y="11.2916" width="201.461" height="431.715" rx="17.3286" stroke="url(#paint4_linear_521_1333)" stroke-opacity="0.1" stroke-width="4.7987"/>
<rect x="22.0479" y="11.2916" width="201.461" height="431.715" rx="17.3286" stroke="url(#paint5_linear_521_1333)" stroke-opacity="0.1" stroke-width="4.7987"/>
<rect x="22.0479" y="11.2916" width="201.461" height="431.715" rx="17.3286" stroke="white" stroke-opacity="0.2" stroke-width="4.7987"/>
</mask>
<g mask="url(#mask1_521_1333)">
<rect x="23.1758" y="331.081" width="197.907" height="110.774" fill="#080821" fill-opacity="0.01"/>
<rect x="40.6016" y="339.793" width="14.9362" height="18.6698" rx="2.48938" fill="#080821" fill-opacity="0.02"/>
<rect x="58.0273" y="339.793" width="14.9362" height="18.6698" rx="2.48938" fill="#080821" fill-opacity="0.02"/>
<rect x="75.4531" y="339.793" width="14.9362" height="18.6698" rx="2.48938" fill="#080821" fill-opacity="0.02"/>
<rect x="92.8789" y="339.793" width="14.9362" height="18.6698" rx="2.48938" fill="#080821" fill-opacity="0.02"/>
<rect x="110.305" y="339.793" width="14.9362" height="18.6698" rx="2.48938" fill="#080821" fill-opacity="0.02"/>
<rect x="127.729" y="339.793" width="14.9362" height="18.6698" rx="2.48938" fill="#080821" fill-opacity="0.02"/>
<rect x="145.154" y="339.793" width="14.9362" height="18.6698" rx="2.48938" fill="#080821" fill-opacity="0.02"/>
<rect x="162.58" y="339.793" width="14.9362" height="18.6698" rx="2.48938" fill="#080821" fill-opacity="0.02"/>
<rect x="180.006" y="339.793" width="14.9362" height="18.6698" rx="2.48938" fill="#080821" fill-opacity="0.02"/>
<rect x="197.432" y="339.793" width="14.9362" height="18.6698" rx="2.48938" fill="#080821" fill-opacity="0.02"/>
<rect x="40.6016" y="387.09" width="19.9149" height="18.6698" rx="2.48938" fill="#080821" fill-opacity="0.02"/>
<rect x="63.0059" y="387.09" width="14.9362" height="18.6698" rx="2.48938" fill="#080821" fill-opacity="0.02"/>
<rect x="80.4316" y="387.09" width="14.9362" height="18.6698" rx="2.48938" fill="#080821" fill-opacity="0.02"/>
<rect x="97.8574" y="387.09" width="14.9362" height="18.6698" rx="2.48938" fill="#080821" fill-opacity="0.02"/>
<rect x="115.283" y="387.09" width="14.9362" height="18.6698" rx="2.48938" fill="#080821" fill-opacity="0.02"/>
<rect x="132.707" y="387.09" width="14.9362" height="18.6698" rx="2.48938" fill="#080821" fill-opacity="0.02"/>
<rect x="150.133" y="387.09" width="14.9362" height="18.6698" rx="2.48938" fill="#080821" fill-opacity="0.02"/>
<rect x="167.559" y="387.09" width="14.9362" height="18.6698" rx="2.48938" fill="#080821" fill-opacity="0.02"/>
<rect x="184.984" y="387.09" width="24.8936" height="18.6698" rx="2.48938" fill="#080821" fill-opacity="0.02"/>
<rect x="40.6016" y="410.738" width="19.9149" height="18.6698" rx="2.48938" fill="#080821" fill-opacity="0.02"/>
<rect x="63.0059" y="410.738" width="19.9149" height="18.6698" rx="2.48938" fill="#080821" fill-opacity="0.02"/>
<rect x="85.4102" y="410.738" width="94.5957" height="18.6698" rx="2.48938" fill="#080821" fill-opacity="0.02"/>
<rect x="182.496" y="410.738" width="24.8936" height="18.6698" rx="2.48938" fill="#080821" fill-opacity="0.02"/>
<rect x="49.3262" y="363.441" width="14.9362" height="18.6698" rx="2.48938" fill="#080821" fill-opacity="0.02"/>
<rect x="66.752" y="363.441" width="14.9362" height="18.6698" rx="2.48938" fill="#080821" fill-opacity="0.02"/>
<rect x="84.1777" y="363.441" width="14.9362" height="18.6698" rx="2.48938" fill="#080821" fill-opacity="0.02"/>
<rect x="101.604" y="363.441" width="14.9362" height="18.6698" rx="2.48938" fill="#080821" fill-opacity="0.02"/>
<rect x="119.029" y="363.441" width="14.9362" height="18.6698" rx="2.48938" fill="#080821" fill-opacity="0.02"/>
<rect x="136.453" y="363.441" width="14.9362" height="18.6698" rx="2.48938" fill="#080821" fill-opacity="0.02"/>
<rect x="153.879" y="363.441" width="14.9362" height="18.6698" rx="2.48938" fill="#080821" fill-opacity="0.02"/>
<rect x="171.305" y="363.441" width="14.9362" height="18.6698" rx="2.48938" fill="#080821" fill-opacity="0.02"/>
<rect x="188.73" y="363.441" width="14.9362" height="18.6698" rx="2.48938" fill="#080821" fill-opacity="0.02"/>
</g>
<rect opacity="0.4" x="21.9336" y="11.2036" width="201.64" height="431.895" rx="17.062" stroke="url(#paint6_linear_521_1333)" stroke-width="0.533188"/>
<rect opacity="0.4" width="201.64" height="431.895" rx="17.062" transform="matrix(-1 0 0 1 223.574 11.2021)" stroke="url(#paint7_linear_521_1333)" stroke-width="0.533188"/>
<rect opacity="0.4" x="223.574" y="443.1" width="201.64" height="431.895" rx="17.062" transform="rotate(180 223.574 443.1)" stroke="url(#paint8_linear_521_1333)" stroke-width="0.533188"/>
<rect opacity="0.4" width="201.64" height="431.895" rx="17.062" transform="matrix(1 0 0 -1 21.9336 443.1)" stroke="url(#paint9_linear_521_1333)" stroke-width="0.533188"/>
<g filter="url(#filter1_i_521_1333)">
<path d="M39.3707 13.9575H206.175C214.273 13.9575 220.837 20.5222 220.837 28.6202V425.678C220.837 433.776 214.273 440.341 206.175 440.341H39.3707C31.2727 440.341 24.708 433.776 24.708 425.678V28.6202C24.708 20.5222 31.2727 13.9575 39.3707 13.9575Z" stroke="white" stroke-opacity="0.1" stroke-width="0.533188"/>
</g>
<rect x="191.5" y="26" width="18.1087" height="7.45652" rx="1.63261" fill="#F2F2F2" fill-opacity="0.5"/>
<rect x="167" y="26" width="18.1087" height="7.45652" rx="1.63261" fill="#F2F2F2" fill-opacity="0.5"/>
</g>
<rect x="61" y="36" width="60.3981" height="8.93203" rx="1.95913" fill="#F2F2F2" fill-opacity="0.5"/>
<path d="M52.3078 35.8362V31.214L45.1539 27L38 31.214V39.7889L40.3193 38.4659V32.5533L46.2646 35.9996L39.4047 39.9522L48.7962 45.3748L45.1539 47.4818L40.3193 44.6725V41.4548L38 40.1155V46.0118L45.1539 50.1441L52.3078 46.0118V36.1629L49.9885 37.5022V43.3985L44.0433 39.9522L50.9032 35.9996L42.5896 31.1976L45.1539 29.6786L49.9885 32.5369V34.4969L52.3078 35.8362Z" fill="#E60128"/>
<rect x="38.3196" y="125.32" width="169.361" height="101.361" rx="3.28043" stroke="#F2F2F2" stroke-width="0.63913"/>
<line x1="38" y1="134.776" x2="208" y2="134.776" stroke="#F2F2F2" stroke-width="0.63913"/>
<line x1="38" y1="145.002" x2="208" y2="145.002" stroke="#F2F2F2" stroke-width="0.63913"/>
<line x1="38" y1="155.228" x2="208" y2="155.228" stroke="#F2F2F2" stroke-width="0.63913"/>
<line x1="38" y1="165.454" x2="208" y2="165.454" stroke="#F2F2F2" stroke-width="0.63913"/>
<line x1="38" y1="175.68" x2="208" y2="175.68" stroke="#F2F2F2" stroke-width="0.63913"/>
<line x1="38" y1="185.907" x2="208" y2="185.907" stroke="#F2F2F2" stroke-width="0.63913"/>
<line x1="38" y1="196.133" x2="208" y2="196.133" stroke="#F2F2F2" stroke-width="0.63913"/>
<line x1="38" y1="206.359" x2="208" y2="206.359" stroke="#F2F2F2" stroke-width="0.63913"/>
<line x1="38" y1="216.585" x2="208" y2="216.585" stroke="#F2F2F2" stroke-width="0.63913"/>
<rect x="38" y="105.091" width="30.6783" height="8.94783" rx="1.95913" fill="#F2F2F2" fill-opacity="0.5"/>
<rect x="73.791" y="105.091" width="51.1304" height="8.94783" rx="1.95913" fill="#F2F2F2" fill-opacity="0.5"/>
<rect x="130.035" y="105.091" width="40.2652" height="8.94783" rx="1.95913" fill="#F2F2F2" fill-opacity="0.5"/>
<rect x="38" y="87" width="60" height="10" rx="1.95913" fill="#F2F2F2" fill-opacity="0.5"/>
<g clip-path="url(#clip0_521_1333)">
<path d="M25 202.211L28.121 203.578C33.2376 205.82 39.225 204.133 42.4186 199.55L44.4177 196.681C46.9859 192.995 52.0459 192.071 55.7515 194.61V194.61L58.4793 196.326C60.2153 197.419 62.314 197.777 64.3139 197.322V197.322C66.0803 196.92 67.6496 195.91 68.7481 194.47L71.5313 190.82C78.6369 181.502 92.1149 180.074 101.015 187.696L102.984 189.382C112.75 197.746 127.478 196.392 135.663 186.476C138.93 182.518 142.211 178.572 145.511 174.641V174.641C150.809 168.33 160.746 169.183 164.925 176.285C166.538 179.025 168.147 181.767 169.754 184.511C175.814 194.859 190.08 196.966 195.899 186.481C200.332 178.493 203.252 169.72 205.138 160.303C205.804 156.98 208.663 154.502 212.052 154.502V154.502C214.82 154.502 217.304 156.17 218.444 158.692C220.616 163.499 222.998 168.119 225.649 172.557C233.095 185.02 249.962 186.898 258.501 175.157C262.707 169.373 266.308 163.102 269.963 156.773C272.534 152.323 277.293 149.626 282.432 149.626V149.626C286.243 149.626 289.903 151.112 292.636 153.769L299.002 159.959C305.951 166.716 317.226 165.953 323.202 158.321L329.541 150.224C332.943 145.879 339.539 145.939 342.862 150.345V150.345C345.915 154.394 351.832 154.835 355.452 151.284L372.052 135" stroke="#16F8B6" stroke-linecap="round"/>
<path d="M25.207 183.117V183.117C30.4085 189.612 40.529 188.78 44.601 181.524L47.6288 176.129C49.6076 172.603 53.6107 170.727 57.5866 171.462V171.462C59.3908 171.796 61.0588 172.648 62.3869 173.914L80.2683 190.958C83.9033 194.422 89.2863 195.314 93.8443 193.206V193.206C96.2729 192.083 98.2665 190.195 99.5194 187.831L106.509 174.641V174.641C111.677 162.428 127.714 159.594 136.754 169.297L155.823 189.764C156.876 190.894 158.138 191.809 159.54 192.457V192.457C164.833 194.904 171.118 193.163 174.397 188.342L185.845 171.508C190.014 165.378 198.695 164.47 204.042 169.605V169.605C204.477 170.023 204.942 170.407 205.435 170.754L205.764 170.986C212.359 175.639 221.296 175.112 227.299 169.717L240.676 157.696V157.696C247.496 152.802 256.945 154.056 262.253 160.558L266.496 165.755C271.742 172.181 280.038 175.29 288.215 173.894L291.561 173.322C296.688 172.447 301.961 173.26 306.586 175.639L315.38 180.162C321.003 183.053 327.898 181.354 331.533 176.181V176.181C335.29 170.835 342.497 169.225 348.172 172.464L349.399 173.164C355.552 176.676 363.35 175.122 367.687 169.521L372.259 163.616" stroke="#A5A6F6" stroke-linecap="round"/>
<g filter="url(#filter2_bd_521_1333)">
<mask id="path-64-inside-1_521_1333" fill="white">
<path d="M50 171C50 168.239 52.2386 166 55 166V166C57.7614 166 60 168.239 60 171V171C60 173.761 57.7614 176 55 176V176C52.2386 176 50 173.761 50 171V171Z"/>
</mask>
<path d="M50 171C50 168.239 52.2386 166 55 166V166C57.7614 166 60 168.239 60 171V171C60 173.761 57.7614 176 55 176V176C52.2386 176 50 173.761 50 171V171Z" fill="white" fill-opacity="0.2" shape-rendering="crispEdges"/>
<path d="M49 170.5C49 167.462 51.4624 165 54.5 165C57.5376 165 60 167.462 60 170.5V171C60 168.791 57.7614 167 55 167C52.7909 167 51 168.791 51 171L49 170.5ZM60 176H50H60ZM54.5 176C51.4624 176 49 173.538 49 170.5C49 167.462 51.4624 165 54.5 165L55 167C52.7909 167 51 168.791 51 171C51 173.761 52.7909 176 55 176H54.5ZM60 166V176V166Z" fill="white" fill-opacity="0.05" mask="url(#path-64-inside-1_521_1333)"/>
</g>
<g filter="url(#filter3_bd_521_1333)">
<mask id="path-66-inside-2_521_1333" fill="white">
<path d="M45 194C45 191.239 47.2386 189 50 189V189C52.7614 189 55 191.239 55 194V194C55 196.761 52.7614 199 50 199V199C47.2386 199 45 196.761 45 194V194Z"/>
</mask>
<path d="M45 194C45 191.239 47.2386 189 50 189V189C52.7614 189 55 191.239 55 194V194C55 196.761 52.7614 199 50 199V199C47.2386 199 45 196.761 45 194V194Z" fill="white" fill-opacity="0.2" shape-rendering="crispEdges"/>
<path d="M44 193.5C44 190.462 46.4624 188 49.5 188C52.5376 188 55 190.462 55 193.5V194C55 191.791 52.7614 190 50 190C47.7909 190 46 191.791 46 194L44 193.5ZM55 199H45H55ZM49.5 199C46.4624 199 44 196.538 44 193.5C44 190.462 46.4624 188 49.5 188L50 190C47.7909 190 46 191.791 46 194C46 196.761 47.7909 199 50 199H49.5ZM55 189V199V189Z" fill="white" fill-opacity="0.05" mask="url(#path-66-inside-2_521_1333)"/>
</g>
<g filter="url(#filter4_bd_521_1333)">
<mask id="path-68-inside-3_521_1333" fill="white">
<path d="M83 183C83 180.239 85.2386 178 88 178V178C90.7614 178 93 180.239 93 183V183C93 185.761 90.7614 188 88 188V188C85.2386 188 83 185.761 83 183V183Z"/>
</mask>
<path d="M83 183C83 180.239 85.2386 178 88 178V178C90.7614 178 93 180.239 93 183V183C93 185.761 90.7614 188 88 188V188C85.2386 188 83 185.761 83 183V183Z" fill="white" fill-opacity="0.2" shape-rendering="crispEdges"/>
<path d="M82 182.5C82 179.462 84.4624 177 87.5 177C90.5376 177 93 179.462 93 182.5V183C93 180.791 90.7614 179 88 179C85.7909 179 84 180.791 84 183L82 182.5ZM93 188H83H93ZM87.5 188C84.4624 188 82 185.538 82 182.5C82 179.462 84.4624 177 87.5 177L88 179C85.7909 179 84 180.791 84 183C84 185.761 85.7909 188 88 188H87.5ZM93 178V188V178Z" fill="white" fill-opacity="0.05" mask="url(#path-68-inside-3_521_1333)"/>
</g>
<g filter="url(#filter5_bd_521_1333)">
<mask id="path-70-inside-4_521_1333" fill="white">
<path d="M118 163C118 160.239 120.239 158 123 158V158C125.761 158 128 160.239 128 163V163C128 165.761 125.761 168 123 168V168C120.239 168 118 165.761 118 163V163Z"/>
</mask>
<path d="M118 163C118 160.239 120.239 158 123 158V158C125.761 158 128 160.239 128 163V163C128 165.761 125.761 168 123 168V168C120.239 168 118 165.761 118 163V163Z" fill="white" fill-opacity="0.2" shape-rendering="crispEdges"/>
<path d="M117 162.5C117 159.462 119.462 157 122.5 157C125.538 157 128 159.462 128 162.5V163C128 160.791 125.761 159 123 159C120.791 159 119 160.791 119 163L117 162.5ZM128 168H118H128ZM122.5 168C119.462 168 117 165.538 117 162.5C117 159.462 119.462 157 122.5 157L123 159C120.791 159 119 160.791 119 163C119 165.761 120.791 168 123 168H122.5ZM128 158V168V158Z" fill="white" fill-opacity="0.05" mask="url(#path-70-inside-4_521_1333)"/>
</g>
<g filter="url(#filter6_bd_521_1333)">
<mask id="path-72-inside-5_521_1333" fill="white">
<path d="M116 194C116 191.239 118.239 189 121 189V189C123.761 189 126 191.239 126 194V194C126 196.761 123.761 199 121 199V199C118.239 199 116 196.761 116 194V194Z"/>
</mask>
<path d="M116 194C116 191.239 118.239 189 121 189V189C123.761 189 126 191.239 126 194V194C126 196.761 123.761 199 121 199V199C118.239 199 116 196.761 116 194V194Z" fill="white" fill-opacity="0.2" shape-rendering="crispEdges"/>
<path d="M115 193.5C115 190.462 117.462 188 120.5 188C123.538 188 126 190.462 126 193.5V194C126 191.791 123.761 190 121 190C118.791 190 117 191.791 117 194L115 193.5ZM126 199H116H126ZM120.5 199C117.462 199 115 196.538 115 193.5C115 190.462 117.462 188 120.5 188L121 190C118.791 190 117 191.791 117 194C117 196.761 118.791 199 121 199H120.5ZM126 189V199V189Z" fill="white" fill-opacity="0.05" mask="url(#path-72-inside-5_521_1333)"/>
</g>
<g filter="url(#filter7_bd_521_1333)">
<mask id="path-74-inside-6_521_1333" fill="white">
<path d="M150 171C150 168.239 152.239 166 155 166V166C157.761 166 160 168.239 160 171V171C160 173.761 157.761 176 155 176V176C152.239 176 150 173.761 150 171V171Z"/>
</mask>
<path d="M150 171C150 168.239 152.239 166 155 166V166C157.761 166 160 168.239 160 171V171C160 173.761 157.761 176 155 176V176C152.239 176 150 173.761 150 171V171Z" fill="white" fill-opacity="0.2" shape-rendering="crispEdges"/>
<path d="M149 170.5C149 167.462 151.462 165 154.5 165C157.538 165 160 167.462 160 170.5V171C160 168.791 157.761 167 155 167C152.791 167 151 168.791 151 171L149 170.5ZM160 176H150H160ZM154.5 176C151.462 176 149 173.538 149 170.5C149 167.462 151.462 165 154.5 165L155 167C152.791 167 151 168.791 151 171C151 173.761 152.791 176 155 176H154.5ZM160 166V176V166Z" fill="white" fill-opacity="0.05" mask="url(#path-74-inside-6_521_1333)"/>
</g>
<g filter="url(#filter8_bd_521_1333)">
<mask id="path-76-inside-7_521_1333" fill="white">
<path d="M187 166C187 163.239 189.239 161 192 161V161C194.761 161 197 163.239 197 166V166C197 168.761 194.761 171 192 171V171C189.239 171 187 168.761 187 166V166Z"/>
</mask>
<path d="M187 166C187 163.239 189.239 161 192 161V161C194.761 161 197 163.239 197 166V166C197 168.761 194.761 171 192 171V171C189.239 171 187 168.761 187 166V166Z" fill="white" fill-opacity="0.2" shape-rendering="crispEdges"/>
<path d="M186 165.5C186 162.462 188.462 160 191.5 160C194.538 160 197 162.462 197 165.5V166C197 163.791 194.761 162 192 162C189.791 162 188 163.791 188 166L186 165.5ZM197 171H187H197ZM191.5 171C188.462 171 186 168.538 186 165.5C186 162.462 188.462 160 191.5 160L192 162C189.791 162 188 163.791 188 166C188 168.761 189.791 171 192 171H191.5ZM197 161V171V161Z" fill="white" fill-opacity="0.05" mask="url(#path-76-inside-7_521_1333)"/>
</g>
<g filter="url(#filter9_bd_521_1333)">
<mask id="path-78-inside-8_521_1333" fill="white">
<path d="M160 193C160 190.239 162.239 188 165 188V188C167.761 188 170 190.239 170 193V193C170 195.761 167.761 198 165 198V198C162.239 198 160 195.761 160 193V193Z"/>
</mask>
<path d="M160 193C160 190.239 162.239 188 165 188V188C167.761 188 170 190.239 170 193V193C170 195.761 167.761 198 165 198V198C162.239 198 160 195.761 160 193V193Z" fill="white" fill-opacity="0.2" shape-rendering="crispEdges"/>
<path d="M159 192.5C159 189.462 161.462 187 164.5 187C167.538 187 170 189.462 170 192.5V193C170 190.791 167.761 189 165 189C162.791 189 161 190.791 161 193L159 192.5ZM170 198H160H170ZM164.5 198C161.462 198 159 195.538 159 192.5C159 189.462 161.462 187 164.5 187L165 189C162.791 189 161 190.791 161 193C161 195.761 162.791 198 165 198H164.5ZM170 188V198V188Z" fill="white" fill-opacity="0.05" mask="url(#path-78-inside-8_521_1333)"/>
</g>
<g filter="url(#filter10_bd_521_1333)">
<mask id="path-80-inside-9_521_1333" fill="white">
<path d="M182 192C182 189.239 184.239 187 187 187V187C189.761 187 192 189.239 192 192V192C192 194.761 189.761 197 187 197V197C184.239 197 182 194.761 182 192V192Z"/>
</mask>
<path d="M182 192C182 189.239 184.239 187 187 187V187C189.761 187 192 189.239 192 192V192C192 194.761 189.761 197 187 197V197C184.239 197 182 194.761 182 192V192Z" fill="white" fill-opacity="0.2" shape-rendering="crispEdges"/>
<path d="M181 191.5C181 188.462 183.462 186 186.5 186C189.538 186 192 188.462 192 191.5V192C192 189.791 189.761 188 187 188C184.791 188 183 189.791 183 192L181 191.5ZM192 197H182H192ZM186.5 197C183.462 197 181 194.538 181 191.5C181 188.462 183.462 186 186.5 186L187 188C184.791 188 183 189.791 183 192C183 194.761 184.791 197 187 197H186.5ZM192 187V197V187Z" fill="white" fill-opacity="0.05" mask="url(#path-80-inside-9_521_1333)"/>
</g>
</g>
<rect x="38" y="241" width="33.9111" height="8.93204" rx="1.95913" fill="#F2F2F2" fill-opacity="0.5"/>
<rect x="76.2266" y="243.233" width="14" height="4" rx="1.95913" fill="#F2F2F2" fill-opacity="0.5"/>
<rect x="75.9102" y="243.699" width="9" height="4" rx="1.95913" fill="#DEDEE0"/>
<path d="M99.0337 248.473C98.4298 248.47 97.9299 248.385 97.534 248.218C97.1381 248.044 96.8402 247.803 96.6403 247.494C96.4464 247.18 96.3504 246.809 96.3524 246.383L97.8265 246.39C97.8258 246.549 97.8696 246.692 97.9578 246.816C98.046 246.941 98.1788 247.039 98.3561 247.111C98.5393 247.177 98.7671 247.211 99.0395 247.212C99.3947 247.214 99.6732 247.159 99.875 247.047C100.083 246.93 100.187 246.761 100.188 246.542C100.189 246.359 100.104 246.21 99.9326 246.097C99.7674 245.978 99.4895 245.9 99.0989 245.862L98.6906 245.825C98.0396 245.763 97.5224 245.565 97.1391 245.232C96.7559 244.893 96.5656 244.418 96.5684 243.808C96.5703 243.388 96.6637 243.039 96.8485 242.762C97.0333 242.484 97.3007 242.278 97.6506 242.144C98.0006 242.003 98.4212 241.934 98.9126 241.936C99.4455 241.939 99.8891 242.024 100.244 242.191C100.604 242.353 100.875 242.585 101.057 242.887C101.24 243.19 101.33 243.558 101.328 243.99L99.8535 243.983C99.8542 243.829 99.8163 243.696 99.7399 243.583C99.6635 243.464 99.5544 243.372 99.4126 243.306C99.2767 243.235 99.1082 243.198 98.9069 243.197C98.7233 243.197 98.5663 243.222 98.4358 243.275C98.3113 243.322 98.2133 243.393 98.1418 243.487C98.0762 243.575 98.0432 243.685 98.0426 243.815C98.0419 243.975 98.1004 244.123 98.2182 244.26C98.3419 244.391 98.5488 244.472 98.8387 244.503L99.2471 244.54C99.9809 244.602 100.566 244.801 101.003 245.134C101.445 245.462 101.665 245.933 101.662 246.549C101.66 246.97 101.558 247.324 101.356 247.613C101.153 247.897 100.856 248.111 100.464 248.258C100.073 248.404 99.5961 248.476 99.0337 248.473ZM98.3182 249.562L98.3242 248.266L99.6207 248.272L99.6148 249.568L98.3182 249.562ZM98.3156 242.369L98.3216 241.072L99.6181 241.078L99.6122 242.375L98.3156 242.369Z" fill="#F2F2F2" fill-opacity="0.5"/>
<rect x="106.803" y="241.241" width="21.3358" height="8.44952" rx="1.95913" fill="#F2F2F2" fill-opacity="0.5"/>
<rect x="132.139" y="241.241" width="22.3358" height="8.44952" rx="1.95913" fill="#F2F2F2" fill-opacity="0.5"/>
<path d="M159.417 248.411L161.774 241.939L163.141 241.945L160.785 248.418L159.417 248.411ZM158.996 245.514C158.64 245.513 158.342 245.434 158.1 245.279C157.864 245.118 157.684 244.904 157.561 244.637C157.444 244.37 157.386 244.074 157.387 243.748L157.388 243.518C157.39 243.168 157.454 242.864 157.579 242.604C157.705 242.338 157.889 242.132 158.132 241.985C158.376 241.838 158.669 241.765 159.013 241.767C159.362 241.768 159.655 241.844 159.891 241.993C160.133 242.142 160.316 242.35 160.439 242.617C160.562 242.878 160.623 243.183 160.621 243.532L160.62 243.763C160.618 244.089 160.555 244.385 160.429 244.651C160.31 244.916 160.131 245.129 159.894 245.287C159.656 245.44 159.357 245.516 158.996 245.514ZM159 244.449C159.154 244.449 159.267 244.394 159.339 244.281C159.41 244.169 159.447 243.959 159.448 243.651C159.45 243.32 159.412 243.101 159.336 242.994C159.265 242.887 159.156 242.833 159.008 242.832C158.86 242.832 158.747 242.884 158.67 242.991C158.598 243.097 158.562 243.313 158.56 243.638C158.559 243.946 158.593 244.16 158.664 244.278C158.74 244.391 158.852 244.448 159 244.449ZM163.511 248.608C163.155 248.606 162.857 248.528 162.615 248.373C162.379 248.212 162.199 247.998 162.076 247.731C161.959 247.464 161.901 247.168 161.902 246.842L161.903 246.611C161.905 246.262 161.969 245.957 162.094 245.697C162.22 245.431 162.404 245.225 162.648 245.078C162.891 244.931 163.184 244.858 163.528 244.86C163.877 244.862 164.17 244.937 164.406 245.086C164.648 245.235 164.831 245.443 164.954 245.71C165.077 245.971 165.138 246.277 165.136 246.626L165.135 246.857C165.133 247.182 165.07 247.478 164.944 247.744C164.825 248.01 164.646 248.222 164.409 248.381C164.171 248.534 163.872 248.609 163.511 248.608ZM163.516 247.542C163.669 247.543 163.782 247.487 163.854 247.375C163.925 247.263 163.962 247.053 163.963 246.745C163.965 246.413 163.927 246.194 163.851 246.087C163.78 245.98 163.671 245.926 163.523 245.926C163.375 245.925 163.262 245.978 163.185 246.084C163.113 246.19 163.077 246.406 163.075 246.732C163.074 247.04 163.108 247.253 163.179 247.372C163.255 247.485 163.367 247.541 163.516 247.542Z" fill="#F2F2F2" fill-opacity="0.5"/>
<ellipse cx="172.884" cy="245.466" rx="2.83503" ry="2.83501" fill="#47FAC6"/>
<ellipse cx="180.954" cy="245.466" rx="2.83503" ry="2.83501" fill="#47FAC6"/>
<ellipse cx="189.024" cy="245.466" rx="2.83503" ry="2.83501" fill="#47FAC6"/>
<ellipse cx="197.095" cy="245.466" rx="2.83503" ry="2.83501" fill="#F2F2F2" fill-opacity="0.5"/>
<ellipse cx="205.163" cy="245.466" rx="2.83503" ry="2.83501" fill="#F2F2F2" fill-opacity="0.5"/>
<rect x="38" y="254.932" width="33.9111" height="8.93204" rx="1.95913" fill="#F2F2F2" fill-opacity="0.5"/>
<rect x="76.2266" y="257.165" width="14" height="4" rx="1.95913" fill="#F2F2F2" fill-opacity="0.5"/>
<rect x="75.9102" y="257.631" width="9" height="4" rx="1.95913" fill="#DEDEE0"/>
<path d="M99.0337 262.405C98.4298 262.403 97.9299 262.317 97.534 262.15C97.1381 261.976 96.8402 261.735 96.6403 261.426C96.4464 261.112 96.3504 260.741 96.3524 260.315L97.8265 260.322C97.8258 260.482 97.8696 260.624 97.9578 260.749C98.046 260.873 98.1788 260.972 98.3561 261.043C98.5393 261.109 98.7671 261.143 99.0395 261.144C99.3947 261.146 99.6732 261.091 99.875 260.979C100.083 260.862 100.187 260.694 100.188 260.475C100.189 260.291 100.104 260.143 99.9326 260.029C99.7674 259.91 99.4895 259.832 99.0989 259.795L98.6906 259.757C98.0396 259.695 97.5224 259.497 97.1391 259.164C96.7559 258.825 96.5656 258.35 96.5684 257.74C96.5703 257.32 96.6637 256.971 96.8485 256.694C97.0333 256.416 97.3007 256.21 97.6506 256.076C98.0006 255.935 98.4212 255.866 98.9126 255.868C99.4455 255.871 99.8891 255.956 100.244 256.123C100.604 256.285 100.875 256.517 101.057 256.82C101.24 257.122 101.33 257.49 101.328 257.922L99.8535 257.915C99.8542 257.761 99.8163 257.628 99.7399 257.515C99.6635 257.396 99.5544 257.304 99.4126 257.238C99.2767 257.167 99.1082 257.13 98.9069 257.129C98.7233 257.129 98.5663 257.155 98.4358 257.207C98.3113 257.254 98.2133 257.325 98.1418 257.419C98.0762 257.508 98.0432 257.617 98.0426 257.747C98.0419 257.907 98.1004 258.055 98.2182 258.192C98.3419 258.323 98.5488 258.404 98.8387 258.435L99.2471 258.472C99.9809 258.535 100.566 258.733 101.003 259.066C101.445 259.394 101.665 259.866 101.662 260.481C101.66 260.902 101.558 261.256 101.356 261.546C101.153 261.829 100.856 262.044 100.464 262.19C100.073 262.336 99.5961 262.408 99.0337 262.405ZM98.3182 263.494L98.3242 262.198L99.6207 262.204L99.6148 263.5L98.3182 263.494ZM98.3156 256.301L98.3216 255.004L99.6181 255.01L99.6122 256.307L98.3156 256.301Z" fill="#F2F2F2" fill-opacity="0.5"/>
<rect x="106.803" y="255.173" width="21.3358" height="8.44952" rx="1.95913" fill="#F2F2F2" fill-opacity="0.5"/>
<rect x="132.139" y="255.173" width="22.3358" height="8.44952" rx="1.95913" fill="#F2F2F2" fill-opacity="0.5"/>
<path d="M159.417 262.343L161.774 255.871L163.141 255.877L160.785 262.35L159.417 262.343ZM158.996 259.446C158.64 259.445 158.342 259.366 158.1 259.211C157.864 259.05 157.684 258.836 157.561 258.57C157.444 258.303 157.386 258.006 157.387 257.681L157.388 257.45C157.39 257.1 157.454 256.796 157.579 256.536C157.705 256.27 157.889 256.064 158.132 255.917C158.376 255.77 158.669 255.697 159.013 255.699C159.362 255.7 159.655 255.776 159.891 255.925C160.133 256.074 160.316 256.282 160.439 256.549C160.562 256.81 160.623 257.115 160.621 257.465L160.62 257.695C160.618 258.021 160.555 258.317 160.429 258.583C160.31 258.849 160.131 259.061 159.894 259.22C159.656 259.372 159.357 259.448 158.996 259.446ZM159 258.381C159.154 258.381 159.267 258.326 159.339 258.214C159.41 258.101 159.447 257.891 159.448 257.583C159.45 257.252 159.412 257.033 159.336 256.926C159.265 256.819 159.156 256.765 159.008 256.764C158.86 256.764 158.747 256.817 158.67 256.923C158.598 257.029 158.562 257.245 158.56 257.571C158.559 257.878 158.593 258.092 158.664 258.21C158.74 258.323 158.852 258.38 159 258.381ZM163.511 262.54C163.155 262.538 162.857 262.46 162.615 262.305C162.379 262.144 162.199 261.93 162.076 261.663C161.959 261.396 161.901 261.1 161.902 260.774L161.903 260.543C161.905 260.194 161.969 259.889 162.094 259.629C162.22 259.363 162.404 259.157 162.648 259.01C162.891 258.863 163.184 258.791 163.528 258.792C163.877 258.794 164.17 258.869 164.406 259.018C164.648 259.167 164.831 259.375 164.954 259.642C165.077 259.903 165.138 260.209 165.136 260.558L165.135 260.789C165.133 261.114 165.07 261.41 164.944 261.676C164.825 261.942 164.646 262.154 164.409 262.313C164.171 262.466 163.872 262.541 163.511 262.54ZM163.516 261.474C163.669 261.475 163.782 261.419 163.854 261.307C163.925 261.195 163.962 260.985 163.963 260.677C163.965 260.345 163.927 260.126 163.851 260.019C163.78 259.912 163.671 259.859 163.523 259.858C163.375 259.857 163.262 259.91 163.185 260.016C163.113 260.122 163.077 260.338 163.075 260.664C163.074 260.972 163.108 261.185 163.179 261.304C163.255 261.417 163.367 261.473 163.516 261.474Z" fill="#F2F2F2" fill-opacity="0.5"/>
<ellipse cx="172.884" cy="259.398" rx="2.83503" ry="2.83501" fill="#F178B6"/>
<ellipse cx="180.954" cy="259.398" rx="2.83503" ry="2.83501" fill="#F2F2F2" fill-opacity="0.5"/>
<ellipse cx="189.024" cy="259.398" rx="2.83503" ry="2.83501" fill="#F2F2F2" fill-opacity="0.5"/>
<ellipse cx="197.095" cy="259.398" rx="2.83503" ry="2.83501" fill="#F2F2F2" fill-opacity="0.5"/>
<ellipse cx="205.163" cy="259.398" rx="2.83503" ry="2.83501" fill="#F2F2F2" fill-opacity="0.5"/>
<rect x="38" y="268.864" width="33.9111" height="8.93204" rx="1.95913" fill="#F2F2F2" fill-opacity="0.5"/>
<rect x="76.2266" y="271.097" width="14" height="4" rx="1.95913" fill="#F2F2F2" fill-opacity="0.5"/>
<rect x="75.9102" y="271.563" width="9" height="4" rx="1.95913" fill="#DEDEE0"/>
<path d="M99.0337 276.337C98.4298 276.335 97.9299 276.249 97.534 276.082C97.1381 275.908 96.8402 275.667 96.6403 275.358C96.4464 275.044 96.3504 274.673 96.3524 274.247L97.8265 274.254C97.8258 274.414 97.8696 274.556 97.9578 274.681C98.046 274.805 98.1788 274.904 98.3561 274.976C98.5393 275.042 98.7671 275.075 99.0395 275.076C99.3947 275.078 99.6732 275.023 99.875 274.911C100.083 274.794 100.187 274.626 100.188 274.407C100.189 274.223 100.104 274.075 99.9326 273.961C99.7674 273.842 99.4895 273.764 99.0989 273.727L98.6906 273.689C98.0396 273.627 97.5224 273.429 97.1391 273.096C96.7559 272.757 96.5656 272.282 96.5684 271.673C96.5703 271.252 96.6637 270.903 96.8485 270.626C97.0333 270.348 97.3007 270.142 97.6506 270.008C98.0006 269.867 98.4212 269.798 98.9126 269.801C99.4455 269.803 99.8891 269.888 100.244 270.055C100.604 270.217 100.875 270.449 101.057 270.752C101.24 271.055 101.33 271.422 101.328 271.854L99.8535 271.847C99.8542 271.694 99.8163 271.56 99.7399 271.447C99.6635 271.329 99.5544 271.236 99.4126 271.171C99.2767 271.099 99.1082 271.063 98.9069 271.062C98.7233 271.061 98.5663 271.087 98.4358 271.139C98.3113 271.186 98.2133 271.257 98.1418 271.351C98.0762 271.44 98.0432 271.549 98.0426 271.679C98.0419 271.839 98.1004 271.987 98.2182 272.124C98.3419 272.255 98.5488 272.336 98.8387 272.367L99.2471 272.404C99.9809 272.467 100.566 272.665 101.003 272.998C101.445 273.326 101.665 273.798 101.662 274.413C101.66 274.834 101.558 275.189 101.356 275.478C101.153 275.761 100.856 275.976 100.464 276.122C100.073 276.268 99.5961 276.34 99.0337 276.337ZM98.3182 277.427L98.3242 276.13L99.6207 276.136L99.6148 277.432L98.3182 277.427ZM98.3156 270.233L98.3216 268.936L99.6181 268.942L99.6122 270.239L98.3156 270.233Z" fill="#F2F2F2" fill-opacity="0.5"/>
<rect x="106.803" y="269.105" width="21.3358" height="8.44952" rx="1.95913" fill="#F2F2F2" fill-opacity="0.5"/>
<rect x="132.139" y="269.105" width="22.3358" height="8.44952" rx="1.95913" fill="#F2F2F2" fill-opacity="0.5"/>
<path d="M159.417 276.276L161.774 269.803L163.141 269.81L160.785 276.282L159.417 276.276ZM158.996 273.379C158.64 273.377 158.342 273.299 158.1 273.144C157.864 272.983 157.684 272.769 157.561 272.502C157.444 272.235 157.386 271.938 157.387 271.613L157.388 271.382C157.39 271.033 157.454 270.728 157.579 270.468C157.705 270.202 157.889 269.996 158.132 269.849C158.376 269.702 158.669 269.629 159.013 269.631C159.362 269.632 159.655 269.708 159.891 269.857C160.133 270.006 160.316 270.214 160.439 270.481C160.562 270.742 160.623 271.047 160.621 271.397L160.62 271.628C160.618 271.953 160.555 272.249 160.429 272.515C160.31 272.781 160.131 272.993 159.894 273.152C159.656 273.305 159.357 273.38 158.996 273.379ZM159 272.313C159.154 272.314 159.267 272.258 159.339 272.146C159.41 272.033 159.447 271.823 159.448 271.516C159.45 271.184 159.412 270.965 159.336 270.858C159.265 270.751 159.156 270.697 159.008 270.697C158.86 270.696 158.747 270.749 158.67 270.855C158.598 270.961 158.562 271.177 158.56 271.503C158.559 271.811 158.593 272.024 158.664 272.143C158.74 272.255 158.852 272.312 159 272.313ZM163.511 276.472C163.155 276.47 162.857 276.392 162.615 276.237C162.379 276.076 162.199 275.862 162.076 275.595C161.959 275.328 161.901 275.032 161.902 274.706L161.903 274.475C161.905 274.126 161.969 273.821 162.094 273.561C162.22 273.296 162.404 273.089 162.648 272.942C162.891 272.795 163.184 272.723 163.528 272.724C163.877 272.726 164.17 272.801 164.406 272.95C164.648 273.099 164.831 273.308 164.954 273.575C165.077 273.836 165.138 274.141 165.136 274.49L165.135 274.721C165.133 275.047 165.07 275.342 164.944 275.608C164.825 275.874 164.646 276.086 164.409 276.245C164.171 276.398 163.872 276.474 163.511 276.472ZM163.516 275.406C163.669 275.407 163.782 275.351 163.854 275.239C163.925 275.127 163.962 274.917 163.963 274.609C163.965 274.278 163.927 274.058 163.851 273.951C163.78 273.844 163.671 273.791 163.523 273.79C163.375 273.789 163.262 273.842 163.185 273.948C163.113 274.055 163.077 274.27 163.075 274.596C163.074 274.904 163.108 275.117 163.179 275.236C163.255 275.349 163.367 275.406 163.516 275.406Z" fill="#F2F2F2" fill-opacity="0.5"/>
<ellipse cx="172.884" cy="273.33" rx="2.83503" ry="2.83501" fill="#47FAC6"/>
<ellipse cx="180.954" cy="273.33" rx="2.83503" ry="2.83501" fill="#47FAC6"/>
<ellipse cx="189.024" cy="273.33" rx="2.83503" ry="2.83501" fill="#F9F9F9"/>
<ellipse cx="197.095" cy="273.33" rx="2.83503" ry="2.83501" fill="#F2F2F2" fill-opacity="0.5"/>
<ellipse cx="205.163" cy="273.33" rx="2.83503" ry="2.83501" fill="#F2F2F2" fill-opacity="0.5"/>
<rect x="38" y="282.796" width="33.9111" height="8.93204" rx="1.95913" fill="#F2F2F2" fill-opacity="0.5"/>
<rect x="76.2266" y="285.029" width="14" height="4" rx="1.95913" fill="#F2F2F2" fill-opacity="0.5"/>
<rect x="75.9102" y="285.495" width="9" height="4" rx="1.95913" fill="#DEDEE0"/>
<path d="M99.0337 290.269C98.4298 290.266 97.9299 290.181 97.534 290.014C97.1381 289.84 96.8402 289.599 96.6403 289.29C96.4464 288.975 96.3504 288.605 96.3524 288.179L97.8265 288.185C97.8258 288.345 97.8696 288.488 97.9578 288.612C98.046 288.737 98.1788 288.835 98.3561 288.907C98.5393 288.973 98.7671 289.007 99.0395 289.008C99.3947 289.01 99.6732 288.955 99.875 288.843C100.083 288.726 100.187 288.557 100.188 288.338C100.189 288.155 100.104 288.006 99.9326 287.893C99.7674 287.774 99.4895 287.696 99.0989 287.658L98.6906 287.621C98.0396 287.559 97.5224 287.361 97.1391 287.028C96.7559 286.689 96.5656 286.214 96.5684 285.604C96.5703 285.184 96.6637 284.835 96.8485 284.558C97.0333 284.28 97.3007 284.074 97.6506 283.94C98.0006 283.799 98.4212 283.73 98.9126 283.732C99.4455 283.735 99.8891 283.82 100.244 283.987C100.604 284.148 100.875 284.381 101.057 284.683C101.24 284.986 101.33 285.354 101.328 285.786L99.8535 285.779C99.8542 285.625 99.8163 285.492 99.7399 285.379C99.6635 285.26 99.5544 285.168 99.4126 285.102C99.2767 285.03 99.1082 284.994 98.9069 284.993C98.7233 284.992 98.5663 285.018 98.4358 285.071C98.3113 285.118 98.2133 285.188 98.1418 285.283C98.0762 285.371 98.0432 285.481 98.0426 285.611C98.0419 285.771 98.1004 285.919 98.2182 286.056C98.3419 286.187 98.5488 286.268 98.8387 286.298L99.2471 286.336C99.9809 286.398 100.566 286.596 101.003 286.93C101.445 287.258 101.665 287.729 101.662 288.345C101.66 288.765 101.558 289.12 101.356 289.409C101.153 289.693 100.856 289.907 100.464 290.054C100.073 290.2 99.5961 290.272 99.0337 290.269ZM98.3182 291.358L98.3242 290.062L99.6207 290.067L99.6148 291.364L98.3182 291.358ZM98.3156 284.165L98.3216 282.868L99.6181 282.874L99.6122 284.171L98.3156 284.165Z" fill="#F2F2F2" fill-opacity="0.5"/>
<rect x="106.803" y="283.037" width="21.3358" height="8.44952" rx="1.95913" fill="#F2F2F2" fill-opacity="0.5"/>
<rect x="132.139" y="283.037" width="22.3358" height="8.44952" rx="1.95913" fill="#F2F2F2" fill-opacity="0.5"/>
<path d="M159.417 290.207L161.774 283.735L163.141 283.741L160.785 290.214L159.417 290.207ZM158.996 287.31C158.64 287.309 158.342 287.23 158.1 287.075C157.864 286.914 157.684 286.7 157.561 286.433C157.444 286.166 157.386 285.87 157.387 285.544L157.388 285.313C157.39 284.964 157.454 284.66 157.579 284.4C157.705 284.134 157.889 283.927 158.132 283.781C158.376 283.634 158.669 283.561 159.013 283.563C159.362 283.564 159.655 283.639 159.891 283.789C160.133 283.938 160.316 284.146 160.439 284.413C160.562 284.674 160.623 284.979 160.621 285.328L160.62 285.559C160.618 285.885 160.555 286.181 160.429 286.446C160.31 286.712 160.131 286.925 159.894 287.083C159.656 287.236 159.357 287.312 158.996 287.31ZM159 286.244C159.154 286.245 159.267 286.189 159.339 286.077C159.41 285.965 159.447 285.755 159.448 285.447C159.45 285.116 159.412 284.896 159.336 284.79C159.265 284.683 159.156 284.629 159.008 284.628C158.86 284.628 158.747 284.68 158.67 284.787C158.598 284.893 158.562 285.109 158.56 285.434C158.559 285.742 158.593 285.955 158.664 286.074C158.74 286.187 158.852 286.244 159 286.244ZM163.511 290.404C163.155 290.402 162.857 290.324 162.615 290.169C162.379 290.008 162.199 289.794 162.076 289.527C161.959 289.26 161.901 288.963 161.902 288.638L161.903 288.407C161.905 288.058 161.969 287.753 162.094 287.493C162.22 287.227 162.404 287.021 162.648 286.874C162.891 286.727 163.184 286.654 163.528 286.656C163.877 286.658 164.17 286.733 164.406 286.882C164.648 287.031 164.831 287.239 164.954 287.506C165.077 287.767 165.138 288.072 165.136 288.422L165.135 288.653C165.133 288.978 165.07 289.274 164.944 289.54C164.825 289.806 164.646 290.018 164.409 290.177C164.171 290.33 163.872 290.405 163.511 290.404ZM163.516 289.338C163.669 289.339 163.782 289.283 163.854 289.171C163.925 289.059 163.962 288.849 163.963 288.541C163.965 288.209 163.927 287.99 163.851 287.883C163.78 287.776 163.671 287.722 163.523 287.722C163.375 287.721 163.262 287.774 163.185 287.88C163.113 287.986 163.077 288.202 163.075 288.528C163.074 288.836 163.108 289.049 163.179 289.168C163.255 289.28 163.367 289.337 163.516 289.338Z" fill="#F2F2F2" fill-opacity="0.5"/>
<ellipse cx="172.884" cy="287.262" rx="2.83503" ry="2.83501" fill="#47FAC6"/>
<ellipse cx="180.954" cy="287.262" rx="2.83503" ry="2.83501" fill="#47FAC6"/>
<ellipse cx="189.024" cy="287.262" rx="2.83503" ry="2.83501" fill="#47FAC6"/>
<ellipse cx="197.095" cy="287.262" rx="2.83503" ry="2.83501" fill="#F2F2F2" fill-opacity="0.5"/>
<ellipse cx="205.163" cy="287.262" rx="2.83503" ry="2.83501" fill="#F2F2F2" fill-opacity="0.5"/>
<rect x="38" y="296.728" width="33.9111" height="8.93204" rx="1.95913" fill="#F2F2F2" fill-opacity="0.5"/>
<rect x="76.2266" y="298.961" width="14" height="4" rx="1.95913" fill="#F2F2F2" fill-opacity="0.5"/>
<rect x="75.9102" y="299.427" width="9" height="4" rx="1.95913" fill="#DEDEE0"/>
<path d="M99.0337 304.201C98.4298 304.198 97.9299 304.113 97.534 303.946C97.1381 303.772 96.8402 303.531 96.6403 303.222C96.4464 302.908 96.3504 302.537 96.3524 302.111L97.8265 302.118C97.8258 302.277 97.8696 302.42 97.9578 302.544C98.046 302.669 98.1788 302.767 98.3561 302.839C98.5393 302.905 98.7671 302.939 99.0395 302.94C99.3947 302.942 99.6732 302.887 99.875 302.775C100.083 302.658 100.187 302.49 100.188 302.27C100.189 302.087 100.104 301.939 99.9326 301.825C99.7674 301.706 99.4895 301.628 99.0989 301.591L98.6906 301.553C98.0396 301.491 97.5224 301.293 97.1391 300.96C96.7559 300.621 96.5656 300.146 96.5684 299.536C96.5703 299.116 96.6637 298.767 96.8485 298.49C97.0333 298.212 97.3007 298.006 97.6506 297.872C98.0006 297.731 98.4212 297.662 98.9126 297.664C99.4455 297.667 99.8891 297.752 100.244 297.919C100.604 298.081 100.875 298.313 101.057 298.616C101.24 298.918 101.33 299.286 101.328 299.718L99.8535 299.711C99.8542 299.557 99.8163 299.424 99.7399 299.311C99.6635 299.192 99.5544 299.1 99.4126 299.034C99.2767 298.963 99.1082 298.926 98.9069 298.925C98.7233 298.925 98.5663 298.95 98.4358 299.003C98.3113 299.05 98.2133 299.121 98.1418 299.215C98.0762 299.303 98.0432 299.413 98.0426 299.543C98.0419 299.703 98.1004 299.851 98.2182 299.988C98.3419 300.119 98.5488 300.2 98.8387 300.231L99.2471 300.268C99.9809 300.331 100.566 300.529 101.003 300.862C101.445 301.19 101.665 301.661 101.662 302.277C101.66 302.698 101.558 303.052 101.356 303.342C101.153 303.625 100.856 303.84 100.464 303.986C100.073 304.132 99.5961 304.204 99.0337 304.201ZM98.3182 305.29L98.3242 303.994L99.6207 304L99.6148 305.296L98.3182 305.29ZM98.3156 298.097L98.3216 296.8L99.6181 296.806L99.6122 298.103L98.3156 298.097Z" fill="#F2F2F2" fill-opacity="0.5"/>
<rect x="106.803" y="296.969" width="21.3358" height="8.44952" rx="1.95913" fill="#F2F2F2" fill-opacity="0.5"/>
<rect x="132.139" y="296.969" width="22.3358" height="8.44952" rx="1.95913" fill="#F2F2F2" fill-opacity="0.5"/>
<path d="M159.417 304.139L161.774 297.667L163.141 297.673L160.785 304.146L159.417 304.139ZM158.996 301.242C158.64 301.241 158.342 301.162 158.1 301.007C157.864 300.846 157.684 300.632 157.561 300.365C157.444 300.098 157.386 299.802 157.387 299.477L157.388 299.246C157.39 298.896 157.454 298.592 157.579 298.332C157.705 298.066 157.889 297.86 158.132 297.713C158.376 297.566 158.669 297.493 159.013 297.495C159.362 297.496 159.655 297.572 159.891 297.721C160.133 297.87 160.316 298.078 160.439 298.345C160.562 298.606 160.623 298.911 160.621 299.26L160.62 299.491C160.618 299.817 160.555 300.113 160.429 300.379C160.31 300.644 160.131 300.857 159.894 301.015C159.656 301.168 159.357 301.244 158.996 301.242ZM159 300.177C159.154 300.177 159.267 300.122 159.339 300.009C159.41 299.897 159.447 299.687 159.448 299.379C159.45 299.048 159.412 298.829 159.336 298.722C159.265 298.615 159.156 298.561 159.008 298.56C158.86 298.56 158.747 298.612 158.67 298.719C158.598 298.825 158.562 299.041 158.56 299.366C158.559 299.674 158.593 299.888 158.664 300.006C158.74 300.119 158.852 300.176 159 300.177ZM163.511 304.336C163.155 304.334 162.857 304.256 162.615 304.101C162.379 303.94 162.199 303.726 162.076 303.459C161.959 303.192 161.901 302.896 161.902 302.57L161.903 302.339C161.905 301.99 161.969 301.685 162.094 301.425C162.22 301.159 162.404 300.953 162.648 300.806C162.891 300.659 163.184 300.587 163.528 300.588C163.877 300.59 164.17 300.665 164.406 300.814C164.648 300.963 164.831 301.171 164.954 301.438C165.077 301.699 165.138 302.005 165.136 302.354L165.135 302.585C165.133 302.91 165.07 303.206 164.944 303.472C164.825 303.738 164.646 303.95 164.409 304.109C164.171 304.262 163.872 304.337 163.511 304.336ZM163.516 303.27C163.669 303.271 163.782 303.215 163.854 303.103C163.925 302.991 163.962 302.781 163.963 302.473C163.965 302.141 163.927 301.922 163.851 301.815C163.78 301.708 163.671 301.654 163.523 301.654C163.375 301.653 163.262 301.706 163.185 301.812C163.113 301.918 163.077 302.134 163.075 302.46C163.074 302.768 163.108 302.981 163.179 303.1C163.255 303.213 163.367 303.269 163.516 303.27Z" fill="#F2F2F2" fill-opacity="0.5"/>
<ellipse cx="172.884" cy="301.194" rx="2.83503" ry="2.83501" fill="#47FAC6"/>
<ellipse cx="180.954" cy="301.194" rx="2.83503" ry="2.83501" fill="#47FAC6"/>
<ellipse cx="189.024" cy="301.194" rx="2.83503" ry="2.83501" fill="#F9F9F9"/>
<ellipse cx="197.095" cy="301.194" rx="2.83503" ry="2.83501" fill="#F2F2F2" fill-opacity="0.5"/>
<ellipse cx="205.163" cy="301.194" rx="2.83503" ry="2.83501" fill="#F2F2F2" fill-opacity="0.5"/>
<rect x="38" y="310.66" width="33.9111" height="8.93204" rx="1.95913" fill="#F2F2F2" fill-opacity="0.5"/>
<rect x="76.2266" y="312.893" width="14" height="4" rx="1.95913" fill="#F2F2F2" fill-opacity="0.5"/>
<rect x="75.9102" y="313.359" width="9" height="4" rx="1.95913" fill="#DEDEE0"/>
<path d="M99.0337 318.133C98.4298 318.131 97.9299 318.045 97.534 317.878C97.1381 317.704 96.8402 317.463 96.6403 317.154C96.4464 316.84 96.3504 316.469 96.3524 316.043L97.8265 316.05C97.8258 316.21 97.8696 316.352 97.9578 316.477C98.046 316.601 98.1788 316.7 98.3561 316.771C98.5393 316.837 98.7671 316.871 99.0395 316.872C99.3947 316.874 99.6732 316.819 99.875 316.707C100.083 316.59 100.187 316.422 100.188 316.203C100.189 316.019 100.104 315.871 99.9326 315.757C99.7674 315.638 99.4895 315.56 99.0989 315.523L98.6906 315.485C98.0396 315.423 97.5224 315.225 97.1391 314.892C96.7559 314.553 96.5656 314.078 96.5684 313.468C96.5703 313.048 96.6637 312.699 96.8485 312.422C97.0333 312.144 97.3007 311.938 97.6506 311.804C98.0006 311.663 98.4212 311.594 98.9126 311.596C99.4455 311.599 99.8891 311.684 100.244 311.851C100.604 312.013 100.875 312.245 101.057 312.548C101.24 312.85 101.33 313.218 101.328 313.65L99.8535 313.643C99.8542 313.489 99.8163 313.356 99.7399 313.243C99.6635 313.124 99.5544 313.032 99.4126 312.966C99.2767 312.895 99.1082 312.858 98.9069 312.858C98.7233 312.857 98.5663 312.883 98.4358 312.935C98.3113 312.982 98.2133 313.053 98.1418 313.147C98.0762 313.236 98.0432 313.345 98.0426 313.475C98.0419 313.635 98.1004 313.783 98.2182 313.92C98.3419 314.051 98.5488 314.132 98.8387 314.163L99.2471 314.2C99.9809 314.263 100.566 314.461 101.003 314.794C101.445 315.122 101.665 315.594 101.662 316.209C101.66 316.63 101.558 316.984 101.356 317.274C101.153 317.557 100.856 317.772 100.464 317.918C100.073 318.064 99.5961 318.136 99.0337 318.133ZM98.3182 319.222L98.3242 317.926L99.6207 317.932L99.6148 319.228L98.3182 319.222ZM98.3156 312.029L98.3216 310.732L99.6181 310.738L99.6122 312.035L98.3156 312.029Z" fill="#F2F2F2" fill-opacity="0.5"/>
<rect x="106.803" y="310.901" width="21.3358" height="8.44952" rx="1.95913" fill="#F2F2F2" fill-opacity="0.5"/>
<rect x="132.139" y="310.901" width="22.3358" height="8.44952" rx="1.95913" fill="#F2F2F2" fill-opacity="0.5"/>
<path d="M159.417 318.072L161.774 311.599L163.141 311.606L160.785 318.078L159.417 318.072ZM158.996 315.174C158.64 315.173 158.342 315.094 158.1 314.939C157.864 314.778 157.684 314.565 157.561 314.298C157.444 314.031 157.386 313.734 157.387 313.409L157.388 313.178C157.39 312.828 157.454 312.524 157.579 312.264C157.705 311.998 157.889 311.792 158.132 311.645C158.376 311.498 158.669 311.425 159.013 311.427C159.362 311.428 159.655 311.504 159.891 311.653C160.133 311.802 160.316 312.01 160.439 312.277C160.562 312.538 160.623 312.843 160.621 313.193L160.62 313.423C160.618 313.749 160.555 314.045 160.429 314.311C160.31 314.577 160.131 314.789 159.894 314.948C159.656 315.1 159.357 315.176 158.996 315.174ZM159 314.109C159.154 314.109 159.267 314.054 159.339 313.942C159.41 313.829 159.447 313.619 159.448 313.312C159.45 312.98 159.412 312.761 159.336 312.654C159.265 312.547 159.156 312.493 159.008 312.492C158.86 312.492 158.747 312.545 158.67 312.651C158.598 312.757 158.562 312.973 158.56 313.299C158.559 313.606 158.593 313.82 158.664 313.938C158.74 314.051 158.852 314.108 159 314.109ZM163.511 318.268C163.155 318.266 162.857 318.188 162.615 318.033C162.379 317.872 162.199 317.658 162.076 317.391C161.959 317.124 161.901 316.828 161.902 316.502L161.903 316.271C161.905 315.922 161.969 315.617 162.094 315.357C162.22 315.091 162.404 314.885 162.648 314.738C162.891 314.591 163.184 314.519 163.528 314.52C163.877 314.522 164.17 314.597 164.406 314.746C164.648 314.895 164.831 315.103 164.954 315.37C165.077 315.631 165.138 315.937 165.136 316.286L165.135 316.517C165.133 316.843 165.07 317.138 164.944 317.404C164.825 317.67 164.646 317.882 164.409 318.041C164.171 318.194 163.872 318.27 163.511 318.268ZM163.516 317.202C163.669 317.203 163.782 317.147 163.854 317.035C163.925 316.923 163.962 316.713 163.963 316.405C163.965 316.073 163.927 315.854 163.851 315.747C163.78 315.64 163.671 315.587 163.523 315.586C163.375 315.585 163.262 315.638 163.185 315.744C163.113 315.85 163.077 316.066 163.075 316.392C163.074 316.7 163.108 316.913 163.179 317.032C163.255 317.145 163.367 317.202 163.516 317.202Z" fill="#F2F2F2" fill-opacity="0.5"/>
<ellipse cx="172.884" cy="315.126" rx="2.83503" ry="2.83501" fill="#47FAC6"/>
<ellipse cx="180.954" cy="315.126" rx="2.83503" ry="2.83501" fill="#F9F9F9"/>
<ellipse cx="189.024" cy="315.126" rx="2.83503" ry="2.83501" fill="#F9F9F9"/>
<ellipse cx="197.095" cy="315.126" rx="2.83503" ry="2.83501" fill="#F2F2F2" fill-opacity="0.5"/>
<ellipse cx="205.163" cy="315.126" rx="2.83503" ry="2.83501" fill="#F2F2F2" fill-opacity="0.5"/>
<rect x="38" y="59" width="52" height="8.93203" rx="1.95913" fill="#F2F2F2" fill-opacity="0.5"/>
<rect x="98" y="59" width="52" height="8.93203" rx="1.95913" fill="#F2F2F2" fill-opacity="0.5"/>
<rect x="158" y="59" width="52" height="8.93203" rx="1.95913" fill="#F2F2F2" fill-opacity="0.5"/>
<defs>
<filter id="filter0_d_521_1333" x="18.043" y="8.6255" width="209.459" height="439.713" filterUnits="userSpaceOnUse" color-interpolation-filters="sRGB">
<feFlood flood-opacity="0" result="BackgroundImageFix"/>
<feColorMatrix in="SourceAlpha" type="matrix" values="0 0 0 0 0 0 0 0 0 0 0 0 0 0 0 0 0 0 127 0" result="hardAlpha"/>
<feMorphology radius="0.533188" operator="erode" in="SourceAlpha" result="effect1_dropShadow_521_1333"/>
<feOffset dy="1.33297"/>
<feGaussianBlur stdDeviation="1.06638"/>
<feComposite in2="hardAlpha" operator="out"/>
<feColorMatrix type="matrix" values="0 0 0 0 0.0313726 0 0 0 0 0.0313726 0 0 0 0 0.129412 0 0 0 0.15 0"/>
<feBlend mode="normal" in2="BackgroundImageFix" result="effect1_dropShadow_521_1333"/>
<feBlend mode="normal" in="SourceGraphic" in2="effect1_dropShadow_521_1333" result="shape"/>
</filter>
<filter id="filter1_i_521_1333" x="24.4414" y="13.6909" width="196.662" height="426.917" filterUnits="userSpaceOnUse" color-interpolation-filters="sRGB">
<feFlood flood-opacity="0" result="BackgroundImageFix"/>
<feBlend mode="normal" in="SourceGraphic" in2="BackgroundImageFix" result="shape"/>
<feColorMatrix in="SourceAlpha" type="matrix" values="0 0 0 0 0 0 0 0 0 0 0 0 0 0 0 0 0 0 127 0" result="hardAlpha"/>
<feOffset/>
<feGaussianBlur stdDeviation="2.13275"/>
<feComposite in2="hardAlpha" operator="arithmetic" k2="-1" k3="1"/>
<feColorMatrix type="matrix" values="0 0 0 0 0.0313726 0 0 0 0 0.0313726 0 0 0 0 0.129412 0 0 0 0.06 0"/>
<feBlend mode="normal" in2="shape" result="effect1_innerShadow_521_1333"/>
</filter>
<filter id="filter2_bd_521_1333" x="45" y="161" width="20" height="23" filterUnits="userSpaceOnUse" color-interpolation-filters="sRGB">
<feFlood flood-opacity="0" result="BackgroundImageFix"/>
<feGaussianBlur in="BackgroundImageFix" stdDeviation="2.5"/>
<feComposite in2="SourceAlpha" operator="in" result="effect1_backgroundBlur_521_1333"/>
<feColorMatrix in="SourceAlpha" type="matrix" values="0 0 0 0 0 0 0 0 0 0 0 0 0 0 0 0 0 0 127 0" result="hardAlpha"/>
<feOffset dy="4"/>
<feGaussianBlur stdDeviation="2"/>
<feComposite in2="hardAlpha" operator="out"/>
<feColorMatrix type="matrix" values="0 0 0 0 0.0313726 0 0 0 0 0.0313726 0 0 0 0 0.129412 0 0 0 0.1 0"/>
<feBlend mode="normal" in2="effect1_backgroundBlur_521_1333" result="effect2_dropShadow_521_1333"/>
<feBlend mode="normal" in="SourceGraphic" in2="effect2_dropShadow_521_1333" result="shape"/>
</filter>
<filter id="filter3_bd_521_1333" x="40" y="184" width="20" height="23" filterUnits="userSpaceOnUse" color-interpolation-filters="sRGB">
<feFlood flood-opacity="0" result="BackgroundImageFix"/>
<feGaussianBlur in="BackgroundImageFix" stdDeviation="2.5"/>
<feComposite in2="SourceAlpha" operator="in" result="effect1_backgroundBlur_521_1333"/>
<feColorMatrix in="SourceAlpha" type="matrix" values="0 0 0 0 0 0 0 0 0 0 0 0 0 0 0 0 0 0 127 0" result="hardAlpha"/>
<feOffset dy="4"/>
<feGaussianBlur stdDeviation="2"/>
<feComposite in2="hardAlpha" operator="out"/>
<feColorMatrix type="matrix" values="0 0 0 0 0.0313726 0 0 0 0 0.0313726 0 0 0 0 0.129412 0 0 0 0.1 0"/>
<feBlend mode="normal" in2="effect1_backgroundBlur_521_1333" result="effect2_dropShadow_521_1333"/>
<feBlend mode="normal" in="SourceGraphic" in2="effect2_dropShadow_521_1333" result="shape"/>
</filter>
<filter id="filter4_bd_521_1333" x="78" y="173" width="20" height="23" filterUnits="userSpaceOnUse" color-interpolation-filters="sRGB">
<feFlood flood-opacity="0" result="BackgroundImageFix"/>
<feGaussianBlur in="BackgroundImageFix" stdDeviation="2.5"/>
<feComposite in2="SourceAlpha" operator="in" result="effect1_backgroundBlur_521_1333"/>
<feColorMatrix in="SourceAlpha" type="matrix" values="0 0 0 0 0 0 0 0 0 0 0 0 0 0 0 0 0 0 127 0" result="hardAlpha"/>
<feOffset dy="4"/>
<feGaussianBlur stdDeviation="2"/>
<feComposite in2="hardAlpha" operator="out"/>
<feColorMatrix type="matrix" values="0 0 0 0 0.0313726 0 0 0 0 0.0313726 0 0 0 0 0.129412 0 0 0 0.1 0"/>
<feBlend mode="normal" in2="effect1_backgroundBlur_521_1333" result="effect2_dropShadow_521_1333"/>
<feBlend mode="normal" in="SourceGraphic" in2="effect2_dropShadow_521_1333" result="shape"/>
</filter>
<filter id="filter5_bd_521_1333" x="113" y="153" width="20" height="23" filterUnits="userSpaceOnUse" color-interpolation-filters="sRGB">
<feFlood flood-opacity="0" result="BackgroundImageFix"/>
<feGaussianBlur in="BackgroundImageFix" stdDeviation="2.5"/>
<feComposite in2="SourceAlpha" operator="in" result="effect1_backgroundBlur_521_1333"/>
<feColorMatrix in="SourceAlpha" type="matrix" values="0 0 0 0 0 0 0 0 0 0 0 0 0 0 0 0 0 0 127 0" result="hardAlpha"/>
<feOffset dy="4"/>
<feGaussianBlur stdDeviation="2"/>
<feComposite in2="hardAlpha" operator="out"/>
<feColorMatrix type="matrix" values="0 0 0 0 0.0313726 0 0 0 0 0.0313726 0 0 0 0 0.129412 0 0 0 0.1 0"/>
<feBlend mode="normal" in2="effect1_backgroundBlur_521_1333" result="effect2_dropShadow_521_1333"/>
<feBlend mode="normal" in="SourceGraphic" in2="effect2_dropShadow_521_1333" result="shape"/>
</filter>
<filter id="filter6_bd_521_1333" x="111" y="184" width="20" height="23" filterUnits="userSpaceOnUse" color-interpolation-filters="sRGB">
<feFlood flood-opacity="0" result="BackgroundImageFix"/>
<feGaussianBlur in="BackgroundImageFix" stdDeviation="2.5"/>
<feComposite in2="SourceAlpha" operator="in" result="effect1_backgroundBlur_521_1333"/>
<feColorMatrix in="SourceAlpha" type="matrix" values="0 0 0 0 0 0 0 0 0 0 0 0 0 0 0 0 0 0 127 0" result="hardAlpha"/>
<feOffset dy="4"/>
<feGaussianBlur stdDeviation="2"/>
<feComposite in2="hardAlpha" operator="out"/>
<feColorMatrix type="matrix" values="0 0 0 0 0.0313726 0 0 0 0 0.0313726 0 0 0 0 0.129412 0 0 0 0.1 0"/>
<feBlend mode="normal" in2="effect1_backgroundBlur_521_1333" result="effect2_dropShadow_521_1333"/>
<feBlend mode="normal" in="SourceGraphic" in2="effect2_dropShadow_521_1333" result="shape"/>
</filter>
<filter id="filter7_bd_521_1333" x="145" y="161" width="20" height="23" filterUnits="userSpaceOnUse" color-interpolation-filters="sRGB">
<feFlood flood-opacity="0" result="BackgroundImageFix"/>
<feGaussianBlur in="BackgroundImageFix" stdDeviation="2.5"/>
<feComposite in2="SourceAlpha" operator="in" result="effect1_backgroundBlur_521_1333"/>
<feColorMatrix in="SourceAlpha" type="matrix" values="0 0 0 0 0 0 0 0 0 0 0 0 0 0 0 0 0 0 127 0" result="hardAlpha"/>
<feOffset dy="4"/>
<feGaussianBlur stdDeviation="2"/>
<feComposite in2="hardAlpha" operator="out"/>
<feColorMatrix type="matrix" values="0 0 0 0 0.0313726 0 0 0 0 0.0313726 0 0 0 0 0.129412 0 0 0 0.1 0"/>
<feBlend mode="normal" in2="effect1_backgroundBlur_521_1333" result="effect2_dropShadow_521_1333"/>
<feBlend mode="normal" in="SourceGraphic" in2="effect2_dropShadow_521_1333" result="shape"/>
</filter>
<filter id="filter8_bd_521_1333" x="182" y="156" width="20" height="23" filterUnits="userSpaceOnUse" color-interpolation-filters="sRGB">
<feFlood flood-opacity="0" result="BackgroundImageFix"/>
<feGaussianBlur in="BackgroundImageFix" stdDeviation="2.5"/>
<feComposite in2="SourceAlpha" operator="in" result="effect1_backgroundBlur_521_1333"/>
<feColorMatrix in="SourceAlpha" type="matrix" values="0 0 0 0 0 0 0 0 0 0 0 0 0 0 0 0 0 0 127 0" result="hardAlpha"/>
<feOffset dy="4"/>
<feGaussianBlur stdDeviation="2"/>
<feComposite in2="hardAlpha" operator="out"/>
<feColorMatrix type="matrix" values="0 0 0 0 0.0313726 0 0 0 0 0.0313726 0 0 0 0 0.129412 0 0 0 0.1 0"/>
<feBlend mode="normal" in2="effect1_backgroundBlur_521_1333" result="effect2_dropShadow_521_1333"/>
<feBlend mode="normal" in="SourceGraphic" in2="effect2_dropShadow_521_1333" result="shape"/>
</filter>
<filter id="filter9_bd_521_1333" x="155" y="183" width="20" height="23" filterUnits="userSpaceOnUse" color-interpolation-filters="sRGB">
<feFlood flood-opacity="0" result="BackgroundImageFix"/>
<feGaussianBlur in="BackgroundImageFix" stdDeviation="2.5"/>
<feComposite in2="SourceAlpha" operator="in" result="effect1_backgroundBlur_521_1333"/>
<feColorMatrix in="SourceAlpha" type="matrix" values="0 0 0 0 0 0 0 0 0 0 0 0 0 0 0 0 0 0 127 0" result="hardAlpha"/>
<feOffset dy="4"/>
<feGaussianBlur stdDeviation="2"/>
<feComposite in2="hardAlpha" operator="out"/>
<feColorMatrix type="matrix" values="0 0 0 0 0.0313726 0 0 0 0 0.0313726 0 0 0 0 0.129412 0 0 0 0.1 0"/>
<feBlend mode="normal" in2="effect1_backgroundBlur_521_1333" result="effect2_dropShadow_521_1333"/>
<feBlend mode="normal" in="SourceGraphic" in2="effect2_dropShadow_521_1333" result="shape"/>
</filter>
<filter id="filter10_bd_521_1333" x="177" y="182" width="20" height="23" filterUnits="userSpaceOnUse" color-interpolation-filters="sRGB">
<feFlood flood-opacity="0" result="BackgroundImageFix"/>
<feGaussianBlur in="BackgroundImageFix" stdDeviation="2.5"/>
<feComposite in2="SourceAlpha" operator="in" result="effect1_backgroundBlur_521_1333"/>
<feColorMatrix in="SourceAlpha" type="matrix" values="0 0 0 0 0 0 0 0 0 0 0 0 0 0 0 0 0 0 127 0" result="hardAlpha"/>
<feOffset dy="4"/>
<feGaussianBlur stdDeviation="2"/>
<feComposite in2="hardAlpha" operator="out"/>
<feColorMatrix type="matrix" values="0 0 0 0 0.0313726 0 0 0 0 0.0313726 0 0 0 0 0.129412 0 0 0 0.1 0"/>
<feBlend mode="normal" in2="effect1_backgroundBlur_521_1333" result="effect2_dropShadow_521_1333"/>
<feBlend mode="normal" in="SourceGraphic" in2="effect2_dropShadow_521_1333" result="shape"/>
</filter>
<linearGradient id="paint0_linear_521_1333" x1="104.306" y1="528.471" x2="198.343" y2="301.387" gradientUnits="userSpaceOnUse">
<stop stop-color="#080821" stop-opacity="0.9"/>
<stop offset="1" stop-color="white" stop-opacity="0"/>
</linearGradient>
<linearGradient id="paint1_linear_521_1333" x1="85.5987" y1="-76.7575" x2="215.433" y2="-38.552" gradientUnits="userSpaceOnUse">
<stop stop-color="#080821" stop-opacity="0.9"/>
<stop offset="1" stop-color="white" stop-opacity="0"/>
</linearGradient>
<linearGradient id="paint2_linear_521_1333" x1="173.977" y1="-88.1281" x2="59.3263" y2="-60.0281" gradientUnits="userSpaceOnUse">
<stop stop-color="#080821"/>
<stop offset="1" stop-color="white" stop-opacity="0"/>
</linearGradient>
<linearGradient id="paint3_linear_521_1333" x1="104.312" y1="528.471" x2="198.348" y2="301.387" gradientUnits="userSpaceOnUse">
<stop stop-color="#080821" stop-opacity="0.9"/>
<stop offset="1" stop-color="white" stop-opacity="0"/>
</linearGradient>
<linearGradient id="paint4_linear_521_1333" x1="85.6046" y1="-76.7575" x2="215.439" y2="-38.552" gradientUnits="userSpaceOnUse">
<stop stop-color="#080821" stop-opacity="0.9"/>
<stop offset="1" stop-color="white" stop-opacity="0"/>
</linearGradient>
<linearGradient id="paint5_linear_521_1333" x1="173.983" y1="-88.1281" x2="59.3322" y2="-60.0281" gradientUnits="userSpaceOnUse">
<stop stop-color="#080821"/>
<stop offset="1" stop-color="white" stop-opacity="0"/>
</linearGradient>
<linearGradient id="paint6_linear_521_1333" x1="231.143" y1="-8.13496" x2="202" y2="-4.18774" gradientUnits="userSpaceOnUse">
<stop offset="0.581631" stop-color="white"/>
<stop offset="1" stop-color="white" stop-opacity="0"/>
</linearGradient>
<linearGradient id="paint7_linear_521_1333" x1="209.209" y1="-19.3386" x2="180.066" y2="-15.3914" gradientUnits="userSpaceOnUse">
<stop offset="0.581631" stop-color="white"/>
<stop offset="1" stop-color="white" stop-opacity="0"/>
</linearGradient>
<linearGradient id="paint8_linear_521_1333" x1="432.784" y1="423.761" x2="403.64" y2="427.708" gradientUnits="userSpaceOnUse">
<stop offset="0.581631" stop-color="white"/>
<stop offset="1" stop-color="white" stop-opacity="0"/>
</linearGradient>
<linearGradient id="paint9_linear_521_1333" x1="209.209" y1="-19.3386" x2="180.066" y2="-15.3914" gradientUnits="userSpaceOnUse">
<stop offset="0.581631" stop-color="white"/>
<stop offset="1" stop-color="white" stop-opacity="0"/>
</linearGradient>
<clipPath id="clip0_521_1333">
<rect width="170" height="72" fill="white" transform="translate(38 135)"/>
</clipPath>
</defs>
</svg>
