<svg width="66" height="65" viewBox="0 0 66 65" fill="none" xmlns="http://www.w3.org/2000/svg">
<g filter="url(#filter0_b_9619_49813)">
<rect x="4.47656" y="4.48132" width="57.7515" height="56.6824" rx="8.88949" fill="white"/>
<rect x="2.62458" y="2.62935" width="61.4554" height="60.3863" rx="10.7415" stroke="url(#paint0_linear_9619_49813)" stroke-opacity="0.1" stroke-width="3.70396"/>
<rect x="2.62458" y="2.62935" width="61.4554" height="60.3863" rx="10.7415" stroke="url(#paint1_linear_9619_49813)" stroke-opacity="0.1" stroke-width="3.70396"/>
<rect x="2.62458" y="2.62935" width="61.4554" height="60.3863" rx="10.7415" stroke="url(#paint2_linear_9619_49813)" stroke-opacity="0.1" stroke-width="3.70396"/>
<rect x="2.62458" y="2.62935" width="61.4554" height="60.3863" rx="10.7415" stroke="white" stroke-opacity="0.5" stroke-width="3.70396"/>
</g>
<rect x="8.18359" y="8.09009" width="50.3693" height="49.0789" rx="7.40791" fill="#080821"/>
<g clip-path="url(#clip0_9619_49813)">
<path d="M47.4396 49.6664V33.3702H38.5508V49.6664" stroke="white" stroke-width="1.48147" stroke-linejoin="round"/>
<path d="M29.6623 44.4813H20.7734V49.6664" stroke="white" stroke-width="1.48147" stroke-linejoin="round"/>
<path d="M38.5529 38.5554H29.6641V49.6664" stroke="white" stroke-width="1.48147" stroke-linejoin="round"/>
<path d="M51.1466 49.6664H16.332" stroke="white" stroke-width="1.48147" stroke-linejoin="round"/>
<path d="M20.7754 37.8147L28.9235 29.6666L33.3679 34.111L44.479 23L46.7012 25.2222V17.8148H39.2938L41.516 20.037L33.3679 28.1851L28.9235 23.7407L17.8125 34.8517L20.7754 37.8147Z" stroke="white" stroke-width="1.48147" stroke-linejoin="round"/>
</g>
<g filter="url(#filter1_i_9619_49813)">
<path d="M4.53876 13.3708C4.53876 8.49563 8.49087 4.54352 13.3661 4.54352H53.3385C58.2137 4.54352 62.1658 8.49563 62.1658 13.3708V52.2742C62.1658 57.1494 58.2137 61.1015 53.3385 61.1015H13.3661C8.49087 61.1015 4.53876 57.1494 4.53876 52.2742V13.3708Z" stroke="white" stroke-opacity="0.1" stroke-width="0.124387"/>
</g>
<rect opacity="0.4" x="3" y="3" width="60.7395" height="59.9996" rx="8.88949" stroke="url(#paint3_linear_9619_49813)" stroke-width="0.450381"/>
<rect opacity="0.4" width="60.7395" height="59.9996" rx="8.88949" transform="matrix(-1 0 0 1 63.7383 3.00024)" stroke="url(#paint4_linear_9619_49813)" stroke-width="0.450381"/>
<rect opacity="0.4" x="63.7383" y="63" width="60.7395" height="59.9996" rx="8.88949" transform="rotate(180 63.7383 63)" stroke="url(#paint5_linear_9619_49813)" stroke-width="0.450381"/>
<rect opacity="0.4" width="60.7395" height="59.9996" rx="8.88949" transform="matrix(1 0 0 -1 3 63)" stroke="url(#paint6_linear_9619_49813)" stroke-width="0.450381"/>
<defs>
<filter id="filter0_b_9619_49813" x="-4.54706" y="-4.54315" width="75.8011" height="74.7313" filterUnits="userSpaceOnUse" color-interpolation-filters="sRGB">
<feFlood flood-opacity="0" result="BackgroundImageFix"/>
<feGaussianBlur in="BackgroundImageFix" stdDeviation="2.66025"/>
<feComposite in2="SourceAlpha" operator="in" result="effect1_backgroundBlur_9619_49813"/>
<feBlend mode="normal" in="SourceGraphic" in2="effect1_backgroundBlur_9619_49813" result="shape"/>
</filter>
<filter id="filter1_i_9619_49813" x="4.47656" y="4.48132" width="57.75" height="56.6824" filterUnits="userSpaceOnUse" color-interpolation-filters="sRGB">
<feFlood flood-opacity="0" result="BackgroundImageFix"/>
<feBlend mode="normal" in="SourceGraphic" in2="BackgroundImageFix" result="shape"/>
<feColorMatrix in="SourceAlpha" type="matrix" values="0 0 0 0 0 0 0 0 0 0 0 0 0 0 0 0 0 0 127 0" result="hardAlpha"/>
<feOffset/>
<feGaussianBlur stdDeviation="0.497547"/>
<feComposite in2="hardAlpha" operator="arithmetic" k2="-1" k3="1"/>
<feColorMatrix type="matrix" values="0 0 0 0 0.0313726 0 0 0 0 0.0313726 0 0 0 0 0.129412 0 0 0 0.06 0"/>
<feBlend mode="normal" in2="shape" result="effect1_innerShadow_9619_49813"/>
</filter>
<linearGradient id="paint0_linear_9619_49813" x1="27.9293" y1="72.8295" x2="34.3184" y2="38.7051" gradientUnits="userSpaceOnUse">
<stop stop-color="#080821" stop-opacity="0.9"/>
<stop offset="1" stop-color="white" stop-opacity="0"/>
</linearGradient>
<linearGradient id="paint1_linear_9619_49813" x1="22.4359" y1="-7.52765" x2="51.5373" y2="11.4126" gradientUnits="userSpaceOnUse">
<stop stop-color="#080821" stop-opacity="0.9"/>
<stop offset="1" stop-color="white" stop-opacity="0"/>
</linearGradient>
<linearGradient id="paint2_linear_9619_49813" x1="48.3888" y1="-9.03735" x2="20.8042" y2="5.91582" gradientUnits="userSpaceOnUse">
<stop stop-color="#080821"/>
<stop offset="1" stop-color="white" stop-opacity="0"/>
</linearGradient>
<linearGradient id="paint3_linear_9619_49813" x1="66.0195" y1="0.313453" x2="57.7896" y2="2.73044" gradientUnits="userSpaceOnUse">
<stop offset="0.581631" stop-color="white"/>
<stop offset="1" stop-color="white" stop-opacity="0"/>
</linearGradient>
<linearGradient id="paint4_linear_9619_49813" x1="63.0195" y1="-2.68655" x2="54.7896" y2="-0.269564" gradientUnits="userSpaceOnUse">
<stop offset="0.581631" stop-color="white"/>
<stop offset="1" stop-color="white" stop-opacity="0"/>
</linearGradient>
<linearGradient id="paint5_linear_9619_49813" x1="126.758" y1="60.3135" x2="118.528" y2="62.7304" gradientUnits="userSpaceOnUse">
<stop offset="0.581631" stop-color="white"/>
<stop offset="1" stop-color="white" stop-opacity="0"/>
</linearGradient>
<linearGradient id="paint6_linear_9619_49813" x1="63.0195" y1="-2.68655" x2="54.7896" y2="-0.269564" gradientUnits="userSpaceOnUse">
<stop offset="0.581631" stop-color="white"/>
<stop offset="1" stop-color="white" stop-opacity="0"/>
</linearGradient>
<clipPath id="clip0_9619_49813">
<rect width="35.5553" height="35.5553" fill="white" transform="translate(15.5898 14.8519)"/>
</clipPath>
</defs>
</svg>
