<svg width="244" height="455" viewBox="0 0 244 455" fill="none" xmlns="http://www.w3.org/2000/svg">
<mask id="mask0_521_1606" style="mask-type:alpha" maskUnits="userSpaceOnUse" x="0" y="0" width="244" height="455">
<rect x="0.496094" width="243.386" height="454.3" fill="#F7F7F7"/>
</mask>
<g mask="url(#mask0_521_1606)">
<g filter="url(#filter0_d_521_1606)">
<rect x="24.4414" y="13.6909" width="196.663" height="426.916" rx="14.9293" fill="white"/>
<rect x="22.0421" y="11.2916" width="201.461" height="431.715" rx="17.3286" stroke="url(#paint0_linear_521_1606)" stroke-opacity="0.1" stroke-width="4.7987"/>
<rect x="22.0421" y="11.2916" width="201.461" height="431.715" rx="17.3286" stroke="url(#paint1_linear_521_1606)" stroke-opacity="0.1" stroke-width="4.7987"/>
<rect x="22.0421" y="11.2916" width="201.461" height="431.715" rx="17.3286" stroke="url(#paint2_linear_521_1606)" stroke-opacity="0.1" stroke-width="4.7987"/>
<rect x="22.0421" y="11.2916" width="201.461" height="431.715" rx="17.3286" stroke="white" stroke-opacity="0.2" stroke-width="4.7987"/>
</g>
<mask id="mask1_521_1606" style="mask-type:alpha" maskUnits="userSpaceOnUse" x="19" y="8" width="207" height="438">
<rect x="24.4473" y="13.6909" width="196.663" height="426.916" rx="14.9293" fill="white"/>
<rect x="22.0479" y="11.2916" width="201.461" height="431.715" rx="17.3286" stroke="url(#paint3_linear_521_1606)" stroke-opacity="0.1" stroke-width="4.7987"/>
<rect x="22.0479" y="11.2916" width="201.461" height="431.715" rx="17.3286" stroke="url(#paint4_linear_521_1606)" stroke-opacity="0.1" stroke-width="4.7987"/>
<rect x="22.0479" y="11.2916" width="201.461" height="431.715" rx="17.3286" stroke="url(#paint5_linear_521_1606)" stroke-opacity="0.1" stroke-width="4.7987"/>
<rect x="22.0479" y="11.2916" width="201.461" height="431.715" rx="17.3286" stroke="white" stroke-opacity="0.2" stroke-width="4.7987"/>
</mask>
<g mask="url(#mask1_521_1606)">
<rect x="23.1758" y="331.081" width="197.907" height="110.774" fill="#080821" fill-opacity="0.01"/>
<rect x="40.6016" y="339.793" width="14.9362" height="18.6698" rx="2.48938" fill="#080821" fill-opacity="0.02"/>
<rect x="58.0273" y="339.793" width="14.9362" height="18.6698" rx="2.48938" fill="#080821" fill-opacity="0.02"/>
<rect x="75.4531" y="339.793" width="14.9362" height="18.6698" rx="2.48938" fill="#080821" fill-opacity="0.02"/>
<rect x="92.8789" y="339.793" width="14.9362" height="18.6698" rx="2.48938" fill="#080821" fill-opacity="0.02"/>
<rect x="110.305" y="339.793" width="14.9362" height="18.6698" rx="2.48938" fill="#080821" fill-opacity="0.02"/>
<rect x="127.729" y="339.793" width="14.9362" height="18.6698" rx="2.48938" fill="#080821" fill-opacity="0.02"/>
<rect x="145.154" y="339.793" width="14.9362" height="18.6698" rx="2.48938" fill="#080821" fill-opacity="0.02"/>
<rect x="162.58" y="339.793" width="14.9362" height="18.6698" rx="2.48938" fill="#080821" fill-opacity="0.02"/>
<rect x="180.006" y="339.793" width="14.9362" height="18.6698" rx="2.48938" fill="#080821" fill-opacity="0.02"/>
<rect x="197.432" y="339.793" width="14.9362" height="18.6698" rx="2.48938" fill="#080821" fill-opacity="0.02"/>
<rect x="40.6016" y="387.09" width="19.9149" height="18.6698" rx="2.48938" fill="#080821" fill-opacity="0.02"/>
<rect x="63.0059" y="387.09" width="14.9362" height="18.6698" rx="2.48938" fill="#080821" fill-opacity="0.02"/>
<rect x="80.4316" y="387.09" width="14.9362" height="18.6698" rx="2.48938" fill="#080821" fill-opacity="0.02"/>
<rect x="97.8574" y="387.09" width="14.9362" height="18.6698" rx="2.48938" fill="#080821" fill-opacity="0.02"/>
<rect x="115.283" y="387.09" width="14.9362" height="18.6698" rx="2.48938" fill="#080821" fill-opacity="0.02"/>
<rect x="132.707" y="387.09" width="14.9362" height="18.6698" rx="2.48938" fill="#080821" fill-opacity="0.02"/>
<rect x="150.133" y="387.09" width="14.9362" height="18.6698" rx="2.48938" fill="#080821" fill-opacity="0.02"/>
<rect x="167.559" y="387.09" width="14.9362" height="18.6698" rx="2.48938" fill="#080821" fill-opacity="0.02"/>
<rect x="184.984" y="387.09" width="24.8936" height="18.6698" rx="2.48938" fill="#080821" fill-opacity="0.02"/>
<rect x="40.6016" y="410.738" width="19.9149" height="18.6698" rx="2.48938" fill="#080821" fill-opacity="0.02"/>
<rect x="63.0059" y="410.738" width="19.9149" height="18.6698" rx="2.48938" fill="#080821" fill-opacity="0.02"/>
<rect x="85.4102" y="410.738" width="94.5957" height="18.6698" rx="2.48938" fill="#080821" fill-opacity="0.02"/>
<rect x="182.496" y="410.738" width="24.8936" height="18.6698" rx="2.48938" fill="#080821" fill-opacity="0.02"/>
<rect x="49.3262" y="363.441" width="14.9362" height="18.6698" rx="2.48938" fill="#080821" fill-opacity="0.02"/>
<rect x="66.752" y="363.441" width="14.9362" height="18.6698" rx="2.48938" fill="#080821" fill-opacity="0.02"/>
<rect x="84.1777" y="363.441" width="14.9362" height="18.6698" rx="2.48938" fill="#080821" fill-opacity="0.02"/>
<rect x="101.604" y="363.441" width="14.9362" height="18.6698" rx="2.48938" fill="#080821" fill-opacity="0.02"/>
<rect x="119.029" y="363.441" width="14.9362" height="18.6698" rx="2.48938" fill="#080821" fill-opacity="0.02"/>
<rect x="136.453" y="363.441" width="14.9362" height="18.6698" rx="2.48938" fill="#080821" fill-opacity="0.02"/>
<rect x="153.879" y="363.441" width="14.9362" height="18.6698" rx="2.48938" fill="#080821" fill-opacity="0.02"/>
<rect x="171.305" y="363.441" width="14.9362" height="18.6698" rx="2.48938" fill="#080821" fill-opacity="0.02"/>
<rect x="188.73" y="363.441" width="14.9362" height="18.6698" rx="2.48938" fill="#080821" fill-opacity="0.02"/>
</g>
<rect opacity="0.4" x="21.9336" y="11.2036" width="201.64" height="431.895" rx="17.062" stroke="url(#paint6_linear_521_1606)" stroke-width="0.533188"/>
<rect opacity="0.4" width="201.64" height="431.895" rx="17.062" transform="matrix(-1 0 0 1 223.574 11.2021)" stroke="url(#paint7_linear_521_1606)" stroke-width="0.533188"/>
<rect opacity="0.4" x="223.574" y="443.1" width="201.64" height="431.895" rx="17.062" transform="rotate(180 223.574 443.1)" stroke="url(#paint8_linear_521_1606)" stroke-width="0.533188"/>
<rect opacity="0.4" width="201.64" height="431.895" rx="17.062" transform="matrix(1 0 0 -1 21.9336 443.1)" stroke="url(#paint9_linear_521_1606)" stroke-width="0.533188"/>
<g filter="url(#filter1_i_521_1606)">
<path d="M39.3707 13.9575H206.175C214.273 13.9575 220.837 20.5222 220.837 28.6202V425.678C220.837 433.776 214.273 440.341 206.175 440.341H39.3707C31.2727 440.341 24.708 433.776 24.708 425.678V28.6202C24.708 20.5222 31.2727 13.9575 39.3707 13.9575Z" stroke="white" stroke-opacity="0.1" stroke-width="0.533188"/>
</g>
</g>
<g clip-path="url(#clip0_521_1606)">
<path d="M92.7297 62.3999H88.1604C88.1604 66.1649 86.4392 69.6007 83.4477 71.8638L81.6445 73.2217L88.6522 82.809H94.4099L87.9555 73.9829C91.0085 70.938 92.7297 66.8232 92.7297 62.3999Z" fill="black"/>
<path d="M81.0682 62.3999H76.3965V82.809H81.0682V62.3999Z" fill="black"/>
<path d="M100.165 62.3999H95.7598V82.809H100.165V62.3999Z" fill="black"/>
<path d="M138.811 68.3047C137.131 68.3047 135.533 68.819 134.467 70.2798V68.6956H130.287V82.8091H134.529V75.4026C134.529 73.2629 135.963 72.2137 137.684 72.2137C139.528 72.2137 140.594 73.3247 140.594 75.382V82.8297H144.794V73.839C144.794 70.5472 142.192 68.3047 138.811 68.3047Z" fill="black"/>
<path d="M113.484 68.6956V69.6008C112.296 68.7779 110.861 68.3047 109.304 68.3047C105.206 68.3047 101.887 71.6376 101.887 75.7524C101.887 79.8671 105.206 83.2 109.304 83.2C110.861 83.2 112.296 82.7268 113.484 81.9039V82.8091H117.685V68.6956H113.484ZM109.652 79.3733C107.542 79.3733 105.841 77.748 105.841 75.7524C105.841 73.7567 107.542 72.1314 109.652 72.1314C111.763 72.1314 113.464 73.7567 113.464 75.7524C113.464 77.748 111.763 79.3733 109.652 79.3733Z" fill="black"/>
<path d="M124.199 70.5264V68.6953H119.896V82.8089H124.22V76.2253C124.22 74.0033 126.617 72.8101 128.277 72.8101C128.297 72.8101 128.318 72.8101 128.318 72.8101V68.6953C126.617 68.6953 125.04 69.436 124.199 70.5264Z" fill="black"/>
<path d="M157.867 68.6956V69.6008C156.679 68.7779 155.244 68.3047 153.687 68.3047C149.589 68.3047 146.27 71.6376 146.27 75.7524C146.27 79.8671 149.589 83.2 153.687 83.2C155.244 83.2 156.679 82.7268 157.867 81.9039V82.8091H162.067V68.6956H157.867ZM154.035 79.3733C151.925 79.3733 150.224 77.748 150.224 75.7524C150.224 73.7567 151.925 72.1314 154.035 72.1314C156.146 72.1314 157.846 73.7567 157.846 75.7524C157.867 77.748 156.146 79.3733 154.035 79.3733Z" fill="black"/>
<path d="M165.325 69.107C165.325 68.9013 165.181 68.7778 164.956 68.7778H164.566V69.8477H164.751V69.4568H164.956L165.12 69.8477H165.325L165.14 69.4156C165.263 69.3539 165.325 69.251 165.325 69.107ZM164.956 69.2716H164.751V68.9424H164.956C165.079 68.9424 165.14 69.0041 165.14 69.107C165.14 69.2099 165.099 69.2716 164.956 69.2716Z" fill="black"/>
<path d="M164.895 68.3252C164.341 68.3252 163.891 68.7778 163.891 69.3333C163.911 69.8888 164.341 70.3414 164.895 70.3414C165.448 70.3414 165.899 69.8888 165.899 69.3333C165.899 68.7778 165.448 68.3252 164.895 68.3252ZM164.895 70.1563C164.444 70.1563 164.096 69.7859 164.096 69.3333C164.096 68.8807 164.464 68.5104 164.895 68.5104C165.345 68.5104 165.694 68.8807 165.694 69.3333C165.694 69.7859 165.325 70.1563 164.895 70.1563Z" fill="black"/>
<path d="M166.553 77.8096C165.099 77.8096 163.91 79.0028 163.91 80.4636C163.91 81.9243 165.099 83.1176 166.553 83.1176C168.008 83.1176 169.197 81.9243 169.197 80.4636C169.197 78.9823 168.008 77.8096 166.553 77.8096Z" fill="black"/>
</g>
<defs>
<filter id="filter0_d_521_1606" x="18.043" y="8.6255" width="209.459" height="439.713" filterUnits="userSpaceOnUse" color-interpolation-filters="sRGB">
<feFlood flood-opacity="0" result="BackgroundImageFix"/>
<feColorMatrix in="SourceAlpha" type="matrix" values="0 0 0 0 0 0 0 0 0 0 0 0 0 0 0 0 0 0 127 0" result="hardAlpha"/>
<feMorphology radius="0.533188" operator="erode" in="SourceAlpha" result="effect1_dropShadow_521_1606"/>
<feOffset dy="1.33297"/>
<feGaussianBlur stdDeviation="1.06638"/>
<feComposite in2="hardAlpha" operator="out"/>
<feColorMatrix type="matrix" values="0 0 0 0 0.0313726 0 0 0 0 0.0313726 0 0 0 0 0.129412 0 0 0 0.15 0"/>
<feBlend mode="normal" in2="BackgroundImageFix" result="effect1_dropShadow_521_1606"/>
<feBlend mode="normal" in="SourceGraphic" in2="effect1_dropShadow_521_1606" result="shape"/>
</filter>
<filter id="filter1_i_521_1606" x="24.4414" y="13.6909" width="196.662" height="426.917" filterUnits="userSpaceOnUse" color-interpolation-filters="sRGB">
<feFlood flood-opacity="0" result="BackgroundImageFix"/>
<feBlend mode="normal" in="SourceGraphic" in2="BackgroundImageFix" result="shape"/>
<feColorMatrix in="SourceAlpha" type="matrix" values="0 0 0 0 0 0 0 0 0 0 0 0 0 0 0 0 0 0 127 0" result="hardAlpha"/>
<feOffset/>
<feGaussianBlur stdDeviation="2.13275"/>
<feComposite in2="hardAlpha" operator="arithmetic" k2="-1" k3="1"/>
<feColorMatrix type="matrix" values="0 0 0 0 0.0313726 0 0 0 0 0.0313726 0 0 0 0 0.129412 0 0 0 0.06 0"/>
<feBlend mode="normal" in2="shape" result="effect1_innerShadow_521_1606"/>
</filter>
<linearGradient id="paint0_linear_521_1606" x1="104.306" y1="528.471" x2="198.343" y2="301.387" gradientUnits="userSpaceOnUse">
<stop stop-color="#080821" stop-opacity="0.9"/>
<stop offset="1" stop-color="white" stop-opacity="0"/>
</linearGradient>
<linearGradient id="paint1_linear_521_1606" x1="85.5987" y1="-76.7575" x2="215.433" y2="-38.552" gradientUnits="userSpaceOnUse">
<stop stop-color="#080821" stop-opacity="0.9"/>
<stop offset="1" stop-color="white" stop-opacity="0"/>
</linearGradient>
<linearGradient id="paint2_linear_521_1606" x1="173.977" y1="-88.1281" x2="59.3263" y2="-60.0281" gradientUnits="userSpaceOnUse">
<stop stop-color="#080821"/>
<stop offset="1" stop-color="white" stop-opacity="0"/>
</linearGradient>
<linearGradient id="paint3_linear_521_1606" x1="104.312" y1="528.471" x2="198.348" y2="301.387" gradientUnits="userSpaceOnUse">
<stop stop-color="#080821" stop-opacity="0.9"/>
<stop offset="1" stop-color="white" stop-opacity="0"/>
</linearGradient>
<linearGradient id="paint4_linear_521_1606" x1="85.6046" y1="-76.7575" x2="215.439" y2="-38.552" gradientUnits="userSpaceOnUse">
<stop stop-color="#080821" stop-opacity="0.9"/>
<stop offset="1" stop-color="white" stop-opacity="0"/>
</linearGradient>
<linearGradient id="paint5_linear_521_1606" x1="173.983" y1="-88.1281" x2="59.3322" y2="-60.0281" gradientUnits="userSpaceOnUse">
<stop stop-color="#080821"/>
<stop offset="1" stop-color="white" stop-opacity="0"/>
</linearGradient>
<linearGradient id="paint6_linear_521_1606" x1="231.143" y1="-8.13496" x2="202" y2="-4.18774" gradientUnits="userSpaceOnUse">
<stop offset="0.581631" stop-color="white"/>
<stop offset="1" stop-color="white" stop-opacity="0"/>
</linearGradient>
<linearGradient id="paint7_linear_521_1606" x1="209.209" y1="-19.3386" x2="180.066" y2="-15.3914" gradientUnits="userSpaceOnUse">
<stop offset="0.581631" stop-color="white"/>
<stop offset="1" stop-color="white" stop-opacity="0"/>
</linearGradient>
<linearGradient id="paint8_linear_521_1606" x1="432.784" y1="423.761" x2="403.64" y2="427.708" gradientUnits="userSpaceOnUse">
<stop offset="0.581631" stop-color="white"/>
<stop offset="1" stop-color="white" stop-opacity="0"/>
</linearGradient>
<linearGradient id="paint9_linear_521_1606" x1="209.209" y1="-19.3386" x2="180.066" y2="-15.3914" gradientUnits="userSpaceOnUse">
<stop offset="0.581631" stop-color="white"/>
<stop offset="1" stop-color="white" stop-opacity="0"/>
</linearGradient>
<clipPath id="clip0_521_1606">
<rect width="92.8" height="20.8" fill="white" transform="translate(76.3984 62.3999)"/>
</clipPath>
</defs>
</svg>
