<svg width="156" height="165" viewBox="0 0 156 165" fill="none" xmlns="http://www.w3.org/2000/svg">
<g filter="url(#filter0_dd_9619_49051)">
<g filter="url(#filter1_d_9619_49051)">
<rect x="18.0234" y="12.0292" width="119.697" height="119.698" rx="16.23" fill="white"/>
<rect x="15.8768" y="9.8825" width="123.991" height="123.992" rx="18.3767" stroke="url(#paint0_linear_9619_49051)" stroke-opacity="0.1" stroke-width="4.29336"/>
<rect x="15.8768" y="9.8825" width="123.991" height="123.992" rx="18.3767" stroke="url(#paint1_linear_9619_49051)" stroke-opacity="0.1" stroke-width="4.29336"/>
<rect x="15.8768" y="9.8825" width="123.991" height="123.992" rx="18.3767" stroke="url(#paint2_linear_9619_49051)" stroke-opacity="0.1" stroke-width="4.29336"/>
<rect x="15.8768" y="9.8825" width="123.991" height="123.992" rx="18.3767" stroke="white" stroke-opacity="0.5" stroke-width="4.29336"/>
</g>
<g filter="url(#filter2_i_9619_49051)">
<path d="M18.142 28.2592C18.142 19.3611 25.3553 12.1477 34.2534 12.1477H121.491C130.389 12.1477 137.602 19.3611 137.602 28.2592V115.497C137.602 124.395 130.389 131.609 121.491 131.609H34.2535C25.3553 131.609 18.142 124.395 18.142 115.497V28.2592Z" stroke="white" stroke-opacity="0.1" stroke-width="0.237149"/>
</g>
<rect opacity="0.4" x="16" y="10.001" width="124.431" height="123.756" rx="20.2875" stroke="url(#paint3_linear_9619_49051)" stroke-width="0.858672"/>
<rect opacity="0.4" width="124.431" height="123.756" rx="20.2875" transform="matrix(-1 0 0 1 140.434 10.0005)" stroke="url(#paint4_linear_9619_49051)" stroke-width="0.858672"/>
<rect opacity="0.4" x="140.434" y="133.756" width="124.431" height="123.756" rx="20.2875" transform="rotate(180 140.434 133.756)" stroke="url(#paint5_linear_9619_49051)" stroke-width="0.858672"/>
<rect opacity="0.4" width="124.431" height="123.756" rx="20.2875" transform="matrix(1 0 0 -1 16 133.756)" stroke="url(#paint6_linear_9619_49051)" stroke-width="0.858672"/>
<g filter="url(#filter3_ddd_9619_49051)">
<rect x="130.32" y="124.326" width="104.656" height="104.657" rx="13.0819" transform="rotate(-180 130.32 124.326)" fill="url(#paint7_linear_9619_49051)"/>
<rect x="129.594" y="123.599" width="103.202" height="103.203" rx="12.3551" transform="rotate(-180 129.594 123.599)" stroke="white" stroke-width="1.45354"/>
</g>
<rect x="83.8047" y="31.2979" width="34.8853" height="34.8856" rx="5.81418" fill="white"/>
<rect x="84.1681" y="31.6612" width="34.1585" height="34.1588" rx="5.45079" stroke="#080821" stroke-opacity="0.1" stroke-width="0.726772"/>
<g clip-path="url(#clip0_9619_49051)">
<path d="M99.5174 40.936C100.166 40.7248 100.842 40.6212 101.525 40.625C102.876 40.5943 104.228 41.0089 105.349 41.7613C108.466 43.8497 109.303 48.0686 107.214 51.1857C107.157 51.2702 107.099 51.3547 107.038 51.4353C106.854 51.3508 106.688 51.228 106.558 51.0744C105.951 50.3258 105.341 49.5849 104.696 48.8709C104.535 48.6866 104.347 48.5216 104.12 48.4256C104.013 48.368 103.871 48.3411 103.813 48.2183C103.437 47.5542 103.061 46.8939 102.685 46.2336C102.546 46.0071 102.443 45.7499 102.243 45.5695C102.097 45.4428 101.936 45.3391 101.779 45.2278C101.709 45.1779 101.61 45.1817 101.544 45.2355C101.418 45.3315 101.268 45.4082 101.18 45.5464C101.007 45.7883 100.834 46.0263 100.661 46.272C100.558 46.4255 100.37 46.4946 100.258 46.6405C99.6249 47.4467 98.9915 48.2528 98.3543 49.0552C98.312 49.1128 98.266 49.1665 98.2161 49.2164C98.1163 49.274 97.9896 49.2932 97.9205 49.393C97.5135 49.9151 97.1066 50.4333 96.6997 50.9554C96.55 51.1666 96.3504 51.3355 96.1162 51.443C93.8897 48.4218 94.5307 44.1683 97.5481 41.9417C98.147 41.5003 98.8111 41.1586 99.5174 40.936ZM101.579 41.3006C101.533 41.4465 101.487 41.5924 101.437 41.7344H100.98C101.103 41.8266 101.23 41.9149 101.352 42.0032C101.306 42.149 101.256 42.2949 101.21 42.4408C101.333 42.3525 101.456 42.2604 101.583 42.1721C101.706 42.2604 101.828 42.3525 101.955 42.4408C101.909 42.2949 101.859 42.149 101.813 42.0032C101.936 41.9149 102.063 41.8227 102.185 41.7344H101.725C101.671 41.5924 101.625 41.4465 101.579 41.3006ZM99.694 41.6001C99.694 41.7536 99.694 41.9072 99.694 42.0569C99.552 42.1068 99.4061 42.1452 99.2679 42.2028C99.41 42.2488 99.552 42.2949 99.694 42.341C99.694 42.4945 99.694 42.6481 99.694 42.7978L99.9627 42.4293C100.109 42.4753 100.255 42.5252 100.4 42.5713C100.312 42.4485 100.22 42.3256 100.132 42.1989C100.22 42.0761 100.312 41.9533 100.4 41.8266L99.9627 41.9686C99.8706 41.8458 99.7823 41.7229 99.694 41.6001ZM103.464 41.6001C103.372 41.7229 103.283 41.8458 103.195 41.9725L102.761 41.8304C102.85 41.9533 102.942 42.0761 103.03 42.2028C102.942 42.3256 102.85 42.4485 102.761 42.5752C102.907 42.5291 103.053 42.4792 103.199 42.4331C103.291 42.556 103.379 42.6788 103.468 42.8055C103.468 42.6519 103.468 42.4984 103.468 42.3448C103.606 42.2949 103.756 42.2642 103.886 42.1989C103.748 42.1529 103.606 42.1068 103.468 42.0607C103.464 41.9034 103.464 41.7498 103.464 41.6001ZM97.9934 42.4638C98.0395 42.6097 98.0894 42.7556 98.1354 42.9015C98.0126 42.9936 97.8898 43.0819 97.7669 43.1702C97.9205 43.1702 98.074 43.1702 98.2276 43.1702C98.2736 43.3161 98.3197 43.4619 98.3696 43.6078C98.4195 43.4619 98.4656 43.3161 98.5117 43.1702C98.6652 43.1702 98.8149 43.1702 98.9685 43.1702C98.8456 43.078 98.7228 42.9898 98.5999 42.9015C98.646 42.7556 98.6959 42.6097 98.742 42.4638C98.6191 42.5521 98.4925 42.6443 98.3696 42.7325L97.9934 42.4638ZM104.424 42.4638C104.47 42.6097 104.519 42.7556 104.566 42.9015C104.443 42.9936 104.32 43.0819 104.197 43.1702C104.351 43.1702 104.5 43.1702 104.654 43.1702C104.7 43.3161 104.75 43.4619 104.796 43.6078C104.842 43.4619 104.892 43.3199 104.934 43.174C105.088 43.1702 105.241 43.174 105.395 43.1702C105.272 43.0819 105.149 42.9898 105.026 42.9015C105.072 42.7556 105.122 42.6097 105.168 42.4638C105.045 42.5521 104.923 42.6443 104.8 42.7325C104.669 42.6443 104.546 42.5521 104.424 42.4638ZM97.0798 43.961L96.646 43.8189C96.7343 43.9418 96.8264 44.0646 96.9147 44.1913C96.8264 44.3142 96.7343 44.437 96.646 44.5637L97.0836 44.4217C97.1719 44.5445 97.264 44.6673 97.3523 44.7902V44.3295L97.7861 44.1875C97.6402 44.1376 97.4944 44.0915 97.3523 44.0454C97.3523 43.8919 97.3523 43.7422 97.3523 43.5886C97.2563 43.7115 97.168 43.8343 97.0798 43.961ZM105.809 43.5886C105.809 43.7422 105.809 43.8919 105.809 44.0454C105.663 44.0915 105.518 44.1414 105.372 44.1875C105.518 44.2335 105.663 44.2835 105.809 44.3295C105.809 44.4831 105.809 44.6328 105.809 44.7863C105.898 44.6635 105.99 44.5407 106.078 44.4178L106.512 44.5599C106.424 44.437 106.331 44.3142 106.243 44.1875C106.331 44.0646 106.424 43.9418 106.512 43.8151L106.074 43.9571C105.986 43.8343 105.898 43.7115 105.809 43.5886ZM106.777 45.0819C106.731 45.2278 106.681 45.3699 106.639 45.5157C106.485 45.5234 106.331 45.5196 106.178 45.5196L106.55 45.7883C106.504 45.9342 106.454 46.08 106.408 46.2259C106.531 46.1376 106.654 46.0455 106.777 45.9572C106.903 46.0455 107.026 46.1376 107.149 46.2259C107.103 46.08 107.053 45.9342 107.007 45.7883C107.13 45.7 107.257 45.6079 107.379 45.5196H106.923C106.873 45.3737 106.827 45.2278 106.777 45.0819ZM96.2352 45.5196H95.7784C95.9012 45.6117 96.0241 45.7 96.1469 45.7883C96.1008 45.9342 96.0509 46.08 96.0049 46.2259C96.1277 46.1376 96.2506 46.0455 96.3734 45.9572C96.4962 46.0455 96.6191 46.1376 96.7458 46.2259C96.6997 46.08 96.6498 45.9342 96.6037 45.7883C96.7266 45.7 96.8494 45.6079 96.9723 45.5196C96.8187 45.5196 96.669 45.5196 96.5154 45.5196C96.4655 45.3737 96.4195 45.2278 96.3734 45.0819C96.3273 45.2278 96.2813 45.3737 96.2352 45.5196ZM106.969 47.178C106.827 47.1281 106.681 47.082 106.535 47.0359L106.804 47.4045C106.715 47.5273 106.623 47.6501 106.535 47.7768C106.681 47.7308 106.823 47.6809 106.969 47.6348C107.061 47.7576 107.149 47.8843 107.241 48.0072V47.5465C107.387 47.5004 107.529 47.4505 107.675 47.4045C107.529 47.3545 107.387 47.3085 107.241 47.2624C107.241 47.1089 107.241 46.9553 107.241 46.8018C107.149 46.9246 107.061 47.0551 106.969 47.178ZM95.9089 46.8018C95.9089 46.9553 95.9051 47.105 95.9089 47.2586C95.763 47.3123 95.6171 47.3545 95.4713 47.4045C95.6171 47.4505 95.7592 47.5004 95.9051 47.5465C95.9051 47.7 95.9051 47.8536 95.9051 48.0033C95.9972 47.8805 96.0855 47.7576 96.1738 47.6348L96.6076 47.7768C96.5193 47.654 96.4271 47.5273 96.3389 47.4045C96.4271 47.2816 96.5193 47.1588 96.6076 47.0321C96.4617 47.0782 96.3158 47.1281 96.1738 47.1741C96.0855 47.0513 95.9972 46.9284 95.9089 46.8018ZM96.001 48.583C96.0471 48.7289 96.0932 48.8709 96.1431 49.0168C96.0202 49.1128 95.8935 49.201 95.7707 49.2893H96.2314C96.2774 49.4352 96.3273 49.5811 96.3734 49.727C96.4195 49.5811 96.4655 49.4352 96.5154 49.2893H96.9723C96.8494 49.1972 96.7227 49.1089 96.5999 49.0168C96.646 48.8709 96.6959 48.7289 96.7419 48.583C96.6191 48.6713 96.4962 48.7634 96.3696 48.8517C96.2506 48.7634 96.1239 48.6751 96.001 48.583ZM106.404 48.583C106.45 48.7289 106.5 48.8747 106.546 49.0206C106.424 49.1089 106.297 49.201 106.174 49.2893H106.631C106.681 49.4352 106.727 49.5811 106.773 49.727C106.819 49.5811 106.869 49.4352 106.915 49.2893H107.372C107.249 49.201 107.126 49.1089 106.999 49.0206C107.045 48.8747 107.095 48.7289 107.141 48.583C107.019 48.6713 106.896 48.7634 106.769 48.8517C106.65 48.7634 106.527 48.6751 106.404 48.583ZM100.965 47.416C101.222 46.8325 101.471 46.2413 101.729 45.6578C101.886 45.7614 102.047 45.8727 102.139 46.0417C102.47 46.6252 102.804 47.2125 103.137 47.796C103.364 48.1837 103.575 48.583 103.809 48.963C103.84 48.8824 103.828 48.7941 103.828 48.7135C104.017 48.7903 104.197 48.8901 104.335 49.0437C105.045 49.8114 105.698 50.6329 106.37 51.4353C105.855 51.4314 105.337 51.4276 104.823 51.4007C104.654 51.132 104.512 50.8518 104.312 50.6022C104.151 50.3949 103.99 50.1915 103.813 49.9957C103.752 49.9419 103.686 50.0341 103.721 50.0917C103.825 50.3911 103.944 50.6829 104.047 50.9784C104.09 51.0936 104.09 51.2165 104.043 51.3316C103.567 51.2817 103.091 51.2011 102.623 51.0975C102.642 51.2088 102.658 51.3201 102.677 51.4314C102.278 51.4314 101.882 51.4314 101.483 51.4314C101.379 51.0437 101.514 50.6483 101.636 50.2798C101.732 50.0187 101.84 49.7615 101.959 49.5082C101.706 49.393 101.433 49.3047 101.153 49.297C100.903 49.2893 100.654 49.297 100.408 49.2932C100.642 48.7481 100.88 48.2029 101.114 47.6578C101.168 47.5503 101.072 47.439 100.965 47.416ZM100.205 48.2874C100.312 48.1876 100.4 48.0724 100.519 47.988C100.523 48.0302 100.512 48.0724 100.496 48.107C100.343 48.4256 100.189 48.7442 100.04 49.0628C99.9743 49.1972 99.9589 49.4007 100.124 49.4698C100.066 49.6579 99.9743 49.8306 99.9013 50.0149C99.7631 50.0341 99.6326 50.0917 99.5251 50.1838C99.2449 50.4103 99.0414 50.7174 98.8456 51.013C98.7497 50.9708 98.6844 50.8518 98.7458 50.752C98.8763 50.5139 99.0222 50.2874 99.1604 50.0494C99.1988 50.0034 99.1643 49.9573 99.122 49.9304C99.3217 49.6003 99.5213 49.2701 99.7209 48.9362C99.8629 48.7135 100.005 48.4755 100.205 48.2874ZM89.5901 52.3528C90.2658 51.7693 91.1641 51.4929 92.0432 51.443C92.6727 51.4122 93.3253 51.4737 93.905 51.7309C94.2659 51.8921 94.596 52.157 94.7534 52.5255C94.9338 52.9631 94.8762 53.4622 94.6075 53.8499C94.3426 54.2261 93.9357 54.4718 93.5173 54.6407C93.1833 54.7713 92.8378 54.8595 92.4846 54.9056C92.3119 55.5122 92.047 56.0995 91.6554 56.5986C91.1756 57.2243 90.4539 57.6773 89.6631 57.7656C89.2101 57.804 88.7264 57.8116 88.3194 57.5851C88.0469 57.4393 87.8434 57.159 87.8204 56.8481C87.8166 56.7099 87.8012 56.5563 87.8741 56.4296C87.9624 56.2761 88.2273 56.2646 88.3118 56.4258C88.3617 56.5141 88.3271 56.6177 88.3194 56.7137C88.2772 56.994 88.3847 57.3087 88.6266 57.4738C88.8761 57.6504 89.2024 57.6581 89.4941 57.6235C89.8934 57.5736 90.2542 57.3625 90.5306 57.0746C90.8838 56.7022 91.1257 56.2454 91.3483 55.7847C91.6823 55.0784 91.9587 54.3413 92.3541 53.6695C92.6151 53.228 92.9415 52.8173 93.3791 52.5447L93.429 52.6061C92.9645 53.2165 92.761 53.9689 92.5499 54.6906C93.118 54.6369 93.6248 54.3183 93.9127 53.8269C94.1161 53.4776 94.1814 53.0668 94.0931 52.6714C94.0279 52.372 93.8513 52.1071 93.5941 51.9343C93.2562 51.7078 92.8416 51.6311 92.4386 51.6157C91.6785 51.5773 90.926 51.7884 90.2926 52.2146C89.8051 52.5485 89.4212 53.0591 89.3176 53.6503C89.2485 54.0342 89.2638 54.4641 89.4941 54.7943C89.7744 55.1974 90.4385 55.2166 90.7533 54.8519C90.9107 54.6753 90.9683 54.4296 90.9606 54.1954C90.9414 53.9804 91.3099 53.9344 91.3675 54.1302C91.4021 54.4641 91.2523 54.7866 90.9798 54.9786C90.6765 55.1935 90.2888 55.2434 89.9279 55.205C89.6208 55.1743 89.306 55.0592 89.0949 54.8212C88.8607 54.5601 88.7724 54.1993 88.7993 53.8576C88.8262 53.2741 89.1486 52.729 89.5901 52.3528ZM113.867 53.0015H114.531C114.347 53.4315 114.159 53.8614 113.975 54.2914C114.443 54.2914 114.907 54.2914 115.376 54.2914C115.299 54.4718 115.222 54.6522 115.142 54.8327C114.677 54.8288 114.213 54.8365 113.748 54.8288C113.552 55.2549 113.376 55.6887 113.184 56.1225H112.52C112.704 55.6926 112.892 55.2626 113.076 54.8327H111.675C111.752 54.6522 111.829 54.4718 111.909 54.2914H113.311C113.495 53.8614 113.683 53.4315 113.867 53.0015ZM110.301 54.2914C110.428 54.0073 110.554 53.7194 110.677 53.4353H111.284C111.161 53.7194 111.034 54.0073 110.911 54.2914C111.042 54.2914 111.172 54.2914 111.307 54.2914C111.28 54.3528 111.253 54.4142 111.226 54.4757C111.092 54.4757 110.961 54.4757 110.827 54.4757C110.623 54.9402 110.416 55.4085 110.213 55.873C110.14 56.0611 110.059 56.2492 110.028 56.4527C110.013 56.5525 110.013 56.6907 110.117 56.7444C110.228 56.7982 110.362 56.7559 110.466 56.6984C110.696 56.5525 110.861 56.3337 111.019 56.1187L111.126 56.2223C110.919 56.5179 110.681 56.8212 110.339 56.9671C110.105 57.0592 109.79 57.0823 109.606 56.8826C109.429 56.6715 109.475 56.3721 109.548 56.1302C109.36 56.3721 109.122 56.6024 108.823 56.6984C108.665 56.7444 108.454 56.7406 108.358 56.587C108.262 56.422 108.32 56.2262 108.374 56.0573C108.535 55.6504 108.746 55.2626 108.923 54.8595C108.957 54.7904 108.98 54.7137 108.988 54.6331C108.946 54.514 108.796 54.5755 108.723 54.6254C108.489 54.7904 108.355 55.0515 108.224 55.2972C108.001 55.754 107.809 56.2262 107.602 56.6907H106.988C107.049 56.5525 107.111 56.4143 107.168 56.2761C107.007 56.4642 106.827 56.6638 106.581 56.7291C106.45 56.7598 106.289 56.7636 106.197 56.6523C106.097 56.5179 106.124 56.3375 106.151 56.1801C105.978 56.4066 105.763 56.6101 105.495 56.7099C105.329 56.7713 105.107 56.7559 105.007 56.5947C104.903 56.4258 104.961 56.2147 105.019 56.0381C105.161 55.7041 105.318 55.3778 105.475 55.0477C105.333 55.1129 105.168 55.1244 105.019 55.0745C104.969 55.4315 104.842 55.7694 104.65 56.0726C104.45 56.3874 104.143 56.6561 103.767 56.7291C103.537 56.7713 103.276 56.7636 103.084 56.6139C102.923 56.4872 102.865 56.2723 102.865 56.0726C102.673 56.3222 102.466 56.5909 102.159 56.7022C101.99 56.7559 101.763 56.7675 101.64 56.6177C101.521 56.4565 101.59 56.2415 101.656 56.0688C101.84 55.6695 102.028 55.2741 102.212 54.8787C102.247 54.7981 102.281 54.706 102.258 54.6215C102.228 54.5755 102.17 54.5831 102.124 54.5947C102.005 54.6254 101.913 54.7137 101.832 54.802C101.66 55.0016 101.544 55.2358 101.441 55.4776C101.26 55.8845 101.084 56.2876 100.903 56.6945H100.274C100.542 56.065 100.819 55.4354 101.088 54.8058C101.107 54.7405 101.157 54.6446 101.084 54.5947C100.965 54.5716 100.865 54.6638 100.78 54.7329C100.423 55.063 100.274 55.5352 100.074 55.9651C99.9666 56.207 99.8629 56.445 99.7555 56.6868H99.1451C99.2027 56.5486 99.2641 56.4104 99.3255 56.2761C99.1758 56.445 99.0222 56.6293 98.8034 56.7022C98.6614 56.7483 98.4809 56.7483 98.3773 56.6254C98.2813 56.5179 98.2813 56.3605 98.2967 56.2262C98.1354 56.422 97.9435 56.6139 97.6978 56.6984C97.5135 56.7559 97.2794 56.7368 97.1565 56.5717C97.0452 56.4104 97.0606 56.2032 97.0951 56.0189C97.1719 55.6734 97.36 55.3624 97.5635 55.0784C97.4329 55.1513 97.2909 55.2242 97.1373 55.2127C97.0567 55.2089 96.9723 55.1628 96.9569 55.0784C96.9224 54.944 97.0222 54.8327 97.0452 54.7098C96.9492 54.7252 96.8917 54.8058 96.8341 54.8749C96.6652 55.086 96.5538 55.3394 96.4463 55.5851C96.2851 55.9536 96.1239 56.3183 95.9626 56.6868H95.3676C95.4252 56.5486 95.4866 56.4105 95.548 56.2723C95.3868 56.4565 95.1987 56.6293 94.9607 56.706C94.8302 56.7444 94.6728 56.7444 94.573 56.6446C94.4808 56.5448 94.4808 56.3951 94.5039 56.2684C94.3465 56.4719 94.143 56.6561 93.8858 56.7137C93.7207 56.7483 93.5288 56.7329 93.406 56.6062C93.2754 56.468 93.2793 56.2646 93.3061 56.088C93.3714 55.731 93.5557 55.4085 93.763 55.1129C94.0048 54.7559 94.3503 54.4833 94.7534 54.3336C95.0567 54.2223 95.3945 54.23 95.7093 54.2952C95.7669 54.3144 95.8935 54.3413 95.859 54.4258C95.6248 54.9786 95.3676 55.5275 95.1373 56.0841C95.1143 56.1724 95.0452 56.2838 95.1143 56.3644C95.2294 56.3951 95.3254 56.2914 95.4022 56.2185C95.6747 55.9229 95.8628 55.5582 96.0202 55.1935C96.1546 54.8903 96.2889 54.587 96.4233 54.2876H96.9723C96.9185 54.4142 96.8686 54.5409 96.8149 54.6714C96.9761 54.4987 97.1527 54.3259 97.3869 54.2568C97.4752 54.2338 97.621 54.2261 97.6479 54.3413C97.6748 54.5524 97.4944 54.7137 97.4444 54.9056L97.456 54.9363C97.6095 54.9632 97.74 54.8288 97.859 54.7482C98.1738 54.4757 98.5654 54.2607 98.9915 54.2492C99.1796 54.2492 99.3754 54.2568 99.5558 54.3144C99.6057 54.3298 99.6863 54.372 99.648 54.4373C99.456 54.8787 99.2602 55.3164 99.0683 55.7578C98.9992 55.9191 98.9186 56.0803 98.8879 56.2569C98.8763 56.2991 98.8994 56.3413 98.9416 56.3529C98.9493 56.3529 98.957 56.3567 98.9608 56.3567C99.0721 56.3452 99.1527 56.2607 99.2257 56.184C99.4906 55.8922 99.671 55.5352 99.8245 55.1743C99.9551 54.8826 100.086 54.5908 100.212 54.2952C100.4 54.2952 100.585 54.2952 100.773 54.2952C100.723 54.4219 100.669 54.5524 100.615 54.6791C100.8 54.4795 101.026 54.2914 101.306 54.253C101.422 54.2415 101.564 54.2453 101.644 54.3413C101.725 54.4373 101.706 54.5678 101.702 54.6791C101.921 54.4411 102.22 54.2453 102.554 54.2453C102.696 54.2415 102.842 54.3336 102.873 54.4795C102.907 54.6868 102.811 54.8787 102.738 55.0668C102.589 55.4123 102.412 55.7502 102.262 56.0957C102.239 56.1686 102.185 56.2569 102.235 56.3337C102.308 56.3759 102.389 56.326 102.454 56.2876C102.623 56.1648 102.738 55.9843 102.853 55.8154C102.938 55.6964 102.965 55.5467 103.022 55.4123C103.164 55.0784 103.341 54.7444 103.629 54.514C103.886 54.3029 104.243 54.1993 104.573 54.2645C104.796 54.3144 104.965 54.4872 105.007 54.7098C105.026 54.7789 105.019 54.8749 105.103 54.9056C105.241 54.967 105.406 54.9133 105.514 54.8173C105.671 54.6753 105.748 54.4718 105.832 54.2876C106.04 54.2837 106.243 54.2876 106.45 54.2876C106.178 54.8941 105.894 55.493 105.625 56.0995C105.602 56.1763 105.544 56.2761 105.614 56.3414C105.725 56.3836 105.832 56.2876 105.913 56.2185C106.186 55.9498 106.374 55.6043 106.52 55.2511C106.658 54.9286 106.8 54.6062 106.938 54.2837C107.145 54.2837 107.353 54.2837 107.56 54.2837C107.291 54.9056 107.015 55.5275 106.754 56.1532C106.735 56.2147 106.696 56.2953 106.75 56.3452C106.873 56.3759 106.973 56.2646 107.053 56.1878C107.537 55.6465 107.759 54.944 108.059 54.2952C108.251 54.2952 108.443 54.2952 108.635 54.2952C108.585 54.4142 108.539 54.5294 108.489 54.6484C108.715 54.4181 109.026 54.1877 109.372 54.2645C109.583 54.3067 109.667 54.5563 109.602 54.7405C109.445 55.2434 109.145 55.6887 108.969 56.1878C108.957 56.2339 108.934 56.2953 108.969 56.3375C109.049 56.3797 109.138 56.326 109.199 56.2799C109.345 56.1686 109.456 56.0227 109.556 55.873C109.856 55.4431 110.032 54.9478 110.255 54.4795H109.955C109.982 54.4181 110.013 54.3567 110.04 54.2952C110.109 54.2952 110.205 54.2952 110.301 54.2914ZM94.3503 55.1014C94.1584 55.4047 93.9818 55.7271 93.9012 56.0803C93.8897 56.1648 93.8551 56.2953 93.9549 56.3414C94.0893 56.3874 94.2198 56.2953 94.3119 56.2032C94.5346 55.9767 94.6843 55.6887 94.8225 55.4047C94.9684 55.086 95.1104 54.7674 95.2486 54.4449C94.8455 54.4641 94.5499 54.7828 94.3503 55.1014ZM98.1047 55.1359C97.9205 55.4315 97.7516 55.7425 97.6786 56.0841C97.6633 56.1686 97.6402 56.2991 97.74 56.3414C97.8782 56.3874 98.0088 56.2914 98.1009 56.1993C98.3159 55.9767 98.4617 55.6926 98.5923 55.4162C98.7381 55.0937 98.884 54.7674 99.0261 54.4449C98.6115 54.4641 98.312 54.8058 98.1047 55.1359ZM104.281 54.4757C104.124 54.5601 104.028 54.7175 103.932 54.8595C103.679 55.255 103.495 55.6887 103.391 56.1456C103.372 56.2684 103.333 56.4527 103.475 56.5141C103.64 56.5602 103.779 56.4258 103.871 56.303C104.139 55.9268 104.324 55.493 104.458 55.0553C104.496 54.8941 104.554 54.7252 104.519 54.5563C104.496 54.4488 104.366 54.4258 104.281 54.4757Z" fill="#0064FF"/>
</g>
<rect x="83.8047" y="77.8125" width="34.8853" height="34.8856" rx="5.81418" fill="white"/>
<rect x="84.1681" y="78.1759" width="34.1585" height="34.1588" rx="5.45079" stroke="#080821" stroke-opacity="0.1" stroke-width="0.726772"/>
<g clip-path="url(#clip1_9619_49051)">
<path d="M91.6101 92.2559C89.7368 92.2559 88.1758 93.0506 88.1758 95.4483C88.1758 97.3478 89.2254 98.544 91.6585 98.544C94.5222 98.544 94.7058 96.6576 94.7058 96.6576H93.3182C93.3182 96.6576 93.0206 97.6733 91.5738 97.6733C90.3954 97.6733 89.5478 96.8773 89.5478 95.7615H94.8509V95.0613C94.8509 93.9575 94.1501 92.2559 91.6101 92.2559ZM91.5617 93.1507C92.6834 93.1507 93.4482 93.8379 93.4482 94.8679H89.5785C89.5785 93.7744 90.5767 93.1507 91.5617 93.1507Z" fill="#E53238"/>
<path d="M94.8464 89.9341V97.3399C94.8464 97.7603 94.8164 98.3505 94.8164 98.3505H96.1399C96.1399 98.3505 96.1874 97.9266 96.1874 97.5392C96.1874 97.5392 96.8413 98.5622 98.6193 98.5622C100.492 98.5622 101.763 97.2623 101.763 95.3999C101.763 93.6674 100.595 92.274 98.6223 92.274C96.7749 92.274 96.2008 93.2716 96.2008 93.2716V89.9341H94.8464ZM98.2807 93.19C99.5521 93.19 100.361 94.1336 100.361 95.3999C100.361 96.7578 99.4269 97.6461 98.2898 97.6461C96.9328 97.6461 96.2008 96.5866 96.2008 95.412C96.2008 94.3176 96.8576 93.19 98.2807 93.19Z" fill="#0064D2"/>
<path d="M105.055 92.2559C102.237 92.2559 102.056 93.799 102.056 94.0456H103.459C103.459 94.0456 103.533 93.1447 104.959 93.1447C105.885 93.1447 106.603 93.5688 106.603 94.3842V94.6744H104.959C102.775 94.6744 101.621 95.3131 101.621 96.6092C101.621 97.8848 102.688 98.5788 104.129 98.5788C106.093 98.5788 106.726 97.4935 106.726 97.4935C106.726 97.9251 106.759 98.3505 106.759 98.3505H108.006C108.006 98.3505 107.958 97.8233 107.958 97.4859V94.5701C107.958 92.6582 106.415 92.2559 105.055 92.2559ZM106.603 95.545V95.932C106.603 96.4367 106.292 97.6915 104.458 97.6915C103.454 97.6915 103.024 97.1904 103.024 96.6092C103.024 95.5519 104.473 95.545 106.603 95.545Z" fill="#F5AF02"/>
<path d="M107.199 92.4979H108.777L111.042 97.0352L113.302 92.4979H114.731L110.615 100.576H109.116L110.304 98.324L107.199 92.4979Z" fill="#86B817"/>
</g>
<rect x="37.3086" y="31.2982" width="34.8853" height="34.8856" rx="5.81418" fill="white"/>
<rect x="37.672" y="31.6616" width="34.1585" height="34.1588" rx="5.45079" stroke="#080821" stroke-opacity="0.1" stroke-width="0.726772"/>
<g clip-path="url(#clip2_9619_49051)">
<path d="M56.462 39.7777C63.1229 39.7777 68.5544 43.8057 68.5544 48.7432C68.5544 53.6751 63.1226 57.7031 56.462 57.7031C54.3265 57.7031 52.3185 57.2879 50.5725 56.562C50.4596 56.61 50.3409 56.6467 50.2364 56.6834L49.7901 56.7964C48.6489 57.0167 47.4739 57.0337 46.3525 56.6975C45.8921 56.5281 45.57 56.3586 45.2621 55.9659C45.1435 55.7513 45.0983 55.6072 45.0588 55.3643C45.1209 55.1327 44.861 55.0366 44.7117 54.9378C44.5648 54.8304 44.4292 54.7146 44.2964 54.5931C43.4208 53.7683 42.7206 52.7176 42.4378 51.5368C41.8305 51.5397 41.3701 51.2823 41.2542 50.6697C41.1865 50.0624 41.2401 49.4607 41.4491 48.8873C41.6779 48.3224 42.031 47.8563 42.5002 47.458C42.2714 47.1925 42.4353 46.9015 42.3788 46.5993C42.3562 46.5117 42.2912 46.4891 42.2234 46.444C42.3279 46.2804 42.5398 45.9779 42.3869 45.8056C42.2627 45.6107 42.4124 45.5118 42.5875 45.444C42.6864 45.3819 42.8929 45.1474 42.8502 45.026L42.7852 44.896C42.9657 44.8763 43.3188 44.8452 43.3643 44.6277C43.3188 44.4695 43.4151 44.3819 43.5673 44.4017C43.6719 44.4271 43.6945 44.4243 43.7651 44.3367C43.9176 44.1447 44.1492 43.9272 44.4119 43.995C44.4458 44.0006 44.4741 43.9837 44.5023 43.9695C44.6492 43.8848 44.782 43.769 44.9514 43.8622C45.0023 43.882 45.0164 43.8565 45.0418 43.8198C45.2537 43.6164 45.6633 44.0882 45.8384 44.0119C46.0305 43.9272 46.2225 43.8424 46.4174 43.7633C48.5896 41.3624 52.2843 39.7777 56.462 39.7777Z" fill="white"/>
<path d="M50.5703 56.4634C49.1636 57.0961 45.2882 57.1526 45.1526 55.3702C45.1526 55.3702 45.2257 55.1075 44.8899 54.9409C44.5566 54.7742 42.9352 53.3958 42.5087 51.4411C42.5087 51.4411 41.4099 51.5541 41.3368 50.5683C41.2605 49.5796 41.4099 48.4667 42.6386 47.4611C42.6386 47.4611 42.4296 47.351 42.4635 46.9696C42.4974 46.5911 42.4748 46.4979 42.3477 46.416C42.3477 46.416 42.6499 45.9443 42.4861 45.7805C42.3248 45.6195 42.568 45.5517 42.6242 45.5262C42.6835 45.5036 43.0422 45.1703 42.9264 44.9726C42.9264 44.9726 43.2145 44.9387 43.3417 44.8226C43.4688 44.7068 43.4575 44.6136 43.4575 44.6136C43.4575 44.6136 43.3869 44.4412 43.5846 44.4977C43.7795 44.5571 43.8388 44.3593 43.9546 44.2576C44.0704 44.1531 44.2314 44.0373 44.3924 44.0825C44.5534 44.1305 44.7286 43.828 44.9122 43.9441C44.9122 43.9441 45.028 44.0034 45.0958 43.8989C45.1667 43.7944 45.2116 43.9215 45.3048 43.9441C45.398 43.9667 45.7907 44.1051 45.8475 44.1051C45.8475 44.1051 46.2062 43.9498 46.4661 43.8424C48.6213 41.4502 52.2987 39.8684 56.4623 39.8684C63.0723 39.8684 68.4615 43.854 68.4615 48.7435C68.4615 53.6274 63.072 57.613 56.4623 57.613C54.324 57.613 52.3128 57.195 50.5703 56.4634Z" fill="black"/>
<path d="M42.9766 48.43C42.9766 48.43 42.9766 46.6165 45.3549 44.7862C47.7305 42.9586 50.8574 43.097 51.5918 43.3314C51.5918 43.3314 51.4224 43.4586 50.9845 43.3964C50.5464 43.3314 48.1373 43.0659 45.6346 44.7099C43.1661 46.4442 42.9766 48.43 42.9766 48.43ZM46.7447 54.7375C46.7447 54.7375 47.7757 55.8787 50.3832 55.3363C50.3832 55.3363 50.5354 55.3081 50.5354 55.4889C50.5354 55.6696 50.1315 55.712 49.3942 55.712C48.6542 55.712 47.1627 55.4211 46.982 55.2375C46.982 55.2375 47.9423 56.2148 50.4535 55.825C50.4535 55.825 50.8433 55.7403 50.8433 55.9493C50.8433 56.1583 50.8574 56.2148 50.5919 56.2289C50.3261 56.243 49.8518 56.3956 49.6287 56.4662C49.4055 56.534 46.5639 57.0509 45.6996 55.8928C44.8352 54.7375 45.5046 55.0567 45.5046 55.0567C45.5046 55.0567 45.3917 54.2912 45.7419 54.3872C45.7419 54.3872 45.8097 54.0822 46.0187 54.2065C46.0187 54.2065 45.4761 53.9409 46.16 53.3986C46.16 53.3986 46.4368 53.119 46.578 52.9099C46.7161 52.7009 47.1342 52.4778 47.3153 52.4495C47.496 52.4241 47.496 52.4636 47.3435 52.5484C47.191 52.6331 46.6882 52.9241 46.5922 53.2743C46.4933 53.6217 46.0752 53.5511 46.0752 53.7743C46.0752 53.9974 46.047 54.0398 46.256 53.8025C46.465 53.5653 46.4933 53.5935 46.465 53.7743C46.4368 53.9551 46.4085 54.1387 46.465 54.2065C46.5215 54.2771 46.6176 54.4014 46.6317 54.0822C46.6458 53.7605 46.9255 53.4692 46.8153 53.6641C46.7023 53.859 46.7444 54.0116 46.7444 54.1104C46.7444 54.2065 46.8828 54.5567 46.5212 54.681C46.16 54.8053 45.9509 54.6669 45.9509 54.89C45.9509 55.1132 45.7956 55.0708 45.7956 54.9324C45.7956 54.7912 45.6713 54.4437 45.6572 54.7375C45.6431 55.0284 45.7422 55.1555 45.6148 55.212C45.4905 55.2657 45.6713 55.6414 45.9905 55.712C46.3122 55.7826 46.3549 54.8053 46.4509 55.2657C46.5498 55.7261 46.4792 56.1583 47.0243 56.1866C47.5667 56.2148 47.0102 55.4609 47.496 55.9493C47.9847 56.438 48.1796 56.2572 48.3209 56.2572C48.4593 56.2572 48.5553 56.2572 48.2079 56.0481C47.8607 55.8391 47.5384 55.6414 47.1627 55.6301C46.7874 55.616 46.6461 55.212 46.6461 55.0991C46.6461 54.9889 46.7447 54.7375 46.7447 54.7375Z" fill="#2F9C5C"/>
<path d="M47.7277 54.9805C47.7613 54.9748 49.0719 55.503 50.284 55.085C50.284 55.085 49.3943 55.4889 48.3887 55.3081C47.3856 55.1273 47.691 54.9889 47.7277 54.9805ZM48.0268 54.8477C48.0268 54.8477 49.699 54.8759 50.1453 54.6528C50.1453 54.6528 50.3829 54.6104 50.4253 54.7375C50.4253 54.7375 50.0891 54.8336 49.9648 54.9183C49.8377 55.0002 49.4338 54.9748 49.1711 54.9748C48.9056 54.9748 48.2358 54.9607 48.0268 54.8477ZM46.8828 54.2912C46.8828 54.2912 48.9053 54.7912 49.7838 54.2347L50.1029 54.4438C50.1029 54.4438 48.9335 54.6952 48.2217 54.6387C47.5099 54.5822 46.8828 54.2912 46.8828 54.2912Z" fill="#2F9C5C"/>
<path d="M46.8164 53.9692C46.8164 53.9692 48.4459 54.2489 49.3671 53.8308L49.562 53.9692C49.562 53.9692 49.0168 54.15 48.0279 54.1782C48.0279 54.1782 48.6126 54.4296 49.4066 54.1782C49.4066 54.1782 49.1863 54.3873 48.5988 54.3873C48.0141 54.3873 47.7768 54.2206 47.387 54.2206C46.9972 54.2206 46.898 54.0398 46.8164 53.9692Z" fill="#2F9C5C"/>
<path d="M47.776 53.9155C47.776 53.9155 48.2223 53.859 48.5161 53.7178L48.6686 53.8308C48.6686 53.8308 48.2932 53.9974 47.776 53.9155ZM46.9258 53.7178C46.9258 53.7178 47.7054 53.6218 48.1941 53.3986L48.389 53.6218C48.389 53.6218 47.5811 53.9155 46.9258 53.7178ZM48.4994 51.6134C48.4994 51.6134 48.7876 51.4609 48.6887 51.6247C48.5898 51.7857 48.5079 52.0654 48.4994 52.1727C48.491 52.2832 48.3187 52.4184 48.3554 52.1727C48.3918 51.9298 48.4994 51.6134 48.4994 51.6134ZM50.005 51.2999C50.005 51.2999 50.0304 51.1191 50.1406 51.2716C50.2479 51.4242 50.5191 51.6868 50.3553 52.5427C50.3553 52.5427 50.375 51.8394 50.231 51.6134C50.0866 51.3903 50.005 51.2999 50.005 51.2999ZM50.2394 53.3901C50.2394 53.3901 50.338 53.5879 50.1406 53.554C49.9429 53.5172 49.5982 53.4438 49.5982 53.4438C49.5982 53.4438 49.8154 52.8506 49.8154 52.6698C49.8154 52.6698 50.0866 53.2009 50.0216 52.8308C49.9595 52.4608 49.8408 52.1925 49.8973 52.0202C49.8973 52.0202 49.9429 52.2631 50.005 52.3987C50.0668 52.5343 50.1123 52.4523 50.0869 52.2461C50.0587 52.0371 49.988 51.6699 50.0135 51.5258C50.0135 51.5258 50.1039 52.0936 50.166 52.2264C50.231 52.3619 50.1942 52.6331 50.1942 52.7969C50.1939 52.958 50.2109 53.2376 50.2394 53.3901Z" fill="#2F9C5C"/>
<path d="M49.7898 51.1276C49.7898 51.1276 50.044 52.4722 49.1062 53.7772C49.1062 53.7772 48.9957 53.8139 48.8517 53.715C48.7076 53.6165 48.4396 53.5173 48.2673 53.2913C48.0947 53.0653 47.6992 52.5795 47.6992 52.3168C47.6992 52.0569 47.8888 52.2095 47.8351 52.2914C47.7811 52.3733 47.8521 52.588 48.0498 52.2462C48.0498 52.2462 48.1232 52.6416 48.2136 51.9835C48.2136 51.9835 48.2842 51.8592 48.2588 52.1388C48.2306 52.4185 48.1232 52.695 48.1232 52.695C48.1232 52.695 47.9873 53.0936 48.3037 52.695C48.6172 52.2995 48.8517 51.4352 48.8517 51.4352C48.8517 51.4352 49.0526 51.1725 49.0325 51.2798C49.0155 51.39 48.9082 51.6131 48.8799 51.7035C48.8517 51.7939 48.5551 52.6413 48.411 52.8673C48.267 53.0933 48.3288 53.3277 48.5633 53.0198C48.7977 52.7148 49.0971 52.0114 49.1426 51.7685C49.1426 51.7685 49.0692 52.3532 48.97 52.6074C48.8715 52.8588 48.8178 53.1639 48.7641 53.2628C48.7073 53.3644 48.6907 53.624 48.9082 53.3359C49.1229 53.0478 49.2217 52.7512 49.3573 52.4179C49.2669 52.85 49.1031 53.2737 48.9873 53.4093C48.8715 53.5421 49.0155 53.8415 49.2948 53.2907C49.5748 52.7399 49.7443 51.723 49.7355 51.2174C49.7277 50.7124 49.7898 51.1276 49.7898 51.1276Z" fill="#2F9C5C"/>
<path d="M45.448 54.8562C45.448 54.8562 45.0613 54.6189 44.8576 54.4833C44.6546 54.3506 45.078 54.0286 44.8576 53.7602C44.8576 53.7602 45.2446 53.5907 44.9427 53.2207C44.9427 53.2207 45.2958 53.1021 45.1432 52.7123C44.9935 52.3253 44.9935 52.1388 45.0105 52.0541C45.0105 52.0541 45.2845 52.4806 45.485 52.1049C45.485 52.1049 45.9031 52.2999 45.9624 51.91C45.9624 51.91 46.2788 52.0908 46.4002 51.6728C46.4002 51.6728 46.7985 51.766 47.3013 51.3621C47.8069 50.961 47.9453 50.4782 48.1176 50.4186C48.1176 50.4186 48.6289 50.5062 48.5357 49.7859C48.5357 49.7859 49.0328 49.9356 49.2701 49.9356C49.5074 49.9356 49.6514 49.9723 49.7305 50.0514C49.7305 50.0514 50.7276 50.009 50.9928 49.8283C50.9928 49.8283 50.1285 50.7152 49.8686 50.7943C49.8686 50.7943 49.5865 50.6502 49.4138 50.7858C49.4138 50.7858 48.9534 50.879 48.6145 51.0881C48.2755 51.2971 47.5188 51.4779 47.2448 52.2999C47.2448 52.2999 46.3296 52.7264 46.2929 52.9495C46.2929 52.9495 45.9906 53.136 46.1121 53.3393C46.1121 53.3393 45.9115 53.4043 45.8042 53.6698C45.694 53.9379 45.5641 54.0314 45.7957 54.1528C45.7957 54.1528 45.3918 54.2687 45.3551 54.4636C45.3209 54.6585 45.431 54.7714 45.448 54.8562Z" fill="white"/>
<path d="M45.5608 45.5658C45.5608 45.5658 45.7614 45.9189 45.9224 45.9612C46.0834 46.0008 46.0947 46.1025 46.1032 46.1731C46.1145 46.2437 46.267 46.433 46.2444 46.0403C46.2444 46.0403 46.397 45.9697 46.3857 45.7889C46.3857 45.7889 46.5071 45.9499 46.6088 45.6675C46.7105 45.385 47.0918 44.8511 47.5466 44.7184C47.5466 44.7184 47.6878 44.7893 47.5661 44.8289C47.4446 44.8712 46.7695 45.3034 46.5777 46.0011C46.5777 46.0011 46.326 46.3033 46.4478 46.5039C46.5693 46.7073 46.589 46.7779 46.558 47.0095C46.5269 47.2411 46.7105 47.7157 46.7811 47.8484C46.852 47.9784 46.982 48.484 46.9732 48.6026C46.9619 48.7241 47.154 48.9953 47.315 49.0941C47.315 49.0941 46.8602 49.1365 46.75 49.2156C46.6396 49.2975 46.4676 49.258 46.326 49.258C46.1851 49.258 45.7724 49.2862 45.5888 49.337C45.408 49.3879 45.3261 49.4387 45.2668 49.5404C45.2049 49.6393 44.9222 49.9331 44.8318 49.9839C44.7414 50.0347 44.521 50.2155 44.5496 50.4471C44.5807 50.6788 44.6905 50.7296 44.8741 50.8002C45.0549 50.8712 45.2159 50.981 45.2982 51.1025C45.3772 51.2239 45.7102 51.416 45.6089 51.094C45.6089 51.094 45.9729 51.2352 46.2359 51.3143C46.4986 51.3962 46.9308 51.4358 47.0918 51.1957C47.1914 51.0485 47.3145 50.9188 47.4562 50.8115C47.4562 50.8115 47.5268 50.5573 47.3743 50.6985C47.2243 50.8398 47.0127 51.1138 46.5068 51.1138C46.004 51.1138 45.9334 51.0234 45.8119 50.8906C45.6905 50.7607 45.3261 50.4669 45.2558 50.2268C45.1848 49.9839 45.0637 49.8229 45.7215 49.5291C45.7215 49.5291 45.0238 50.0347 45.3374 50.0037C45.3374 50.0037 45.1961 50.1957 45.4278 50.0856C45.4278 50.0856 45.1961 50.5488 45.6195 50.1251C45.6195 50.1251 45.306 50.6788 45.7413 50.2155C46.1735 49.7523 46.8712 49.5404 47.0319 49.5207C47.0319 49.5207 47.0432 49.6195 46.8797 49.6704C46.7183 49.7212 45.9221 50.1845 45.7495 50.3765C45.58 50.5686 45.6195 50.5997 46.004 50.3257C46.004 50.3257 46.1339 50.2748 46.0323 50.3878C45.9334 50.498 45.843 50.6392 45.843 50.6392C45.843 50.6392 45.7215 50.8821 45.9532 50.6505C46.1848 50.4161 47.0322 49.7918 47.2638 49.7099C47.4954 49.6308 47.2444 49.6817 47.1932 49.611C47.1932 49.611 47.3655 49.5687 47.4245 49.4896C47.4245 49.4896 47.5375 49.5997 47.4672 49.6901C47.3963 49.7805 47.1339 49.9528 46.9729 50.0234C46.809 50.0941 46.1339 50.6505 46.0633 50.7494C45.9927 50.8511 45.9842 51.0742 46.1738 50.8624C46.3656 50.6505 46.6992 50.3568 46.9026 50.2664C47.1031 50.176 47.5664 49.8427 47.6172 49.7523C47.6681 49.6619 47.589 49.4274 47.7076 49.4783C47.8291 49.5291 47.911 49.4588 47.8206 49.3797C47.7302 49.2978 47.8714 49.2667 47.9505 49.3289C48.0324 49.3879 48.1115 49.4193 48.0519 49.5294C47.9901 49.6396 48.0604 49.6904 48.2641 49.7215C48.4646 49.7526 48.4364 50.2752 48.1115 50.1961C47.7895 50.1141 48.2528 50.0633 48.2528 49.9729C48.2528 49.8825 48.072 49.9334 48.0324 49.9842C47.9901 50.0351 48.0324 49.843 47.9618 49.7808C47.8912 49.7215 47.7782 49.6707 47.7189 49.8232C47.6841 49.9065 47.6306 49.9807 47.5625 50.04C47.4944 50.0992 47.4136 50.142 47.3263 50.165C47.1342 50.2158 47.0918 50.3062 46.9817 50.3966C46.8712 50.487 46.5269 50.8514 46.4673 50.8825C46.4082 50.9107 46.2441 51.1536 46.5972 51.0039C46.9503 50.8514 47.1339 50.3768 47.3147 50.3881C47.4954 50.3966 47.5774 50.3966 47.4954 50.4672C47.4163 50.5378 47.6367 50.4983 47.6084 50.6085C47.5774 50.7215 47.1226 51.7694 46.1735 51.3966C46.1735 51.3966 46.0436 51.4474 46.0436 51.5576C46.0436 51.6677 45.7809 51.5886 45.6792 51.5971C45.5803 51.6084 45.6396 51.7807 45.408 51.6988C45.1764 51.6197 45.1764 51.7496 45.1654 51.8796C45.1569 52.0123 44.9225 51.8203 44.8632 51.8711C44.8038 51.9219 44.8038 52.0716 44.8038 52.2044C44.8038 52.3343 45.1767 53.1224 44.8829 53.032C44.592 52.9388 44.5807 53.2524 44.7812 53.4557C44.7812 53.4557 44.4595 53.5546 44.5694 53.7382C44.6824 53.919 44.7615 54.2325 44.6824 54.3314C44.6824 54.3314 44.0666 53.7184 43.8858 53.6478C43.8858 53.6478 44.2587 53.7184 44.2163 53.4755C44.1768 53.2326 43.8745 53.162 43.835 53.0716C43.7926 52.9812 43.6627 53.001 43.6937 53.0914C43.6937 53.0914 43.6743 53.0716 43.5525 52.9191C43.5525 52.9191 43.4197 52.6479 43.3099 52.6168C43.3099 52.6168 43.389 52.4558 43.2477 52.436C43.2477 52.436 43.2195 52.1027 43.1376 51.9615C43.1376 51.9615 43.4398 52.2327 43.4398 52.4756C43.4398 52.7185 43.6743 52.8597 43.7929 52.8993C43.9144 52.9388 44.2587 53.2524 44.1573 52.9614C44.1573 52.9614 44.0274 52.7891 44.1884 52.7891C44.1884 52.7891 44.1262 52.5857 43.9454 52.4756C43.7647 52.3654 43.694 52.0829 43.6121 51.9926C43.6121 51.9926 43.5104 51.9926 43.5217 52.162C43.5217 52.162 43.3692 52.1027 43.502 51.9022C43.6319 51.6988 43.1065 51.4672 43.2393 51.8005C43.2393 51.8005 42.9766 51.4559 43.0475 51.2666C43.0475 51.2666 42.8862 51.1028 42.9063 50.8401C42.9063 50.8401 43.1068 50.922 42.9373 50.6C42.9373 50.6 43.0673 50.4983 42.9373 50.326C42.8046 50.1565 42.9656 49.9136 43.0478 49.874C43.0478 49.874 43.271 50.1057 43.2286 49.874C43.1891 49.6396 43.2286 49.5097 43.1778 49.408C43.1297 49.3091 43.1382 49.2159 43.2088 49.1057C43.2088 49.1057 43.3501 48.7752 43.2992 48.4331C43.2992 48.4331 43.593 48.9642 43.7031 49.0461C43.8158 49.1252 43.8359 49.258 43.9348 49.419C44.0365 49.58 44.3387 49.8737 44.3811 49.7805C44.4206 49.6901 44.2794 49.6195 44.2794 49.5404C44.2794 49.5404 44.5421 49.7523 44.8952 49.7099C44.8952 49.7099 44.5703 49.3794 44.5703 49.1365C44.5703 49.1365 44.7229 49.0941 44.6522 48.9642C44.5816 48.8343 44.6127 48.6535 44.6127 48.6535C44.6127 48.6535 44.3105 48.484 44.2992 48.3512C44.2992 48.3512 44.4291 48.3004 44.4912 48.2411C44.4912 48.2411 44.3811 48.0094 44.3811 47.9275C44.3811 47.9275 44.5929 48.0798 44.6212 48.2015C44.6522 48.3202 44.7342 48.6845 44.8132 48.4416C44.8132 48.4416 44.9743 48.6337 45.107 48.5235C45.107 48.5235 45.2482 48.7043 45.398 48.7043C45.5505 48.7043 45.6409 48.8145 45.6409 48.9755C45.6409 48.9755 45.8217 48.7749 45.9431 48.9133C45.9431 48.9133 45.8019 48.5546 45.9629 48.532C45.9629 48.532 45.6321 47.9586 45.5389 47.8569C45.4485 47.7552 45.3186 47.453 45.0361 47.3626C45.0361 47.3626 44.9344 47.4954 44.8836 47.2327C44.8327 46.97 44.6209 46.9587 44.5305 46.809C44.4401 46.6564 44.4994 46.4643 44.5418 46.3853C44.5813 46.3033 44.6717 46.3542 44.6322 46.4954C44.5926 46.6367 44.6912 46.8796 44.8129 46.9191C44.9344 46.9587 45.0248 47.0604 44.9033 46.7864C44.9033 46.7864 45.0643 46.5745 44.9033 46.4333C44.9033 46.4333 45.0442 46.2836 45.0248 46.131C45.005 45.9813 44.9739 45.7695 45.0248 45.6989C45.0248 45.6989 45.2056 46.0096 45.2564 45.8093C45.3066 45.6082 45.4168 45.4048 45.5608 45.5658Z" fill="#2F9C5C"/>
<path d="M48.3342 48.3875C48.3342 48.3875 48.3455 48.5711 48.5489 48.5711C48.7551 48.5711 48.6732 48.735 48.5715 48.7265C48.467 48.7152 48.2834 48.6841 48.1506 48.7152C48.0179 48.7463 47.8116 48.6135 47.6987 48.4695C47.586 48.3254 47.0942 47.978 46.9219 46.8114C46.9219 46.8114 47.0914 46.8876 47.1083 46.5571C47.1253 46.2267 47.0575 46.0233 47.0575 46.0233C47.0575 46.0233 47.2185 45.9894 47.1591 45.9046C47.0998 45.8199 47.1591 45.7521 47.2015 45.7436C47.2439 45.7352 47.1337 45.4979 47.2693 45.5826C47.4052 45.6674 47.4561 45.5487 47.4388 45.447C47.4218 45.3454 47.4642 45.2352 47.4981 45.0996C47.4981 45.0996 47.4388 45.7521 47.6167 45.8538C47.7947 45.9555 47.6506 46.0233 47.549 46.0233C47.4473 46.0233 47.4896 46.2182 47.4896 46.43C47.4896 46.6419 47.4473 47.7181 47.6083 47.9723C47.7696 48.2265 47.8286 48.6502 48.1167 48.6502C48.4048 48.6502 48.3314 48.4723 48.3342 48.3875Z" fill="#2F9C5C"/>
<path d="M46.6758 46.6673C46.6758 46.6673 46.7662 46.5346 46.7662 46.6871C46.7662 46.8396 47.2068 48.5203 47.7799 48.735C48.3533 48.9497 48.5796 48.9186 48.825 48.8282C49.0708 48.735 49.1132 48.7774 49.1527 48.8875C49.1954 49.0005 49.2462 49.0514 49.3081 49.1022C49.3702 49.153 49.3081 49.2547 49.1753 49.3084C49.0397 49.3592 48.7657 49.5315 48.4465 49.3793C48.1302 49.2268 47.7488 49.0404 47.6585 49.0008C47.5652 48.9585 47.1867 48.6251 47.0737 48.2353C46.9614 47.8452 46.7354 47.3226 46.6758 46.6673Z" fill="#2F9C5C"/>
<path d="M49.6536 44.2635C49.6536 44.2635 49.8259 44.1647 49.7917 44.1082C49.7917 44.1082 49.9021 44.0008 50.0346 44.0573C50.1673 44.1138 50.3086 44.2268 50.2803 44.3765C50.2521 44.5234 50.1504 44.7042 49.9131 44.6844C49.6765 44.6646 49.5886 44.4528 49.6536 44.2635Z" fill="#E6E6E7"/>
<path d="M49.9197 48.3452C49.8773 48.1588 49.8039 47.7973 49.8575 47.6984C49.9285 47.5628 49.9479 47.5091 50.1089 47.5628C50.2703 47.6193 50.4959 47.6617 50.6121 47.5091C50.6121 47.5091 50.2448 46.9611 50.3691 46.7465C50.4962 46.529 50.855 46.3595 50.9626 46.2776C50.9626 46.2776 50.8468 46.0008 50.8468 45.7211C50.8468 45.4415 50.748 44.8765 50.8835 44.8398C50.8835 44.8398 50.855 44.5432 50.9542 44.4444C50.9542 44.4444 50.8101 44.4613 50.7649 44.5065C50.7649 44.5065 50.8013 44.2297 50.9542 44.0941C50.9542 44.0941 50.9174 43.789 50.6745 43.8145C50.4316 43.8427 50.4514 43.9331 50.4514 43.9331C50.4514 43.9331 50.5869 44.2184 50.6572 44.2184C50.7307 44.2184 50.6318 44.354 50.6036 44.3992C50.5753 44.4444 50.4143 44.9104 50.0019 44.9104C50.0019 44.9104 50.5669 44.5602 50.4059 44.0489C50.4059 44.0489 50.1799 44.0404 50.0725 43.9585C49.9649 43.8766 49.9031 44.0122 49.7392 43.9868C49.5782 43.9585 49.4539 43.7777 49.3805 44.0404C49.3096 44.3003 49.3632 44.5347 49.4257 44.6336C49.4257 44.6336 49.3353 44.7494 49.2901 44.6421C49.2446 44.5347 49.1743 44.337 49.1376 44.4076C49.1008 44.4811 49.0839 44.5715 49.1831 44.6788C49.2816 44.7861 49.3271 45.0379 49.5164 45.0379C49.706 45.0379 49.7226 45.2441 49.7226 45.2977C49.7226 45.3514 49.6322 45.3796 49.5955 45.2723C49.5619 45.165 49.4542 45.165 49.4175 45.2271C49.3808 45.2893 49.2 45.0831 49.2565 45.2441C49.3102 45.4079 49.4091 45.5604 49.4881 45.5068C49.5701 45.4503 49.5785 45.4248 49.6517 45.5068C49.7226 45.5858 49.6601 45.631 49.6065 45.5858C49.5528 45.5406 49.3974 45.6395 49.6404 45.874C49.6404 45.874 49.5949 46.1875 49.8127 46.2779C49.8127 46.2779 49.9649 45.6141 49.9649 45.5322C49.9649 45.4503 50.0553 45.1 50.2615 44.9757C50.4677 44.8486 50.6852 44.6424 50.6852 44.6424C50.6852 44.6424 50.2163 45.2356 50.1344 45.6226C50.0553 46.0095 50.0186 46.4587 50.0807 46.6733C50.1457 46.8908 50.2248 47.2778 50.2248 47.2778C50.2248 47.2778 49.8039 47.3484 49.7053 47.5829C49.6087 47.8138 49.5927 48.0705 49.6598 48.3117C49.6598 48.3117 49.4536 48.4557 49.2446 48.4557C49.0387 48.4557 48.7506 48.3907 48.6175 48.4275C48.6175 48.4275 48.3633 47.9783 48.2108 47.8512C48.0585 47.7269 47.8354 47.4021 47.8068 47.1959C47.8068 47.1959 47.7532 47.5914 47.9145 47.888C48.078 48.1845 48.078 48.3286 48.0246 48.3371C48.0246 48.3371 47.923 48.2297 47.8608 48.0574C47.7987 47.888 47.6631 47.5631 47.7083 47.0886C47.7535 46.6112 47.6829 46.2157 47.9597 45.648C47.9597 45.648 48.0331 45.6678 48.132 45.631C48.132 45.631 48.0334 45.5604 48.0334 45.4503C48.0334 45.3429 47.9967 45.1904 47.9967 45.1904C47.9967 45.1904 47.8696 45.3966 47.8611 45.487C47.8611 45.487 47.8527 45.1989 47.782 45.1819C47.782 45.1819 47.9882 45.1364 47.8809 44.922C47.8809 44.922 47.8809 44.7582 47.9882 44.778C47.9882 44.778 47.9515 44.6339 47.9515 44.4983C47.9515 44.4983 47.782 44.5803 47.6719 44.5435C47.6719 44.5435 47.9685 44.408 48.0052 44.23C48.0052 44.23 48.0786 44.6339 48.0786 44.8486C48.0786 45.0661 48.3385 45.326 48.2848 45.0548C48.2312 44.7865 48.186 44.7413 48.2651 44.6424C48.3473 44.5435 48.3755 44.5972 48.401 44.7413C48.4292 44.8853 48.4546 44.7328 48.4995 44.6593C48.545 44.5887 48.6181 44.4531 48.8953 44.2921C48.8953 44.2921 49.0309 44.4277 49.0757 44.2102C49.0757 44.2102 49.2565 44.3543 49.2819 44.0746C49.3102 43.7978 49.265 43.8684 49.4175 43.7696C49.5701 43.6707 49.6407 43.6255 49.8497 43.7241C50.0556 43.8229 50.2787 43.8964 50.4316 43.8145C50.5869 43.7354 50.6858 43.7156 50.4514 43.6789C50.2169 43.645 50.2251 43.58 49.9652 43.6167C49.9652 43.6167 50.1915 43.4275 50.4228 43.5179C50.6572 43.6083 50.6855 43.6083 50.8835 43.5546C51.0813 43.5009 51.0276 43.6534 50.909 43.6534C50.7931 43.6534 50.694 43.7071 50.8722 43.789C51.053 43.8681 51.0358 43.9331 51.053 43.9868C51.07 44.0404 51.1798 44.0122 51.2423 43.9048C51.3047 43.7975 51.5473 43.5376 51.6208 43.6252C51.6914 43.7156 51.4937 43.7156 51.44 43.8678C51.3863 44.0203 51.0533 44.1926 51.0445 44.3282C51.0361 44.461 50.9993 44.4977 50.9909 44.6418C50.9824 44.7858 50.9909 45.4779 51.0361 45.7575C51.0816 46.0343 50.9711 46.4496 50.9375 46.6925C50.9008 46.9354 50.892 47.3309 50.9545 47.5003C51.0166 47.6727 50.8189 47.8167 50.6494 47.8054C50.4771 47.7969 50.2791 47.6529 50.5336 48.0229C50.6127 48.1387 50.6522 48.2178 50.6717 48.2715C50.5417 48.2743 50.4175 48.2461 50.2709 48.2093C50.0025 48.1444 50.0025 48.3562 50.0025 48.3562C50.0025 48.3562 49.9708 48.3452 49.9197 48.3452ZM50.8183 49.557C50.8183 49.557 50.9764 49.509 51.0609 49.4243C51.1428 49.3395 51.284 49.2491 51.4083 49.2915C51.4083 49.2915 51.2275 49.3904 51.1851 49.4525C51.1428 49.5147 50.9705 49.6474 50.8183 49.557ZM49.7053 49.605C49.7053 49.605 50.0584 49.4582 50.129 49.3819C50.1968 49.3056 50.4426 49.1446 50.5612 49.187C50.5612 49.187 50.5245 49.2491 50.3663 49.3282C50.2053 49.4045 50.0383 49.605 49.7053 49.605Z" fill="#2F9C5C"/>
<path d="M53.6895 47.4809C53.6895 47.4809 53.8053 47.4244 53.7121 47.5544C53.616 47.6871 53.4409 47.8679 53.4409 47.947C53.4409 48.0289 53.3537 48.1306 53.2887 48.1673C53.2237 48.204 52.7633 48.5402 52.6531 48.656C52.5458 48.7718 52.1221 49.0402 51.8877 49.0825C51.656 49.1277 51.6984 48.9385 51.882 48.8791C52.0628 48.8227 52.4215 48.5967 52.1306 48.6419C51.8368 48.6842 51.786 48.6927 51.6617 48.7577C51.5374 48.8227 51.4357 48.865 51.3199 48.865C51.2041 48.865 50.6928 48.865 50.5685 48.93C50.4442 48.995 50.4019 49.1277 50.3058 49.1701C50.2123 49.2153 49.9697 49.3396 49.9273 49.3961C49.8818 49.4554 49.6361 49.6023 49.4892 49.6023C49.3423 49.6023 49.3734 49.5345 49.5033 49.5062C49.6361 49.478 49.8624 49.252 49.9496 49.2294C50.0372 49.2068 50.4072 49.0543 50.2041 49.0825C50.0008 49.1136 49.6562 49.1927 49.6138 49.2661C49.6138 49.2661 49.6728 49.3593 49.5174 49.3904C49.3652 49.4187 49.1841 49.5288 49.1166 49.5486C49.0517 49.5712 48.8991 49.5288 49.074 49.4554C49.2494 49.3819 49.3935 49.2802 49.498 49.2577C49.498 49.2577 49.4161 49.2577 49.4387 49.156C49.4613 49.0543 49.3426 48.9526 49.3006 48.9215C49.2551 48.8933 49.2356 48.6842 49.052 48.6842C48.8712 48.6842 48.6509 48.656 48.6735 48.56C48.6958 48.4667 48.7893 48.5232 48.8398 48.5402C48.8907 48.5543 49.4387 48.6193 49.6423 48.4583C49.8454 48.2973 50.0011 48.3566 50.0011 48.3566C50.0011 48.3566 50.0011 48.1447 50.2694 48.2097C50.5406 48.2775 50.7352 48.3202 51.0293 48.1814C51.3202 48.043 52.1139 47.7069 52.2891 47.6193C52.4645 47.5318 52.8371 47.4612 52.9472 47.3143C53.0546 47.1674 53.2466 47.1247 53.2834 47.1759C53.3173 47.2267 53.2664 47.3284 53.1647 47.3792C53.063 47.4301 52.7495 47.5035 52.634 47.6278C52.5154 47.7521 52.3261 47.6561 51.8374 47.9131C51.8374 47.9131 52.4137 47.721 52.4137 47.8171C52.4137 47.9131 52.3261 47.9414 52.2018 47.9781C52.0804 48.0148 51.3657 48.3481 51.2414 48.4159C51.1171 48.4809 50.6708 48.5543 50.5042 48.5402C50.3347 48.5232 49.8771 48.4526 50.007 48.6616C50.007 48.6616 50.0748 48.8227 50.3146 48.7294C50.555 48.6334 50.7528 48.6419 50.8767 48.6419C50.9982 48.6419 51.3798 48.6786 51.5914 48.495C51.8004 48.3142 52.2185 48.1673 52.3484 48.1532C52.4811 48.1391 53.1873 47.8962 53.2523 47.8397C53.3169 47.7803 53.5881 47.6278 53.6895 47.4809Z" fill="white"/>
<path d="M52.75 47.7153C52.75 47.7153 52.6201 47.5995 52.7955 47.5628C52.9678 47.5261 53.2898 47.4526 53.2898 47.4526C53.2898 47.4526 53.442 47.4074 53.442 47.4667C53.442 47.5261 53.3548 47.5458 53.3039 47.5543C53.2531 47.5628 52.8517 47.7012 52.75 47.7153ZM54.6538 46.5487C54.6538 46.5487 54.8261 46.447 54.7555 46.5547C54.6821 46.6649 54.5069 46.9558 54.2524 47.0063C53.9982 47.06 53.8569 47.0741 53.7496 47.1617C53.6391 47.2492 53.3906 47.4442 53.3256 47.4018C53.2606 47.3566 53.4047 47.2775 53.4499 47.2323C53.4923 47.1899 54.0035 46.9272 54.1561 46.8538C54.3123 46.7804 54.6086 46.6419 54.6538 46.5487ZM51.8828 47.043C51.8828 47.043 51.9111 46.9866 51.9054 46.8905C51.9054 46.8905 52.2754 46.7295 52.5607 46.9498C52.5607 46.9498 53.0409 46.5911 53.3347 46.6504C53.3347 46.6504 53.4364 46.7295 53.2669 46.7436C53.1002 46.7606 52.8008 46.9781 52.7133 47.0289C52.6257 47.0798 52.5155 47.0374 52.422 47.0289C52.3263 47.0233 52.0865 46.9922 51.8828 47.043Z" fill="#2F9C5C"/>
<path d="M52.5787 43.5206C52.5787 43.5206 52.6013 43.6167 52.4544 43.6167C52.3047 43.6167 52.1268 43.8088 52.0307 43.9924C51.9344 44.1788 51.7342 44.5485 51.7282 44.8087C51.72 45.0686 51.6155 45.32 51.6463 45.416C51.6745 45.512 51.6604 45.69 51.6096 45.7804C51.5559 45.868 51.6378 46.3001 51.6971 46.4781C51.7564 46.656 51.8525 46.8481 51.7706 47.0628C51.6883 47.2775 51.6378 47.2775 51.7787 47.3509C51.92 47.4243 51.8663 47.7972 51.6375 47.6842C51.4087 47.5741 51.3126 46.8764 51.3352 46.7662C51.355 46.656 51.4087 46.1419 51.3861 46.0685C51.3638 45.9951 51.4683 45.7804 51.4966 45.7211C51.5276 45.6618 51.5644 45.4527 51.5276 45.32C51.4909 45.1872 51.5644 44.6988 51.6745 44.4161C51.7875 44.1336 51.9061 43.5122 52.231 43.4896C52.3474 43.467 52.4632 43.4839 52.5787 43.5206Z" fill="white"/>
<path d="M51.875 46.7153C51.875 46.7153 51.9004 46.6701 51.8832 46.5939C51.8832 46.5939 52.1346 46.5826 52.2843 46.6419C52.1377 46.6334 51.9623 46.6673 51.875 46.7153Z" fill="#FFF22D"/>
<path d="M52.1813 44.501C52.1813 44.501 52.1955 44.4106 52.2604 44.4388C52.3226 44.4642 52.2802 44.5066 52.2664 44.5575C52.2523 44.6055 52.1955 45.4331 52.3229 45.6901C52.45 45.95 52.6449 46.1901 52.4839 46.546C52.4839 46.546 52.3712 46.6223 52.2325 46.546C52.0913 46.4698 51.9726 46.3991 51.9161 46.3991C51.8596 46.3991 51.7212 46.3141 51.7692 46.1619C51.817 46.0065 51.7266 45.7975 51.7266 45.6983C51.7266 45.5998 51.8311 45.2774 51.8311 45.543C51.8311 45.8113 52.0006 46.1757 52.0627 46.2096C52.1277 46.2435 52.2096 46.3084 52.1531 46.0825C52.0994 45.8593 52.0288 45.6842 52.0486 45.3283C52.0715 44.9699 52.1813 44.501 52.1813 44.501Z" fill="#2F9C5C"/>
<path d="M52.4583 43.7919C52.4583 43.7919 52.5318 43.8287 52.6024 43.7383C52.6024 43.7383 52.6109 44.1676 52.5854 44.4812C52.5572 44.7975 52.4583 45.4783 52.577 45.7212C52.6928 45.9613 52.6479 46.176 52.8823 46.4726C52.8823 46.4726 52.7298 46.5178 52.7016 46.6251C52.7016 46.6251 52.6843 46.0884 52.5402 45.8709C52.3962 45.6562 52.3792 45.4698 52.4247 45.289C52.4696 45.1111 52.4866 43.9812 52.4583 43.7919Z" fill="#E6E6E7"/>
<path d="M56.465 40.2638C62.8573 40.2638 68.0716 44.0715 68.0716 48.7435C68.0716 53.4098 62.8573 57.2175 56.465 57.2175C54.4796 57.2175 52.6065 56.8503 50.9682 56.2035C51.0445 56.1215 51.0812 56.0368 51.0727 55.9464C50.9795 54.9239 50.2168 54.2911 50.0869 54.1979C49.957 54.1047 49.5107 53.6951 49.5107 53.6951C49.6575 53.6386 50.3295 53.6019 50.3295 53.6019C50.3295 53.3957 50.4227 52.6528 50.5162 52.0003C50.6063 51.3478 50.0301 50.9213 50.0301 50.9213L50.0499 50.9383C50.0499 50.9383 50.756 50.2886 51.1656 50.0654C51.5755 49.8423 51.8181 49.2463 51.8181 49.2463C52.3212 49.1531 53.0101 48.6333 53.1768 48.5232C53.3434 48.4102 53.6796 48.2068 53.8095 47.758C53.9394 47.3117 54.3292 47.2944 54.6287 47.1249C54.9224 46.9583 55.0354 46.4555 54.9789 46.2521C54.9224 46.0459 54.4225 46.0826 54.2191 46.2521C54.0129 46.4188 53.1203 46.4922 53.1203 46.4922C52.674 45.9894 52.561 45.3962 52.6938 44.4076C52.8237 43.4218 52.5073 43.2551 52.5073 43.2551C52.2274 43.3286 51.1854 43.0489 51.1854 43.0489C51.0441 42.9727 50.815 42.9981 50.5724 42.9868C50.3295 42.9755 49.7872 43.0546 49.7872 43.0546C49.016 43.063 47.9596 43.3512 47.293 43.5574C49.4206 41.5547 52.7424 40.2638 56.465 40.2638Z" fill="#CF4037"/>
<path d="M56.4646 40.4757C62.7382 40.4757 67.8568 44.1902 67.8568 48.7435C67.8568 53.2913 62.7382 57.0057 56.4646 57.0057C54.5155 57.0057 52.677 56.647 51.0697 56.0142C51.0726 55.9917 51.0754 55.9691 51.0726 55.9465C50.9793 54.9239 50.2167 54.2912 50.0867 54.198C49.9568 54.1048 49.5105 53.6952 49.5105 53.6952C49.6574 53.6387 50.3294 53.602 50.3294 53.602C50.3294 53.3958 50.4226 52.6529 50.5161 52.0004C50.6062 51.3479 50.0299 50.9214 50.0299 50.9214L50.0497 50.9383C50.0497 50.9383 50.7559 50.2886 51.1655 50.0655C51.5753 49.8423 51.818 49.2463 51.818 49.2463C52.3211 49.1531 53.01 48.6334 53.1766 48.5232C53.3433 48.4102 53.6794 48.2068 53.8094 47.758C53.9393 47.3117 54.3291 47.2945 54.6285 47.125C54.9223 46.9583 55.0353 46.4555 54.9788 46.2522C54.9223 46.046 54.4223 46.0827 54.2189 46.2522C54.0127 46.4188 53.1201 46.4923 53.1201 46.4923C52.6738 45.9895 52.5608 45.3963 52.6936 44.4077C52.8235 43.4218 52.5072 43.2552 52.5072 43.2552C52.2272 43.3286 51.1852 43.049 51.1852 43.049C51.044 42.9727 50.8149 42.9981 50.5723 42.9868C50.3294 42.9755 49.787 43.0546 49.787 43.0546C49.1794 43.0631 48.3916 43.2411 47.7617 43.419C49.8548 41.6225 52.9817 40.4757 56.4646 40.4757Z" fill="#FFF22D"/>
<path d="M45.4186 44.1138C45.4186 44.1138 45.6867 44.1138 45.7463 44.1788C45.8056 44.2438 45.7463 44.2975 45.6757 44.2523C45.6023 44.2042 45.4977 44.1195 45.4186 44.1138ZM44.6196 44.1788C44.6196 44.1788 44.7523 43.9698 45.0317 44.1336C45.3141 44.2975 45.2944 44.3822 45.2944 44.3822C45.2944 44.3822 45.0853 44.2184 44.9611 44.2042C44.8368 44.1929 44.6196 44.1788 44.6196 44.1788ZM44.5405 44.2636C44.5405 44.2636 45.0518 44.3822 45.1644 44.5008C45.2749 44.6166 45.1308 44.611 45.0712 44.5404C45.0122 44.4669 44.6591 44.2777 44.5405 44.2636ZM44.032 44.4415C44.032 44.4415 44.2665 44.1845 44.5207 44.3822C44.7778 44.5771 44.9924 44.82 44.9924 44.82C44.9924 44.82 44.2323 44.4133 44.032 44.4415ZM44.4639 44.7409C44.4639 44.7409 44.7916 44.7889 44.8424 44.8737L44.7436 44.9838C44.7436 44.9838 44.5995 44.7494 44.4639 44.7409ZM44.2411 44.6647C44.2411 44.6647 44.1083 44.6452 44.0631 44.676C44.0179 44.7099 44.1366 44.5658 44.1366 44.5658L44.2411 44.6647ZM43.5402 44.868C43.5402 44.868 43.6956 44.7692 43.7041 44.6251C43.7041 44.6251 44.2718 44.8596 44.4554 45.0234C44.2718 44.8596 43.7298 44.8596 43.5402 44.868ZM43.2775 45.0121C43.2775 45.0121 44.156 44.9387 44.5797 45.2663L44.4893 45.3765C44.4896 45.3765 44.1761 45.0771 43.2775 45.0121ZM44.0829 45.5601C44.0829 45.5601 43.2779 45.5036 42.8965 45.5149C42.8965 45.5149 43.0999 45.1816 43.0349 45.0488C43.0996 45.1816 43.9643 45.3765 44.0829 45.5601ZM43.6052 46.2041C43.6052 46.2041 42.8708 46.1646 42.529 46.3086C42.529 46.3086 42.6815 46.1561 42.588 45.6476C42.588 45.6476 43.6557 45.5036 44.0766 45.8228C44.0766 45.8228 43.8199 45.8115 43.5854 45.7635C43.3482 45.7183 43.0883 45.6928 42.7267 45.7045C42.7267 45.7041 43.4075 45.8426 43.6052 46.2041ZM42.8962 46.3199C42.8962 46.3199 43.5713 46.3538 43.656 46.3595L43.4866 46.4781C43.4866 46.4781 43.2521 46.3679 42.8962 46.3199ZM43.2976 46.5826C43.2976 46.5826 42.7468 46.8312 42.6225 46.9555C42.6225 46.9555 42.5632 46.8255 42.583 46.7351C42.6028 46.6419 42.5689 46.5374 42.5491 46.4781C42.5685 46.5374 43.2327 46.5713 43.2976 46.5826ZM43.4812 46.7408C43.4812 46.7408 43.2835 46.8594 43.0688 46.8312C43.0688 46.8312 43.1931 46.7351 43.2838 46.7351C43.3767 46.7351 43.4812 46.7408 43.4812 46.7408ZM43.0996 47.0798C43.0996 47.0798 42.7324 47.3425 42.7211 47.4272C42.7211 47.4272 42.6815 47.1334 42.588 47.108C42.6818 47.1334 43.029 47.0685 43.0996 47.0798ZM44.7382 47.8114C44.7382 47.8114 44.4642 47.5063 44.6902 47.6588C44.6902 47.6588 44.7806 47.3114 44.7947 47.6108C44.7947 47.6108 44.9416 47.5713 44.9416 47.6758C44.9416 47.7803 44.8032 48.0289 44.7382 47.8114ZM43.6278 48.6023C43.6278 48.6023 43.4979 48.2633 43.6193 48.3283C43.6193 48.3283 43.5321 47.8933 43.6984 47.9724C43.6984 47.9724 43.5857 47.7464 43.6761 47.6899C43.6761 47.6899 43.5716 47.6193 43.5939 47.4328C43.5939 47.4328 43.5798 47.5628 43.7719 47.6277C43.9668 47.6899 43.8848 47.9413 44.0148 47.8114C44.1419 47.6842 44.1758 47.5628 44.1193 47.4328C44.0628 47.3029 44.0939 47.1984 44.1843 47.2803C44.2718 47.3594 44.3933 47.3114 44.3029 47.1758C44.2153 47.0374 44.1275 46.9188 44.1899 46.8538C44.2549 46.7888 44.2069 46.8764 44.2973 46.9668C44.3848 47.0543 44.5063 47.1673 44.4498 47.3114C44.3933 47.4583 44.4159 47.5458 44.4809 47.6673C44.5458 47.7888 44.5854 47.8933 44.5373 47.9074C44.4893 47.9243 44.4639 47.9017 44.4583 47.8283C44.4501 47.7549 44.2718 47.2408 44.2718 47.5628C44.2718 47.8848 44.2238 47.8594 44.1843 47.9159C44.1419 47.9724 44.0459 48.2944 43.9978 48.1249C43.9501 47.9582 43.8029 47.8509 43.8029 47.9978C43.8029 48.1418 43.6928 47.9639 43.7493 48.1983C43.8029 48.4328 43.6366 48.2718 43.6589 48.4554C43.6843 48.6418 43.6278 48.6023 43.6278 48.6023ZM42.5036 51.1021C42.5036 51.1021 42.5431 50.766 42.481 50.5739C42.481 50.5739 42.6222 50.7208 42.6222 50.8733C42.6222 51.023 42.5036 51.0965 42.5036 51.1021ZM42.7183 48.1644C42.7183 48.1644 42.6137 48.1839 42.529 48.1729C42.4414 48.1644 42.5572 48.0797 42.6335 48.0882C42.7101 48.0966 42.7183 48.1644 42.7183 48.1644ZM42.8736 48.2407C42.8736 48.2407 42.4979 48.4808 42.2974 48.5373C42.2974 48.5373 42.3256 48.2806 42.481 48.2806C42.6335 48.2802 42.8736 48.2407 42.8736 48.2407ZM42.8542 48.413C42.8542 48.413 42.357 48.7491 42.1734 48.7972C41.9926 48.8424 42.0604 48.6729 42.2497 48.6729C42.4414 48.6729 42.6056 48.3932 42.8542 48.413ZM42.7663 48.6926C42.7663 48.6926 42.2776 49.0429 42.1166 49.1277C41.9531 49.2152 41.8203 49.331 41.8765 49.1757C41.933 49.0231 41.8765 49.0712 42.0771 48.9864C42.2779 48.8989 42.69 48.6926 42.7663 48.6926ZM42.7183 48.9469C42.7183 48.9469 42.357 49.2548 42.2324 49.3197C42.1053 49.3875 41.772 49.6078 41.7324 49.7237C41.7324 49.7237 41.7437 49.4553 41.9641 49.3593C42.1847 49.2632 42.6706 49.0034 42.7183 48.9469ZM42.6618 49.1954L42.6137 49.4073C42.6137 49.4073 42.1448 49.6841 41.9725 49.8479C41.8002 50.0089 41.6763 50.1248 41.6367 50.201C41.6367 50.201 41.6957 49.7999 42.0121 49.6163C42.3256 49.4355 42.566 49.3113 42.6618 49.1954Z" fill="#2F9C5C"/>
<path d="M43.1879 47.2859L43.1116 47.4638C43.1116 47.4638 41.7388 47.9553 41.5241 50.4298C41.5241 50.4298 42.219 49.701 42.7331 49.4863C42.7331 49.4863 41.7388 50.3563 41.6879 50.7715C41.6879 50.7715 41.8518 50.684 41.9535 50.6444C41.9535 50.6444 41.8659 50.9099 41.928 51.0116C41.928 51.0116 42.0156 50.7828 42.0916 50.7207C42.0916 50.7207 42.0774 51.0992 42.1537 51.1726C42.1537 51.1726 42.2667 50.9975 42.23 50.6586C42.23 50.6586 42.4446 51.0851 42.2921 51.3619C42.2921 51.3619 41.7131 51.3873 41.4984 50.9467C41.2865 50.506 41.3035 48.9779 42.4814 47.7152C42.6681 47.5147 42.9139 47.3904 43.1879 47.2859ZM44.9056 49.0598C44.9056 49.0598 44.7926 48.8451 44.9564 48.9666C45.1202 49.0909 45.2219 49.2547 45.1513 49.2632C45.0804 49.2745 44.9363 49.1417 44.9056 49.0598Z" fill="#2F9C5C"/>
<path d="M45.2209 46.0403C45.2209 46.0403 45.3336 46.0008 45.3423 45.8454C45.3536 45.6929 45.4553 45.5206 45.5994 45.8454C45.5994 45.8454 45.4356 46.1025 45.6898 46.2042C45.6898 46.2042 45.6389 45.8765 45.7629 46.0093C45.8844 46.142 46.0793 46.2861 45.8533 46.2748C45.8533 46.2748 45.8646 46.4584 46.0171 46.4502C46.1693 46.4389 46.2318 46.4389 46.2939 46.5406C46.3529 46.6423 46.5086 46.9078 46.2626 46.7666C46.2626 46.7666 46.2202 46.8994 46.3448 46.9587C46.3448 46.9587 46.3448 47.1734 46.3843 47.2553C46.4267 47.3372 46.3843 47.4191 46.3448 47.4703C46.3024 47.5211 46.3024 47.6225 46.3222 47.716C46.3448 47.8064 46.3222 48.0211 46.3533 48.0945C46.3846 48.1651 46.3451 48.2668 46.2519 48.103C46.1615 47.9392 45.8225 47.7979 45.67 47.7471C45.5175 47.6962 45.3226 47.49 45.2915 47.3488C45.2632 47.2047 45.272 47.0917 45.2011 47.0014C45.12 46.8853 45.0839 46.7438 45.0994 46.6031C45.1189 46.4584 45.2717 46.1929 45.2209 46.0403ZM49.7372 44.2693C49.74 44.2608 49.8446 44.2325 49.8559 44.1365C49.8559 44.1365 50.0084 44.0941 49.9918 44.2128C49.9776 44.3342 50.0821 44.1167 50.1528 44.2467C50.2262 44.3766 50.1612 44.4952 50.0765 44.5659C49.9918 44.6167 49.6497 44.6054 49.7372 44.2693ZM47.839 46.4414C47.839 46.4414 48.1046 46.8058 48.3786 46.9499C48.6497 47.0911 48.9152 47.3877 48.9466 47.495C48.9777 47.5996 48.9039 47.7973 48.7743 47.5741C48.6444 47.351 48.5032 47.1533 48.3704 47.1222C48.2405 47.0911 48.0933 47.06 48.2232 47.2408C48.3531 47.4188 48.4718 47.6052 48.5032 47.6617C48.5314 47.7182 48.619 47.8849 48.7994 47.8962C48.9774 47.9103 49.2005 47.947 49.226 48.0035C49.2514 48.0572 49.3305 48.1645 49.0904 48.156C48.8475 48.1504 48.5706 48.0939 48.4319 47.8284C48.2963 47.5628 48.011 47.2352 47.9319 47.0855C47.8507 46.9358 47.8136 46.69 47.839 46.4414ZM48.1614 45.4952C48.1614 45.4952 48.1046 45.3031 48.2345 45.4274C48.3644 45.5488 48.452 45.6618 48.3588 45.6477C48.2656 45.6364 48.2966 45.7296 48.3475 45.7607C48.3955 45.7918 48.3334 45.9019 48.4096 46.0714C48.4828 46.2381 48.3842 46.3313 48.3164 46.1872C48.2486 46.046 48.1921 45.8539 48.1978 45.7663C48.2037 45.6788 48.2091 45.5488 48.1614 45.4952ZM48.8842 45.1336C48.8842 45.1336 48.9774 45.2946 48.8616 45.2466C48.7429 45.1958 48.7684 45.289 48.7797 45.3452C48.7938 45.4016 48.8051 45.4327 48.7373 45.4384C48.6695 45.444 48.6497 45.5429 48.7059 45.5937C48.7627 45.6417 48.7539 45.718 48.7059 45.718C48.6551 45.718 48.6494 45.777 48.7119 45.8225C48.774 45.8649 48.8729 45.8903 48.8475 45.8282C48.8249 45.766 48.8534 45.6107 48.8842 45.7237C48.9152 45.8338 48.9859 45.8705 48.9859 45.8705C48.9859 45.8705 48.9972 45.9835 48.9237 45.9214C48.8475 45.8592 48.7994 45.9528 48.8362 46.0203C48.8729 46.0877 48.9915 46.009 49.0282 46.1304C49.065 46.2547 49.2203 46.4524 49.2203 46.5089C49.2203 46.5654 49.2005 46.6589 49.1695 46.5908C49.1381 46.523 49.0706 46.4976 49.0537 46.5824C49.0339 46.6699 49.0028 46.6699 48.9859 46.6078C48.9661 46.5456 48.9096 46.5033 48.9096 46.6586C48.9096 46.814 48.8785 47.297 48.8107 46.9609C48.7429 46.6276 48.6864 46.6586 48.613 46.6643C48.5399 46.6699 48.4633 46.4666 48.5819 46.4101C48.7006 46.3536 48.6864 46.1756 48.6497 46.0626C48.613 45.9525 48.3899 45.396 48.4463 45.2519C48.5032 45.1107 48.4099 44.9666 48.5763 45.0034C48.7429 45.0429 48.7006 44.8508 48.7797 44.9666C48.8616 45.0856 48.8842 45.1336 48.8842 45.1336ZM48.893 44.8737C48.893 44.8737 48.9152 44.6026 48.972 44.7579C49.0285 44.9133 49.0847 44.9729 49.1218 44.9983C49.1585 45.0238 49.1754 45.165 49.0398 45.1057C48.9039 45.0432 48.8983 44.9613 48.893 44.8737ZM49.0734 45.4076C49.0734 45.4076 49.1189 45.2042 49.2118 45.3568C49.305 45.5093 49.2401 45.6562 49.2683 45.7946C49.2937 45.933 49.1892 46.0177 49.1327 45.8652C49.0848 45.7177 49.0646 45.5625 49.0734 45.4076ZM44.5006 51.8677C44.5006 51.8677 44.3311 51.701 44.5401 51.7547C44.752 51.8112 44.7294 51.91 44.7096 51.9722C44.6895 52.0371 44.6192 52.1614 44.5006 51.8677ZM45.1022 51.4129C45.1022 51.4129 45.0172 51.1671 45.1926 51.2519C45.3678 51.3366 45.2971 51.3846 45.2435 51.4327C45.1867 51.4835 45.0935 51.5513 45.1022 51.4129ZM44.7658 51.2999C44.7658 51.2999 44.7375 51.1728 44.8844 51.266C45.0313 51.3564 44.9833 51.4327 44.9692 51.5117C44.955 51.588 44.8985 51.5598 44.8647 51.4694C44.8282 51.3762 44.7799 51.2999 44.7658 51.2999ZM43.2182 50.5937C43.2182 50.5937 43.7772 51.2236 43.9893 51.3705C43.9893 51.3705 43.9808 51.5513 43.8961 51.475C43.8961 51.475 44.0656 51.6784 44.0571 51.8196C44.0571 51.8196 44.2464 52.0092 44.0511 51.9157C44.0511 51.9157 44.0088 52.0626 44.1133 52.1416C44.2178 52.2179 43.924 52.1897 44.0709 52.2659C44.2178 52.345 44.0794 52.4128 44.0031 52.345C43.924 52.2744 43.7291 52.0145 43.924 51.9806C43.924 51.9806 43.6387 51.9298 43.6105 51.8253C43.5822 51.7208 43.4834 51.5739 43.3842 51.4891C43.2882 51.4044 43.3277 51.2378 43.2034 51.1389C43.0769 51.04 43.0851 50.7886 43.2182 50.5937ZM44.085 51.0118C44.085 51.0118 44.1359 50.8875 44.2828 50.9722C44.4297 51.0541 44.4579 51.0965 44.5059 51.1954C44.5539 51.2942 44.5003 51.4185 44.4155 51.2942C44.3308 51.1671 44.3308 51.0683 44.2125 51.0965C44.0941 51.1248 44.043 51.0626 44.085 51.0118ZM43.5427 50.1983C43.5427 50.1983 43.6105 50.5118 43.7743 50.5683C43.9382 50.6276 43.7913 50.783 43.6161 50.6107C43.4438 50.4384 43.2631 50.2491 43.3958 50.1248C43.5258 50.0005 43.4523 49.8847 43.4354 49.7378C43.4184 49.5881 43.4947 49.3396 43.3958 49.2576C43.2973 49.1757 43.3622 49.0345 43.4043 48.9187C43.4043 48.9187 43.4269 49.2181 43.7009 49.2181C43.7009 49.2181 43.8644 49.5542 43.9972 49.6531C44.1299 49.752 44.054 49.8508 44.2288 49.8763C44.4011 49.9017 44.2683 49.9494 44.2768 50.0994C44.285 50.2491 44.4661 50.3621 44.3104 50.396C44.1522 50.4299 44.2426 50.3564 44.0053 50.3395C43.7659 50.3226 43.5681 50.3056 43.5427 50.1983ZM45.068 48.7464C45.068 48.7464 45.2319 49.0204 45.4861 48.9469C45.4861 48.9469 45.2714 49.1221 45.5172 49.2435C45.5172 49.2435 45.3025 49.2241 45.2322 49.091C45.1584 48.9582 45.068 48.7464 45.068 48.7464ZM46.2519 48.4696C46.2519 48.4696 46.2434 48.2464 46.427 48.3481C46.6106 48.4498 46.7321 48.6136 46.6615 48.704C46.588 48.7972 46.7829 48.8876 46.7829 48.8876C46.7829 48.8876 46.8451 49.1418 46.6417 48.8961C46.4355 48.6532 46.3024 48.6249 46.2519 48.4696ZM46.5369 48.1645C46.5369 48.1645 46.4662 47.8679 46.6191 48.0515C46.7745 48.2351 46.814 48.5713 46.814 48.5713C46.814 48.5713 46.5877 48.3679 46.5369 48.1645ZM64.0301 54.5313C64.0301 54.2573 63.8069 54.0342 63.533 54.0342C63.259 54.0342 63.0358 54.2573 63.0358 54.5313C63.0358 54.8053 63.259 55.0285 63.533 55.0285C63.6646 55.0278 63.7907 54.9752 63.8838 54.8821C63.9768 54.789 64.0294 54.663 64.0301 54.5313ZM54.9177 49.5486C54.9685 49.6079 55.0448 49.6588 55.155 49.6926L53.4121 49.6983C53.4121 49.6983 53.5053 49.6616 53.6127 49.5542L54.9177 49.5486ZM56.8981 47.0685C56.5532 47.5911 55.7711 47.8453 55.1242 47.8623L55.1468 47.7182C55.7485 47.721 56.4967 47.5148 56.8981 47.0685ZM54.257 47.2888C54.2853 47.2775 54.316 47.2634 54.3443 47.2521L54.011 48.8452C53.9573 49.1108 53.8443 49.2859 53.7398 49.3932C53.8048 49.2915 53.8641 49.1588 53.898 48.9921L54.257 47.2888ZM56.7823 50.5118L56.7314 50.7689C56.7314 50.7689 56.4292 50.1107 55.8727 50.122C55.6019 50.1248 55.4038 50.2067 55.2683 50.3339C55.3869 50.122 55.6213 49.9836 55.9857 49.9748C56.395 49.9695 56.669 50.3254 56.7823 50.5118ZM55.5278 53.4128C55.669 53.1896 55.7086 52.9467 55.7086 52.9071C55.7086 52.8252 55.6323 52.4524 55.1917 52.3027C54.7567 52.1558 54.155 52.0682 54.2143 51.1248C54.2398 50.766 54.3697 50.4836 54.559 50.2717C54.4318 50.461 54.3471 50.6982 54.3273 50.9807C54.2683 51.9241 54.8668 52.0117 55.3047 52.1586C55.7453 52.3055 55.8213 52.6783 55.8213 52.7603C55.8216 52.8111 55.7651 53.1614 55.5278 53.4128Z" fill="black"/>
<path d="M53.4922 53.9663L53.6956 52.7376C53.6956 52.7376 53.7125 52.8138 53.7521 52.9268L53.6052 53.8222C53.656 53.7742 53.7323 53.7601 53.9046 53.7488C54.0769 53.7375 54.5935 53.9606 55.2065 53.9522C55.461 53.9465 55.9553 53.8448 56.325 53.424C55.9493 53.9663 55.3759 54.0906 55.0935 54.0962C54.4805 54.1047 53.9633 53.8844 53.7913 53.8929C53.6193 53.9041 53.543 53.9211 53.4922 53.9663ZM57.3849 53.859L57.3538 54.0058L56.5516 53.9974L57.207 50.7462C57.207 50.7462 57.3228 50.3196 57.0827 50.0795L57.2945 50.0824C57.3962 50.3168 57.3199 50.6021 57.3199 50.6021L56.6646 53.8533L57.3849 53.859ZM58.8788 53.8025C58.7941 53.9437 58.6501 54.0906 58.4128 54.0906C57.9467 54.0906 57.91 53.8251 57.9665 53.4042L58.2263 51.8676C58.2263 51.8676 58.2687 51.4834 58.1077 51.4834C58.0651 51.4819 58.0229 51.4927 57.9863 51.5145C58.0427 51.3874 58.1162 51.3393 58.2207 51.3393C58.3817 51.3393 58.3393 51.7207 58.3393 51.7207L58.0795 53.2601C58.023 53.681 58.0597 53.9465 58.5229 53.9465C58.5889 53.9474 58.6543 53.9351 58.7154 53.9103C58.7765 53.8856 58.8321 53.8489 58.8788 53.8025ZM63.4382 53.5511C63.0964 54.0539 62.6357 54.0878 62.517 54.0878C62.3758 54.0878 62.2402 54.0652 62.1021 53.9974L62.1332 53.8053C62.2999 53.9098 62.4609 53.9409 62.6275 53.9409C62.7345 53.9409 63.1159 53.9154 63.4382 53.5511ZM61.6555 51.5427C61.6301 51.5766 61.599 51.6246 61.5654 51.6868C61.5654 51.6868 61.4779 51.7122 61.5259 51.5512C61.5513 51.4608 61.6445 51.2571 61.7858 51.1077C61.7222 51.2001 61.6718 51.3009 61.6361 51.4071C61.605 51.5145 61.6332 51.5371 61.6555 51.5427ZM61.0369 54.8956C61.1132 54.7826 61.1838 54.6329 61.229 54.4465L61.7967 51.6218C61.7967 51.6218 61.814 51.4015 61.7148 51.4806C61.938 51.1162 61.9097 51.4778 61.9097 51.4778L61.342 54.3024C61.2924 54.5229 61.1874 54.7271 61.0369 54.8956ZM61.975 55.0453C62.0202 55.1018 62.088 55.1555 62.1897 55.1894H60.7579C60.7579 55.1894 60.8285 55.1442 60.9189 55.0453H61.975ZM59.9127 54.116C59.424 54.1414 59.1698 53.8618 59.0625 53.5115C59.0879 53.4406 59.0992 53.3901 59.0992 53.3901C59.0766 53.4014 59.0568 53.4127 59.037 53.4211C58.9749 53.1613 58.9862 52.8731 59.0342 52.65C59.1613 52.0794 59.3421 51.6698 59.5794 51.4015C59.3958 51.6642 59.2517 52.0286 59.1472 52.5059C59.0254 53.0624 59.1412 54.0143 60.0228 53.9719C60.4745 53.9522 60.7855 53.7827 61.0087 53.5341C60.783 53.8618 60.444 54.0934 59.9127 54.116ZM59.2602 49.7377C58.3789 49.7801 58.2405 48.8254 58.3845 48.2746C58.5371 47.6927 58.7235 47.2831 58.9608 47.0122C58.7743 47.2778 58.6249 47.645 58.4975 48.128C58.3535 48.6788 58.4919 49.6364 59.3732 49.594C59.8251 49.5714 60.1358 49.4048 60.359 49.1562C60.133 49.4807 59.794 49.7123 59.2602 49.7377ZM58.7094 47.2294L58.6218 47.4074C58.6218 47.4074 58.4382 47.108 58.1419 47.4272C58.4326 46.9922 58.6391 47.1503 58.7094 47.2294ZM56.879 47.2831C56.879 47.2831 56.9499 47.0148 57.1388 46.8142C57.0343 46.978 56.992 47.139 56.992 47.139C57.297 46.7944 57.2886 47.0713 57.26 47.2605C57.2289 47.4526 56.7346 49.5654 56.7346 49.5654H57.4521C57.438 49.6558 57.4323 49.7095 57.4323 49.7095H56.6216C56.6216 49.7095 57.1188 47.5966 57.147 47.4074C57.1756 47.2153 57.184 46.9385 56.879 47.2831ZM65.6637 51.7348L65.5649 51.9156C65.5649 51.9156 65.3417 51.2574 65.0341 51.2574C64.876 51.2574 64.7517 51.2913 64.6669 51.3538C64.7206 51.2038 64.8901 51.1134 65.1468 51.1134C65.4095 51.1134 65.6129 51.5936 65.6637 51.7348ZM64.9692 53.6556C65.1443 53.3279 64.8505 53.0906 64.6751 52.989C64.5423 52.907 64.0819 52.6189 63.9237 52.2348C63.952 51.9805 63.9576 51.78 63.9407 51.6162C63.9915 51.4721 64.0678 51.3422 64.1666 51.2377C64.0763 51.3817 64.0169 51.5484 63.9859 51.732C63.9008 52.2884 64.6129 52.7404 64.7881 52.8421C64.9632 52.9466 65.257 53.1839 65.0818 53.5087C65.0534 53.564 65.0153 53.6138 64.9692 53.6556Z" fill="black"/>
<path d="M63.4066 53.6472L63.5224 53.506C63.5705 53.5681 64.1269 54.2375 64.9235 53.9946C65.1721 53.9184 65.3528 53.7969 65.48 53.6585C65.3528 53.8562 65.1438 54.037 64.8105 54.1387C63.9772 54.3929 63.4066 53.6472 63.4066 53.6472ZM54.5064 46.1279C54.5258 46.029 54.5459 45.7805 54.2578 45.6279H54.5459C54.684 45.8115 54.6049 46.0262 54.6049 46.0262C54.5795 46.1477 54.6134 46.1081 54.5064 46.1279Z" fill="black"/>
<path d="M54.349 47.2492C54.4451 47.2125 54.5408 47.1758 54.6287 47.125C54.9224 46.9583 55.0354 46.4555 54.9789 46.2521C54.9475 46.1335 54.7699 46.0968 54.5891 46.1165L54.6061 46.0262C54.6061 46.0262 54.736 45.6759 54.3716 45.4838L56.2729 45.4753C56.2729 45.4753 57.239 45.4753 57.191 46.3934C57.1401 47.3086 56.0018 47.7238 55.1487 47.7181L54.9397 48.9666C54.9397 48.9666 54.8126 49.4045 55.2702 49.5485L53.5273 49.5542C53.5273 49.5542 53.8974 49.4045 54.0132 48.8452L54.349 47.2492ZM53.6061 53.8223L53.8092 52.5935C53.8092 52.5935 54.0323 53.6274 54.8515 53.6697C55.6735 53.7093 55.8232 52.8421 55.8232 52.7602C55.8232 52.6783 55.7472 52.3054 55.3066 52.1585C54.8684 52.0116 54.2699 51.9241 54.3292 50.9806C54.3914 50.0344 55.1992 49.6022 55.8546 49.6926C56.5127 49.783 56.7243 50.0174 56.9788 49.9666L56.846 50.6247C56.846 50.6247 56.5438 49.9666 55.9873 49.9751C55.4309 49.9864 55.1766 50.3112 55.1766 50.7151C55.1766 51.1191 55.3405 51.2405 55.654 51.2603C55.9676 51.2801 56.9791 51.4637 56.7246 52.5964C56.4732 53.7287 55.5834 53.9437 55.2077 53.9522C54.5948 53.9607 54.0778 53.7375 53.9058 53.7488C53.7339 53.7601 53.657 53.7742 53.6061 53.8223ZM59.0998 53.3901C59.0998 53.3901 58.9896 53.9466 58.5236 53.9466C58.0603 53.9466 58.0236 53.681 58.0801 53.2602L58.34 51.7207C58.34 51.7207 58.3823 51.3394 58.2213 51.3394C58.0603 51.3394 57.9809 51.4495 57.9078 51.7772L57.4671 53.859L56.6649 53.8533L57.3203 50.6021C57.3203 50.6021 57.4361 50.1756 57.196 49.9355L58.2471 49.9468L58.0183 51.0541C58.0183 51.0541 58.4448 50.7631 58.7304 50.814C59.0126 50.862 59.1372 51.1106 59.0267 51.7151L58.7527 53.1924C58.7524 53.1924 58.6369 53.6387 59.0998 53.3901ZM62.1335 53.8053L62.0064 54.6047C62.0064 54.6047 61.9587 54.9267 62.3005 55.0454H60.8709C60.8709 55.0454 61.2211 54.8222 61.3426 54.3025L61.9104 51.4778C61.9104 51.4778 61.9414 51.0795 61.6787 51.5428C61.6787 51.5428 61.5884 51.5654 61.6364 51.4072C61.6844 51.2462 61.933 50.7518 62.2776 50.7829C62.6222 50.814 62.6533 51.0371 62.6533 51.0371C62.6533 51.0371 63.0286 50.8225 63.3566 50.91C63.6843 50.9976 64.1164 51.1275 63.8848 52.5031C63.6532 53.8788 62.7973 53.9409 62.6278 53.9409C62.4612 53.9409 62.3005 53.9098 62.1335 53.8053Z" fill="#CF4037"/>
<path d="M60.022 53.9719C59.1404 54.0143 59.0246 53.0624 59.1463 52.5059C59.409 51.3083 59.9143 50.8309 60.6713 50.8281C61.482 50.8281 61.6063 51.7772 61.4993 52.3421C61.3521 53.1274 61.0417 53.9239 60.022 53.9719ZM59.372 49.5937C58.4907 49.6361 58.3523 48.6785 58.4963 48.1277C58.8099 46.9328 59.2647 46.4526 60.0217 46.4526C60.8324 46.4498 60.9566 47.4017 60.8493 47.9667C60.7027 48.7519 60.3917 49.5457 59.372 49.5937ZM56.9911 47.139C56.9911 47.139 57.1832 46.4046 57.7905 46.4611C57.7905 46.4611 58.2114 46.4413 58.2001 46.9865C58.2001 46.9865 58.5729 46.5939 59.0676 46.5769L58.7342 47.2605C58.7342 47.2605 58.4885 46.8619 58.1072 47.4808C57.7258 48.0997 57.5451 49.5654 57.5451 49.5654H56.7344C56.7344 49.5654 57.2287 47.4526 57.2598 47.2605C57.2874 47.0712 57.2959 46.7944 56.9911 47.139ZM63.5186 53.503L63.8576 53.0878C63.8576 53.0878 63.9452 53.6047 64.5807 53.7629C64.5807 53.7629 64.9055 53.8364 65.0807 53.5087C65.2561 53.1839 64.962 52.9466 64.7869 52.8421C64.6118 52.7404 63.9 52.2884 63.9847 51.732C64.0719 51.1755 64.4536 50.7405 65.1202 50.8196C65.7868 50.8987 65.9789 51.2151 65.9789 51.2151L65.6767 51.7715C65.6767 51.7715 65.4535 51.1134 65.1456 51.1134C64.8352 51.1134 64.6516 51.2461 64.6457 51.4551C64.6375 51.6613 64.9398 51.8421 64.9398 51.8421C64.9398 51.8421 65.7473 52.4466 65.7815 52.715C65.8126 52.9861 65.7561 53.7403 64.9228 53.9945C64.0895 54.2488 63.5186 53.503 63.5186 53.503Z" fill="#CF4037"/>
<path d="M53.1698 45.2296C53.2602 45.094 53.3619 44.8822 53.4297 44.563L54.0624 41.6649C54.0624 41.6649 54.1895 41.2525 53.9353 41.0067H54.1503C54.2629 41.2412 54.1757 41.5208 54.1757 41.5208L53.5401 44.4189C53.4438 44.8906 53.2627 45.1307 53.1698 45.2296ZM56.0874 44.933C55.8953 45.2522 55.5676 45.3341 54.949 45.3821C53.9915 45.4528 53.2683 45.3963 53 45.4273C53 45.4273 53.0565 45.385 53.1356 45.2805C53.4209 45.255 54.1299 45.3059 55.062 45.2353C55.5764 45.1985 55.8871 45.1364 56.0874 44.933Z" fill="black"/>
<path d="M55.9267 42.9106C55.9267 42.9106 56.5792 43.0207 56.4266 44.015C56.2766 45.0065 56.0227 45.1647 55.0623 45.2353C54.1047 45.3087 53.3816 45.2522 53.1133 45.2833C53.1133 45.2833 53.407 45.0686 53.5398 44.419L54.1754 41.5208C54.1754 41.5208 54.3022 41.1084 54.0482 40.8627L55.6668 40.8542C55.6668 40.8542 56.8164 40.8147 56.7147 41.8146C56.6099 42.8145 55.9267 42.9106 55.9267 42.9106Z" fill="#CF4037"/>
<path d="M63.2283 43.1196L63.1294 43.3004C63.1294 43.3004 62.9062 42.6422 62.5987 42.6422C62.4405 42.6422 62.3134 42.6761 62.2283 42.7383C62.2851 42.5914 62.4546 42.4982 62.7085 42.4982C62.9737 42.4982 63.1746 42.9784 63.2283 43.1196ZM62.5334 45.0404C62.7085 44.7155 62.4147 44.4754 62.2393 44.3738C62.0642 44.2692 61.3495 43.8173 61.4371 43.2608C61.4766 43.0123 61.5752 42.7891 61.7309 42.6225C61.6368 42.7728 61.5752 42.9412 61.5501 43.1168C61.4628 43.6732 62.1772 44.1252 62.3526 44.2269C62.5277 44.3314 62.8215 44.5687 62.6464 44.8963C62.6169 44.9503 62.5787 44.9989 62.5334 45.0404Z" fill="black"/>
<path d="M60.9667 45.0319L61.0853 44.8907C61.1333 44.9528 61.6898 45.6223 62.4864 45.3794C62.7349 45.3031 62.9129 45.1816 63.0428 45.0432C62.9129 45.241 62.7067 45.4217 62.3734 45.5234C61.5404 45.7776 60.9667 45.0319 60.9667 45.0319ZM61.1224 43.0151L61.0235 43.1987C61.0235 43.1987 60.8003 42.5406 60.4928 42.5406C60.3346 42.5406 60.2103 42.5745 60.1224 42.6366C60.1792 42.4869 60.3487 42.3937 60.6054 42.3937C60.8678 42.3937 61.0687 42.8767 61.1224 43.0151ZM60.4275 44.9387V44.9359C60.6026 44.611 60.3088 44.3738 60.1334 44.2693C59.9583 44.1676 59.2465 43.7128 59.3312 43.1592C59.3707 42.9106 59.4696 42.6846 59.625 42.5208C59.5346 42.662 59.4727 42.8315 59.4445 43.0123C59.3569 43.5687 60.0716 44.0207 60.2467 44.1252C60.4218 44.2269 60.7156 44.467 60.5405 44.7918C60.5118 44.8471 60.4736 44.8969 60.4275 44.9387Z" fill="black"/>
<path d="M58.8843 44.9077L58.9828 44.7891C59.0309 44.8481 59.5873 45.5178 60.3839 45.2749C60.6325 45.2015 60.8132 45.08 60.9404 44.9416C60.8132 45.1393 60.6042 45.3201 60.2709 45.4218C59.4825 45.6619 58.9292 45.0066 58.8727 44.936C58.8747 44.9259 58.8786 44.9163 58.8843 44.9077ZM57.7629 45.0489C57.7629 45.0489 57.4296 45.5009 56.9208 45.4529C56.5423 45.4162 56.3305 44.9473 56.3813 44.2919C56.3983 44.2069 56.4152 44.1165 56.4293 44.0151C56.4406 43.9558 56.4463 43.8993 56.4488 43.8485C56.4686 43.7581 56.4943 43.6649 56.5251 43.5716C56.6324 43.2298 56.7906 42.9417 56.9745 42.7242C56.8386 42.9191 56.7228 43.1564 56.6355 43.4276C56.3189 44.436 56.5251 45.2608 57.0338 45.3088C57.5426 45.3568 57.8756 44.9021 57.8756 44.9021C57.8756 44.9021 58.0027 45.2749 58.4154 45.2749C58.5453 45.2749 58.6467 45.2241 58.7205 45.1535C58.6442 45.2862 58.5143 45.4218 58.3024 45.4218C57.8897 45.4218 57.7629 45.0489 57.7629 45.0489ZM56.3841 42.6451C56.3027 42.7732 56.1926 42.8806 56.0624 42.9587C55.9862 42.9191 55.9297 42.9107 55.9297 42.9107C55.9297 42.9107 56.167 42.8768 56.3841 42.6451Z" fill="black"/>
<path d="M61.082 44.8879L61.4238 44.4758C61.4238 44.4758 61.5111 44.9899 62.1469 45.1481C62.1469 45.1481 62.4718 45.2215 62.6469 44.8967C62.8223 44.569 62.5283 44.3317 62.3531 44.2272C62.1777 44.1255 61.4634 43.6736 61.5506 43.1171C61.6382 42.5607 62.0195 42.1257 62.6861 42.2047C63.3528 42.2838 63.5423 42.6002 63.5423 42.6002L63.2429 43.1567C63.2429 43.1567 63.0198 42.4985 62.709 42.4985C62.4012 42.4985 62.2176 42.6341 62.2091 42.8403C62.2031 43.0465 62.5028 43.2273 62.5028 43.2273C62.5028 43.2273 63.3135 43.8318 63.3449 44.1001C63.376 44.3713 63.3223 45.1255 62.4887 45.3797C61.6551 45.6336 61.082 44.8879 61.082 44.8879Z" fill="#CF4037"/>
<path d="M58.9793 44.7833L59.3183 44.3712C59.3183 44.3712 59.4058 44.8878 60.0414 45.0463C60.0414 45.0463 60.3662 45.117 60.5413 44.7921C60.7168 44.4673 60.4227 44.2272 60.2476 44.1255C60.0724 44.021 59.3578 43.569 59.4454 43.0126C59.5326 42.4589 59.9139 42.0211 60.5806 42.1002C61.2472 42.1793 61.4393 42.4985 61.4393 42.4985L61.137 43.0549C61.137 43.0549 60.9139 42.394 60.606 42.394C60.2956 42.394 60.1117 42.5296 60.106 42.7358C60.0975 42.942 60.4001 43.1256 60.4001 43.1256C60.4001 43.1256 61.2076 43.7272 61.239 43.9984C61.2726 44.2667 61.2164 45.0209 60.3828 45.2751C59.5499 45.5291 58.9793 44.7833 58.9793 44.7833ZM57.8748 44.902C57.8748 44.902 57.5415 45.3567 57.0331 45.3087C56.5246 45.2607 56.3184 44.4359 56.6348 43.4275C56.954 42.4191 57.7163 41.8541 58.3353 42.323L58.3663 42.227H59.177L58.7081 44.5771C58.7081 44.5771 58.6036 44.998 58.9313 44.7607C58.9313 44.7607 58.8268 45.2748 58.4147 45.2748C58.002 45.2748 57.8748 44.902 57.8748 44.902Z" fill="#CF4037"/>
<path d="M54.6878 44.981L54.3711 44.9895L54.7581 43.1478C54.7581 43.1478 55.4473 43.0461 55.4303 43.5545C55.4162 44.0601 55.2976 44.9669 54.6878 44.981ZM55.1228 42.8399H54.8205L55.1058 41.3371C55.1058 41.3371 55.114 41.1564 55.36 41.1648C55.6058 41.1705 55.8431 41.275 55.812 41.758C55.7806 42.2439 55.5575 42.8399 55.1228 42.8399Z" fill="#FFF22D"/>
<path d="M54.7266 43.2862C54.9073 43.2778 55.3282 43.3004 55.3141 43.6983C55.3056 44.0204 55.2548 44.5034 55.0596 44.8169C55.3477 44.5288 55.4155 43.93 55.4268 43.5543C55.444 43.0458 54.7545 43.1475 54.7545 43.1475L54.7266 43.2862ZM55.1022 41.3316C55.1387 41.3174 55.1842 41.3062 55.2432 41.309C55.4889 41.3174 55.729 41.4191 55.6951 41.905C55.6782 42.1677 55.6047 42.4643 55.4691 42.6818C55.675 42.4727 55.7883 42.0886 55.8081 41.7581C55.8392 41.2751 55.6019 41.1706 55.3562 41.1649C55.1387 41.1564 55.1076 41.2977 55.1022 41.3316Z" fill="black"/>
<path d="M58.2804 42.5293L57.9075 44.4416C57.9075 44.4416 57.8115 44.8229 57.5347 44.8144C57.2578 44.8088 57.2243 44.4105 57.272 44.1563C57.32 43.9021 57.82 42.0773 58.2804 42.5293Z" fill="#FFF22D"/>
<path d="M58.1655 42.6733L57.7926 44.5884C57.7926 44.5884 57.7757 44.6618 57.7305 44.7437C57.8576 44.6336 57.9059 44.4415 57.9059 44.4415L58.2788 42.5292C58.1206 42.3738 57.9596 42.4868 57.813 42.7128C57.9251 42.5913 58.0468 42.5574 58.1655 42.6733Z" fill="black"/>
<path d="M55.2109 47.43L55.5386 45.7465L55.9199 45.7408C55.9199 45.7408 56.434 45.7973 56.3408 46.4075C56.2473 47.0148 55.8688 47.5034 55.2109 47.43Z" fill="#FFF22D"/>
<path d="M55.5117 45.8906L55.8055 45.8849C55.8055 45.8849 56.3199 45.9414 56.2295 46.5515C56.1928 46.7747 56.1222 46.9781 56.012 47.1475C56.1871 46.9611 56.2973 46.6984 56.3397 46.4075C56.4329 45.7973 55.9188 45.7408 55.9188 45.7408L55.5375 45.7465L55.5117 45.8906Z" fill="black"/>
<path d="M59.4765 49.2322C59.1884 49.2378 59.146 48.7011 59.1912 48.4159C59.2844 47.8255 59.5161 46.786 59.9824 46.7945C60.29 46.8001 60.231 47.3877 60.183 47.6899C60.087 48.3113 59.8779 49.2209 59.4765 49.2322Z" fill="#FFF22D"/>
<path d="M59.6016 47.0657C59.6807 46.9837 59.771 46.9385 59.8699 46.9385C60.1778 46.9442 60.1185 47.5317 60.0705 47.834C60.0055 48.2577 59.8869 48.817 59.692 49.1305C59.9578 48.8735 60.1072 48.1899 60.1834 47.6899C60.2315 47.3877 60.2908 46.8001 59.9829 46.7945C59.8332 46.7917 59.7061 46.899 59.6016 47.0657Z" fill="black"/>
<path d="M62.2387 53.3589L62.4534 52.085C62.4929 51.8647 62.6229 51.345 63.0381 51.3337C63.3996 51.3252 63.2697 52.0229 63.2302 52.2376C63.1906 52.4551 62.9336 53.681 62.5099 53.6612C62.3771 53.6555 62.2641 53.5313 62.2387 53.3589ZM60.129 53.6103C59.8409 53.6188 59.7982 53.0765 59.8437 52.7912C59.9369 52.2037 60.1685 51.1642 60.6346 51.1698C60.9425 51.1755 60.8832 51.7658 60.8355 52.0681C60.7388 52.6867 60.5298 53.6019 60.129 53.6103Z" fill="#FFF22D"/>
<path d="M62.6117 51.6106C62.6937 51.5343 62.7925 51.4835 62.9221 51.4778C63.2837 51.4693 63.1538 52.167 63.1142 52.3817C63.086 52.5371 62.9476 53.1984 62.7188 53.5624C63.0154 53.2715 63.1933 52.4156 63.2272 52.2377C63.2668 52.023 63.3967 51.3253 63.0351 51.3338C62.8349 51.3394 62.7021 51.4609 62.6117 51.6106ZM60.25 51.4411C60.3291 51.362 60.4195 51.314 60.5183 51.3168C60.8259 51.3225 60.7669 51.91 60.7189 52.2122C60.6539 52.6331 60.5353 53.1924 60.3404 53.5088C60.6059 53.2517 60.7556 52.5653 60.8319 52.0682C60.8796 51.7659 60.9392 51.1756 60.631 51.1699C60.4819 51.1699 60.3545 51.2773 60.25 51.4411Z" fill="black"/>
<path d="M63.9751 54.5312C63.9751 54.7738 63.7773 54.9691 63.5344 54.9691C63.4766 54.9695 63.4193 54.9586 63.3658 54.9368C63.3123 54.915 63.2637 54.8828 63.2227 54.8421C63.1817 54.8014 63.1492 54.7529 63.1271 54.6996C63.105 54.6462 63.0936 54.589 63.0938 54.5312C63.0938 54.4144 63.1402 54.3023 63.2228 54.2196C63.3055 54.137 63.4175 54.0906 63.5344 54.0906C63.6513 54.0906 63.7634 54.137 63.846 54.2196C63.9286 54.3023 63.9751 54.4144 63.9751 54.5312Z" fill="#FFF22D"/>
<path d="M63.348 54.7912H63.4186V54.5539H63.5994C63.7124 54.5539 63.6813 54.6556 63.6926 54.7205L63.7039 54.7912H63.7886C63.7576 54.7431 63.7688 54.7318 63.7632 54.6584C63.7547 54.5624 63.7519 54.5539 63.6951 54.52C63.7488 54.4776 63.7714 54.4522 63.7685 54.3816C63.7601 54.2573 63.6781 54.2432 63.5934 54.2432H63.3477L63.348 54.7912Z" fill="black"/>
<path d="M63.5934 54.3053C63.6386 54.3053 63.7061 54.3166 63.6948 54.4098C63.6891 54.4804 63.6411 54.4917 63.5934 54.4917H63.418V54.3053H63.5934Z" fill="#FFF22D"/>
</g>
<rect x="37.3086" y="77.8115" width="34.8853" height="34.8856" rx="5.81418" fill="white"/>
<rect x="37.672" y="78.1749" width="34.1585" height="34.1588" rx="5.45079" stroke="#080821" stroke-opacity="0.1" stroke-width="0.726772"/>
<g clip-path="url(#clip3_9619_49051)">
<path d="M61.741 101.211C53.8957 104.945 49.0268 101.821 45.9101 99.9235C45.7172 99.8039 45.3894 99.9515 45.6738 100.278C46.7122 101.537 50.115 104.572 54.5567 104.572C59.0015 104.572 61.6457 102.146 61.9765 101.723C62.3051 101.304 62.073 101.072 61.7409 101.211H61.741ZM63.9443 99.9943C63.7337 99.7199 62.6633 99.6688 61.9896 99.7515C61.315 99.8319 60.3023 100.244 60.3903 100.492C60.4355 100.585 60.5277 100.543 60.9912 100.501C61.4559 100.455 62.7579 100.291 63.0292 100.645C63.3017 101.002 62.6139 102.703 62.4883 102.978C62.3669 103.252 62.5347 103.323 62.7626 103.14C62.9875 102.957 63.3945 102.484 63.6677 101.815C63.939 101.142 64.1045 100.203 63.9443 99.9943Z" fill="#FF9900"/>
<path fill-rule="evenodd" clip-rule="evenodd" d="M56.4643 93.5925C56.4643 94.5721 56.489 95.3891 55.9938 96.2591C55.5942 96.9665 54.9611 97.4015 54.2538 97.4015C53.2882 97.4015 52.7259 96.6659 52.7259 95.5801C52.7259 93.4368 54.6463 93.0478 56.4643 93.0478V93.5925ZM59.0001 99.7217C58.8338 99.8702 58.5933 99.8809 58.4059 99.7818C57.5713 99.0886 57.4227 98.7668 56.9629 98.1054C55.5836 99.513 54.6074 99.9339 52.8178 99.9339C50.7028 99.9339 49.0547 98.6288 49.0547 96.0151C49.0547 93.9745 50.1618 92.5845 51.7355 91.9055C53.1008 91.3041 55.0071 91.198 56.4643 91.0319V90.7065C56.4643 90.1087 56.5102 89.4014 56.1601 88.885C55.8523 88.4217 55.2653 88.2307 54.7489 88.2307C53.7904 88.2307 52.9345 88.7223 52.7259 89.7409C52.6834 89.9673 52.5172 90.1901 52.2908 90.2007L49.8504 89.939C49.6454 89.893 49.419 89.7268 49.4756 89.412C50.0379 86.4553 52.7081 85.564 55.0989 85.564C56.3227 85.564 57.9213 85.8894 58.8869 86.816C60.1106 87.9584 59.9939 89.4827 59.9939 91.1415V95.0602C59.9939 96.238 60.4819 96.7543 60.9417 97.391C61.1044 97.6173 61.1398 97.8897 60.9346 98.0594C60.4218 98.4873 59.5093 99.2831 59.0071 99.7288L59 99.7217" fill="black"/>
<path d="M61.741 101.211C53.8957 104.945 49.0268 101.821 45.9101 99.9235C45.7172 99.8039 45.3894 99.9515 45.6738 100.278C46.7122 101.537 50.115 104.572 54.5567 104.572C59.0015 104.572 61.6457 102.146 61.9765 101.723C62.3051 101.304 62.073 101.072 61.7409 101.211H61.741ZM63.9443 99.9943C63.7337 99.7199 62.6633 99.6688 61.9896 99.7515C61.315 99.8319 60.3023 100.244 60.3903 100.492C60.4355 100.585 60.5277 100.543 60.9912 100.501C61.4559 100.455 62.7579 100.291 63.0292 100.645C63.3017 101.002 62.6139 102.703 62.4883 102.978C62.3669 103.252 62.5347 103.323 62.7626 103.14C62.9875 102.957 63.3945 102.484 63.6677 101.815C63.939 101.142 64.1045 100.203 63.9443 99.9943Z" fill="#FF9900"/>
<path fill-rule="evenodd" clip-rule="evenodd" d="M56.4643 93.5925C56.4643 94.5721 56.489 95.3891 55.9938 96.2591C55.5942 96.9665 54.9611 97.4015 54.2538 97.4015C53.2882 97.4015 52.7259 96.6659 52.7259 95.5801C52.7259 93.4368 54.6463 93.0478 56.4643 93.0478V93.5925ZM59.0001 99.7217C58.8338 99.8702 58.5933 99.8809 58.4059 99.7818C57.5713 99.0886 57.4227 98.7668 56.9629 98.1054C55.5836 99.513 54.6074 99.9339 52.8178 99.9339C50.7028 99.9339 49.0547 98.6288 49.0547 96.0151C49.0547 93.9745 50.1618 92.5845 51.7355 91.9055C53.1008 91.3041 55.0071 91.198 56.4643 91.0319V90.7065C56.4643 90.1087 56.5102 89.4014 56.1601 88.885C55.8523 88.4217 55.2653 88.2307 54.7489 88.2307C53.7904 88.2307 52.9345 88.7223 52.7259 89.7409C52.6834 89.9673 52.5172 90.1901 52.2908 90.2007L49.8504 89.939C49.6454 89.893 49.419 89.7268 49.4756 89.412C50.0379 86.4553 52.7081 85.564 55.0989 85.564C56.3227 85.564 57.9213 85.8894 58.8869 86.816C60.1106 87.9584 59.9939 89.4827 59.9939 91.1415V95.0602C59.9939 96.238 60.4819 96.7543 60.9417 97.391C61.1044 97.6173 61.1398 97.8897 60.9346 98.0594C60.4218 98.4873 59.5093 99.2831 59.0071 99.7288L59 99.7217" fill="black"/>
</g>
</g>
<defs>
<filter id="filter0_dd_9619_49051" x="2.3549" y="7.73584" width="151.036" height="151.036" filterUnits="userSpaceOnUse" color-interpolation-filters="sRGB">
<feFlood flood-opacity="0" result="BackgroundImageFix"/>
<feColorMatrix in="SourceAlpha" type="matrix" values="0 0 0 0 0 0 0 0 0 0 0 0 0 0 0 0 0 0 127 0" result="hardAlpha"/>
<feMorphology radius="2.84389" operator="erode" in="SourceAlpha" result="effect1_dropShadow_9619_49051"/>
<feOffset dy="11.3756"/>
<feGaussianBlur stdDeviation="7.10973"/>
<feComposite in2="hardAlpha" operator="out"/>
<feColorMatrix type="matrix" values="0 0 0 0 0.0313726 0 0 0 0 0.0313726 0 0 0 0 0.129412 0 0 0 0.1 0"/>
<feBlend mode="normal" in2="BackgroundImageFix" result="effect1_dropShadow_9619_49051"/>
<feColorMatrix in="SourceAlpha" type="matrix" values="0 0 0 0 0 0 0 0 0 0 0 0 0 0 0 0 0 0 127 0" result="hardAlpha"/>
<feMorphology radius="2.84389" operator="erode" in="SourceAlpha" result="effect2_dropShadow_9619_49051"/>
<feOffset dy="5.68778"/>
<feGaussianBlur stdDeviation="2.84389"/>
<feComposite in2="hardAlpha" operator="out"/>
<feColorMatrix type="matrix" values="0 0 0 0 0.0313726 0 0 0 0 0.0313726 0 0 0 0 0.129412 0 0 0 0.04 0"/>
<feBlend mode="normal" in2="effect1_dropShadow_9619_49051" result="effect2_dropShadow_9619_49051"/>
<feBlend mode="normal" in="SourceGraphic" in2="effect2_dropShadow_9619_49051" result="shape"/>
</filter>
<filter id="filter1_d_9619_49051" x="13.019" y="7.61727" width="129.708" height="129.708" filterUnits="userSpaceOnUse" color-interpolation-filters="sRGB">
<feFlood flood-opacity="0" result="BackgroundImageFix"/>
<feColorMatrix in="SourceAlpha" type="matrix" values="0 0 0 0 0 0 0 0 0 0 0 0 0 0 0 0 0 0 127 0" result="hardAlpha"/>
<feMorphology radius="0.237149" operator="erode" in="SourceAlpha" result="effect1_dropShadow_9619_49051"/>
<feOffset dy="0.592872"/>
<feGaussianBlur stdDeviation="0.474297"/>
<feComposite in2="hardAlpha" operator="out"/>
<feColorMatrix type="matrix" values="0 0 0 0 0.0313726 0 0 0 0 0.0313726 0 0 0 0 0.129412 0 0 0 0.15 0"/>
<feBlend mode="normal" in2="BackgroundImageFix" result="effect1_dropShadow_9619_49051"/>
<feBlend mode="normal" in="SourceGraphic" in2="effect1_dropShadow_9619_49051" result="shape"/>
</filter>
<filter id="filter2_i_9619_49051" x="18.0234" y="12.0292" width="119.699" height="119.698" filterUnits="userSpaceOnUse" color-interpolation-filters="sRGB">
<feFlood flood-opacity="0" result="BackgroundImageFix"/>
<feBlend mode="normal" in="SourceGraphic" in2="BackgroundImageFix" result="shape"/>
<feColorMatrix in="SourceAlpha" type="matrix" values="0 0 0 0 0 0 0 0 0 0 0 0 0 0 0 0 0 0 127 0" result="hardAlpha"/>
<feOffset/>
<feGaussianBlur stdDeviation="0.948595"/>
<feComposite in2="hardAlpha" operator="arithmetic" k2="-1" k3="1"/>
<feColorMatrix type="matrix" values="0 0 0 0 0.0313726 0 0 0 0 0.0313726 0 0 0 0 0.129412 0 0 0 0.06 0"/>
<feBlend mode="normal" in2="shape" result="effect1_innerShadow_9619_49051"/>
</filter>
<filter id="filter3_ddd_9619_49051" x="0.227038" y="0.773115" width="155.53" height="163.525" filterUnits="userSpaceOnUse" color-interpolation-filters="sRGB">
<feFlood flood-opacity="0" result="BackgroundImageFix"/>
<feColorMatrix in="SourceAlpha" type="matrix" values="0 0 0 0 0 0 0 0 0 0 0 0 0 0 0 0 0 0 127 0" result="hardAlpha"/>
<feMorphology radius="3.63386" operator="erode" in="SourceAlpha" result="effect1_dropShadow_9619_49051"/>
<feOffset dy="14.5354"/>
<feGaussianBlur stdDeviation="14.5354"/>
<feComposite in2="hardAlpha" operator="out"/>
<feColorMatrix type="matrix" values="0 0 0 0 0.0313726 0 0 0 0 0.0313726 0 0 0 0 0.129412 0 0 0 0.07 0"/>
<feBlend mode="normal" in2="BackgroundImageFix" result="effect1_dropShadow_9619_49051"/>
<feColorMatrix in="SourceAlpha" type="matrix" values="0 0 0 0 0 0 0 0 0 0 0 0 0 0 0 0 0 0 127 0" result="hardAlpha"/>
<feMorphology radius="3.63386" operator="erode" in="SourceAlpha" result="effect2_dropShadow_9619_49051"/>
<feOffset dy="7.26772"/>
<feGaussianBlur stdDeviation="3.63386"/>
<feComposite in2="hardAlpha" operator="out"/>
<feColorMatrix type="matrix" values="0 0 0 0 0.0313726 0 0 0 0 0.0313726 0 0 0 0 0.129412 0 0 0 0.04 0"/>
<feBlend mode="normal" in2="effect1_dropShadow_9619_49051" result="effect2_dropShadow_9619_49051"/>
<feColorMatrix in="SourceAlpha" type="matrix" values="0 0 0 0 0 0 0 0 0 0 0 0 0 0 0 0 0 0 127 0" result="hardAlpha"/>
<feOffset dy="2.90709"/>
<feGaussianBlur stdDeviation="10.9016"/>
<feComposite in2="hardAlpha" operator="out"/>
<feColorMatrix type="matrix" values="0 0 0 0 0.0313726 0 0 0 0 0.0313726 0 0 0 0 0.129412 0 0 0 0.03 0"/>
<feBlend mode="normal" in2="effect2_dropShadow_9619_49051" result="effect3_dropShadow_9619_49051"/>
<feBlend mode="normal" in="SourceGraphic" in2="effect3_dropShadow_9619_49051" result="shape"/>
</filter>
<linearGradient id="paint0_linear_9619_49051" x1="66.6322" y1="156.363" x2="80.3612" y2="84.3936" gradientUnits="userSpaceOnUse">
<stop stop-color="#080821" stop-opacity="0.9"/>
<stop offset="1" stop-color="white" stop-opacity="0"/>
</linearGradient>
<linearGradient id="paint1_linear_9619_49051" x1="55.2464" y1="-13.3306" x2="116.229" y2="25.6237" gradientUnits="userSpaceOnUse">
<stop stop-color="#080821" stop-opacity="0.9"/>
<stop offset="1" stop-color="white" stop-opacity="0"/>
</linearGradient>
<linearGradient id="paint2_linear_9619_49051" x1="109.037" y1="-16.5187" x2="51.384" y2="14.1553" gradientUnits="userSpaceOnUse">
<stop stop-color="#080821"/>
<stop offset="1" stop-color="white" stop-opacity="0"/>
</linearGradient>
<linearGradient id="paint3_linear_9619_49051" x1="145.102" y1="4.45968" x2="128.224" y2="9.38278" gradientUnits="userSpaceOnUse">
<stop offset="0.581631" stop-color="white"/>
<stop offset="1" stop-color="white" stop-opacity="0"/>
</linearGradient>
<linearGradient id="paint4_linear_9619_49051" x1="129.102" y1="-5.5413" x2="112.224" y2="-0.618192" gradientUnits="userSpaceOnUse">
<stop offset="0.581631" stop-color="white"/>
<stop offset="1" stop-color="white" stop-opacity="0"/>
</linearGradient>
<linearGradient id="paint5_linear_9619_49051" x1="269.536" y1="128.214" x2="252.658" y2="133.138" gradientUnits="userSpaceOnUse">
<stop offset="0.581631" stop-color="white"/>
<stop offset="1" stop-color="white" stop-opacity="0"/>
</linearGradient>
<linearGradient id="paint6_linear_9619_49051" x1="129.102" y1="-5.5413" x2="112.224" y2="-0.618192" gradientUnits="userSpaceOnUse">
<stop offset="0.581631" stop-color="white"/>
<stop offset="1" stop-color="white" stop-opacity="0"/>
</linearGradient>
<linearGradient id="paint7_linear_9619_49051" x1="182.648" y1="224.645" x2="182.648" y2="124.326" gradientUnits="userSpaceOnUse">
<stop stop-color="#FCFCFC"/>
<stop offset="1" stop-color="white"/>
</linearGradient>
<clipPath id="clip0_9619_49051">
<rect x="86.7109" y="34.2048" width="29.0712" height="29.0712" fill="white"/>
</clipPath>
<clipPath id="clip1_9619_49051">
<rect width="26.5768" height="10.6594" fill="white" transform="translate(88.1641 89.9253)"/>
</clipPath>
<clipPath id="clip2_9619_49051">
<rect width="27.3281" height="17.9273" fill="white" transform="translate(41.2266 39.7771)"/>
</clipPath>
<clipPath id="clip3_9619_49051">
<rect width="19.3808" height="19.3808" fill="white" transform="translate(45.0586 85.564)"/>
</clipPath>
</defs>
</svg>
