<svg width="185" height="131" viewBox="0 0 185 131" fill="none" xmlns="http://www.w3.org/2000/svg">
<g filter="url(#filter0_dd_9619_49078)">
<g filter="url(#filter1_d_9619_49078)">
<rect x="15.7109" y="4.16406" width="153.571" height="99.5377" rx="7.22208" fill="white"/>
<rect x="13.9054" y="2.35854" width="157.182" height="103.149" rx="9.0276" stroke="url(#paint0_linear_9619_49078)" stroke-opacity="0.1" stroke-width="3.61104"/>
<rect x="13.9054" y="2.35854" width="157.182" height="103.149" rx="9.0276" stroke="url(#paint1_linear_9619_49078)" stroke-opacity="0.1" stroke-width="3.61104"/>
<rect x="13.9054" y="2.35854" width="157.182" height="103.149" rx="9.0276" stroke="url(#paint2_linear_9619_49078)" stroke-opacity="0.1" stroke-width="3.61104"/>
<rect x="13.9054" y="2.35854" width="157.182" height="103.149" rx="9.0276" stroke="white" stroke-opacity="0.5" stroke-width="3.61104"/>
</g>
<g filter="url(#filter2_i_9619_49078)">
<path d="M15.8107 11.3861C15.8107 7.45257 18.9995 4.26379 22.933 4.26379H162.06C165.994 4.26379 169.182 7.45258 169.182 11.3861V96.4797C169.182 100.413 165.994 103.602 162.06 103.602H22.933C18.9994 103.602 15.8107 100.413 15.8107 96.4797V11.3861Z" stroke="white" stroke-opacity="0.1" stroke-width="0.19946"/>
</g>
<rect opacity="0.4" x="14" y="2.45789" width="156.984" height="102.95" rx="10.1109" stroke="url(#paint3_linear_9619_49078)" stroke-width="0.722208"/>
<rect opacity="0.4" width="156.984" height="102.95" rx="10.1109" transform="matrix(-1 0 0 1 170.984 2.4574)" stroke="url(#paint4_linear_9619_49078)" stroke-width="0.722208"/>
<rect opacity="0.4" x="170.984" y="105.407" width="156.984" height="102.95" rx="10.1109" transform="rotate(180 170.984 105.407)" stroke="url(#paint5_linear_9619_49078)" stroke-width="0.722208"/>
<rect opacity="0.4" width="156.984" height="102.95" rx="10.1109" transform="matrix(1 0 0 -1 14.0039 105.408)" stroke="url(#paint6_linear_9619_49078)" stroke-width="0.722208"/>
</g>
<mask id="mask0_9619_49078" style="mask-type:alpha" maskUnits="userSpaceOnUse" x="25" y="42" width="86" height="53">
<rect x="25.636" y="42.5573" width="84.1798" height="51.1908" rx="2.5595" fill="#D9D9D9" stroke="#F2F2F2" stroke-width="0.568778"/>
</mask>
<g mask="url(#mask0_9619_49078)">
<line x1="25.9141" y1="50.6625" x2="149.34" y2="50.6625" stroke="#F2F2F2" stroke-width="0.284389"/>
<line x1="25.9141" y1="59.1942" x2="149.34" y2="59.1942" stroke="#F2F2F2" stroke-width="0.284389"/>
<line x1="25.9141" y1="67.726" x2="149.34" y2="67.726" stroke="#F2F2F2" stroke-width="0.284389"/>
<line x1="25.9141" y1="76.2577" x2="149.34" y2="76.2577" stroke="#F2F2F2" stroke-width="0.284389"/>
<line x1="25.9141" y1="84.7891" x2="149.34" y2="84.7891" stroke="#F2F2F2" stroke-width="0.284389"/>
</g>
<rect x="25.636" y="42.5575" width="84.1798" height="51.1908" rx="2.5595" stroke="#F2F2F2" stroke-width="0.568778"/>
<path d="M135.326 65.5931C135.326 70.4099 131.421 74.3146 126.604 74.3146C121.788 74.3146 117.883 70.4099 117.883 65.5931C117.883 60.7764 121.788 56.8717 126.604 56.8717C131.421 56.8717 135.326 60.7764 135.326 65.5931Z" fill="#47FAC6" stroke="#F2F2F2" stroke-width="0.758371"/>
<path d="M124.328 66.7308L126.603 64.4557L128.878 66.7308" stroke="#080821" stroke-width="1.13757" stroke-linecap="round" stroke-linejoin="round"/>
<path d="M120.348 93.1115L120.357 91.3369C120.359 90.9031 120.419 90.5337 120.539 90.2286C120.669 89.9236 120.887 89.6485 121.194 89.4035C121.5 89.1485 121.916 88.904 122.439 88.6698L124.469 87.7474C124.963 87.5229 125.354 87.2339 125.642 86.8803C125.929 86.5168 126.074 86.0492 126.077 85.4774C126.08 84.7873 125.89 84.2491 125.507 83.8628C125.125 83.4766 124.583 83.2818 123.883 83.2786C123.193 83.2755 122.65 83.4652 122.254 83.8479C121.858 84.2306 121.658 84.767 121.655 85.4571L120.265 85.4507C120.268 84.8296 120.399 84.2584 120.657 83.737C120.926 83.2157 121.327 82.8035 121.861 82.5003C122.395 82.1873 123.071 82.0327 123.889 82.0364C124.707 82.0402 125.377 82.201 125.898 82.5189C126.429 82.827 126.822 83.233 127.076 83.7369C127.339 84.241 127.47 84.7887 127.467 85.3803L127.466 85.5873C127.463 86.3661 127.233 87.0207 126.777 87.551C126.331 88.0813 125.728 88.5173 124.967 88.8588L122.937 89.7812C122.482 89.9861 122.176 90.1917 122.017 90.3981C121.858 90.6044 121.778 90.88 121.777 91.2251L121.771 92.5856L121.389 91.9036L127.571 91.932L127.565 93.1446L120.348 93.1115ZM133.038 93.4359C132.21 93.4321 131.511 93.2613 130.94 92.9235C130.37 92.5758 129.938 92.1253 129.645 91.5718C129.352 91.0184 129.207 90.4311 129.209 89.81L130.599 89.8164C130.597 90.2699 130.694 90.6745 130.89 91.0304C131.095 91.3862 131.38 91.6685 131.744 91.8772C132.107 92.0859 132.541 92.1914 133.044 92.1937C133.536 92.196 133.966 92.0994 134.331 91.9039C134.707 91.6986 134.999 91.4189 135.208 91.065C135.416 90.7012 135.522 90.2925 135.524 89.839C135.526 89.3855 135.424 88.9759 135.219 88.6102C135.023 88.2445 134.739 87.9523 134.365 87.7337C134.001 87.5152 133.568 87.4047 133.065 87.4024C132.701 87.4007 132.331 87.4631 131.955 87.5896C131.58 87.7061 131.279 87.8773 131.051 88.103L129.75 88.097L130.323 82.3618L135.987 82.3878L135.981 83.6004L131.146 83.5782L131.503 83.0918L131.07 87.2749L130.686 87.1401C130.973 86.8555 131.319 86.6303 131.724 86.4646C132.139 86.2989 132.607 86.2172 133.13 86.2196C133.958 86.2234 134.652 86.3992 135.213 86.7468C135.773 87.0846 136.195 87.5252 136.478 88.0688C136.772 88.6025 136.917 89.1602 136.914 89.7419L136.914 89.9489C136.911 90.5306 136.76 91.0918 136.462 91.6327C136.164 92.1637 135.723 92.6004 135.14 92.9428C134.567 93.2754 133.866 93.4398 133.038 93.4359ZM141.292 93.2077L145.422 82.4311L146.546 82.4363L142.415 93.2128L141.292 93.2077ZM140.516 88.2056C139.954 88.2031 139.496 88.0728 139.142 87.8148C138.798 87.5569 138.544 87.2156 138.378 86.7909C138.222 86.3663 138.145 85.9075 138.148 85.4145L138.149 85.03C138.152 84.4977 138.238 84.0248 138.407 83.6115C138.577 83.1884 138.839 82.8593 139.195 82.6243C139.551 82.3795 140.001 82.2583 140.543 82.2608C141.095 82.2634 141.543 82.3887 141.887 82.6367C142.241 82.875 142.5 83.2064 142.666 83.6311C142.832 84.046 142.913 84.5196 142.911 85.0519L142.909 85.4364C142.907 85.9294 142.821 86.3874 142.652 86.8106C142.492 87.2338 142.239 87.5727 141.893 87.8275C141.547 88.0822 141.088 88.2083 140.516 88.2056ZM140.52 87.2296C140.974 87.2317 141.31 87.0706 141.528 86.7462C141.756 86.4121 141.872 85.9147 141.875 85.2542C141.878 84.5542 141.767 84.046 141.542 83.7295C141.316 83.4031 140.982 83.2389 140.538 83.2368C140.095 83.2348 139.759 83.3959 139.531 83.7202C139.302 84.0347 139.187 84.5369 139.184 85.2271C139.181 85.8876 139.287 86.3859 139.502 86.7221C139.727 87.0584 140.067 87.2275 140.52 87.2296ZM147.236 93.3829C146.674 93.3803 146.216 93.25 145.862 92.9921C145.518 92.7341 145.263 92.3928 145.098 91.9682C144.942 91.5435 144.865 91.0847 144.867 90.5918L144.869 90.2073C144.872 89.6749 144.958 89.2021 145.127 88.7888C145.297 88.3656 145.559 88.0366 145.915 87.8016C146.271 87.5567 146.721 87.4356 147.263 87.4381C147.815 87.4406 148.263 87.5659 148.607 87.8139C148.961 88.0522 149.22 88.3837 149.386 88.8084C149.552 89.2232 149.633 89.6968 149.631 90.2292L149.629 90.6137C149.627 91.1066 149.541 91.5646 149.372 91.9878C149.212 92.411 148.959 92.75 148.613 93.0047C148.266 93.2594 147.807 93.3855 147.236 93.3829ZM147.24 92.4069C147.694 92.4089 148.03 92.2478 148.248 91.9235C148.476 91.5893 148.592 91.092 148.595 90.4314C148.598 89.7315 148.487 89.2232 148.262 88.9067C148.036 88.5803 147.702 88.4161 147.258 88.4141C146.815 88.412 146.479 88.5732 146.25 88.8975C146.022 89.2119 145.907 89.7142 145.903 90.4043C145.9 91.0648 146.007 91.5632 146.222 91.8994C146.447 92.2356 146.787 92.4048 147.24 92.4069Z" fill="#080821" fill-opacity="0.6"/>
<path d="M51.4606 27.407L51.4987 19.0461L53.114 19.0535L53.0759 27.4145L51.4606 27.407ZM56.5341 27.4303L54.0025 23.8012L55.8112 23.8096L58.4224 27.439L56.5341 27.4303ZM52.6108 24.6367L52.6168 23.3285L54.7326 23.3382C55.0284 23.3396 55.2827 23.2801 55.4956 23.1597C55.7161 23.0394 55.8875 22.8695 56.0098 22.6501C56.1322 22.4308 56.194 22.1808 56.1953 21.9002C56.1966 21.612 56.1371 21.3577 56.0167 21.1372C55.8964 20.9167 55.7265 20.7453 55.5072 20.623C55.2954 20.5007 55.0416 20.4388 54.7458 20.4375L52.63 20.4277L52.6363 19.0513L54.5815 19.0602C55.2488 19.0633 55.8247 19.1645 56.3092 19.364C56.8012 19.5634 57.1791 19.8647 57.4426 20.2678C57.7062 20.671 57.8367 21.1759 57.8339 21.7826L57.8331 21.9646C57.8303 22.5789 57.6915 23.0826 57.4166 23.4757C57.1494 23.8688 56.7727 24.1628 56.2864 24.3578C55.8002 24.5527 55.2234 24.6487 54.556 24.6456L52.6108 24.6367ZM62.1749 27.6724C61.644 27.67 61.178 27.5768 60.7769 27.393C60.3834 27.2091 60.0546 26.9649 59.7906 26.6604C59.5341 26.3483 59.3385 26.0023 59.2038 25.6225C59.0766 25.2427 59.0139 24.8557 59.0157 24.4613L59.0167 24.2452C59.0185 23.8357 59.0848 23.4416 59.2154 23.063C59.3537 22.6769 59.5524 22.3365 59.8116 22.042C60.0784 21.7398 60.4056 21.5024 60.7932 21.3298C61.1808 21.1496 61.6286 21.0606 62.1367 21.063C62.8041 21.066 63.3608 21.2165 63.8069 21.5143C64.2606 21.8045 64.6001 22.1891 64.8255 22.6679C65.0508 23.1391 65.1623 23.6478 65.1598 24.1938L65.1572 24.7625L59.6856 24.7374L59.69 23.7705L64.1719 23.7911L63.6806 24.2666C63.6824 23.8723 63.6271 23.5345 63.5146 23.2534C63.4021 22.9723 63.2287 22.7554 62.9943 22.6026C62.7674 22.4499 62.4796 22.3727 62.1308 22.3711C61.7819 22.3695 61.4858 22.4478 61.2424 22.6059C60.999 22.7641 60.8121 22.9945 60.6818 23.2973C60.5591 23.5925 60.4969 23.9486 60.495 24.3657C60.4932 24.7525 60.5523 25.0978 60.6722 25.4017C60.7922 25.6981 60.977 25.934 61.2264 26.1096C61.4759 26.2776 61.7941 26.3624 62.1808 26.3642C62.5676 26.366 62.8826 26.2916 63.126 26.1411C63.3694 25.9829 63.5258 25.7902 63.5951 25.563L65.0511 25.5697C64.9582 25.994 64.7821 26.3648 64.5228 26.6821C64.2635 26.9995 63.9325 27.2444 63.5297 27.417C63.1346 27.5896 62.683 27.6747 62.1749 27.6724ZM67.6501 27.4814L65.7444 21.2957L67.3711 21.3031L69.1972 27.4885L67.6501 27.4814ZM68.1165 27.4836L68.1224 26.1868L69.7946 26.1944L69.7887 27.4912L68.1165 27.4836ZM68.7421 27.4864L70.3629 21.3169L71.8872 21.3239L70.1868 27.4931L68.7421 27.4864ZM75.6832 27.7345C75.1523 27.732 74.6864 27.6389 74.2853 27.455C73.8917 27.2712 73.563 27.027 73.2989 26.7224C73.0425 26.4103 72.8469 26.0644 72.7121 25.6846C72.5849 25.3048 72.5222 24.9177 72.524 24.5234L72.525 24.3072C72.5269 23.8977 72.5931 23.5037 72.7238 23.1251C72.862 22.739 73.0608 22.3986 73.32 22.104C73.5868 21.8019 73.914 21.5645 74.3015 21.3919C74.6891 21.2116 75.137 21.1227 75.6451 21.125C76.3124 21.1281 76.8692 21.2785 77.3152 21.5763C77.7689 21.8666 78.1085 22.2511 78.3338 22.73C78.5592 23.2012 78.6706 23.7098 78.6681 24.2558L78.6655 24.8246L73.1939 24.7995L73.1983 23.8326L77.6803 23.8532L77.1889 24.3287C77.1907 23.9343 77.1354 23.5966 77.0229 23.3155C76.9104 23.0344 76.737 22.8174 76.5026 22.6647C76.2758 22.512 75.988 22.4348 75.6391 22.4332C75.2903 22.4316 74.9941 22.5099 74.7507 22.668C74.5073 22.8261 74.3205 23.0566 74.1902 23.3593C74.0675 23.6545 74.0052 24.0107 74.0033 24.4278C74.0015 24.8146 74.0606 25.1599 74.1806 25.4638C74.3006 25.7601 74.4853 25.9961 74.7348 26.1716C74.9843 26.3396 75.3024 26.4245 75.6892 26.4263C76.0759 26.4281 76.391 26.3537 76.6344 26.2031C76.8778 26.045 77.0341 25.8523 77.1034 25.6251L78.5594 25.6318C78.4665 26.0561 78.2904 26.4269 78.0311 26.7442C77.7718 27.0615 77.4408 27.3065 77.0381 27.479C76.6429 27.6517 76.1913 27.7368 75.6832 27.7345ZM79.9741 27.538L80.0022 21.3612L81.2535 21.3669L81.2414 24.0174L81.1277 24.0169C81.1305 23.3874 81.2163 22.8645 81.3851 22.4482C81.5539 22.0243 81.8018 21.7069 82.1288 21.4961C82.4635 21.2853 82.8773 21.181 83.3702 21.1833L83.4385 21.1836C84.1741 21.187 84.7304 21.4284 85.1074 21.9079C85.4844 22.3798 85.6708 23.086 85.6665 24.0264L85.6504 27.5641L84.0692 27.5569L84.086 23.8826C84.0877 23.5034 83.9791 23.1958 83.7603 22.9597C83.549 22.7236 83.2538 22.6047 82.8746 22.6029C82.4878 22.6012 82.1726 22.7211 81.9288 22.9626C81.6926 23.1966 81.5736 23.5146 81.5718 23.9165L81.5552 27.5453L79.9741 27.538ZM89.4539 27.775C88.741 27.7717 88.1885 27.5341 87.7963 27.0621C87.4117 26.5901 87.2215 25.8915 87.2257 24.9663L87.242 21.3831L88.8232 21.3903L88.8062 25.1101C88.8045 25.4893 88.9093 25.7931 89.1206 26.0216C89.332 26.2425 89.6196 26.3538 89.9836 26.3555C90.3477 26.3571 90.644 26.2409 90.8725 26.0069C91.1087 25.7729 91.2277 25.4549 91.2295 25.053L91.2462 21.4015L92.8274 21.4087L92.7992 27.597L91.5479 27.5912L91.5598 24.9635L91.685 24.9641C91.6821 25.5859 91.6001 26.105 91.439 26.5214C91.2778 26.9378 91.0375 27.2514 90.718 27.4623C90.3985 27.6731 89.9999 27.7775 89.5221 27.7753L89.4539 27.775ZM97.3787 27.8341C96.8479 27.8317 96.3819 27.7386 95.9808 27.5547C95.5873 27.3709 95.2585 27.1267 94.9945 26.8221C94.738 26.51 94.5424 26.1641 94.4077 25.7842C94.2805 25.4045 94.2178 25.0174 94.2196 24.6231L94.2205 24.4069C94.2224 23.9974 94.2887 23.6034 94.4193 23.2248C94.5576 22.8386 94.7563 22.4983 95.0155 22.2037C95.2823 21.9016 95.6095 21.6642 95.9971 21.4915C96.3847 21.3113 96.8325 21.2224 97.3406 21.2247C98.008 21.2278 98.5647 21.3782 99.0108 21.676C99.4645 21.9663 99.804 22.3508 100.029 22.8296C100.255 23.3009 100.366 23.8095 100.364 24.3555L100.361 24.9243L94.8895 24.8992L94.8939 23.9322L99.3758 23.9528L98.8845 24.4284C98.8863 24.034 98.8309 23.6963 98.7185 23.4152C98.606 23.134 98.4325 22.9171 98.1981 22.7644C97.9713 22.6116 97.6835 22.5345 97.3346 22.5329C96.9858 22.5313 96.6897 22.6095 96.4463 22.7677C96.2029 22.9258 96.016 23.1563 95.8857 23.459C95.763 23.7542 95.7007 24.1104 95.6988 24.5275C95.6971 24.9142 95.7562 25.2596 95.8761 25.5635C95.9961 25.8598 96.1808 26.0957 96.4303 26.2713C96.6798 26.4393 96.9979 26.5242 97.3847 26.526C97.7715 26.5277 98.0865 26.4534 98.3299 26.3028C98.5733 26.1447 98.7296 25.952 98.7989 25.7248L100.255 25.7315C100.162 26.1557 99.9859 26.5265 99.7266 26.8439C99.4673 27.1612 99.1363 27.4061 98.7336 27.5787C98.3385 27.7513 97.8868 27.8365 97.3787 27.8341Z" fill="#080821" fill-opacity="0.8"/>
<rect x="25.6317" y="13.9533" width="17.7033" height="17.7035" rx="2.23956" fill="#080821" stroke="#F2F2F2" stroke-width="0.497681"/>
<g clip-path="url(#clip0_9619_49078)">
<path d="M34.4805 16.6779V29.1911" stroke="white" stroke-width="1.13757" stroke-linecap="round" stroke-linejoin="round"/>
<path d="M37.323 18.953H33.0572C31.9577 18.953 31.0664 19.8443 31.0664 20.9437C31.0664 22.0432 31.9577 22.9345 33.0572 22.9345H35.9011C37.0005 22.9345 37.8918 23.8258 37.8918 24.9252C37.8918 26.0247 37.0005 26.916 35.9011 26.916H31.0664" stroke="white" stroke-width="1.13757" stroke-linecap="round" stroke-linejoin="round"/>
</g>
<rect x="31.6328" y="73.556" width="7.39417" height="20.4763" fill="#DFDFE2"/>
<rect x="47.5586" y="78.1063" width="7.39417" height="15.926" fill="#DFDFE2"/>
<rect x="63.4844" y="71.8496" width="7.39417" height="22.1827" fill="#DFDFE2"/>
<rect x="79.4102" y="63.3179" width="7.39417" height="30.7145" fill="#DFDFE2"/>
<rect x="95.3359" y="55.9236" width="7.39417" height="38.1087" fill="#DFDFE2"/>
<path d="M120.54 46.9603C120.184 46.9587 119.869 46.8985 119.597 46.7797C119.328 46.6571 119.101 46.4949 118.917 46.2931C118.736 46.0875 118.598 45.8574 118.505 45.603C118.415 45.3447 118.37 45.0772 118.372 44.8004L118.372 44.6752C118.373 44.4136 118.42 44.1579 118.512 43.908C118.604 43.6582 118.738 43.4332 118.913 43.233C119.093 43.0329 119.311 42.8746 119.57 42.7582C119.832 42.6381 120.132 42.5788 120.469 42.5804C120.833 42.582 121.155 42.6518 121.435 42.7896C121.715 42.9236 121.94 43.1123 122.109 43.3558C122.279 43.5954 122.378 43.8746 122.407 44.1932L121.594 44.1895C121.568 44.0112 121.502 43.8592 121.397 43.7336C121.291 43.6042 121.157 43.505 120.994 43.436C120.835 43.367 120.659 43.332 120.466 43.3311C120.272 43.3303 120.096 43.3636 119.936 43.4311C119.781 43.4986 119.647 43.5947 119.537 43.7193C119.426 43.844 119.34 43.9933 119.279 44.1675C119.221 44.3417 119.192 44.5349 119.191 44.7472C119.19 44.9785 119.221 45.1853 119.285 45.3677C119.348 45.55 119.439 45.7058 119.556 45.8353C119.673 45.961 119.814 46.0583 119.981 46.1273C120.148 46.1926 120.335 46.2257 120.544 46.2266C120.82 46.2279 121.063 46.1721 121.272 46.0593C121.482 45.9427 121.634 45.7918 121.73 45.6064L121.584 46.2598L121.589 45.1905L122.334 45.194L122.33 46.1154C122.151 46.3838 121.907 46.5931 121.599 46.7434C121.291 46.8898 120.938 46.9622 120.54 46.9603ZM120.417 45.3444L120.42 44.7415L122.683 44.7519L122.681 45.3548L120.417 45.3444ZM124.192 46.869L124.212 42.6886L125.019 42.6923L125 46.8727L124.192 46.869ZM126.729 46.8807L125.463 45.0661L126.368 45.0703L127.673 46.885L126.729 46.8807ZM124.768 45.4838L124.771 44.8298L125.828 44.8346C125.976 44.8353 126.104 44.8055 126.21 44.7454C126.32 44.6852 126.406 44.6003 126.467 44.4906C126.528 44.3809 126.559 44.2559 126.56 44.1156C126.56 43.9715 126.531 43.8444 126.471 43.7341C126.41 43.6239 126.325 43.5382 126.216 43.477C126.11 43.4158 125.983 43.3849 125.835 43.3843L124.777 43.3794L124.78 42.6912L125.753 42.6956C126.087 42.6972 126.375 42.7478 126.617 42.8475C126.863 42.9472 127.052 43.0979 127.183 43.2994C127.315 43.501 127.38 43.7535 127.379 44.0568L127.379 44.1478C127.377 44.455 127.308 44.7068 127.17 44.9034C127.037 45.0999 126.848 45.2469 126.605 45.3444C126.362 45.4419 126.074 45.4898 125.74 45.4883L124.768 45.4838ZM131.034 47.0085C130.659 47.0068 130.333 46.939 130.057 46.805C129.784 46.671 129.558 46.4974 129.377 46.2843C129.199 46.0673 129.066 45.8354 128.976 45.5885C128.89 45.3378 128.847 45.0969 128.848 44.8656L128.849 44.7404C128.85 44.4864 128.897 44.2344 128.989 43.9846C129.081 43.731 129.219 43.5022 129.402 43.2983C129.588 43.0944 129.818 42.9324 130.092 42.8123C130.366 42.6884 130.686 42.6273 131.054 42.629C131.418 42.6307 131.736 42.6947 132.009 42.8211C132.281 42.9437 132.508 43.1078 132.689 43.3134C132.874 43.519 133.011 43.749 133.101 44.0035C133.191 44.2542 133.235 44.5065 133.234 44.7606L133.234 44.8857C133.233 45.117 133.186 45.3576 133.094 45.6074C133.005 45.8535 132.87 46.0842 132.687 46.2995C132.508 46.511 132.279 46.6825 132.002 46.8139C131.728 46.9454 131.406 47.0102 131.034 47.0085ZM131.037 46.2578C131.25 46.2587 131.44 46.2217 131.607 46.1466C131.778 46.0716 131.922 45.968 132.04 45.8358C132.162 45.6998 132.254 45.5467 132.316 45.3763C132.381 45.2022 132.414 45.0184 132.415 44.8251C132.416 44.6165 132.384 44.4249 132.321 44.2502C132.261 44.0755 132.171 43.9234 132.05 43.7939C131.933 43.6644 131.789 43.5633 131.619 43.4905C131.449 43.4176 131.259 43.3807 131.051 43.3798C130.838 43.3788 130.647 43.4139 130.476 43.4852C130.305 43.5565 130.158 43.6563 130.036 43.7846C129.918 43.913 129.827 44.0643 129.761 44.2384C129.7 44.4125 129.669 44.6039 129.668 44.8124C129.667 45.0058 129.696 45.1899 129.756 45.3646C129.82 45.5355 129.91 45.6895 130.027 45.8265C130.148 45.9598 130.293 46.0647 130.464 46.1414C130.634 46.218 130.825 46.2568 131.037 46.2578ZM135.468 46.9208L134.429 42.7639L135.265 42.7678L136.108 46.3834L135.887 46.2516L136.455 46.2542L136.205 46.3839L136.897 42.9345L137.591 42.9377L136.731 46.9266L135.468 46.9208ZM137.948 46.9322L137.051 42.9353L137.773 42.9386L138.537 46.3946L138.293 46.2627L138.85 46.2652L138.633 46.395L139.406 42.7868L140.197 42.7904L139.234 46.9381L137.948 46.9322ZM142.568 46.9535L142.584 43.3986L143.392 43.4023L143.376 46.9572L142.568 46.9535ZM141.383 43.5069L141.387 42.7959L144.595 42.8107L144.591 43.5216L141.383 43.5069ZM148.798 46.9821L148.817 42.8301L149.625 42.8338L149.606 46.9858L148.798 46.9821ZM146.074 46.9696L146.092 42.8175L146.9 42.8212L146.881 46.9733L146.074 46.9696ZM146.741 45.2492L146.744 44.5383L148.957 44.5484L148.954 45.2594L146.741 45.2492Z" fill="#080821" fill-opacity="0.3"/>
<defs>
<filter id="filter0_dd_9619_49078" x="0.725997" y="0.552975" width="183.544" height="129.511" filterUnits="userSpaceOnUse" color-interpolation-filters="sRGB">
<feFlood flood-opacity="0" result="BackgroundImageFix"/>
<feColorMatrix in="SourceAlpha" type="matrix" values="0 0 0 0 0 0 0 0 0 0 0 0 0 0 0 0 0 0 127 0" result="hardAlpha"/>
<feMorphology radius="2.84389" operator="erode" in="SourceAlpha" result="effect1_dropShadow_9619_49078"/>
<feOffset dy="11.3756"/>
<feGaussianBlur stdDeviation="7.10973"/>
<feComposite in2="hardAlpha" operator="out"/>
<feColorMatrix type="matrix" values="0 0 0 0 0.0313726 0 0 0 0 0.0313726 0 0 0 0 0.129412 0 0 0 0.1 0"/>
<feBlend mode="normal" in2="BackgroundImageFix" result="effect1_dropShadow_9619_49078"/>
<feColorMatrix in="SourceAlpha" type="matrix" values="0 0 0 0 0 0 0 0 0 0 0 0 0 0 0 0 0 0 127 0" result="hardAlpha"/>
<feMorphology radius="2.84389" operator="erode" in="SourceAlpha" result="effect2_dropShadow_9619_49078"/>
<feOffset dy="5.68778"/>
<feGaussianBlur stdDeviation="2.84389"/>
<feComposite in2="hardAlpha" operator="out"/>
<feColorMatrix type="matrix" values="0 0 0 0 0.0313726 0 0 0 0 0.0313726 0 0 0 0 0.129412 0 0 0 0.04 0"/>
<feBlend mode="normal" in2="effect1_dropShadow_9619_49078" result="effect2_dropShadow_9619_49078"/>
<feBlend mode="normal" in="SourceGraphic" in2="effect2_dropShadow_9619_49078" result="shape"/>
</filter>
<filter id="filter1_d_9619_49078" x="11.5032" y="0.453248" width="161.99" height="107.957" filterUnits="userSpaceOnUse" color-interpolation-filters="sRGB">
<feFlood flood-opacity="0" result="BackgroundImageFix"/>
<feColorMatrix in="SourceAlpha" type="matrix" values="0 0 0 0 0 0 0 0 0 0 0 0 0 0 0 0 0 0 127 0" result="hardAlpha"/>
<feMorphology radius="0.19946" operator="erode" in="SourceAlpha" result="effect1_dropShadow_9619_49078"/>
<feOffset dy="0.49865"/>
<feGaussianBlur stdDeviation="0.39892"/>
<feComposite in2="hardAlpha" operator="out"/>
<feColorMatrix type="matrix" values="0 0 0 0 0.0313726 0 0 0 0 0.0313726 0 0 0 0 0.129412 0 0 0 0.15 0"/>
<feBlend mode="normal" in2="BackgroundImageFix" result="effect1_dropShadow_9619_49078"/>
<feBlend mode="normal" in="SourceGraphic" in2="effect1_dropShadow_9619_49078" result="shape"/>
</filter>
<filter id="filter2_i_9619_49078" x="15.7109" y="4.16406" width="153.57" height="99.5377" filterUnits="userSpaceOnUse" color-interpolation-filters="sRGB">
<feFlood flood-opacity="0" result="BackgroundImageFix"/>
<feBlend mode="normal" in="SourceGraphic" in2="BackgroundImageFix" result="shape"/>
<feColorMatrix in="SourceAlpha" type="matrix" values="0 0 0 0 0 0 0 0 0 0 0 0 0 0 0 0 0 0 127 0" result="hardAlpha"/>
<feOffset/>
<feGaussianBlur stdDeviation="0.797841"/>
<feComposite in2="hardAlpha" operator="arithmetic" k2="-1" k3="1"/>
<feColorMatrix type="matrix" values="0 0 0 0 0.0313726 0 0 0 0 0.0313726 0 0 0 0 0.129412 0 0 0 0.06 0"/>
<feBlend mode="normal" in2="shape" result="effect1_innerShadow_9619_49078"/>
</filter>
<linearGradient id="paint0_linear_9619_49078" x1="78.0758" y1="124.188" x2="85.6293" y2="63.0965" gradientUnits="userSpaceOnUse">
<stop stop-color="#080821" stop-opacity="0.9"/>
<stop offset="1" stop-color="white" stop-opacity="0"/>
</linearGradient>
<linearGradient id="paint1_linear_9619_49078" x1="63.4678" y1="-16.9244" x2="119.352" y2="38.1523" gradientUnits="userSpaceOnUse">
<stop stop-color="#080821" stop-opacity="0.9"/>
<stop offset="1" stop-color="white" stop-opacity="0"/>
</linearGradient>
<linearGradient id="paint2_linear_9619_49078" x1="132.481" y1="-19.5756" x2="75.7804" y2="26.9683" gradientUnits="userSpaceOnUse">
<stop stop-color="#080821"/>
<stop offset="1" stop-color="white" stop-opacity="0"/>
</linearGradient>
<linearGradient id="paint3_linear_9619_49078" x1="176.877" y1="-2.15183" x2="157.553" y2="6.39634" gradientUnits="userSpaceOnUse">
<stop offset="0.581631" stop-color="white"/>
<stop offset="1" stop-color="white" stop-opacity="0"/>
</linearGradient>
<linearGradient id="paint4_linear_9619_49078" x1="162.877" y1="-4.60972" x2="143.553" y2="3.93845" gradientUnits="userSpaceOnUse">
<stop offset="0.581631" stop-color="white"/>
<stop offset="1" stop-color="white" stop-opacity="0"/>
</linearGradient>
<linearGradient id="paint5_linear_9619_49078" x1="333.861" y1="100.798" x2="314.537" y2="109.346" gradientUnits="userSpaceOnUse">
<stop offset="0.581631" stop-color="white"/>
<stop offset="1" stop-color="white" stop-opacity="0"/>
</linearGradient>
<linearGradient id="paint6_linear_9619_49078" x1="162.877" y1="-4.60972" x2="143.553" y2="3.93845" gradientUnits="userSpaceOnUse">
<stop offset="0.581631" stop-color="white"/>
<stop offset="1" stop-color="white" stop-opacity="0"/>
</linearGradient>
<clipPath id="clip0_9619_49078">
<rect width="13.6508" height="13.6508" fill="white" transform="translate(27.6562 16.109)"/>
</clipPath>
</defs>
</svg>
