<svg width="200" height="133" viewBox="0 0 200 133" fill="none" xmlns="http://www.w3.org/2000/svg">
<g filter="url(#filter0_dd_9619_49941)">
<g filter="url(#filter1_d_9619_49941)">
<rect x="16.8516" y="4.85028" width="166.526" height="99.2994" rx="7.8314" fill="white"/>
<rect x="14.8937" y="2.89243" width="170.442" height="103.215" rx="9.78925" stroke="url(#paint0_linear_9619_49941)" stroke-opacity="0.1" stroke-width="3.9157"/>
<rect x="14.8937" y="2.89243" width="170.442" height="103.215" rx="9.78925" stroke="url(#paint1_linear_9619_49941)" stroke-opacity="0.1" stroke-width="3.9157"/>
<rect x="14.8937" y="2.89243" width="170.442" height="103.215" rx="9.78925" stroke="url(#paint2_linear_9619_49941)" stroke-opacity="0.1" stroke-width="3.9157"/>
<rect x="14.8937" y="2.89243" width="170.442" height="103.215" rx="9.78925" stroke="white" stroke-opacity="0.5" stroke-width="3.9157"/>
</g>
<g filter="url(#filter2_i_9619_49941)">
<path d="M16.9597 12.6817C16.9597 8.41625 20.4175 4.95842 24.683 4.95842H175.546C179.812 4.95842 183.27 8.41625 183.27 12.6817V96.3183C183.27 100.584 179.812 104.042 175.546 104.042H24.683C20.4175 104.042 16.9597 100.584 16.9597 96.3183V12.6817Z" stroke="white" stroke-opacity="0.1" stroke-width="0.216288"/>
</g>
<rect opacity="0.4" x="15" y="3" width="170.227" height="103" rx="10.9639" stroke="url(#paint3_linear_9619_49941)" stroke-width="0.78314"/>
<rect opacity="0.4" width="170.227" height="103" rx="10.9639" transform="matrix(-1 0 0 1 185.227 3)" stroke="url(#paint4_linear_9619_49941)" stroke-width="0.78314"/>
<rect opacity="0.4" x="185.227" y="106" width="170.227" height="103" rx="10.9639" transform="rotate(180 185.227 106)" stroke="url(#paint5_linear_9619_49941)" stroke-width="0.78314"/>
<rect opacity="0.4" width="170.227" height="103" rx="10.9639" transform="matrix(1 0 0 -1 15 106)" stroke="url(#paint6_linear_9619_49941)" stroke-width="0.78314"/>
</g>
<g opacity="0.13">
<mask id="mask0_9619_49941" style="mask-type:alpha" maskUnits="userSpaceOnUse" x="27" y="44" width="93" height="48">
<rect x="27.6404" y="44.6317" width="91.281" height="46.2575" rx="2.77544" fill="#D9D9D9" stroke="#F2F2F2" stroke-width="0.616765"/>
</mask>
<g mask="url(#mask0_9619_49941)">
<path d="M23.9014 80.2549L21.7812 84.2266V98.5987H123.547V52.3412L121.427 57.3811C119.307 62.4209 115.067 72.5005 110.826 72.9758C106.586 73.4511 102.346 64.3219 98.1057 62.9003C93.8655 61.4787 89.6252 67.7645 85.385 68.2122C81.1447 68.6598 76.9045 63.2692 72.6642 60.41C68.424 57.5508 64.1837 57.2229 59.9435 64.0184C55.7032 70.814 51.463 84.7331 47.2227 85.3167C42.9825 85.9003 38.7422 73.1484 34.502 70.7442C30.2617 68.3399 26.0215 76.2833 23.9014 80.2549Z" fill="url(#paint7_linear_9619_49941)" stroke="#080821" stroke-width="1.23353"/>
</g>
</g>
<rect x="27.6404" y="44.6317" width="91.281" height="46.2575" rx="2.77544" stroke="#F2F2F2" stroke-width="0.616765"/>
<path d="M126.322 64.0598C126.322 67.9771 123.147 71.1526 119.229 71.1526C115.312 71.1526 112.137 67.9771 112.137 64.0598C112.137 60.1426 115.312 56.967 119.229 56.967C123.147 56.967 126.322 60.1426 126.322 64.0598Z" fill="#47FAC6" stroke="#F2F2F2" stroke-width="0.616765"/>
<path d="M116.762 65.2933L119.229 62.8263L121.696 65.2933" stroke="#080821" stroke-width="1.23353" stroke-linecap="round" stroke-linejoin="round"/>
<path d="M135.275 56.6281L135.283 54.7038C135.286 54.2334 135.352 53.8328 135.481 53.502C135.622 53.1713 135.858 52.873 136.191 52.6073C136.524 52.3308 136.974 52.0656 137.542 51.8117L139.743 50.8115C140.279 50.5681 140.703 50.2547 141.014 49.8712C141.326 49.4771 141.483 48.97 141.486 48.35C141.49 47.6016 141.284 47.0181 140.869 46.5992C140.454 46.1804 139.867 45.9692 139.108 45.9657C138.359 45.9623 137.771 46.168 137.341 46.583C136.911 46.998 136.695 47.5796 136.692 48.3279L135.184 48.321C135.187 47.6475 135.329 47.0281 135.61 46.4628C135.901 45.8975 136.336 45.4505 136.915 45.1218C137.494 44.7823 138.227 44.6146 139.114 44.6187C140.001 44.6228 140.727 44.7972 141.292 45.1419C141.868 45.4759 142.294 45.9162 142.569 46.4627C142.855 47.0092 142.997 47.6032 142.994 48.2447L142.993 48.4692C142.989 49.3137 142.74 50.0235 142.246 50.5985C141.762 51.1736 141.108 51.6463 140.283 52.0167L138.081 53.0169C137.589 53.2391 137.256 53.4621 137.084 53.6858C136.912 53.9095 136.825 54.2084 136.823 54.5826L136.817 56.0579L136.403 55.3183L143.106 55.3491L143.1 56.6641L135.275 56.6281ZM149.035 56.98C148.137 56.9759 147.378 56.7906 146.76 56.4243C146.142 56.0473 145.674 55.5587 145.356 54.9586C145.038 54.3584 144.88 53.7216 144.883 53.0481L146.391 53.055C146.388 53.5468 146.493 53.9856 146.705 54.3714C146.928 54.7573 147.237 55.0634 147.631 55.2897C148.026 55.5161 148.496 55.6305 149.041 55.633C149.575 55.6354 150.041 55.5307 150.437 55.3187C150.845 55.096 151.161 54.7928 151.388 54.409C151.614 54.0145 151.728 53.5713 151.73 53.0796C151.733 52.5878 151.622 52.1436 151.4 51.7471C151.188 51.3505 150.879 51.0337 150.474 50.7967C150.08 50.5597 149.61 50.4399 149.064 50.4374C148.669 50.4356 148.268 50.5032 147.861 50.6403C147.454 50.7668 147.127 50.9524 146.88 51.1971L145.469 51.1906L146.091 44.9715L152.232 44.9997L152.226 46.3146L146.983 46.2905L147.37 45.7631L146.9 50.2992L146.484 50.1529C146.795 49.8443 147.171 49.6002 147.61 49.4205C148.06 49.2408 148.568 49.1522 149.134 49.1548C150.032 49.159 150.785 49.3495 151.393 49.7265C152.001 50.0928 152.458 50.5706 152.765 51.16C153.084 51.7388 153.241 52.3435 153.238 52.9742L153.237 53.1987C153.234 53.8295 153.071 54.4381 152.748 55.0246C152.425 55.6004 151.947 56.074 151.314 56.4452C150.692 56.8059 149.933 56.9841 149.035 56.98ZM157.985 56.7325L162.464 45.0467L163.683 45.0523L159.203 56.7381L157.985 56.7325ZM157.143 51.3084C156.534 51.3056 156.038 51.1643 155.654 50.8846C155.281 50.6049 155.005 50.2349 154.825 49.7743C154.656 49.3138 154.573 48.8163 154.575 48.2818L154.577 47.8649C154.58 47.2876 154.673 46.7749 154.857 46.3267C155.041 45.8679 155.326 45.511 155.712 45.2562C156.098 44.9907 156.585 44.8593 157.173 44.862C157.771 44.8648 158.257 45.0007 158.63 45.2696C159.014 45.528 159.296 45.8874 159.475 46.3479C159.655 46.7978 159.743 47.3113 159.741 47.8886L159.739 48.3055C159.736 48.8401 159.643 49.3368 159.46 49.7956C159.286 50.2545 159.012 50.6221 158.637 50.8983C158.261 51.1746 157.763 51.3113 157.143 51.3084ZM157.148 50.25C157.64 50.2523 158.004 50.0776 158.241 49.7259C158.489 49.3635 158.614 48.8242 158.617 48.108C158.621 47.3489 158.5 46.7978 158.256 46.4546C158.012 46.1007 157.649 45.9226 157.168 45.9204C156.687 45.9182 156.323 46.0929 156.075 46.4446C155.828 46.7855 155.702 47.3302 155.699 48.0785C155.696 48.7948 155.811 49.3352 156.044 49.6997C156.288 50.0644 156.656 50.2478 157.148 50.25ZM164.43 56.9224C163.821 56.9196 163.324 56.7784 162.941 56.4986C162.568 56.219 162.292 55.8489 162.112 55.3884C161.943 54.9279 161.86 54.4304 161.862 53.8959L161.864 53.4789C161.867 52.9016 161.96 52.3889 162.144 51.9407C162.328 51.4819 162.613 51.1251 162.999 50.8703C163.385 50.6048 163.872 50.4734 164.46 50.4761C165.058 50.4788 165.544 50.6147 165.917 50.8837C166.301 51.142 166.582 51.5014 166.762 51.962C166.942 52.4118 167.03 52.9254 167.028 53.5026L167.026 53.9196C167.023 54.4541 166.93 54.9508 166.746 55.4096C166.573 55.8685 166.299 56.2361 165.923 56.5124C165.548 56.7886 165.05 56.9253 164.43 56.9224ZM164.435 55.8641C164.927 55.8663 165.291 55.6916 165.528 55.3399C165.775 54.9776 165.901 54.4383 165.904 53.722C165.908 52.963 165.787 52.4118 165.543 52.0686C165.299 51.7147 164.936 51.5366 164.455 51.5344C163.974 51.5322 163.609 51.7069 163.362 52.0586C163.115 52.3996 162.989 52.9442 162.986 53.6925C162.982 54.4088 163.098 54.9492 163.331 55.3138C163.575 55.6784 163.943 55.8618 164.435 55.8641Z" fill="#080821" fill-opacity="0.6"/>
<path d="M57.0725 30.0254L57.0789 28.6192L59.3363 28.6296C59.7475 28.6315 60.0605 28.5219 60.2753 28.3008C60.4901 28.0715 60.5985 27.7595 60.6003 27.3648C60.6021 26.9701 60.4965 26.6653 60.2837 26.4505C60.0709 26.2275 59.7589 26.1151 59.3478 26.1132L57.0904 26.1028L57.0953 25.0297L59.2293 25.0395C59.8296 25.0422 60.3638 25.1187 60.8319 25.2689C61.3082 25.4109 61.6771 25.651 61.9388 25.9894C62.2086 26.3278 62.3422 26.7807 62.3396 27.3481L62.3388 27.5208C62.3364 28.0554 62.2151 28.5112 61.9749 28.8884C61.7429 29.2574 61.3921 29.5436 60.9225 29.747C60.461 29.9423 59.8891 30.0383 59.2065 30.0352L57.0725 30.0254ZM55.6047 30.0187L55.6463 20.8906L57.3609 20.8985L57.3192 30.0265L55.6047 30.0187ZM57.0917 25.8191L57.0966 24.7459L59.0209 24.7548C59.4403 24.7567 59.7492 24.6471 59.9475 24.426C60.1459 24.2049 60.246 23.9093 60.2476 23.5392C60.2493 23.1692 60.152 22.8727 59.9556 22.6497C59.7593 22.4268 59.4514 22.3144 59.032 22.3124L57.1077 22.3036L57.1142 20.8974L58.8781 20.9055C59.8978 20.9102 60.6698 21.1275 61.1942 21.5576C61.7267 21.9876 61.9912 22.6015 61.9876 23.3992L61.9868 23.5719C61.9842 24.1311 61.8465 24.5786 61.5736 24.9145C61.3089 25.2423 60.9419 25.4791 60.4725 25.6249C60.0031 25.7626 59.4642 25.83 58.8556 25.8272L57.0917 25.8191ZM64.2824 29.9968L64.313 23.2989L66.0276 23.3067L65.997 30.0047L64.2824 29.9968ZM63.3696 24.5774L63.3755 23.2945L66.0276 23.3067L66.0217 24.5896L63.3696 24.5774ZM64.9457 22.5C64.6086 22.4984 64.3581 22.4109 64.1945 22.2375C64.039 22.0558 63.9619 21.8293 63.9632 21.5579C63.9644 21.2866 64.0436 21.0649 64.2006 20.8929C64.3658 20.721 64.6171 20.6358 64.9542 20.6373C65.2914 20.6389 65.5377 20.7264 65.6931 20.8998C65.8486 21.0732 65.9257 21.2956 65.9245 21.567C65.9232 21.8383 65.8441 22.0641 65.687 22.2443C65.53 22.4163 65.2829 22.5015 64.9457 22.5ZM70.7475 30.2486C70.2787 30.2464 69.8474 30.1581 69.4534 29.9836C69.0595 29.8091 68.7193 29.5649 68.4329 29.2511C68.1466 28.9373 67.9262 28.5745 67.7718 28.1626C67.6175 27.7425 67.5414 27.2898 67.5436 26.8046L67.5448 26.5456C67.547 26.0686 67.623 25.6208 67.773 25.2021C67.9311 24.7834 68.1466 24.4184 68.4194 24.1072C68.7004 23.796 69.0346 23.5549 69.4219 23.384C69.8174 23.2049 70.2537 23.1164 70.7306 23.1186C71.2569 23.1211 71.7169 23.2383 72.1106 23.4704C72.5125 23.6943 72.8317 24.0329 73.0681 24.4863C73.3045 24.9397 73.4335 25.5077 73.4551 26.1903L72.952 25.5959L72.9728 21.0319L74.6874 21.0398L74.6464 30.0445L73.2895 30.0382L73.3025 27.1888L73.5986 27.1902C73.5708 27.8726 73.4284 28.4435 73.1713 28.9028C72.9144 29.3539 72.5756 29.6937 72.1552 29.922C71.743 30.1421 71.2738 30.251 70.7475 30.2486ZM71.1364 28.8071C71.4736 28.8087 71.7823 28.7361 72.0626 28.5893C72.3429 28.4344 72.5659 28.2134 72.7317 27.9263C72.9058 27.6311 72.9937 27.2861 72.9955 26.8913L72.9977 26.3979C72.9995 26.0032 72.9147 25.6739 72.7432 25.4099C72.5717 25.1378 72.3465 24.9311 72.0676 24.7901C71.7886 24.6408 71.4847 24.5653 71.1558 24.5638C70.7857 24.5621 70.4564 24.6511 70.1677 24.8307C69.8873 25.0021 69.6642 25.2478 69.4983 25.5677C69.3405 25.8877 69.2607 26.2615 69.2588 26.6891C69.2568 27.1168 69.3373 27.4913 69.5004 27.8128C69.6634 28.126 69.8843 28.3696 70.1631 28.5436C70.4502 28.7176 70.7746 28.8055 71.1364 28.8071ZM81.6893 30.2865C80.7683 30.2823 80.0455 30.0857 79.5209 29.6968C79.0047 29.2997 78.7358 28.7557 78.7142 28.0648L80.2561 28.0719C80.2798 28.3023 80.4063 28.5126 80.6357 28.7028C80.8651 28.8929 81.2265 28.9892 81.7199 28.9914C82.131 28.9933 82.4562 28.9208 82.6954 28.7739C82.9427 28.627 83.067 28.4261 83.0682 28.1712C83.0692 27.9491 82.9754 27.7719 82.7869 27.6395C82.6066 27.507 82.2945 27.4193 81.8506 27.3761L81.2588 27.3117C80.5108 27.226 79.9362 27.0096 79.5348 26.6623C79.1334 26.3151 78.934 25.8537 78.9367 25.278C78.9388 24.8175 79.0556 24.4315 79.2873 24.1201C79.519 23.8087 79.8367 23.5758 80.2403 23.4214C80.6523 23.2588 81.1214 23.1787 81.6477 23.1811C82.47 23.1849 83.1353 23.3689 83.6435 23.7331C84.1517 24.0972 84.4165 24.6289 84.438 25.328L82.8961 25.3209C82.8807 25.0906 82.7665 24.8927 82.5534 24.7272C82.3404 24.5618 82.0324 24.4781 81.6294 24.4763C81.2676 24.4746 80.9877 24.5432 80.7897 24.6821C80.5917 24.821 80.4922 25.0015 80.4912 25.2235C80.4902 25.4373 80.5676 25.6021 80.7233 25.718C80.8872 25.8339 81.15 25.9132 81.5117 25.956L82.1035 26.0204C82.8926 26.1062 83.5083 26.327 83.9508 26.6826C84.4014 27.0383 84.6254 27.5163 84.6227 28.1166C84.6207 28.5607 84.4955 28.9466 84.2473 29.2744C84.0074 29.5941 83.6691 29.8433 83.2324 30.0222C82.7958 30.2011 82.2814 30.2892 81.6893 30.2865ZM86.3508 30.0982L86.3814 23.4002L88.0959 23.4081L88.0654 30.1061L86.3508 30.0982ZM85.438 24.6788L85.4439 23.3959L88.0959 23.4081L88.0901 24.691L85.438 24.6788ZM87.0141 22.6013C86.6769 22.5998 86.4265 22.5123 86.2628 22.3389C86.1074 22.1572 86.0303 21.9307 86.0316 21.6593C86.0328 21.388 86.1119 21.1663 86.269 20.9943C86.4342 20.8224 86.6854 20.7372 87.0226 20.7387C87.3598 20.7403 87.6061 20.8278 87.7615 21.0012C87.917 21.1746 87.9941 21.397 87.9929 21.6684C87.9916 21.9397 87.9125 22.1655 87.7554 22.3457C87.5984 22.5177 87.3513 22.6029 87.0141 22.6013ZM90.0414 30.1152L90.072 23.4172L91.4289 23.4234L91.4157 26.2975L91.2924 26.297C91.2955 25.6226 91.3844 25.0597 91.5591 24.6082C91.7339 24.1485 91.9904 23.8043 92.3286 23.5756C92.6751 23.3387 93.1033 23.2214 93.6131 23.2238L93.6871 23.2241C94.2052 23.2265 94.6323 23.3477 94.9684 23.5877C95.3127 23.8196 95.5661 24.1661 95.7284 24.6274C95.8991 25.0805 95.9828 25.6442 95.9798 26.3185L95.548 26.3165C95.5511 25.6422 95.64 25.0793 95.8148 24.6278C95.9978 24.1681 96.2584 23.8239 96.5966 23.5952C96.9431 23.3583 97.3712 23.241 97.8811 23.2434L97.9551 23.2437C98.4732 23.2461 98.9044 23.3673 99.2487 23.6074C99.593 23.8392 99.8505 24.1858 100.021 24.6471C100.2 25.1002 100.288 25.664 100.285 26.3383L100.267 30.1622L98.5527 30.1543L98.5709 26.17C98.5728 25.7506 98.4674 25.4171 98.2547 25.1694C98.0421 24.9135 97.7384 24.7846 97.3437 24.7828C96.9489 24.781 96.6317 24.9111 96.392 25.1732C96.1524 25.427 96.0316 25.7719 96.0296 26.2077L96.0117 30.1426L94.2971 30.1347L94.3152 26.1505C94.3172 25.7311 94.2118 25.3976 93.9991 25.1499C93.7864 24.894 93.4827 24.7651 93.088 24.7633C92.6933 24.7615 92.3761 24.8916 92.1364 25.1536C91.8968 25.4075 91.776 25.7523 91.774 26.1882L91.756 30.1231L90.0414 30.1152ZM104.381 30.3908C103.608 30.3872 103.008 30.1295 102.583 29.6177C102.166 29.1059 101.96 28.3484 101.964 27.3452L101.982 23.4596L103.697 23.4675L103.678 27.5011C103.676 27.9122 103.79 28.2417 104.019 28.4895C104.248 28.729 104.56 28.8497 104.955 28.8515C105.35 28.8533 105.671 28.7273 105.919 28.4735C106.175 28.2198 106.304 27.875 106.306 27.4391L106.324 23.4795L108.039 23.4874L108.008 30.1977L106.651 30.1915L106.664 27.3421L106.8 27.3427C106.797 28.017 106.708 28.5799 106.533 29.0314C106.358 29.4829 106.098 29.823 105.751 30.0517C105.405 30.2804 104.973 30.3935 104.455 30.3911L104.381 30.3908ZM110.064 30.2072L110.105 21.2025L111.82 21.2104L111.779 30.2151L110.064 30.2072ZM109.26 22.4815L109.266 21.1987L111.82 21.2104L111.814 22.4933L109.26 22.4815ZM117.794 30.2427L117.803 28.2567L117.52 28.2554L117.53 26.0474C117.531 25.6609 117.438 25.3727 117.25 25.1827C117.062 24.9927 116.77 24.8968 116.375 24.8949C116.17 24.894 115.923 24.897 115.635 24.9039C115.347 24.9108 115.055 24.9218 114.759 24.9369C114.471 24.9438 114.212 24.9549 113.982 24.9703L113.989 23.5147C114.178 23.4992 114.392 23.4837 114.63 23.4684C114.869 23.453 115.112 23.4459 115.358 23.447C115.613 23.44 115.852 23.437 116.074 23.438C116.764 23.4412 117.336 23.5342 117.787 23.7172C118.247 23.9003 118.591 24.1856 118.819 24.5731C119.056 24.9607 119.173 25.467 119.17 26.092L119.151 30.2489L117.794 30.2427ZM115.635 30.4055C115.15 30.4033 114.722 30.3149 114.353 30.1405C113.992 29.9662 113.71 29.7182 113.505 29.3965C113.31 29.0749 113.213 28.688 113.215 28.2357C113.217 27.7423 113.338 27.3399 113.578 27.0285C113.826 26.7171 114.168 26.4843 114.605 26.3301C115.05 26.1759 115.568 26.1001 116.16 26.1028L117.714 26.11L117.71 27.1338L116.131 27.1265C115.736 27.1247 115.431 27.222 115.217 27.4184C115.01 27.6066 114.906 27.8528 114.905 28.1571C114.904 28.4613 115.005 28.7085 115.21 28.8986C115.423 29.0887 115.727 29.1847 116.122 29.1865C116.36 29.1876 116.578 29.1475 116.776 29.0662C116.982 28.9766 117.151 28.8294 117.284 28.6244C117.424 28.4113 117.504 28.1238 117.522 27.762L117.939 28.245C117.896 28.7136 117.779 29.1078 117.588 29.4276C117.406 29.7475 117.15 29.993 116.82 30.1642C116.499 30.3272 116.104 30.4076 115.635 30.4055ZM123.898 30.3571C123.282 30.3543 122.772 30.2738 122.37 30.1157C121.976 29.9494 121.681 29.6767 121.486 29.2975C121.29 28.9101 121.194 28.3916 121.197 27.7419L121.237 21.6731L122.84 21.6804L122.8 27.8603C122.798 28.1892 122.883 28.4446 123.055 28.6263C123.235 28.7998 123.49 28.8873 123.819 28.8888L124.867 28.8936L124.861 30.3615L123.898 30.3571ZM120.149 24.8136L120.155 23.5554L124.892 23.5772L124.886 24.8354L120.149 24.8136ZM126.621 30.2833L126.651 23.5853L128.366 23.5931L128.335 30.2911L126.621 30.2833ZM125.708 24.8638L125.714 23.581L128.366 23.5931L128.36 24.876L125.708 24.8638ZM127.284 22.7864C126.947 22.7848 126.697 22.6973 126.533 22.5239C126.377 22.3422 126.3 22.1157 126.302 21.8444C126.303 21.573 126.382 21.3513 126.539 21.1793C126.704 21.0074 126.955 20.9222 127.293 20.9238C127.63 20.9253 127.876 21.0128 128.032 21.1862C128.187 21.3596 128.264 21.582 128.263 21.8534C128.262 22.1247 128.182 22.3505 128.025 22.5307C127.868 22.7027 127.621 22.7879 127.284 22.7864ZM133.53 30.5494C132.938 30.5467 132.416 30.4497 131.965 30.2585C131.513 30.0673 131.132 29.8106 130.821 29.4884C130.51 29.158 130.273 28.7869 130.111 28.375C129.956 27.9631 129.88 27.5351 129.882 27.091L129.883 26.832C129.885 26.3715 129.969 25.936 130.136 25.5256C130.31 25.107 130.555 24.7381 130.869 24.4188C131.191 24.0913 131.579 23.8382 132.032 23.6593C132.485 23.4723 132.995 23.38 133.563 23.3826C134.13 23.3852 134.639 23.4822 135.091 23.6734C135.542 23.8564 135.923 24.1131 136.234 24.4434C136.554 24.7656 136.795 25.1368 136.957 25.5569C137.12 25.9689 137.2 26.4051 137.198 26.8656L137.197 27.1246C137.195 27.5687 137.111 27.9959 136.944 28.4064C136.786 28.8168 136.55 29.1858 136.236 29.5133C135.922 29.8326 135.539 30.0857 135.085 30.2728C134.632 30.4599 134.114 30.5521 133.53 30.5494ZM133.537 29.0815C133.956 29.0834 134.31 28.9946 134.599 28.815C134.887 28.6272 135.106 28.3774 135.256 28.0655C135.405 27.7455 135.481 27.384 135.483 26.9811C135.485 26.5699 135.408 26.2077 135.253 25.8945C135.107 25.5731 134.886 25.3213 134.591 25.139C134.304 24.9485 133.959 24.8524 133.556 24.8505C133.153 24.8487 132.803 24.9416 132.506 25.1294C132.217 25.309 131.994 25.5588 131.837 25.8788C131.679 26.1906 131.599 26.552 131.597 26.9632C131.595 27.3662 131.668 27.7283 131.814 28.0497C131.969 28.3629 132.19 28.6148 132.477 28.8052C132.764 28.9875 133.117 29.0796 133.537 29.0815ZM138.683 30.3387L138.714 23.6407L140.071 23.6469L140.058 26.521L139.934 26.5204C139.938 25.8379 140.031 25.2709 140.214 24.8194C140.397 24.3598 140.665 24.0156 141.02 23.787C141.383 23.5584 141.832 23.4453 142.366 23.4478L142.44 23.4481C143.238 23.4518 143.841 23.7136 144.25 24.2335C144.659 24.7453 144.861 25.511 144.856 26.5307L144.839 30.367L143.124 30.3591L143.142 26.3748C143.144 25.9637 143.026 25.6301 142.789 25.374C142.56 25.118 142.24 24.9891 141.829 24.9872C141.409 24.9853 141.067 25.1153 140.803 25.3772C140.547 25.631 140.418 25.9758 140.416 26.4116L140.398 30.3466L138.683 30.3387Z" fill="#080821" fill-opacity="0.8"/>
<rect x="27.6019" y="15.4648" width="19.1968" height="19.1969" rx="2.42851" fill="#080821" stroke="#F2F2F2" stroke-width="0.539669"/>
<path d="M41.2095 18.5023C41.303 18.5566 41.3805 18.6344 41.4344 18.728C41.4883 18.8217 41.5167 18.9278 41.5167 19.0358V21.5029C41.8638 21.5025 42.207 21.5756 42.5239 21.7173C42.8408 21.859 43.1241 22.0661 43.3552 22.325C43.7605 22.777 43.9844 23.3629 43.9837 23.97C43.9837 24.6015 43.7457 25.1788 43.3552 25.6149C43.124 25.8737 42.8407 26.0808 42.5238 26.2225C42.207 26.3642 41.8638 26.4373 41.5167 26.437V28.9041C41.5166 29.0121 41.4882 29.1182 41.4343 29.2118C41.3804 29.3054 41.3029 29.3831 41.2094 29.4373C41.116 29.4915 41.01 29.5203 40.902 29.5206C40.794 29.521 40.6878 29.493 40.594 29.4394L36.5826 27.1475V30.1376C36.5826 30.3012 36.5176 30.4581 36.4019 30.5737C36.2862 30.6894 36.1294 30.7544 35.9658 30.7544H33.4987C33.3352 30.7544 33.1783 30.6894 33.0626 30.5737C32.9469 30.4581 32.882 30.3012 32.882 30.1376V27.0538C32.5548 27.0538 32.2411 26.9238 32.0097 26.6925C31.7784 26.4612 31.6484 26.1474 31.6484 25.8202V22.1197C31.6484 21.7925 31.7784 21.4788 32.0097 21.2474C32.2411 21.0161 32.5548 20.8861 32.882 20.8861H36.4185L40.594 18.5005C40.6878 18.4469 40.794 18.4188 40.902 18.4191C41.01 18.4195 41.1161 18.4481 41.2095 18.5023ZM36.5826 25.8202C36.6899 25.8203 36.7953 25.8484 36.8885 25.9017L40.2831 27.8414V20.0985L36.8885 22.0382C36.7953 22.0915 36.6899 22.1196 36.5826 22.1197H32.882V25.8202H36.5826ZM34.1155 27.0538V29.5208H35.349V27.0538H34.1155ZM41.5167 25.2035C41.8818 25.2035 42.2093 25.0456 42.4363 24.7921C42.6318 24.5738 42.7502 24.2864 42.7502 23.97C42.7502 23.6536 42.6318 23.3661 42.4363 23.1478C42.3207 23.0182 42.1791 22.9145 42.0206 22.8436C41.862 22.7727 41.6903 22.7361 41.5167 22.7364V25.2035Z" fill="white"/>
<defs>
<filter id="filter0_dd_9619_49941" x="0.602205" y="0.93457" width="199.026" height="131.801" filterUnits="userSpaceOnUse" color-interpolation-filters="sRGB">
<feFlood flood-opacity="0" result="BackgroundImageFix"/>
<feColorMatrix in="SourceAlpha" type="matrix" values="0 0 0 0 0 0 0 0 0 0 0 0 0 0 0 0 0 0 127 0" result="hardAlpha"/>
<feMorphology radius="3.08382" operator="erode" in="SourceAlpha" result="effect1_dropShadow_9619_49941"/>
<feOffset dy="12.3353"/>
<feGaussianBlur stdDeviation="7.70956"/>
<feComposite in2="hardAlpha" operator="out"/>
<feColorMatrix type="matrix" values="0 0 0 0 0.0313726 0 0 0 0 0.0313726 0 0 0 0 0.129412 0 0 0 0.1 0"/>
<feBlend mode="normal" in2="BackgroundImageFix" result="effect1_dropShadow_9619_49941"/>
<feColorMatrix in="SourceAlpha" type="matrix" values="0 0 0 0 0 0 0 0 0 0 0 0 0 0 0 0 0 0 127 0" result="hardAlpha"/>
<feMorphology radius="3.08382" operator="erode" in="SourceAlpha" result="effect2_dropShadow_9619_49941"/>
<feOffset dy="6.16765"/>
<feGaussianBlur stdDeviation="3.08382"/>
<feComposite in2="hardAlpha" operator="out"/>
<feColorMatrix type="matrix" values="0 0 0 0 0.0313726 0 0 0 0 0.0313726 0 0 0 0 0.129412 0 0 0 0.04 0"/>
<feBlend mode="normal" in2="effect1_dropShadow_9619_49941" result="effect2_dropShadow_9619_49941"/>
<feBlend mode="normal" in="SourceGraphic" in2="effect2_dropShadow_9619_49941" result="shape"/>
</filter>
<filter id="filter1_d_9619_49941" x="12.2886" y="0.826426" width="175.653" height="108.429" filterUnits="userSpaceOnUse" color-interpolation-filters="sRGB">
<feFlood flood-opacity="0" result="BackgroundImageFix"/>
<feColorMatrix in="SourceAlpha" type="matrix" values="0 0 0 0 0 0 0 0 0 0 0 0 0 0 0 0 0 0 127 0" result="hardAlpha"/>
<feMorphology radius="0.216288" operator="erode" in="SourceAlpha" result="effect1_dropShadow_9619_49941"/>
<feOffset dy="0.54072"/>
<feGaussianBlur stdDeviation="0.432577"/>
<feComposite in2="hardAlpha" operator="out"/>
<feColorMatrix type="matrix" values="0 0 0 0 0.0313726 0 0 0 0 0.0313726 0 0 0 0 0.129412 0 0 0 0.15 0"/>
<feBlend mode="normal" in2="BackgroundImageFix" result="effect1_dropShadow_9619_49941"/>
<feBlend mode="normal" in="SourceGraphic" in2="effect1_dropShadow_9619_49941" result="shape"/>
</filter>
<filter id="filter2_i_9619_49941" x="16.8516" y="4.85028" width="166.527" height="99.2994" filterUnits="userSpaceOnUse" color-interpolation-filters="sRGB">
<feFlood flood-opacity="0" result="BackgroundImageFix"/>
<feBlend mode="normal" in="SourceGraphic" in2="BackgroundImageFix" result="shape"/>
<feColorMatrix in="SourceAlpha" type="matrix" values="0 0 0 0 0 0 0 0 0 0 0 0 0 0 0 0 0 0 127 0" result="hardAlpha"/>
<feOffset/>
<feGaussianBlur stdDeviation="0.865153"/>
<feComposite in2="hardAlpha" operator="arithmetic" k2="-1" k3="1"/>
<feColorMatrix type="matrix" values="0 0 0 0 0.0313726 0 0 0 0 0.0313726 0 0 0 0 0.129412 0 0 0 0.06 0"/>
<feBlend mode="normal" in2="shape" result="effect1_innerShadow_9619_49941"/>
</filter>
<linearGradient id="paint0_linear_9619_49941" x1="84.4774" y1="124.587" x2="91.426" y2="63.5003" gradientUnits="userSpaceOnUse">
<stop stop-color="#080821" stop-opacity="0.9"/>
<stop offset="1" stop-color="white" stop-opacity="0"/>
</linearGradient>
<linearGradient id="paint1_linear_9619_49941" x1="68.6371" y1="-16.1877" x2="124.262" y2="43.4003" gradientUnits="userSpaceOnUse">
<stop stop-color="#080821" stop-opacity="0.9"/>
<stop offset="1" stop-color="white" stop-opacity="0"/>
</linearGradient>
<linearGradient id="paint2_linear_9619_49941" x1="143.472" y1="-18.8325" x2="86.1744" y2="32.2915" gradientUnits="userSpaceOnUse">
<stop stop-color="#080821"/>
<stop offset="1" stop-color="white" stop-opacity="0"/>
</linearGradient>
<linearGradient id="paint3_linear_9619_49941" x1="191.617" y1="-1.61194" x2="171.245" y2="8.15518" gradientUnits="userSpaceOnUse">
<stop offset="0.581631" stop-color="white"/>
<stop offset="1" stop-color="white" stop-opacity="0"/>
</linearGradient>
<linearGradient id="paint4_linear_9619_49941" x1="176.617" y1="-4.61194" x2="156.245" y2="5.15518" gradientUnits="userSpaceOnUse">
<stop offset="0.581631" stop-color="white"/>
<stop offset="1" stop-color="white" stop-opacity="0"/>
</linearGradient>
<linearGradient id="paint5_linear_9619_49941" x1="361.843" y1="101.388" x2="341.472" y2="111.155" gradientUnits="userSpaceOnUse">
<stop offset="0.581631" stop-color="white"/>
<stop offset="1" stop-color="white" stop-opacity="0"/>
</linearGradient>
<linearGradient id="paint6_linear_9619_49941" x1="176.617" y1="-4.61194" x2="156.245" y2="5.15518" gradientUnits="userSpaceOnUse">
<stop offset="0.581631" stop-color="white"/>
<stop offset="1" stop-color="white" stop-opacity="0"/>
</linearGradient>
<linearGradient id="paint7_linear_9619_49941" x1="72.6642" y1="52.3412" x2="72.6642" y2="98.5987" gradientUnits="userSpaceOnUse">
<stop/>
<stop offset="1" stop-color="white"/>
</linearGradient>
</defs>
</svg>
