<svg width="103" height="103" viewBox="0 0 103 103" fill="none" xmlns="http://www.w3.org/2000/svg">
<g filter="url(#filter0_dd_9619_49511)">
<g filter="url(#filter1_d_9619_49511)">
<rect x="12.3398" y="3.32935" width="78.4311" height="78.4305" rx="10.6347" fill="white"/>
<rect x="10.9332" y="1.92274" width="81.2444" height="81.2437" rx="12.0413" stroke="url(#paint0_linear_9619_49511)" stroke-opacity="0.1" stroke-width="2.81321"/>
<rect x="10.9332" y="1.92274" width="81.2444" height="81.2437" rx="12.0413" stroke="url(#paint1_linear_9619_49511)" stroke-opacity="0.1" stroke-width="2.81321"/>
<rect x="10.9332" y="1.92274" width="81.2444" height="81.2437" rx="12.0413" stroke="url(#paint2_linear_9619_49511)" stroke-opacity="0.1" stroke-width="2.81321"/>
<rect x="10.9332" y="1.92274" width="81.2444" height="81.2437" rx="12.0413" stroke="white" stroke-opacity="0.5" stroke-width="2.81321"/>
</g>
<g filter="url(#filter2_i_9619_49511)">
<path d="M12.4175 13.964C12.4175 8.13358 17.1441 3.40704 22.9745 3.40704H80.1363C85.9668 3.40704 90.6933 8.13356 90.6933 13.964V71.1252C90.6933 76.9556 85.9668 81.6822 80.1363 81.6822H22.9745C17.1441 81.6822 12.4175 76.9557 12.4175 71.1252V13.964Z" stroke="white" stroke-opacity="0.1" stroke-width="0.155391"/>
</g>
<rect opacity="0.4" x="11" y="2.00061" width="81.533" height="81.0892" rx="13.2933" stroke="url(#paint3_linear_9619_49511)" stroke-width="0.562643"/>
<rect opacity="0.4" width="81.533" height="81.0892" rx="13.2933" transform="matrix(-1 0 0 1 92.5508 2)" stroke="url(#paint4_linear_9619_49511)" stroke-width="0.562643"/>
<rect opacity="0.4" x="92.5508" y="83.0897" width="81.533" height="81.0892" rx="13.2933" transform="rotate(180 92.5508 83.0897)" stroke="url(#paint5_linear_9619_49511)" stroke-width="0.562643"/>
<rect opacity="0.4" width="81.533" height="81.0892" rx="13.2933" transform="matrix(1 0 0 -1 11 83.0892)" stroke="url(#paint6_linear_9619_49511)" stroke-width="0.562643"/>
</g>
<rect x="22.2852" y="13.1945" width="58.7896" height="58.7892" rx="7.01352" fill="#080821"/>
<g clip-path="url(#clip0_9619_49511)">
<g clip-path="url(#clip1_9619_49511)">
<path d="M43.2031 29.575H67.0371C67.5522 29.575 67.9213 30.0747 67.7752 30.5668L63.9464 43.0911C63.7465 43.737 63.1545 44.1829 62.4779 44.1829H45.5173" stroke="white" stroke-width="1.53768" stroke-miterlimit="10"/>
<path d="M47.0408 56.4842C48.3189 56.4842 49.355 55.4481 49.355 54.17C49.355 52.8919 48.3189 51.8558 47.0408 51.8558C45.7627 51.8558 44.7266 52.8919 44.7266 54.17C44.7266 55.4481 45.7627 56.4842 47.0408 56.4842Z" stroke="white" stroke-width="1.53768" stroke-miterlimit="10"/>
<path d="M61.6658 56.4842C62.9439 56.4842 63.98 55.4481 63.98 54.17C63.98 52.8919 62.9439 51.8558 61.6658 51.8558C60.3877 51.8558 59.3516 52.8919 59.3516 54.17C59.3516 55.4481 60.3877 56.4842 61.6658 56.4842Z" stroke="white" stroke-width="1.53768" stroke-miterlimit="10"/>
<path d="M43.8209 38.8009L40.4611 27.599C40.2689 26.9454 39.6692 26.4995 38.9849 26.4995H33.2109" stroke="white" stroke-width="1.53768" stroke-miterlimit="10"/>
<path d="M63.9633 49.5646H48.1945C47.5179 49.5646 46.9182 49.1187 46.7183 48.4652L44.5117 41.1074" stroke="white" stroke-width="1.53768" stroke-miterlimit="10"/>
<path d="M37.0547 38.801H47.0496" stroke="#080821" stroke-width="1.53768" stroke-miterlimit="10"/>
<path d="M31.6719 42.6451H40.1291" stroke="#080821" stroke-width="1.53768" stroke-miterlimit="10"/>
<path d="M33.2109 34.188H39.3616" stroke="#080821" stroke-width="1.53768" stroke-miterlimit="10"/>
</g>
</g>
<defs>
<filter id="filter0_dd_9619_49511" x="0.665117" y="0.516113" width="101.783" height="101.781" filterUnits="userSpaceOnUse" color-interpolation-filters="sRGB">
<feFlood flood-opacity="0" result="BackgroundImageFix"/>
<feColorMatrix in="SourceAlpha" type="matrix" values="0 0 0 0 0 0 0 0 0 0 0 0 0 0 0 0 0 0 127 0" result="hardAlpha"/>
<feMorphology radius="2.21556" operator="erode" in="SourceAlpha" result="effect1_dropShadow_9619_49511"/>
<feOffset dy="8.86223"/>
<feGaussianBlur stdDeviation="5.53889"/>
<feComposite in2="hardAlpha" operator="out"/>
<feColorMatrix type="matrix" values="0 0 0 0 0.0313726 0 0 0 0 0.0313726 0 0 0 0 0.129412 0 0 0 0.1 0"/>
<feBlend mode="normal" in2="BackgroundImageFix" result="effect1_dropShadow_9619_49511"/>
<feColorMatrix in="SourceAlpha" type="matrix" values="0 0 0 0 0 0 0 0 0 0 0 0 0 0 0 0 0 0 127 0" result="hardAlpha"/>
<feMorphology radius="2.21556" operator="erode" in="SourceAlpha" result="effect2_dropShadow_9619_49511"/>
<feOffset dy="4.43112"/>
<feGaussianBlur stdDeviation="2.21556"/>
<feComposite in2="hardAlpha" operator="out"/>
<feColorMatrix type="matrix" values="0 0 0 0 0.0313726 0 0 0 0 0.0313726 0 0 0 0 0.129412 0 0 0 0.04 0"/>
<feBlend mode="normal" in2="effect1_dropShadow_9619_49511" result="effect2_dropShadow_9619_49511"/>
<feBlend mode="normal" in="SourceGraphic" in2="effect2_dropShadow_9619_49511" result="shape"/>
</filter>
<filter id="filter1_d_9619_49511" x="9.06117" y="0.438417" width="84.9909" height="84.9894" filterUnits="userSpaceOnUse" color-interpolation-filters="sRGB">
<feFlood flood-opacity="0" result="BackgroundImageFix"/>
<feColorMatrix in="SourceAlpha" type="matrix" values="0 0 0 0 0 0 0 0 0 0 0 0 0 0 0 0 0 0 127 0" result="hardAlpha"/>
<feMorphology radius="0.155391" operator="erode" in="SourceAlpha" result="effect1_dropShadow_9619_49511"/>
<feOffset dy="0.388478"/>
<feGaussianBlur stdDeviation="0.310782"/>
<feComposite in2="hardAlpha" operator="out"/>
<feColorMatrix type="matrix" values="0 0 0 0 0.0313726 0 0 0 0 0.0313726 0 0 0 0 0.129412 0 0 0 0.15 0"/>
<feBlend mode="normal" in2="BackgroundImageFix" result="effect1_dropShadow_9619_49511"/>
<feBlend mode="normal" in="SourceGraphic" in2="effect1_dropShadow_9619_49511" result="shape"/>
</filter>
<filter id="filter2_i_9619_49511" x="12.3398" y="3.32935" width="78.4297" height="78.4305" filterUnits="userSpaceOnUse" color-interpolation-filters="sRGB">
<feFlood flood-opacity="0" result="BackgroundImageFix"/>
<feBlend mode="normal" in="SourceGraphic" in2="BackgroundImageFix" result="shape"/>
<feColorMatrix in="SourceAlpha" type="matrix" values="0 0 0 0 0 0 0 0 0 0 0 0 0 0 0 0 0 0 127 0" result="hardAlpha"/>
<feOffset/>
<feGaussianBlur stdDeviation="0.621565"/>
<feComposite in2="hardAlpha" operator="arithmetic" k2="-1" k3="1"/>
<feColorMatrix type="matrix" values="0 0 0 0 0.0313726 0 0 0 0 0.0313726 0 0 0 0 0.129412 0 0 0 0.06 0"/>
<feBlend mode="normal" in2="shape" result="effect1_innerShadow_9619_49511"/>
</filter>
<linearGradient id="paint0_linear_9619_49511" x1="44.1905" y1="97.9017" x2="53.1861" y2="50.7451" gradientUnits="userSpaceOnUse">
<stop stop-color="#080821" stop-opacity="0.9"/>
<stop offset="1" stop-color="white" stop-opacity="0"/>
</linearGradient>
<linearGradient id="paint1_linear_9619_49511" x1="36.73" y1="-13.2873" x2="76.688" y2="12.2375" gradientUnits="userSpaceOnUse">
<stop stop-color="#080821" stop-opacity="0.9"/>
<stop offset="1" stop-color="white" stop-opacity="0"/>
</linearGradient>
<linearGradient id="paint2_linear_9619_49511" x1="71.9762" y1="-15.3762" x2="34.1995" y2="4.72296" gradientUnits="userSpaceOnUse">
<stop stop-color="#080821"/>
<stop offset="1" stop-color="white" stop-opacity="0"/>
</linearGradient>
<linearGradient id="paint3_linear_9619_49511" x1="95.5935" y1="-1.63025" x2="84.5343" y2="1.59564" gradientUnits="userSpaceOnUse">
<stop offset="0.581631" stop-color="white"/>
<stop offset="1" stop-color="white" stop-opacity="0"/>
</linearGradient>
<linearGradient id="paint4_linear_9619_49511" x1="84.5935" y1="-3.63086" x2="73.5343" y2="-0.404972" gradientUnits="userSpaceOnUse">
<stop offset="0.581631" stop-color="white"/>
<stop offset="1" stop-color="white" stop-opacity="0"/>
</linearGradient>
<linearGradient id="paint5_linear_9619_49511" x1="177.144" y1="79.4589" x2="166.085" y2="82.6847" gradientUnits="userSpaceOnUse">
<stop offset="0.581631" stop-color="white"/>
<stop offset="1" stop-color="white" stop-opacity="0"/>
</linearGradient>
<linearGradient id="paint6_linear_9619_49511" x1="84.5935" y1="-3.63086" x2="73.5343" y2="-0.404972" gradientUnits="userSpaceOnUse">
<stop offset="0.581631" stop-color="white"/>
<stop offset="1" stop-color="white" stop-opacity="0"/>
</linearGradient>
<clipPath id="clip0_9619_49511">
<rect width="36.9043" height="36.9043" fill="white" transform="translate(31.6719 23.4242)"/>
</clipPath>
<clipPath id="clip1_9619_49511">
<rect width="36.9043" height="31.5224" fill="white" transform="translate(31.6719 25.7307)"/>
</clipPath>
</defs>
</svg>
