<svg width="214" height="142" viewBox="0 0 214 142" fill="none" xmlns="http://www.w3.org/2000/svg">
<g filter="url(#filter0_dd_9620_17880)">
<g filter="url(#filter1_d_9620_17880)">
<rect x="17.9805" y="4.97601" width="177.843" height="106.048" rx="8.36363" fill="white"/>
<rect x="15.8896" y="2.88511" width="182.025" height="110.23" rx="10.4545" stroke="url(#paint0_linear_9620_17880)" stroke-opacity="0.1" stroke-width="4.18182"/>
<rect x="15.8896" y="2.88511" width="182.025" height="110.23" rx="10.4545" stroke="url(#paint1_linear_9620_17880)" stroke-opacity="0.1" stroke-width="4.18182"/>
<rect x="15.8896" y="2.88511" width="182.025" height="110.23" rx="10.4545" stroke="url(#paint2_linear_9620_17880)" stroke-opacity="0.1" stroke-width="4.18182"/>
<rect x="15.8896" y="2.88511" width="182.025" height="110.23" rx="10.4545" stroke="white" stroke-opacity="0.5" stroke-width="4.18182"/>
</g>
<g filter="url(#filter2_i_9620_17880)">
<path d="M18.096 13.3397C18.096 8.78433 21.7888 5.09151 26.3441 5.09151H187.46C192.016 5.09151 195.708 8.78432 195.708 13.3396V102.66C195.708 107.216 192.016 110.908 187.46 110.908H26.3441C21.7888 110.908 18.096 107.216 18.096 102.66V13.3397Z" stroke="white" stroke-opacity="0.1" stroke-width="0.230987"/>
</g>
<rect opacity="0.4" x="16" y="3" width="181.795" height="110" rx="11.7091" stroke="url(#paint3_linear_9620_17880)" stroke-width="0.836363"/>
<rect opacity="0.4" width="181.795" height="110" rx="11.7091" transform="matrix(-1 0 0 1 197.797 3)" stroke="url(#paint4_linear_9620_17880)" stroke-width="0.836363"/>
<rect opacity="0.4" x="197.797" y="113" width="181.795" height="110" rx="11.7091" transform="rotate(180 197.797 113)" stroke="url(#paint5_linear_9620_17880)" stroke-width="0.836363"/>
<rect opacity="0.4" width="181.795" height="110" rx="11.7091" transform="matrix(1 0 0 -1 16 113)" stroke="url(#paint6_linear_9620_17880)" stroke-width="0.836363"/>
</g>
<mask id="mask0_9620_17880" style="mask-type:alpha" maskUnits="userSpaceOnUse" x="29" y="49" width="99" height="49">
<rect x="29.5051" y="49.4372" width="97.4845" height="47.4252" rx="2.96406" fill="#D9D9D9" stroke="#F2F2F2" stroke-width="0.658681"/>
</mask>
<g mask="url(#mask0_9620_17880)">
<line x1="29.8359" y1="58.8234" x2="172.769" y2="58.8234" stroke="#F2F2F2" stroke-width="0.32934"/>
<line x1="29.8359" y1="68.7037" x2="172.769" y2="68.7037" stroke="#F2F2F2" stroke-width="0.32934"/>
<line x1="29.8359" y1="78.5839" x2="172.769" y2="78.5839" stroke="#F2F2F2" stroke-width="0.32934"/>
<line x1="29.8359" y1="88.4641" x2="172.769" y2="88.4641" stroke="#F2F2F2" stroke-width="0.32934"/>
</g>
<rect x="29.5051" y="49.4371" width="97.4845" height="47.4252" rx="2.96406" stroke="#F2F2F2" stroke-width="0.658681"/>
<path d="M152.022 69.5269C152.022 73.7104 148.631 77.1018 144.447 77.1018C140.264 77.1018 136.872 73.7104 136.872 69.5269C136.872 65.3435 140.264 61.9521 144.447 61.9521C148.631 61.9521 152.022 65.3435 152.022 69.5269Z" fill="#47FAC6" stroke="#F2F2F2" stroke-width="0.658681"/>
<path d="M141.812 70.8443L144.447 68.2096L147.082 70.8443" stroke="#080821" stroke-width="1.31736" stroke-linecap="round" stroke-linejoin="round"/>
<path d="M141.377 98.3991L141.43 86.7195L142.181 87.3052L138.653 87.289L138.66 85.8847L143.078 85.905L143.021 98.4067L141.377 98.3991ZM150.485 98.7492C149.526 98.7448 148.716 98.547 148.056 98.1558C147.396 97.7531 146.896 97.2314 146.556 96.5904C146.216 95.9495 146.048 95.2694 146.051 94.5501L147.661 94.5575C147.659 95.0827 147.771 95.5513 147.997 95.9634C148.235 96.3755 148.565 96.7024 148.986 96.9441C149.408 97.1858 149.909 97.308 150.492 97.3107C151.062 97.3133 151.56 97.2014 151.983 96.975C152.418 96.7373 152.756 96.4134 152.998 96.0035C153.24 95.5822 153.362 95.1089 153.364 94.5837C153.366 94.0586 153.249 93.5842 153.011 93.1607C152.785 92.7372 152.455 92.3989 152.022 92.1457C151.601 91.8926 151.099 91.7647 150.517 91.762C150.095 91.7601 149.666 91.8323 149.232 91.9787C148.797 92.1138 148.448 92.312 148.184 92.5733L146.677 92.5664L147.341 85.9246L153.9 85.9548L153.894 87.3591L148.294 87.3333L148.707 86.7701L148.206 91.6144L147.761 91.4582C148.094 91.1286 148.494 90.8679 148.963 90.6759C149.444 90.4841 149.987 90.3895 150.592 90.3923C151.551 90.3967 152.355 90.6002 153.004 91.0028C153.653 91.3939 154.141 91.9043 154.469 92.5337C154.809 93.1518 154.978 93.7977 154.974 94.4713L154.973 94.711C154.97 95.3846 154.796 96.0346 154.451 96.661C154.105 97.2759 153.595 97.7816 152.92 98.1781C152.256 98.5633 151.444 98.7536 150.485 98.7492ZM160.043 98.4849L164.827 86.005L166.128 86.0109L161.345 98.4909L160.043 98.4849ZM159.145 92.6922C158.494 92.6892 157.964 92.5383 157.554 92.2396C157.156 91.9409 156.861 91.5457 156.669 91.0539C156.489 90.5621 156.4 90.0308 156.402 89.4599L156.404 89.0147C156.407 88.3982 156.507 87.8506 156.703 87.372C156.899 86.8819 157.204 86.5008 157.616 86.2287C158.028 85.9452 158.548 85.8049 159.176 85.8077C159.816 85.8107 160.334 85.9558 160.733 86.243C161.143 86.5189 161.443 86.9028 161.635 87.3946C161.827 87.875 161.922 88.4235 161.919 89.04L161.917 89.4853C161.914 90.0561 161.815 90.5866 161.618 91.0766C161.434 91.5667 161.141 91.9592 160.74 92.2543C160.339 92.5493 159.807 92.6952 159.145 92.6922ZM159.15 91.5619C159.675 91.5643 160.064 91.3777 160.317 91.0021C160.582 90.6152 160.715 90.0392 160.719 89.2743C160.723 88.4636 160.594 87.8751 160.333 87.5085C160.072 87.1305 159.685 86.9404 159.171 86.938C158.657 86.9357 158.268 87.1223 158.004 87.4978C157.74 87.862 157.606 88.4436 157.602 89.2428C157.599 90.0077 157.722 90.5849 157.971 90.9742C158.232 91.3636 158.625 91.5595 159.15 91.5619ZM166.927 98.6878C166.276 98.6848 165.746 98.5339 165.336 98.2352C164.938 97.9365 164.643 97.5412 164.451 97.0494C164.271 96.5577 164.182 96.0263 164.184 95.4555L164.186 95.0102C164.189 94.3937 164.289 93.8461 164.485 93.3675C164.681 92.8775 164.986 92.4964 165.398 92.2243C165.81 91.9407 166.33 91.8004 166.958 91.8033C167.598 91.8062 168.117 91.9513 168.515 92.2386C168.925 92.5145 169.225 92.8984 169.417 93.3902C169.609 93.8706 169.704 94.419 169.701 95.0356L169.699 95.4808C169.696 96.0517 169.597 96.5821 169.4 97.0722C169.216 97.5623 168.923 97.9548 168.522 98.2498C168.121 98.5448 167.589 98.6908 166.927 98.6878ZM166.932 97.5575C167.457 97.5599 167.846 97.3733 168.099 96.9977C168.364 96.6107 168.498 96.0348 168.501 95.2698C168.505 94.4592 168.376 93.8706 168.115 93.5041C167.854 93.1261 167.467 92.9359 166.953 92.9336C166.439 92.9312 166.05 93.1178 165.786 93.4934C165.522 93.8575 165.388 94.4392 165.384 95.2384C165.381 96.0033 165.504 96.5804 165.753 96.9698C166.014 97.3592 166.407 97.5551 166.932 97.5575Z" fill="#080821" fill-opacity="0.6"/>
<path d="M63.8885 32.1087C63.019 32.1047 62.2645 31.9475 61.6248 31.6372C60.9938 31.3269 60.4687 30.9249 60.0494 30.4312C59.6389 29.9287 59.3296 29.3915 59.1214 28.8197C58.9221 28.2391 58.8236 27.681 58.8261 27.1453L58.8274 26.8554C58.8301 26.267 58.9381 25.6835 59.1515 25.1048C59.365 24.5174 59.6836 23.9875 60.1073 23.5152C60.5398 23.0429 61.0728 22.6677 61.7064 22.3896C62.3401 22.1027 63.0829 21.9612 63.9347 21.9651C64.7778 21.969 65.5149 22.1173 66.1459 22.41C66.777 22.6939 67.3022 23.074 67.7216 23.5502C68.1497 24.0264 68.4679 24.5592 68.676 25.1486C68.8841 25.7292 68.9868 26.3137 68.9841 26.9021L68.9828 27.1919C68.9804 27.7277 68.8724 28.2848 68.659 28.8635C68.4544 29.4334 68.1402 29.9677 67.7164 30.4664C67.3014 30.9563 66.7726 31.3535 66.1301 31.6579C65.4964 31.9624 64.7492 32.1126 63.8885 32.1087ZM63.8964 30.3698C64.3882 30.372 64.8278 30.2862 65.215 30.1124C65.611 29.9385 65.9458 29.6986 66.2195 29.3924C66.5019 29.0776 66.7143 28.7228 66.8567 28.3283C67.0078 27.925 67.0844 27.4994 67.0864 27.0515C67.0886 26.5685 67.016 26.1246 66.8685 25.7199C66.7299 25.3153 66.5207 24.963 66.241 24.6631C65.9701 24.3633 65.6375 24.129 65.243 23.9604C64.8486 23.7917 64.4098 23.7062 63.9268 23.704C63.435 23.7017 62.9911 23.7831 62.5952 23.9482C62.1992 24.1132 61.86 24.3444 61.5776 24.6417C61.304 24.9391 61.0916 25.2894 60.9405 25.6927C60.7981 26.096 60.7258 26.5392 60.7236 27.0222C60.7216 27.4701 60.7899 27.8964 60.9286 28.301C61.0761 28.6969 61.2852 29.0536 61.5561 29.371C61.8357 29.6797 62.1727 29.9227 62.5671 30.1002C62.9615 30.2777 63.4046 30.3675 63.8964 30.3698ZM70.6124 34.524L70.657 24.7361L72.1061 24.7428L72.092 27.8254L71.8681 27.8112C71.9066 27.0824 72.0587 26.4727 72.3244 25.9821C72.5989 25.4916 72.9606 25.1288 73.4096 24.8937C73.8586 24.6498 74.3598 24.5292 74.913 24.5317C75.4224 24.5341 75.8787 24.6284 76.2818 24.8147C76.6938 25.001 77.0439 25.2617 77.3322 25.5967C77.6292 25.9318 77.8558 26.3237 78.0118 26.7723C78.1679 27.2122 78.2448 27.6868 78.2425 28.1962L78.2412 28.4728C78.2388 28.991 78.1576 29.4736 77.9975 29.9208C77.8462 30.3592 77.6204 30.749 77.3203 31.0901C77.0289 31.4225 76.6765 31.6844 76.2628 31.8757C75.8492 32.0582 75.3877 32.1483 74.8783 32.146C74.3426 32.1435 73.8513 32.0315 73.4044 31.8099C72.9663 31.5795 72.6122 31.231 72.3421 30.7643C72.072 30.2888 71.9211 29.6777 71.8894 28.931L72.465 29.8163L72.4435 34.5324L70.6124 34.524ZM74.4243 30.6026C74.8195 30.6044 75.1624 30.5094 75.4531 30.3175C75.7526 30.1257 75.9866 29.8589 76.155 29.5171C76.3235 29.1666 76.4087 28.7718 76.4107 28.3327C76.4128 27.876 76.3311 27.4804 76.1658 27.1459C76.0005 26.8114 75.7689 26.5512 75.4712 26.3654C75.1822 26.1709 74.8401 26.0727 74.4449 26.0709C74.0849 26.0693 73.7508 26.1468 73.4427 26.3034C73.1434 26.4601 72.8964 26.6917 72.7018 26.9982C72.5159 27.3048 72.4221 27.6732 72.4201 28.1035L72.4177 28.6305C72.4158 29.0432 72.5108 29.395 72.7027 29.6857C72.8946 29.9764 73.1439 30.2015 73.4505 30.361C73.7572 30.5205 74.0818 30.601 74.4243 30.6026ZM82.944 32.0381C82.2854 32.0351 81.7412 31.9492 81.3117 31.7803C80.8909 31.6028 80.5761 31.3115 80.3671 30.9065C80.1582 30.4928 80.0554 29.939 80.0585 29.2452L80.1013 22.7639L81.8138 22.7718L81.7706 29.3717C81.769 29.723 81.8599 29.9956 82.0435 30.1897C82.2358 30.375 82.5077 30.4685 82.859 30.4701L83.9787 30.4752L83.9716 32.0429L82.944 32.0381ZM78.9399 26.1179L78.946 24.7742L84.0046 24.7975L83.9985 26.1411L78.9399 26.1179ZM85.8514 31.9593L85.884 24.8061L87.7151 24.8145L87.6825 31.9677L85.8514 31.9593ZM84.8766 26.1715L84.8828 24.8015L87.7151 24.8145L87.7089 26.1845L84.8766 26.1715ZM86.5597 23.9529C86.1997 23.9512 85.9322 23.8578 85.7574 23.6726C85.5914 23.4786 85.5091 23.2367 85.5104 22.9469C85.5117 22.6571 85.5963 22.4203 85.764 22.2367C85.9404 22.053 86.2087 21.962 86.5688 21.9637C86.9289 21.9654 87.1919 22.0588 87.358 22.244C87.524 22.4292 87.6063 22.6667 87.605 22.9565C87.6037 23.2463 87.5192 23.4874 87.3514 23.6799C87.1837 23.8635 86.9198 23.9546 86.5597 23.9529ZM89.7928 31.9774L89.8254 24.8242L91.2745 24.8309L91.2605 27.9003L91.1288 27.8997C91.1321 27.1795 91.227 26.5784 91.4137 26.0962C91.6003 25.6052 91.8743 25.2376 92.2355 24.9934C92.6055 24.7404 93.0627 24.6151 93.6072 24.6176L93.6863 24.618C94.2396 24.6205 94.6957 24.75 95.0546 25.0063C95.4223 25.2539 95.6929 25.624 95.8663 26.1166C96.0485 26.6005 96.138 27.2025 96.1347 27.9227L95.6736 27.9206C95.6769 27.2004 95.7719 26.5992 95.9585 26.1171C96.154 25.6261 96.4323 25.2585 96.7935 25.0143C97.1635 24.7613 97.6208 24.6361 98.1653 24.6386L98.2443 24.6389C98.7976 24.6415 99.2581 24.7709 99.6258 25.0273C99.9935 25.2749 100.268 25.645 100.451 26.1377C100.642 26.6216 100.736 27.2236 100.732 27.9438L100.714 32.0276L98.8825 32.0192L98.9019 27.7641C98.904 27.3162 98.7914 26.96 98.5643 26.6955C98.3372 26.4222 98.0128 26.2846 97.5913 26.2826C97.1697 26.2807 96.831 26.4197 96.575 26.6995C96.3191 26.9706 96.1901 27.3389 96.1879 27.8044L96.1688 32.0067L94.3377 31.9983L94.3571 27.7432C94.3591 27.2953 94.2466 26.9391 94.0194 26.6746C93.7923 26.4013 93.468 26.2637 93.0464 26.2618C92.6249 26.2598 92.2861 26.3988 92.0302 26.6787C91.7742 26.9497 91.6452 27.318 91.6431 27.7835L91.6239 31.9858L89.7928 31.9774ZM103.013 32.0381L103.046 24.8849L104.877 24.8933L104.844 32.0465L103.013 32.0381ZM102.038 26.2504L102.044 24.8803L104.877 24.8933L104.87 26.2634L102.038 26.2504ZM103.721 24.0317C103.361 24.0301 103.094 23.9366 102.919 23.7514C102.753 23.5574 102.671 23.3155 102.672 23.0257C102.673 22.7359 102.758 22.4992 102.926 22.3155C103.102 22.1319 103.37 22.0409 103.73 22.0426C104.09 22.0442 104.353 22.1376 104.519 22.3228C104.686 22.508 104.768 22.7455 104.767 23.0353C104.765 23.3252 104.681 23.5663 104.513 23.7587C104.345 23.9424 104.081 24.0334 103.721 24.0317ZM106.493 32.0541L106.5 30.605L110.05 26.3794L110.049 26.5902L109.774 26.2201L109.997 26.3265L106.506 26.3104L106.513 24.9009L111.967 24.9259L111.96 26.375L108.41 30.6006L108.411 30.403L108.699 30.7732L108.476 30.6536L112.085 30.6702L112.079 32.0798L106.493 32.0541ZM116.625 32.351C116.011 32.3482 115.471 32.2403 115.006 32.0274C114.551 31.8145 114.17 31.5317 113.864 31.179C113.567 30.8176 113.341 30.4169 113.185 29.9771C113.037 29.5373 112.965 29.089 112.967 28.6323L112.968 28.382C112.97 27.9078 113.047 27.4515 113.198 27.013C113.358 26.5659 113.588 26.1717 113.889 25.8306C114.198 25.4807 114.576 25.2058 115.025 25.0058C115.474 24.7971 115.993 24.6941 116.581 24.6968C117.354 24.7004 117.999 24.8746 118.515 25.2195C119.041 25.5556 119.434 26.001 119.695 26.5555C119.956 27.1012 120.085 27.6902 120.082 28.3225L120.079 28.9812L113.743 28.9521L113.748 27.8323L118.938 27.8562L118.369 28.4069C118.371 27.9502 118.307 27.5591 118.177 27.2335C118.047 26.908 117.846 26.6567 117.574 26.4798C117.312 26.303 116.978 26.2136 116.574 26.2118C116.17 26.2099 115.827 26.3006 115.545 26.4837C115.264 26.6668 115.047 26.9337 114.896 27.2843C114.754 27.6262 114.682 28.0386 114.68 28.5217C114.678 28.9695 114.746 29.3695 114.885 29.7214C115.024 30.0646 115.238 30.3378 115.527 30.5411C115.816 30.7357 116.184 30.834 116.632 30.836C117.08 30.8381 117.445 30.7519 117.727 30.5776C118.009 30.3944 118.19 30.1713 118.27 29.9082L119.956 29.916C119.849 30.4073 119.645 30.8367 119.344 31.2042C119.044 31.5717 118.661 31.8553 118.194 32.0552C117.737 32.2551 117.214 32.3537 116.625 32.351Z" fill="#080821" fill-opacity="0.8"/>
<rect x="29.464" y="16.312" width="20.5014" height="20.5015" rx="2.59356" fill="#080821" stroke="#F2F2F2" stroke-width="0.576346"/>
<path d="M44.6147 30.247L42.1256 27.7579C42.5136 27.121 42.7183 26.3893 42.7171 25.6435C42.7171 23.3928 40.7667 21.4431 38.516 21.4431C37.9809 21.443 37.451 21.5484 36.9566 21.7531C36.4622 21.9578 36.013 22.258 35.6346 22.6363C35.2563 23.0147 34.9561 23.4639 34.7514 23.9583C34.5467 24.4527 34.4413 24.9826 34.4414 25.5177C34.4414 27.7678 36.3918 29.7181 38.6418 29.7181C39.363 29.7188 40.0714 29.5269 40.6936 29.1622L43.1959 31.6658C43.3136 31.7832 43.473 31.8491 43.6392 31.8491C43.8054 31.8491 43.9648 31.7832 44.0825 31.6658L44.7037 31.0447C44.948 30.8003 44.8591 30.4914 44.6147 30.247ZM35.6955 25.5177C35.6954 25.1473 35.7683 24.7804 35.91 24.4382C36.0517 24.0959 36.2595 23.7849 36.5214 23.5229C36.7833 23.2609 37.0943 23.0531 37.4365 22.9113C37.7787 22.7696 38.1456 22.6966 38.516 22.6966C40.0744 22.6966 41.4629 24.0844 41.4629 25.6435C41.4628 26.3917 41.1655 27.1091 40.6365 27.6382C40.1074 28.1672 39.39 28.4645 38.6418 28.4647C37.0834 28.464 35.6955 27.0755 35.6955 25.5177Z" fill="white"/>
<rect x="36.4219" y="73.4789" width="8.56283" height="23.7126" fill="#DFDFE2"/>
<rect x="51.5703" y="78.7484" width="8.56283" height="18.4431" fill="#DFDFE2"/>
<rect x="66.7227" y="71.5029" width="8.56283" height="25.6886" fill="#DFDFE2"/>
<rect x="81.8711" y="73.479" width="8.56283" height="23.7126" fill="#DFDFE2"/>
<rect x="97.0195" y="61.6227" width="8.56283" height="35.5689" fill="#DFDFE2"/>
<rect x="112.172" y="53.0598" width="8.56283" height="44.1317" fill="#DFDFE2"/>
<path d="M139.379 54.9046C138.966 54.9027 138.602 54.833 138.287 54.6954C137.976 54.5534 137.713 54.3656 137.499 54.1319C137.289 53.8938 137.13 53.6274 137.022 53.3327C136.918 53.0336 136.866 52.7238 136.868 52.4032L136.869 52.2583C136.87 51.9553 136.924 51.6592 137.031 51.3698C137.137 51.0805 137.292 50.8199 137.495 50.5881C137.703 50.3563 137.956 50.1731 138.255 50.0383C138.559 49.8992 138.906 49.8305 139.297 49.8323C139.719 49.8343 140.091 49.915 140.416 50.0746C140.74 50.2298 141 50.4483 141.196 50.7303C141.393 51.0078 141.508 51.3311 141.541 51.7001L140.599 51.6958C140.569 51.4893 140.493 51.3133 140.371 51.1678C140.249 51.0179 140.094 50.903 139.905 50.8231C139.721 50.7433 139.517 50.7028 139.293 50.7018C139.069 50.7007 138.865 50.7393 138.68 50.8175C138.5 50.8957 138.345 51.007 138.217 51.1513C138.089 51.2956 137.99 51.4686 137.919 51.6703C137.852 51.872 137.818 52.0958 137.817 52.3417C137.815 52.6096 137.852 52.8491 137.925 53.0602C137.999 53.2713 138.104 53.4518 138.239 53.6017C138.375 53.7473 138.539 53.86 138.732 53.9399C138.924 54.0155 139.142 54.0538 139.383 54.0549C139.704 54.0564 139.985 53.9918 140.227 53.8612C140.469 53.7262 140.646 53.5513 140.756 53.3367L140.588 54.0934L140.594 52.8551L141.457 52.859L141.452 53.9261C141.244 54.2369 140.962 54.4793 140.606 54.6533C140.249 54.823 139.84 54.9067 139.379 54.9046ZM139.236 53.0333L139.239 52.3351L141.861 52.3471L141.858 53.0453L139.236 53.0333ZM143.609 54.7989L143.631 49.9576L144.566 49.9619L144.544 54.8032L143.609 54.7989ZM146.546 54.8124L145.081 52.711L146.128 52.7158L147.64 54.8174L146.546 54.8124ZM144.275 53.1947L144.278 52.4373L145.503 52.4429C145.675 52.4437 145.822 52.4092 145.945 52.3395C146.073 52.2699 146.172 52.1715 146.243 52.0445C146.314 51.9175 146.349 51.7727 146.35 51.6102C146.351 51.4434 146.317 51.2961 146.247 51.1684C146.177 51.0408 146.079 50.9415 145.952 50.8707C145.829 50.7999 145.682 50.7641 145.511 50.7633L144.286 50.7576L144.289 49.9606L145.416 49.9658C145.802 49.9676 146.136 50.0262 146.416 50.1417C146.701 50.2572 146.92 50.4316 147.072 50.665C147.225 50.8985 147.301 51.1909 147.299 51.5421L147.299 51.6475C147.297 52.0032 147.217 52.2949 147.057 52.5225C146.903 52.7501 146.685 52.9204 146.403 53.0333C146.121 53.1461 145.787 53.2017 145.401 53.1999L144.275 53.1947ZM151.532 54.9604C151.097 54.9584 150.72 54.8798 150.4 54.7247C150.084 54.5695 149.822 54.3685 149.612 54.1217C149.407 53.8704 149.252 53.6018 149.148 53.3159C149.049 53.0256 148.999 52.7466 149.001 52.4787L149.001 52.3338C149.003 52.0396 149.057 51.7478 149.163 51.4585C149.27 51.1648 149.429 50.8998 149.641 50.6637C149.857 50.4275 150.124 50.2399 150.441 50.1009C150.758 49.9574 151.129 49.8867 151.555 49.8886C151.976 49.8906 152.345 49.9647 152.66 50.1111C152.976 50.253 153.239 50.4431 153.448 50.6812C153.662 50.9193 153.821 51.1857 153.925 51.4804C154.03 51.7707 154.081 52.0629 154.08 52.3571L154.079 52.502C154.078 52.7699 154.024 53.0485 153.917 53.3378C153.815 53.6228 153.658 53.8899 153.446 54.1393C153.238 54.3842 152.974 54.5828 152.653 54.735C152.336 54.8873 151.962 54.9624 151.532 54.9604ZM151.536 54.091C151.782 54.0921 152.001 54.0492 152.195 53.9623C152.393 53.8753 152.56 53.7554 152.697 53.6023C152.838 53.4449 152.945 53.2675 153.016 53.0702C153.091 52.8686 153.13 52.6558 153.131 52.4318C153.132 52.1903 153.095 51.9684 153.022 51.766C152.952 51.5637 152.848 51.3876 152.708 51.2377C152.573 51.0877 152.406 50.9706 152.209 50.8863C152.012 50.8019 151.792 50.7592 151.551 50.7581C151.305 50.757 151.083 50.7976 150.885 50.8802C150.687 50.9627 150.517 51.0783 150.376 51.2269C150.239 51.3756 150.133 51.5508 150.058 51.7524C149.987 51.9541 149.95 52.1757 149.949 52.4172C149.948 52.6412 149.982 52.8543 150.052 53.0566C150.126 53.2545 150.23 53.4329 150.366 53.5916C150.505 53.7459 150.674 53.8674 150.871 53.9562C151.068 54.0449 151.29 54.0898 151.536 54.091ZM156.667 54.8589L155.464 50.0449L156.432 50.0494L157.407 54.2365L157.151 54.0838L157.81 54.0869L157.519 54.237L158.322 50.2425L159.125 50.2462L158.129 54.8656L156.667 54.8589ZM159.539 54.8721L158.499 50.2433L159.336 50.2471L160.22 54.2494L159.937 54.0966L160.583 54.0996L160.332 54.25L161.227 50.0714L162.143 50.0756L161.027 54.8789L159.539 54.8721ZM164.889 54.8966L164.907 50.7799L165.843 50.7842L165.824 54.9009L164.889 54.8966ZM163.517 50.9053L163.521 50.0819L167.236 50.099L167.232 50.9223L163.517 50.9053ZM172.103 54.9298L172.125 50.1215L173.061 50.1258L173.039 54.9341L172.103 54.9298ZM168.948 54.9153L168.97 50.107L169.906 50.1113L169.884 54.9196L168.948 54.9153ZM169.722 52.923L169.725 52.0997L172.288 52.1114L172.284 52.9348L169.722 52.923Z" fill="#080821" fill-opacity="0.3"/>
<defs>
<filter id="filter0_dd_9620_17880" x="0.62326" y="0.794189" width="212.554" height="140.759" filterUnits="userSpaceOnUse" color-interpolation-filters="sRGB">
<feFlood flood-opacity="0" result="BackgroundImageFix"/>
<feColorMatrix in="SourceAlpha" type="matrix" values="0 0 0 0 0 0 0 0 0 0 0 0 0 0 0 0 0 0 127 0" result="hardAlpha"/>
<feMorphology radius="3.2934" operator="erode" in="SourceAlpha" result="effect1_dropShadow_9620_17880"/>
<feOffset dy="13.1736"/>
<feGaussianBlur stdDeviation="8.23351"/>
<feComposite in2="hardAlpha" operator="out"/>
<feColorMatrix type="matrix" values="0 0 0 0 0.0313726 0 0 0 0 0.0313726 0 0 0 0 0.129412 0 0 0 0.1 0"/>
<feBlend mode="normal" in2="BackgroundImageFix" result="effect1_dropShadow_9620_17880"/>
<feColorMatrix in="SourceAlpha" type="matrix" values="0 0 0 0 0 0 0 0 0 0 0 0 0 0 0 0 0 0 127 0" result="hardAlpha"/>
<feMorphology radius="3.2934" operator="erode" in="SourceAlpha" result="effect2_dropShadow_9620_17880"/>
<feOffset dy="6.58681"/>
<feGaussianBlur stdDeviation="3.2934"/>
<feComposite in2="hardAlpha" operator="out"/>
<feColorMatrix type="matrix" values="0 0 0 0 0.0313726 0 0 0 0 0.0313726 0 0 0 0 0.129412 0 0 0 0.04 0"/>
<feBlend mode="normal" in2="effect1_dropShadow_9620_17880" result="effect2_dropShadow_9620_17880"/>
<feBlend mode="normal" in="SourceGraphic" in2="effect2_dropShadow_9620_17880" result="shape"/>
</filter>
<filter id="filter1_d_9620_17880" x="13.1039" y="0.678696" width="187.593" height="115.797" filterUnits="userSpaceOnUse" color-interpolation-filters="sRGB">
<feFlood flood-opacity="0" result="BackgroundImageFix"/>
<feColorMatrix in="SourceAlpha" type="matrix" values="0 0 0 0 0 0 0 0 0 0 0 0 0 0 0 0 0 0 127 0" result="hardAlpha"/>
<feMorphology radius="0.230987" operator="erode" in="SourceAlpha" result="effect1_dropShadow_9620_17880"/>
<feOffset dy="0.577468"/>
<feGaussianBlur stdDeviation="0.461975"/>
<feComposite in2="hardAlpha" operator="out"/>
<feColorMatrix type="matrix" values="0 0 0 0 0.0313726 0 0 0 0 0.0313726 0 0 0 0 0.129412 0 0 0 0.15 0"/>
<feBlend mode="normal" in2="BackgroundImageFix" result="effect1_dropShadow_9620_17880"/>
<feBlend mode="normal" in="SourceGraphic" in2="effect1_dropShadow_9620_17880" result="shape"/>
</filter>
<filter id="filter2_i_9620_17880" x="17.9805" y="4.97601" width="177.844" height="106.048" filterUnits="userSpaceOnUse" color-interpolation-filters="sRGB">
<feFlood flood-opacity="0" result="BackgroundImageFix"/>
<feBlend mode="normal" in="SourceGraphic" in2="BackgroundImageFix" result="shape"/>
<feColorMatrix in="SourceAlpha" type="matrix" values="0 0 0 0 0 0 0 0 0 0 0 0 0 0 0 0 0 0 127 0" result="hardAlpha"/>
<feOffset/>
<feGaussianBlur stdDeviation="0.92395"/>
<feComposite in2="hardAlpha" operator="arithmetic" k2="-1" k3="1"/>
<feColorMatrix type="matrix" values="0 0 0 0 0.0313726 0 0 0 0 0.0313726 0 0 0 0 0.129412 0 0 0 0.06 0"/>
<feBlend mode="normal" in2="shape" result="effect1_innerShadow_9620_17880"/>
</filter>
<linearGradient id="paint0_linear_9620_17880" x1="90.2022" y1="132.85" x2="97.6231" y2="67.6119" gradientUnits="userSpaceOnUse">
<stop stop-color="#080821" stop-opacity="0.9"/>
<stop offset="1" stop-color="white" stop-opacity="0"/>
</linearGradient>
<linearGradient id="paint1_linear_9620_17880" x1="73.2854" y1="-17.4918" x2="132.69" y2="46.1459" gradientUnits="userSpaceOnUse">
<stop stop-color="#080821" stop-opacity="0.9"/>
<stop offset="1" stop-color="white" stop-opacity="0"/>
</linearGradient>
<linearGradient id="paint2_linear_9620_17880" x1="153.207" y1="-20.3163" x2="92.0146" y2="34.2822" gradientUnits="userSpaceOnUse">
<stop stop-color="#080821"/>
<stop offset="1" stop-color="white" stop-opacity="0"/>
</linearGradient>
<linearGradient id="paint3_linear_9620_17880" x1="204.62" y1="-1.92537" x2="182.864" y2="8.50553" gradientUnits="userSpaceOnUse">
<stop offset="0.581631" stop-color="white"/>
<stop offset="1" stop-color="white" stop-opacity="0"/>
</linearGradient>
<linearGradient id="paint4_linear_9620_17880" x1="188.62" y1="-4.92537" x2="166.864" y2="5.50553" gradientUnits="userSpaceOnUse">
<stop offset="0.581631" stop-color="white"/>
<stop offset="1" stop-color="white" stop-opacity="0"/>
</linearGradient>
<linearGradient id="paint5_linear_9620_17880" x1="386.416" y1="108.075" x2="364.661" y2="118.506" gradientUnits="userSpaceOnUse">
<stop offset="0.581631" stop-color="white"/>
<stop offset="1" stop-color="white" stop-opacity="0"/>
</linearGradient>
<linearGradient id="paint6_linear_9620_17880" x1="188.62" y1="-4.92537" x2="166.864" y2="5.50553" gradientUnits="userSpaceOnUse">
<stop offset="0.581631" stop-color="white"/>
<stop offset="1" stop-color="white" stop-opacity="0"/>
</linearGradient>
</defs>
</svg>
